<svg xmlns="http://www.w3.org/2000/svg" xmlns:xlink="http://www.w3.org/1999/xlink" width="1088" height="6.5" viewBox="0 0 1088 6.5">
  <defs>
    <style>
      .cls-1 {
        fill: #f0eae7;
      }

      .cls-2 {
        clip-path: url(#clip-path);
      }
    </style>
    <clipPath id="clip-path">
      <path id="Path_890" data-name="Path 890" class="cls-1" d="M0,0H1088V-6.5H0Z" transform="translate(0 6.501)"/>
    </clipPath>
  </defs>
  <g id="Group_422" data-name="Group 422" transform="translate(0 6.501)">
    <g id="Group_388" data-name="Group 388" class="cls-2" transform="translate(0 -6.501)">
      <g id="Group_387" data-name="Group 387" transform="translate(0 0)">
        <path id="Path_889" data-name="Path 889" class="cls-1" d="M-58.375,0c8.284-.1,22.5.064,20.137.439l1.677.228C-43.608.631-73.034.622-58.375,0m-1.989-1.668c-4.134.049-12.412.152-9.418.335l9.859.035c1.242-.139,6.725-.242-.441-.37M-56.188-5.2c3.016.182-2.575.187-3.805.331,5.7.084,11.085-.109,10.843-.292-2.779,0-7.037-.039-9.945-.128ZM87.089-1.353c32.205,1.166,60.992-.543,98.337.243,8.623.172,26.862.2,27.754-.223.463-.79-25.61-.335-41.285-.548,17.363-.722,46.322.079,69.819-.183L225.6-2.646c18.927-.583,43.972.45,65.008.47l-6.6.335c12.638.03,27.4.657,30.872.05-8.5-.079-11.51-.262-19.794-.158-1.682-.233,5.263-.286,6.489-.425,11.186-.015,26.4-.173,35.248.183,9.391-.336,39.156-.05,29.76-.874,33.689.048,77.42.315,114.69-.149,3.338.46,15.659.213,20.137.435-3.822.331,8.94.454,10.724.776,48.129-.762,101.933-.272,151.61-.894,14.664-.624,24.615-.495,38.5-.608-19-.673-50.332-1.093-79.979-1.285-22.836.815,26.061.707,23.588.988,1.688.227-5.37.193-10.854.291-12.734-.123-25.716-.429-26.282-.894l-7.826.474c-26.642-.009-55.154-.434-87.5-.533,9.29-.43,13.44-.479,27.765-.223,23.3-1.6-23.287.45-34.345-.6,1.785.321-13.654.3-22.045.307l7.386.315L503-4.963c22.815.346-1.682.934-2.8,1.166-30.658.133-32.436-1.349-67.244-1.166-1.006.326,4.59.321,2.118.6-9.628.153-7.838.474-23.384.355-15.976-.489-28.76.549-47.44.153-7.822-.686,20.476-.444,17.137-.9l-8.724-.266c-9.735.059-23.046-.524-30.889-.05l-.322-.282c-13.649.3-36.265.144-44.092.618-43.967-.454-92.079.306-138.283.321l-8.951-.454c-26.851-.2-20.368.538-32.683.786-2.914-.089-1.785-.322-3.344-.46-13.767.2,4.59.321-.785.514-13.988.014-31.9.271-40.86-.178l-4.473.934c11.864.538,21.244,1.363,19.11,1.921M137.76.02c26.175.8,60.965-.544,88.6.3,11.2-.015,11.988-.524,6.273-.613-8.381.01-19.793-.158-29.308.089-9.853-.034-24.271-.39-20.573-.811C153.21-1.117,168.53-.021,137.76.02M121.449-1.907l-8.063.286c13.987-.014,15.986.49,22.368-.029-15.1.252-9.262-.726-24.6-.663ZM236-.991c3.682.736,28.958.8,37.581.973-5.488.1-3.026-.182-4.473-.227C268.441-.8,245.745-1.05,236-.991M192.733-3.208c7.273.223,13.977-.02,19.46-.118-8.387.01-13.977.019-19.46.118m56.038,1.18c4.461.227,11.407.168,16.9.069l-5.827-.178c-2.79,0-12.977-.306-11.074.109M321.7-.778l3.575.642L335.01-.19c-16.9-.075,12.085-.436-2.128-.6Zm32.882.559c5.6,0,8.741.267,11.412.173l3.929-.237c-7.16-.134-11.3-.079-15.341.064M336.028-1.68c-6.924.055,7.6.5,10.187.312-4.365-.133-3.344-.46-10.187-.312m68.187-3.894c-14.1-.074-19.357.213-31.78.366,12.423-.153,25.4.153,31.78-.366M-160.08.457c-5.812-.178-12.644-.03-16.671.113l3.037.183Zm84.362.26C-69.45.1-80.3.4-92.05-.049c-15.546-.119-31.775.365-47.225.341l-9.4.336c18.465.207,50.913.395,72.959.089m11.776-3.031c-11.514-.263-26.41.172-34.8.182,14.1.079,32.335.1,42.177.133,1.242-.143-4.467-.227-7.381-.315M-309.553.792c19.573-.024,46.753.45,68.249-.32C-251.27.343-251.49.16-267.032.041c11.644-.8,23.944.109,37.931.089-11.424-.173,3.57-.513,13.315-.572,18.455.207,47.774.118,72.953.088,10.844-.3,46.425.168,41.28-.612,15.342-.064,17.46.533,28.867.706,33.91-.928,60.836,1.685,97.332.569C22.4.773,40.516.7,47.573.743c15.434.025,51.907.069,43.865-.8C80.924-.65,59.669.309,43.558-.274,15.819-1.213,72.533-.635,73-1.426c-4.032.144-6.263-.549-18.568-.3,26.185-.36-10.837-.869,2.586-1.348C27.039-3.55,29.828-3.55,14.626-4.553-3.388-4.39,1.639-3.7-3.517-3.322c-19.127.395-34.2-.509-50.794-.3,12.541-1.225-27.739-.938-47.312-.914-25.281-.059-8.52,1.078-35.259.974-13.3-.583,27.088-.776,9.537-1.4l-12.3.247c-7.848.475-14.116,1.087-23.524,1.424-5.591.009-13.988.019-14.2-.169,10.977-.2,7.618-.657-3.919-.924-5.364.193-6.7.243-9.278.431,22.577,1.318-23.728.079-39.608.844-46.338,1.082-24.265-1.546-69.808-.978,13.966,1.141-30.109.6-44.994,1.032-12.638-.029-17.23-.345-26.062-.706-3.472.123-13.229.188-14.713.411C-378.7-1.826-349.4-.383-311.446.881a17.588,17.588,0,0,0,1.893-.089" transform="translate(385.758 5.586)"/>
      </g>
    </g>
  </g>
</svg>
