<svg xmlns="http://www.w3.org/2000/svg" xmlns:xlink="http://www.w3.org/1999/xlink" width="3.025" height="200" viewBox="0 0 3.025 200">
  <defs>
    <style>
      .cls-1 {
        fill: none;
      }

      .cls-2 {
        clip-path: url(#clip-path);
      }

      .cls-3 {
        fill: #dc5636;
      }
    </style>
    <clipPath id="clip-path">
      <path id="Path_892" data-name="Path 892" class="cls-1" d="M0-20H3.025V-220H0Z" transform="translate(0 220)"/>
    </clipPath>
  </defs>
  <g id="Group_392" data-name="Group 392" transform="translate(0 220)">
    <g id="Group_391" data-name="Group 391" class="cls-2" transform="translate(0 -220)">
      <g id="Group_390" data-name="Group 390" transform="translate(0 0)">
        <path id="Path_891" data-name="Path 891" class="cls-3" d="M0-4.49l-.012.828c-.008-2.68.029-5.5.072-8.276C-.3-5.9-.615,1.241.148,5.913c-.406.507-.595,6.371-.5,6.491q.112,1.826.185,3.7-.043-1.287-.1-2.559.057,1.271.1,2.559c.315,7.882.178,16.444.021,25.3C-.22,46.316-.308,59.664-.425,64.7c-.015.731-.029,1.456-.04,2.194l.072-2.444c.108,3.072.214,5.855.284,8.55a16.689,16.689,0,0,0,.194-1.685L.047,72.69c.168,1.253.16,4.141.231,5.5C.19,77.9.173,78.966.159,79.911l.059-.374c-.037,3.582.035,7.74.024,10.942a6.859,6.859,0,0,1-.063.983l.068,3.07c-.118-.236-.1,2.545-.178,1.081.14,2.3.054,4.629.2,6.819.017,7.829.107,16.157.305,24.251l.043-.2c.079,2.834.312,5.33.234,8.775.158,2.458.241,5.956.487,6.935.034,2.838.158,3.97.222,6.753.121-.717.147,2.7.241,1.335.171-1.846.026-1.948.164-3.515l-.042.047c.184-7.313.288-14.635.345-22.046-.1-4.945-.019-10.31-.05-15.452-.044-5.536-.123-11.525-.225-16.275a28.623,28.623,0,0,1,.125-2.916C2.062,85.758,2.1,80.2,2.036,75.274c0,.093,0,.183,0,.242-.02-2.618.105-4.578.084-7.134a2.942,2.942,0,0,1-.055-.576c.162-.444-.337-15.046-.244-15.948-.007-.265-.014-.541-.019-.821.073-5.4.388-10.975.36-15.6-.076-1.005-.143-2.137-.229-2.984.069-.819-.065-.976-.046-1.964.324-2.505.188-3.973.074-2.679-.044-2.062-.015-4.13-.027-5.961-.024-.85-.048-1.694-.076-2.551a5.817,5.817,0,0,1,.1-1.5c-.045-1.861.034-1.313.068-3.265.113-.472-.181-4.9-.147-5.447L1.89,9.4c.019-2.256.238-3.756.248-5.963.083-6.129,0-12.825.038-18.5-.118-.056.027,1.253-.131,1.318.021-3.349.168-6.726.188-10.106.032-.609.092-1.355.13-1.633.044-1.08-.057-.638-.042-1.428l.107-.107c-.087-1.155.12-1.689.075-2.777a3.369,3.369,0,0,1-.045-.841c.113-.02-.008-1.191.1-1.135l-.009-.012c0-.233-.005-.4.014-.684-.04-.442-.352-4.592-.4-5.041l.019-.21c0-.62-.088-.885-.109-.524l.007-.765.008.087.006-.76c.01-.141.063-.3.113-.083a10.285,10.285,0,0,1-.041-1.347c-.07,1.2-.169,2.689-.284,3.943-.039-.515.021-1.445.009-2,.075-.667.139-2.039.191-3.106A3.136,3.136,0,0,1,2-43.208a10.11,10.11,0,0,0,.06-1.044,15.1,15.1,0,0,1,.022,1.521,9.757,9.757,0,0,0,.1-1.661c-.033-.192,0-1.185-.028-1.811.1.273.064-.5.117-.875.012-.421-.028-.691-.063-.519-.108-.136-.065,1.676-.178,1.089a10.649,10.649,0,0,0,.03-1.424c-.059-.005-.045.3-.1.015a11.257,11.257,0,0,1,0-1.3,3.684,3.684,0,0,1,0,.441c.006-.644.385,3.487.351,2.654-.053.216-.35-3.664-.354-3.235-.029.392-.107-.281-.127.125l.071.451c-.021.555-.125.782-.165.587.009-.93.4,2.64.343,1.845l-.028.323a8.29,8.29,0,0,1-.01-1.584,2.594,2.594,0,0,1-.1-.833l.01-.134c-.029-.388-.016-.932-.093-.679.01,2.28-.592-1.5-.626.709.129-.927.132.312.147,1.284a5.506,5.506,0,0,0-.141,1.225c.01.605.047.356.08.472-.03.335-.054.977-.121.894a11.532,11.532,0,0,1-.024,1.32c.037.5.035-.034.074.32-.009.748-.02,1.8-.036,2.393-.063.231-.176.933-.274.421.013-1.135.16.433.139-.748-.145.508-.04-1.045-.15-1.259A11.567,11.567,0,0,0,.883-40.45l.02-.128a18.221,18.221,0,0,1-.029,2.295c-.051-.144-.089.122-.1-.291L.763-37.8c.016.1.033.2.044-.024a4.856,4.856,0,0,1-.013,1.011c-.054.085.227,4.116.193,3.991a9.68,9.68,0,0,0-.024,1.236c.044.057-.185-5.329-.167-4.593-.059.476.269,6.318.167,6.665,0,.413.015.911.07.814-.026.7-.1-.209-.156.288.009.011.028-.04.026.118l-.069.477c.085,1.084-.026,2.674.086,3.808A10.305,10.305,0,0,1,.7-25.442l.029-.127c-.017-.1-.035-.705-.09-.688A15.172,15.172,0,0,0,.669-24.24c-.014.135-.029.293-.044.4.007,0,.013-.015.021-.012-.034.239-.039.214-.061.126a.267.267,0,0,1-.012-.05c-.16.435.1,2.724.019,3.991.022.373.027.035.057.5C.586-17.992.537-17.1.5-15.745c.069.433.1.466.168-.055L.646-14.779c-.184-.93-.175,1.91-.359.885A9.643,9.643,0,0,0,.266-12.41c.046.057.12.147.12.868-.061,1-.038.764-.1,1.594-.06.2-.084-.108-.132-.073C.234-8.741.026-8.9.037-7.7A12.847,12.847,0,0,0,.168-5.408C.163-4.389.086-4.389,0-4.49" transform="translate(0.465 49.39)"/>
      </g>
    </g>
  </g>
</svg>
