<svg xmlns="http://www.w3.org/2000/svg" xmlns:xlink="http://www.w3.org/1999/xlink" width="286.215" height="535.47" viewBox="0 0 286.215 535.47">
  <defs>
    <style>
      .cls-1 {
        fill: none;
      }

      .cls-2 {
        opacity: 0.501;
      }

      .cls-3 {
        clip-path: url(#clip-path);
      }

      .cls-4 {
        fill: #efeae7;
      }
    </style>
    <clipPath id="clip-path">
      <path id="Path_900" data-name="Path 900" class="cls-1" d="M0-44.405H286.215v-535.47H0Z" transform="translate(0 579.875)"/>
    </clipPath>
  </defs>
  <g id="Group_421" data-name="Group 421" class="cls-2" transform="translate(0 579.875)">
    <g id="Group_404" data-name="Group 404" class="cls-3" transform="translate(0 -579.875)">
      <g id="Group_401" data-name="Group 401" transform="translate(0 111.038)">
        <path id="Path_897" data-name="Path 897" class="cls-4" d="M-1.161-8.495C.1-9.647.123-9.713-.233-11.246l-1.839-.489-2.37.828-.679-.985-1.3-.68H-8.08l-.066-.513L-9.8-13.7a6.059,6.059,0,0,0-1.963-2.726l-1.011-.265-.563-.978a5.108,5.108,0,0,1-1.044-3.314c-.655-1.7-.34-3.522-.663-5.279a17.648,17.648,0,0,1,.39-5.518c.14-.978.29-1.956.44-2.974.687-1.127,1.367-2.337,2.138-3.481s1.558-2.1,2.486-3.314c.563-.3,1.318-.7,2.088-1.086a50.513,50.513,0,0,0,5.561-3.439,26.837,26.837,0,0,1,5.253-3.157c1.044-.4,2.129-.687,3.381-1.085,1.608-1.4,3.315-2.925,5.1-4.433a9.523,9.523,0,0,0,2.394-3.132q.995-2.056,2.022-4.094c.323-.646.688-1.276,1.1-2.047,0-.447.05-1.035.075-1.657A78.9,78.9,0,0,1,19.87-83.52a47.523,47.523,0,0,1,5.95-13.789,18.825,18.825,0,0,1,6.414-6.289c.455-.258.828-.638,1.284-.937a10.869,10.869,0,0,1,1.657-1.052q4-1.741,8.038-3.39a10.862,10.862,0,0,1,2.3-.562c2.088-.341,4.142-.647,6.273-.954.588-.082,1.185-.1,1.773-.149l3.455-.29c1.276.348,2.991.34,4.408,1.516l.77-.572h-.049c.414.522.96.215,1.342.223,1.144.945,2.221,1.815,3.265,2.718a14.424,14.424,0,0,1,1.408,1.393c1.177,1.343,2.312,2.718,3.505,4.052a23.99,23.99,0,0,1,2.76,2.809c.356.555.828,1.053,1.2,1.574l-.075.141v-.175l.472.829h-.149l.1-.083a44.157,44.157,0,0,0,3.189,4.45A30.515,30.515,0,0,1,81.96-87.83a1.573,1.573,0,0,1,.34,1.284h.05c-.762.273-1.343.68-1.21,1.658-.44.878-.44.878.29,1.45.456-.621.083-1.052-.34-1.475l1.6-.373.075-.828v.066a16.375,16.375,0,0,1,1.26,1.26,5.65,5.65,0,0,1,.547,1.118c.215.141.68.273.829.563a15.5,15.5,0,0,0,2.245,2.429,18.583,18.583,0,0,0,2.089,1.765c.282.555-.68,1.053-.133,1.6.58.381.829-.365,1.326-.29.406.663-.572.961-.473,1.525l.431.307,1.451-.754,1.508.224a73.5,73.5,0,0,1,9.612-1.848,21.515,21.515,0,0,1,5.916.339c1.028.208,2.089.274,3.124.44a32.864,32.864,0,0,1,8.2,2.229c1.658.745,3.489,1.185,5.146,2.055a15.4,15.4,0,0,1,3.116,2.08,65.055,65.055,0,0,1,4.93,4.855,6.535,6.535,0,0,1,1.4,2.594,15.788,15.788,0,0,1,.488,7.259,41.091,41.091,0,0,1-.945,4.865,26.645,26.645,0,0,1-2.883,6.993l-1.26.613c-1.276,1.417-2.586,2.9-3.92,4.35a5.855,5.855,0,0,1-.936.713,13.489,13.489,0,0,0-3.066,3.074c-1.658,2.254-3.2,4.533-4.815,6.787a24.754,24.754,0,0,1-2.188,3.049,3.5,3.5,0,0,0-.555,3.389,6.134,6.134,0,0,0,.43,1.1,22.767,22.767,0,0,1,1.658,6.1,15.224,15.224,0,0,0,.406,1.939,2.754,2.754,0,0,0,.572,1.243A6.291,6.291,0,0,1,119.6-9.9a13.678,13.678,0,0,0,2.1,3.315,32.1,32.1,0,0,1,3.53,5.262,18.812,18.812,0,0,1,1.558,5.287c-.464,1.218.166,2.329.315,3.489,0,.754-.738,1.036-1.2,1.616l-.415,1.74-1.351,1.069.05,1.036-.762,2.544-2.428,2.2.09,1.085-.911.406-.547,1.193-.828-.53c-.829.049-.448.936-.921,1.235l-1.218.365-.38,1.193c.72.828,1.375.125,2.055-.058l.513.671a18.264,18.264,0,0,1-3.214,4.284,42.267,42.267,0,0,1-3.655,3.315,6.818,6.818,0,0,1-1.392.729l.042.058-.233-.2-.24.2v-.05a5.273,5.273,0,0,0-1.343.3c-1.931,1.019-4.06,1.161-6.148,1.467-2.419.348-4.865.538-7.3.778a4.757,4.757,0,0,1-.986,0,20.17,20.17,0,0,1-7.789-2.046,22.814,22.814,0,0,0-3.82-1.658,79.92,79.92,0,0,1-9.943-4.525l-1.906-.911a4.641,4.641,0,0,0-.207,1.044c.082,1.185.157,2.378.322,3.555a23.053,23.053,0,0,0,1.219,5.2,7.353,7.353,0,0,1,.389,1.741,68.513,68.513,0,0,0,3.149,12.073,22.557,22.557,0,0,0,2.006,4.085,4.419,4.419,0,0,0,1.368,1.409,9.736,9.736,0,0,0,3.206,1.914,4.725,4.725,0,0,1,1.658,1.052,9.141,9.141,0,0,0,2.817,1.426c2.817.961,5.626,1.947,8.411,2.983,1.549.58,3.083,1.218,4.566,1.947a22.383,22.383,0,0,1,3.016,1.848c3.249,2.287,6.008,4.972,7.359,8.858a29.186,29.186,0,0,1,.754,3.174c-.829,1.756-.323,3.7-1.426,5.444l-.24-1.466a5.944,5.944,0,0,0-1.251,2.809l-.513-.1-1.417.7-.828,1.441-.6-.456c-.829.141-.6.961-.986,1.434-2.544.68-4.9-.315-7.384-.995l-.19.688a26.129,26.129,0,0,1-5.8-2.959,26.436,26.436,0,0,1-6.165-4.972c-2.1-2.486-4.094-5.022-6.132-7.541a67.643,67.643,0,0,1-4.756-10.035c-.829-2.644-1.724-5.287-2.594-7.93a14.18,14.18,0,0,0-.746-2.055,47.762,47.762,0,0,1-3.53-10.524,5.669,5.669,0,0,0-.257-.738c0-.041-.107-.058-.307-.157V50.058a4.975,4.975,0,0,0-.7,2.751c-.149,2.974-.149,5.966-.522,8.916a43.593,43.593,0,0,0,.133,8.287c.057.978.332,1.948.48,2.925.232,1.566.431,3.141.638,4.7a5.138,5.138,0,0,1,1.508,3.016c.39,1.533.621,3.116.995,4.657.7,2.892,1.351,5.8,2.3,8.627.828,2.569,1.706,5.145,2.544,7.723a8.341,8.341,0,0,1,.3,1.351,13.188,13.188,0,0,0,1.085,3.779c.539,1.136,1.019,2.3,1.566,3.53.1.555.233,1.2.323,1.856a18.234,18.234,0,0,1,.191,4.972,41.445,41.445,0,0,1-1.351,7.615,3.531,3.531,0,0,0-.215.762,6.344,6.344,0,0,1-1.549,3.605,26.381,26.381,0,0,1-1.459,6.952c-.422,1.408-.09,2.734.141,4.342l-3.4,9.62a2.7,2.7,0,0,0-1.4,2.768l-1.815,2.071c-.15,1.086-.381,2.329-.473,3.572-.182,2.444-.348,4.889-.389,7.341a12.12,12.12,0,0,1-.423,2.486c-.34,1.476-.73,2.942-1.111,4.408-.132.506-.323,1-.422,1.517a13.877,13.877,0,0,0-.125,1.491l-1.077-.265a2.653,2.653,0,0,0-.406.828c-.182,1.309-.315,2.627-.473,3.937l-.572.4a5.261,5.261,0,0,1-.5-1.085,38.573,38.573,0,0,1-.779-4.492,58.288,58.288,0,0,1-.132-6.157,25.006,25.006,0,0,0-.356-4.524c-.232-1.5-.473-3.008-.829-4.492-.372-1.608-.828-3.2-1.325-4.781-.738-2.336-1.549-4.64-2.329-6.968a37.842,37.842,0,0,0-2.361-5.891,19.143,19.143,0,0,1-.829-1.906,9.177,9.177,0,0,0,.961-.638.771.771,0,0,0,.245-1.063l0-.006c-.555-.406-1.11.132-1.706,0-.423-.538.2-1.144-.125-1.8l-1.06-.829-.63-2.03,1.1-2.486c-.2-.365-.455-.39-.671-.191a10.144,10.144,0,0,0-.778.886c-.323-.6-1.078-1.052-.646-1.922.389-.183.488.306.895.38l.488-.464v-3.762l.713-1.152-.39-.878c0-.688.564-1.591-.124-2.527l-1.078-.09-.5-1.309-1.044.688-.5-.116.223-1.574c-.431-.448-.738-1.143-1.608-1.152l.05.049-.613-.67.232-1.964-.778-1.434.439-2.08c.588,0,1.169-.05,1.442-.738.042-1.052-1.251-1.077-1.484-1.923-.43-1.582.663-2.85.887-4.35l1.11-.563.431-.754a20.161,20.161,0,0,1-.066-2.113c.05-.77.787-1.16,1.168-1.748l.6-.307-.38-1.451a15.727,15.727,0,0,1,2-3.952,3.457,3.457,0,0,1,.15-.895c.679-1.574,1.16-3.232,1.856-4.79s1.21-3.074,1.873-4.582a61.936,61.936,0,0,0,3.239-10.773c.423-1.8.581-3.663,1.036-5.453a26.279,26.279,0,0,0,.423-6.3c0-2.486.165-5.022.248-7.541V51.747a6.026,6.026,0,0,1,.315-2.336,5.022,5.022,0,0,0,.2-1.567c.1-1.98.166-3.969.265-5.949a3.717,3.717,0,0,1,.191-1.368,10.12,10.12,0,0,0,.638-3.5c.257-2.627.464-5.262.671-7.889a1.457,1.457,0,0,0-.158-.513c-.422-.075-.48.223-.513.464-.282,1.765-.563,3.53-.829,5.295q-.513,3.837-.953,7.682a8.382,8.382,0,0,0,.05,1.748A47.792,47.792,0,0,1,54.806,54.25l.63-2.063c-.473.39-.721.5-.829.68a24.629,24.629,0,0,0-1.118,2.751,20.031,20.031,0,0,0-.828,3.041,30.14,30.14,0,0,1-2.014,6,26.549,26.549,0,0,1-3.853,6.455c-1.706,2.189-3.314,4.433-4.972,6.629-1.11,1.476-2.32,2.892-3.314,4.442-.588.911-1.549,1.6-1.716,2.851l-1.4.1c-.573,1.541-1.914,2.221-3.257,2.958a31.256,31.256,0,0,1-4.748,1.989,2.647,2.647,0,0,0-.6.44h-.132l.1-.083,1.218.39a4.41,4.41,0,0,1-1.052.365c-1.326.058-2.652.115-3.97.066a15.678,15.678,0,0,1-5.527-1.475A5.906,5.906,0,0,1,14.625,87.3a33.223,33.223,0,0,0-2.171-3.066,7.7,7.7,0,0,1-1.467-6.19A41.665,41.665,0,0,1,12.039,72.6a4.483,4.483,0,0,0,0-1.218l-1.019-.879a1.009,1.009,0,0,1,0-.372,10.11,10.11,0,0,1,2.229-2.486A36.577,36.577,0,0,1,24.4,60.9a50.513,50.513,0,0,1,4.972-1.318,22.246,22.246,0,0,0,2.287-.621c1.358-.513,2.684-1.118,4.035-1.658a10.59,10.59,0,0,0,3.174-2,90.23,90.23,0,0,0,9.943-10.01c.58-.721,1.144-1.459,1.707-2.2a1.845,1.845,0,0,0,.323-.5q.9-2.726,1.765-5.469c.05-.166-.05-.373-.1-.688a4.264,4.264,0,0,0-.679.39q-1.2,1.035-2.379,2.113c-.29.265-.6.547-.455,1.019-.315,0-.473.132-.456.455l.042-.066-1.226.6a2.386,2.386,0,0,1-1.078,2.311v.829c-.307.115-.713.14-.878.356-.828,1.028-2.031,1.111-3.141,1.467-.555.174-1.085.414-2.063.828a13.252,13.252,0,0,1-5.7-1.26,90.19,90.19,0,0,1-8.485-4.242,25.062,25.062,0,0,1-2.271-1.583V38.68a33.962,33.962,0,0,0-2.486-2.644,11.137,11.137,0,0,1-3.58-5.8,3.7,3.7,0,0,0-.248-.556c-.472-.132-1.085.058-1.359-.679.133-.829.274-1.716.448-2.619a14.815,14.815,0,0,0,.265-3.745,6.043,6.043,0,0,1,.24-2.146A26.5,26.5,0,0,0,18,11.856c-.058-2.486-.273-5.022-.488-7.524a6.563,6.563,0,0,0-.6-2.08A27.514,27.514,0,0,0,15.536-.234c-1.4-1.259-3.406-.994-4.582-2.163L9.587-2.662c-.207-.7.886-1.011.174-1.765L7.274-3.88,6.14-4.99l.911-.6a1.709,1.709,0,0,0-.34-1.749L5.054-7.492,3.537-8.213,3.6-9.091,2.286-10.484a1.889,1.889,0,0,0-.513.125c-.266.19-.514.405-.713.572A2.753,2.753,0,0,0,2.236-8.13l-.257.688c-.066.5.779.828.323,1.408l.05-.058A15.169,15.169,0,0,1,.836-6.837C.255-7.2-.275-7.667-.888-8.105l-.207-.448Zm27.03,98.186.108-.074-.058.124h-.091ZM-5.511-15.762l.058.3.182-.125-.29-.132ZM45.774,117.153l-.108.066.066-.108.29-.074-.15-.158ZM52.9,29.631h-.1c-.132.2.191.381.058-.074ZM97.05-76.137c-.282.083-.679-.091-.778.365-.373.042-.878-.075-.663.738l.63-.788a.614.614,0,0,0,.812-.306.341.341,0,0,0,.017-.042l.091-.082ZM45.359,35.183l.978-.1c-.563-.315-.829-.24-.953.133l-.083.075Zm2.751,65.745-.075-.175.133.116.15.671c.513-.224.754-.431.356-.829ZM5.2-11.37v.116l-.083-.066a1.483,1.483,0,0,0-1.384-.323c.481.53.995.3,1.467.273m43.6,117.3c-.365.083-.738.157-.738.77.456,0,.829,0,.911-.6l.2-.232Zm-7.1-142.271.1.058-.149-.05.19-.563c-.671-.09-.671-.09-.92.464Zm49.362-37,.274.133-.315-.1v-.828l-.97.1.455.986Zm26.716,87.994-.738.356.307,1.359c.828-.5.282-1.2.423-1.774l.057-.09ZM97.9-74.173l.058.115-.091-.082a6.729,6.729,0,0,1,.05-.771c.05-.265.14-.522.29-1.036a2.57,2.57,0,0,0-1.334,1.608l.39.563ZM87.214-76.659c-.2-.3-.431-.44-.829,0l.7.2c-.248.265-.638.473-.39.945.7.165,1.359.232,1.724-.58-.332-.563-.8-.505-1.226-.522Zm-2.842.1a1.518,1.518,0,0,1-.829-.96c-.041-.108-.323-.116-.513-.183l-.248.522c.4,1.044.4,1.044,1.077,1.583l.514-1,.6-.091c-.44-.075-.44-.075-.63.182ZM101.483-74.6l-.232-.505c-.132.39-.132.39.116.613l-.34.522c.423.505.29,1.26.828,1.749l.531-.216a8.266,8.266,0,0,0-.233-1.533c-.082-.232-.439-.405-.671-.63M46.527,117.492c.6.472,1.21.961,1.831,1.417.083.066.241,0,.464.066l.663-1.053c-.141-.43-.125-.828-.671-1.01l-.928,1.06a12.017,12.017,0,0,1-.6-1.06.827.827,0,0,0-.738-.538l.829-1.567.1-.041-.09.082c-.548-.43-.249-1.118-.5-1.657-.05-.108-.174-.175-.3-.29l-.828.455c-.3.083-.547-.464-.945,0a6.49,6.49,0,0,1,.265,1.011,10.309,10.309,0,0,1,0,1.218c.5.522.911.828,1.5.688v1.2l-.058.066ZM37.412-32.8l-.389.978,1.508.92.646-.613c-.63-.513-.9-1.309-1.8-1.243a4.325,4.325,0,0,1,.175-.945,1.376,1.376,0,0,0-.182-1.458l.066-.075v.108c-.911-.291-1.466.257-2.088.828l.066.928a1.814,1.814,0,0,0,2.021.572ZM53.281,25.338V25.2l.066.107.754,3.372,1.616.415,1.293-1.657c-.464-.68-.464-.68-1.135-.92-.68-.713-.373-1.658-.613-2.487ZM42.26-35.252l-.365-.2.158.406-.646.986.828.895-.473.083c.241.2.431.24.44-.125l.6.108-.381,3.472-1.333.208c-.7-.829-1.824-.606-2.752-.829a2.644,2.644,0,0,0-1.7,1.326c-.29.505-.7.945-1.028,1.433-.058.083,0,.241,0,.381.44.381.828.133,1.251-.132L37.1-27.9l1.161.53c.447-.125.828-.431,1.152.265l-1.1,1.9h-.48l-.513-1.019a9.029,9.029,0,0,1-1.334.9,1.658,1.658,0,0,0-.995,1.252l.448,1.16a4.14,4.14,0,0,0-.381,2.278c0,.108-.133.216-.216.348l-.886.191-.09.406.049-.05-.613-.34c-.066-1.21-.149-2.312-.174-3.422s0-2.254,0-3.381a23.706,23.706,0,0,1,.34-3.017l1.508-1.947a2.745,2.745,0,0,0-.754-1.923l.771-.928c-.175-.671-.547-1.284-.215-1.947,1.325-.671,1.325-.671,1.383-1.027l-.737-.995a43.329,43.329,0,0,1,2.7-6.116,19.328,19.328,0,0,1,1.044-1.657c.9-1.309,1.848-2.586,2.734-3.9A24.261,24.261,0,0,1,45.782-55.1a4.054,4.054,0,0,0,.67-.73A23.322,23.322,0,0,1,51.06-60.46a15.149,15.149,0,0,1,3.646-2.378,33.871,33.871,0,0,1,8.825-2.909,3.767,3.767,0,0,0,.754-.223,14.862,14.862,0,0,1,4.027-1.011.731.731,0,0,0,.828-.688c-1,0-1.988-.083-2.983-.115s-2.129.042-3.174-.091A30.672,30.672,0,0,0,57.631-68a39.985,39.985,0,0,0-5.519.581c-1.748.322-3.447.895-5.162,1.392q-3.14.9-6.273,1.856a11.084,11.084,0,0,0-5.8,3.572,3.9,3.9,0,0,1-.729.671,24.846,24.846,0,0,0-4.541,4.7,64.948,64.948,0,0,0-5.428,8.286A48.918,48.918,0,0,0,19.63-34.076c-.9,3.829-.655,7.773-.307,11.676a21.816,21.816,0,0,0,1.658,6.712c.67,1.566,1.035,3.264,1.657,4.88S23.823-7.865,24.4-6.382a50.979,50.979,0,0,0,2.486,5.61A7.654,7.654,0,0,0,28.91,1.88a24.853,24.853,0,0,1,3.555,3.712l-.058.771a31.659,31.659,0,0,0,4.475,4.226,14.824,14.824,0,0,0,2.138,1.442c1.334.737,2.734,1.343,4.052,2.1a5.508,5.508,0,0,0,4.094.92A18.02,18.02,0,0,0,49.295,16.1c.921.365,1.865.663,2.81.953a5.831,5.831,0,0,0,1.541.332,49.264,49.264,0,0,0,6.156,0c2.246-.241,4.483-.332,6.737-.431a5.58,5.58,0,0,0,3.712-1.143,3.748,3.748,0,0,0,2.536-.125A74.909,74.909,0,0,0,80.1,13.158a30.542,30.542,0,0,0,7.093-3.92c2.394-1.765,4.673-3.7,7.076-5.61.771-1.268,1.658-2.61,2.412-3.994a32.036,32.036,0,0,0,1.657-3.372c.738-1.774,1.4-3.572,2.047-5.378a20.65,20.65,0,0,0,.828-2.859c.506-2.527.995-5.063,1.4-7.615a23.566,23.566,0,0,0,.48-7.109c-.248-1.658-.307-3.265-.655-4.9a27.739,27.739,0,0,0-1.317-5.362,7.639,7.639,0,0,1-.315-1.549,16.892,16.892,0,0,0-1.724-5.047,27.971,27.971,0,0,1-2.411-5.85,6.206,6.206,0,0,0-.945-1.947,13.406,13.406,0,0,0-4-3.521c-1.317-.763-2.651-1.5-3.944-2.3a7.188,7.188,0,0,0-2.577-.995c-1.367-.223-2.751-.323-4.143-.473a6.987,6.987,0,0,1-1.185-.107A13.154,13.154,0,0,0,74.4-59.15a59.824,59.824,0,0,0-8.958,1.658c-2.668.762-5.361,1.408-8.037,2.138a8.33,8.33,0,0,0-1.658.68,9.417,9.417,0,0,0-3.074,2.759c-.928,1.21-1.889,2.386-2.909,3.514a27.662,27.662,0,0,0-4.276,6.123,29.484,29.484,0,0,0-2.486,6.911ZM-10.458-20.817l-.191,1.243-.447.588a1.481,1.481,0,0,0,1.152,1.235c.348-.115.721-.223,1.086-.356.107,0,.182-.157.257-.232,0-.655-.746-.488-.9-.92s-.265-.953-.4-1.441Zm2.576,4.765c.448-1.1.448-1.1-.207-1.393l-1.458,1.873,1.2,1.359c.7-.489.7-.489.92-1.359ZM53.09,129.093l-.513-.828c0-.39.73-.473.3-1.127-.663-.124-1.226.356-1.889.539v1.1l1.044.895ZM116.233,26.151l-.273-1.5-.688-.042-.828,1.375L114.816,27ZM10.266-8.073A2.686,2.686,0,0,0,8.4-8.255l-.257.646c1.3.563,1.534.522,2.114-.455Zm42.26,109.034-.754-.373c-.646.3-.688.762-.663,1.318h1.243ZM94.482-70.859,94.158-72.1c-.4-.19-.564-.688-1.186-.464a1.365,1.365,0,0,0,.266,1.325ZM48.583,33.55c1.127-.638,2.171-.439,2.842-1.483l-2.387.5Zm5.709,59.662c-.513-.124-.7.091-.828.572.158.241.183.688,1.044.713l.348-.406ZM79.044-90.034c-.4.829-.34,1.235.182,1.393l.63-.829ZM51.425,111.493l-.456.514c.3.414.522.762,1.086.314ZM78.637-81.78,77.6-80.621l1.161.108ZM52.991,134.861c-.448.43-.448.43-.191.828.282-.215.646-.43.191-.828M104.45-73.767c-.282.124-.7.215-.24.629ZM43.768,31.065a1.989,1.989,0,0,0-.2.29s.09.141.107.141a2.8,2.8,0,0,0,.3-.183Zm75.738-17.7c.58-.3.58-.3.223-.663ZM101.608,65.9c-.042-.1-.066-.257-.14-.29s-.2.066-.307.108l.132.323ZM50.231,109.2a1.519,1.519,0,0,0-.057-.307c0-.042-.108-.058-.158-.082l-.1.29ZM47.995,105.1c-.646.4-.829.539-.456.829Zm7.267-1.79c0,.53.207.961.828.481ZM57.292-110v-.323l-.63.124v.2ZM47.257,109.363l.042-.721c-.506.282-.481.473-.042.721M24.295,90.595V90.8l.87-.108ZM99.32-76.792c-.182-.05-.373-.14-.414-.1a4.387,4.387,0,0,0-.249.662ZM-2.976-12.158c.165-.63,0-.745-.406-.538Zm-4.881-7.25v-.125a.547.547,0,0,0-.174,0l.05.215ZM78.166-75.931s.1-.042.115-.082a.451.451,0,0,0,0-.15l-.174.108ZM51.607,125.638l-.058-.149s-.09.074-.09.115a.176.176,0,0,0,.057.15ZM48.856,99.8a.2.2,0,0,0-.108-.14c-.05-.025-.091.049-.14.074l.174.224Zm1.964,24.478-.083-.14-.125.083.15.207ZM47.737,31.918v-.124a.5.5,0,0,0-.157,0v.124a.5.5,0,0,0,.157-.008Zm3.655-1.657-.125.049.125.05Zm64.187-8.66v-.14a.388.388,0,0,0-.166,0l.05.223ZM98.052-72.782l.158-.307h-.29Zm-46.4,195.743-.108-.116s-.107.066-.107.108.057.082.1.115ZM94.175-75.591s-.083-.066-.116-.057-.083.066-.125.107l.233.066ZM47.149,100.953l-.115.1h.215Zm-1.658,24.395.514.9,1.956-.787.132-.573-1.2-1.292ZM-1.161-8.495c-.547-.332,0-1.251-.828-1.476a7.272,7.272,0,0,1-.473.986c-.19.283-.14.464.133.7l1.268-.273ZM109.3,83.766l-.149.091.108.05ZM2.294-6.026H2.46l-.115-.05Zm42.31,124.4c-.074.108.042,0,.05.05Zm3.539,13.847-.058.133.066-.091Zm14.029-242.18-.1-.091.05.075Zm20.144,23.5.423.431V-86.1l-.415-.4ZM47.4,100.074l-.1-.049.058.09Zm69.8-78.108v-.1h-.115Zm-6.563,9.712h-.505v-.05l.2.273.191-.273ZM4.565-6.382v.091h.1Zm44.358,46.4v-.017Zm-.39.746.39-.373v.058h-.456l.042-.066v.431Zm-.423.431.464-.373-.05-.05-.406.4Zm0,0-.132.082.115-.05ZM72.29-13.16a45.03,45.03,0,0,0,2.768-5.478c.115-.332.488-.572.828-.961a2.875,2.875,0,0,1,.232-2.527c1.078-2.154.621-4.4.572-6.629-.613-1.6-1.135-3.239-1.856-4.789A5.188,5.188,0,0,0,71.8-35.957c-.671-.273-1.376-.464-2.2-.729l-3.1.6a21.942,21.942,0,0,0-3.414,3.812L62-31.9c.091-.77-.754-.6-1.019-1.019a3.536,3.536,0,0,1,.266-2.858,1.867,1.867,0,0,0-.116-.39l-.53-.108c-1.028.936-.381,2.1-.588,2.984.505.928,1.358.986,2.03,1.351l.588,1.375-.928.547.473,1.658-.274.7-1.292-1.069-1.351.2c.555-.581,1.4-.307,1.508-1.236L59.057-31.15l-.995.05.05.058.066-3.489-.405-.646c0-.15,0-.307.115-.39a29.482,29.482,0,0,0,2.254-2.486,8.612,8.612,0,0,1,4.01-2.817,12.857,12.857,0,0,1,4.616-1.053,7.31,7.31,0,0,0,1.383-.1,9.345,9.345,0,0,1,5.958.985c1.136.539,2.271,1.061,3.406,1.6a7.768,7.768,0,0,1,2.536,1.716,15.741,15.741,0,0,0,1.832,4.267,3.58,3.58,0,0,1,.439.887c.754,2.486,1.79,4.83,2.387,7.35A15.414,15.414,0,0,0,88-22.532c.233,4.3-1.358,8.5-3.431,12.089C83.021-8.993,81.8-7.89,80.635-6.73S78.6-4.451,77.063-3.987C75.19-2.446,72.8-1.915,70.74-.739A10.756,10.756,0,0,1,65.372.388H62.4l.373-1.839L61.2-.83l.132.92,1.119.232c-.216.132-.431.381-.638.373C60.838.645,59.861.5,58.883.43a6.859,6.859,0,0,0-3.249.149,5.106,5.106,0,0,1-2.941-2.213,3.742,3.742,0,0,0-.829.166A3.044,3.044,0,0,1,49.2-1.584c-1.127-.522-2.237-1.1-3.389-1.658,0-.373-.166-.737-.05-.995a3.532,3.532,0,0,0,.05-1.947c1.4-.183,2.2.936,3.314,1.333l.356-.646c.663-.108.215.506.729.788l.886.207a4.272,4.272,0,0,0,.29-.53c.108-.307.19-.621.29-.928l.083-.083-.066.125a2.3,2.3,0,0,1-1.931-1c-.39-.415-.778-.829-1.176-1.284l.928-1.658.63.083-.506.812c.44.621.713.066,1.069,0l.332.473,1.176-.464.125.274-.183-.224c0-.332.158-.472.6-.53l1.318,1.052c-.075.763-.68.406-1.043.779l-.448.945.53.828,3.505.995a4.424,4.424,0,0,0,1.947-1.2l-.613-1.077c1.276-.44,2.08.447,2.983,1.052,0-.066-.223.141-.049-.05a1.176,1.176,0,0,0,.828-.978l-.381-.621A3.614,3.614,0,0,1,63.9-8.172a21.208,21.208,0,0,1,4.342-1.981,14.919,14.919,0,0,0,1.475-.53,3.148,3.148,0,0,0,1.931-1.806c.116-.323.506-.548.771-.829a.663.663,0,0,0,.828.348l.05.116-.091-.075c-.165-.448-.547-.348-.886-.29ZM65.2-3.747l.423-.348c.729-.249.762.936,1.533.713.63-.506.315-1.136.19-1.881L65.918-5.1c-.15.24-.266.34-.283.456a3.2,3.2,0,0,0,0,.58L65.23-3.7l-.1.09Zm-5.56-29,.066.1-.1-.066-.091-.1Zm-.68,27.776c-.125-.165-.248-.339-.423-.074,0,0,.158.165.24.257l-.149.555c.713-.29.713-.29.365-.812Zm3.206.9a3.141,3.141,0,0,0-.895-.166,1.045,1.045,0,0,0-.862.821,2.156,2.156,0,0,0,.116.488l1.491-.563Zm7.458-34.9-.332,1.085,1.3-.066ZM54.706-1.734q-.3.3-.572.638s.141.216.215.216c.307-.05.456-.208.373-.921Zm5.8-35.1v-.1h-.133ZM76.632-16.218l-.1-.115s-.1.066-.108.1.058.075.091.116ZM57.573-3.888c-.042-.05-.083-.132-.132-.132s-.1.074-.141.124.083.133.133.133.157-.15.207-.191Zm-2.544,1.55-.066.091h.1ZM41.73-8.015A5.936,5.936,0,0,1,39.368-9.44l.05-.92,1.118-.936-.049.049c-.373-.679-1.3-.157-1.7-.828-.6-.928,0-2.055-.423-3l-.978-.208h.042l-.563.323-1.433-2.9-1.889-.2c.38,1.566.6,3.075,2.021,3.953l-.248.886.9,1.541h.73c.107-.215,0-.53.4-.655.149.44-.15.53-.44.613l-.332,1.525a3.85,3.85,0,0,0,2,2.379c.6.157,1.01-.539,1.657-.1v1.5c1.069.73,2.154,1.451,3.224,2.188a1.608,1.608,0,0,0,1.558.241l.373-.671-1.019-.39-.7-.828-.994-.1-.928-2.179Zm-4-16.747.4-.422A6.269,6.269,0,0,1,40.8-22.217l-.67.654a.607.607,0,0,0-.075-.165h-.125l.24.124a2.946,2.946,0,0,0-1.243,1.276l1.591,1.914a2,2,0,0,1-.828-.05,4.424,4.424,0,0,0-2.767-.828l.828-1.251V-22.35l-1.078-.265.995-1.343Zm1.491,2.594H39.1v.456h.157Zm24.636-6.853c.431.505-.042,1.516,1.069,1.7a3.947,3.947,0,0,1,.149-.911,4.023,4.023,0,0,1,.531-.754L64.551-31.4l-1.193.315a3.31,3.31,0,0,0,.555,2ZM43.138-8.653l.323.671c.48.323.945.663,1.45.945a2.565,2.565,0,0,0,.829.091l-.489-2.1-.778-.415Zm-.961-5.825.555-.373.3.779v.439l.058-.042.125.564a1.574,1.574,0,0,0,1.657-.183c.083-.05.116-.174.191-.3l-1.226-.762-.638-.986-.829-.141c-.405.315-.7.572-.2.945Zm4.077,2.767-.365.7.481.787c.547-.389,1.127-.63,1.193-1.375l-.406-.356-.953.29Zm-3.887.721.473.646-.4.9h.829v-1.293L42.55-11.2ZM43.4-18.066l.158.754h.149l-.05-.754Zm-2.767,6.7a3.919,3.919,0,0,0,.34.431,1.35,1.35,0,0,0,.332-.05l-.721-.332Zm.936-10.093h.116v-.431h-.116Zm0-.431-3.985-3.2.265.29v-.456ZM40.809-19.4h.464v-.149h-.464Zm2.155.323s.074.09.124.1a.132.132,0,0,0,.141-.058ZM58.2-31.133c-.165,0-.423-.149-.505.323l.455-.381ZM54.582-7.3l.024-.174-.1.115Zm-13.259-6.53.165-.058-.157-.075Zm-7.458-5.916-.05.05ZM36-18.762v.116l.115-.05ZM37.5-15.307l-.1-.132.058.1ZM41.8-8.1l.091-.133-.141.083Zm19.54.356h-.1l.058.066Zm-6.786.44-.307.125.215.257h-.042l.083-.44Zm-.133.381.141.057-.091-.066ZM42.608-14.1l-.44-.423v.058l.423.422Zm.332.488v-.439h-.431l.05-.058.4.439Zm3.314,1.923-.19-.108.132.158Zm9.182,39.369V27.8l.058-.115Z" transform="translate(15.162 110.932)"/>
      </g>
      <g id="Group_402" data-name="Group 402" transform="translate(107.863 220.419)">
        <path id="Path_898" data-name="Path 898" class="cls-4" d="M-12.785-8.757c0,2.193,0,4.4-.048,6.59A22.64,22.64,0,0,1-12.908.1a25.487,25.487,0,0,0,.572,7.972,3.272,3.272,0,0,0,.258,3.575c-.6,1.908.906,3.815-.1,5.722a15.115,15.115,0,0,1,.829,5.493c-.487,4.529-.2,9.116-1.068,13.674l-1.191,1.43-.61,2.527c-.954,1.221-1.373,3.013-2.728,4.205h.057a2.5,2.5,0,0,0-1.354,1.459c-.306.61-.553,1.249-.859,1.907l-1.85,1.24c-1.507.41-2.623.639-3.69,1.01a19.219,19.219,0,0,1-5.541,1.144,49.146,49.146,0,0,0-5.4.706,24.315,24.315,0,0,1-11.939-.811c-2.08-.716-4.119-1.574-6.17-2.356a29.969,29.969,0,0,1-5.722-3.309,6.509,6.509,0,0,0-2.66-1.441c-.066.658-.124,1.26-.181,1.851-.077.754-.1,1.516-.22,2.26a15.076,15.076,0,0,0,.42,4.769,18.073,18.073,0,0,1,.3,3.146,15.854,15.854,0,0,0,.563,4.053c.543,2.213,1.221,4.4,1.859,6.59a8.13,8.13,0,0,0,.515,1.106,8.067,8.067,0,0,1,3.262,3.624c.181.334.391.658.591.954a6.265,6.265,0,0,0,7.009,3.042l2.689-.505a10.186,10.186,0,0,1,4.311,0,13.537,13.537,0,0,0,2.041.247,25.582,25.582,0,0,1,6.427,1.5,7.6,7.6,0,0,1,.954.543,16.987,16.987,0,0,0,2,1.04,6.1,6.1,0,0,1,2.594,1.774l-.066.133v-.181l1.192.658a1.039,1.039,0,0,1,.572,1.325l.067-.057-1.031.6.381,1.134-.133.535.82,1.812.066-.057a3.226,3.226,0,0,1-1.259.229,2.173,2.173,0,0,0-1.907.591c.3.487.629.954.867,1.421a14.342,14.342,0,0,1,.553,1.506l.725.258-.267,1.259.306.353v-.047l-.277,1.506a6.973,6.973,0,0,0,2.27,1.726,10.162,10.162,0,0,1-.954.458,4.312,4.312,0,0,1-.7.114l-.849,1.04.277.953a2.97,2.97,0,0,1,2.25-.315l1.278-1.792-.067-.077c-.353,1.04.429,1.612.954,2.3h.066l-.514.506-.954-.458c-.448.1-.858.086-.906.725l1.649.21.134-.505.553.085H-21.9l-.649,1.622a.637.637,0,0,0,0,.277,4.128,4.128,0,0,1-2.4,5.044,9.979,9.979,0,0,1-2.384.7c-.953.2-1.907.306-2.861.553a38.189,38.189,0,0,0-4.291.238,10.736,10.736,0,0,1-4.481-.648,27.158,27.158,0,0,1-4.673-2.336,30.617,30.617,0,0,1-2.556-1.907c-4.653-3.4-8.01-7.9-10.871-12.807-1.183-2.041-2.117-4.215-3.3-6.265A48.751,48.751,0,0,1-64.022,74.8a18.558,18.558,0,0,0-1.22-2.26c.066-1.784-.954-3.634-1.584-5.569a80.37,80.37,0,0,1-3.557-15.1c-.057-.429,0-.954-.724-1.135a3.049,3.049,0,0,0-.191.772q.152,7.315.333,14.619c0,.763,0,1.525.067,2.288.1,3.424.276,6.856.276,10.28a13.857,13.857,0,0,0,.839,5.349,18.259,18.259,0,0,1,.677,3.108c.449,2.165.839,4.339,1.383,6.475.4,1.545,1,3.033,1.535,4.54.61,1.717,1.269,3.423,1.86,5.149a43.815,43.815,0,0,0,3.815,7.524c1.783,3.1,3.709,6.122,5.407,9.269a23.239,23.239,0,0,1,2.651,7.256c.391,2.318.772,4.644,1.135,6.962.1.657.133,1.335.21,2.193l-.859-.658c-.677.582-.686.572-1.03,1.851.286.686.849.791,1.536.686a1.706,1.706,0,0,1,.171.63,12.333,12.333,0,0,1-.314,1.316l-2.2-1.5-.476,1.506h-.134l.086-.057.754.544c.152.553-.124,1.4.954,1.574l.781-.648-.724-1.325a1.408,1.408,0,0,1,.381-.173,4.747,4.747,0,0,1,.648,0c.115.363.372.744.324,1.078-.286,1.908.381,3.9-.1,6.046l-1.24,1.45.877.63-1.688,5.493a3.107,3.107,0,0,0-1.345,1.706c-1.115,2.651-2.308,5.284-3.48,7.934l-1.068.582c-1.993,3.643-4.071,7.343-6.055,11.1-1.23,2.336-2.232,4.768-3.672,7.037-.3-.2-.5-.639-.954-.439a.4.4,0,0,0,0-.163h-.124l.172.163c.115.668.668.276.954.41a2.051,2.051,0,0,1-.887,1.477l-2.069.582.553.734-.877.868c.553.21.725.954,1.393.21l-.591-1.115,1.239.754c.086.953-.686,1.058-.953,1.706l-1.574-.829-1.43-.133V187.4l.1.1L-75,188.981l-.1,1.04,1.622,2-1.459.953-1.545,1.908c.3.953.324.953,1.334.353l.725.486-.057-.057-.162.63-1.078.743-.363,1.02-.638-1.1c-.3-.181-.61-.448-.821.4l.868-.467-.258,1.611.582.439-.514,1.755h.047l-1.678-.267-.172-1.02c-.677-.363-.621.372-.725.7-.286-.153-.505-.22-.505-.277a16.372,16.372,0,0,1,.115-1.792c.1-.811.267-1.622.391-2.308l-.849-1.221.247-2.927a43.8,43.8,0,0,1-1.973-7.114,41.239,41.239,0,0,0-1.726-5.2,70.744,70.744,0,0,1-2.556-9.221q-1.173-4.883-2.213-9.794c-.534-2.526-.953-5.083-1.477-7.628-.354-1.707-.8-3.4-1.221-5.1a39.667,39.667,0,0,1-1.059-12.474,27.35,27.35,0,0,1,1.908-8.821,4.152,4.152,0,0,1,2.184-.705l-.315.735,1.058.552-.152,1.908.686.324,1.326-.954c-.22-.487-.42-.868-.573-1.268s-.267-.839-.4-1.269c.687-.21.687-.21.649-.677l-.592.734H-88.2l-.954-1.535c.629,0,.858.171,1.6,1.144l.743-.744-.5-2.326-1.268-.563c.476-1.173.954-2.355,1.45-3.528q2.679-6.255,5.387-12.5a5.116,5.116,0,0,1,.344-.582l.3.2-.344-.152c.515-1.831.954-3.672,1.555-5.474a19.84,19.84,0,0,0,.953-5.131c.1-2.041.458-4.071.705-6.1,0-.3.1-.6.105-.953.124-5.159.754-10.29.573-15.467-.115-3.262.114-6.542.2-9.813a9.372,9.372,0,0,0-.906-5.254c-.248.334-.5.525-.544.754-.238,1.115-.429,2.241-.658,3.471a5.523,5.523,0,0,0-1.907,4.139,17.525,17.525,0,0,1-.372,2.012,40.339,40.339,0,0,0-.725,4.014c-1.049,2.766-1.907,5.617-3.185,8.287s-1.993,5.56-3.49,8.115c-.621,2.861-2.671,5.179-3.567,8.086,1.269.1,1.259-1.153,2.223-1.4a13.216,13.216,0,0,1-2.737,4.234h.047l.105-1.115a.611.611,0,0,0-.862.059.621.621,0,0,0-.092.141,15.984,15.984,0,0,0-1.411,2.794c-.333.41-.705.791-1.011,1.221a10.614,10.614,0,0,1-6.074,4.11c-1.307.381-2.584.81-3.948,1.248-1.669-.285-3.433-.61-5.216-.877a2.271,2.271,0,0,0-.839.22,1.064,1.064,0,0,1-.657-.134,7.557,7.557,0,0,0-2.861-1.335c-.734-.21-1.441-.505-2.175-.705a8.978,8.978,0,0,1-4.348-2.383,7.521,7.521,0,0,0-1.525-.954l-2.05-1.287c-1.421-2.25-1.774-4.529-2.432-6.781-.457-.609-1.373-.953-1.554-2.3a12.183,12.183,0,0,1,.5-1.774c.811-1.964,1.679-3.91,2.518-5.827L-124,79.289l.62-1.478.868-.3c.086,0,.2,0,.21.086.134.429.258.858.4,1.364a6.4,6.4,0,0,0,2.927-.134,7.756,7.756,0,0,1,4.053,0,4.3,4.3,0,0,0,1.8,0,10.823,10.823,0,0,1,4.311,0,5.408,5.408,0,0,0,1.821.048c1.287-.152,2.555-.41,3.815-.582a14.751,14.751,0,0,0,3.928-1.135c.954-.42,1.994-.725,3.5-1.269.439-.419,1.3-1.182,2.079-2,3.157-3.319,3.176-3.319,4.844-7.629.515-1.316,1.287-2.574,1.3-4.023-.42-.429-.773-.143-1.1,0-4.863,1.783-9.86,1.706-14.886.953a14.309,14.309,0,0,1-5.235-2.174c-.954-.553-1.8-1.135-2.7-1.717a19.59,19.59,0,0,1-3.814-2.937,9.89,9.89,0,0,0-1.174-1.067,20.189,20.189,0,0,1-7.4-12.559,113.174,113.174,0,0,1-1.335-11.329,3.333,3.333,0,0,0-.133-1.125c-.716-1.45-.515-2.975-.477-4.492a3.306,3.306,0,0,0-.734-2.651,4.3,4.3,0,0,0-2.422-.954c-3.595-.172-6.771-1.658-9.879-3.251a22.316,22.316,0,0,0-4.654-1.851,13.137,13.137,0,0,1-4.224-1.669,10.8,10.8,0,0,1-.954-.639,3.678,3.678,0,0,0-1.831-1.039c-1.649-1.679-3.49-3.033-4.825-4.939-2.451-.82-3.815-2.937-5.388-4.769a40.661,40.661,0,0,1-2.861-4.139,22.067,22.067,0,0,1-2.861-7.9.792.792,0,0,1,0-.229c.306-3.271-.811-6.475-.476-9.765a31.155,31.155,0,0,0-.066-4.11,7.891,7.891,0,0,1,.724-3.319,61.294,61.294,0,0,1,3.815-6.961,13.288,13.288,0,0,1,2.012-2.479A117.14,117.14,0,0,1-147.814-46.5a5.906,5.906,0,0,1,2.413-1.355l-.238.859.8-.1-.61-.725.906-.467.077.057h-.134a4.245,4.245,0,0,1,.535-.725q3.194-2.862,6.408-5.664v1.545l1.65.085-.2-2.068-.954-.115h.067l.886-1.145,2.641.125,2.051-1.45.849-.047-.344-1.04c.687-1.287,2.565-.63,3.3-2.356l-.057-1.02-.953-.2-.7-.753v.047l1.135-1.955,1.382.658,2.174-2.089-.638-2.27c.62-.81,1.773-.953,2.736-1.363l-.181-.954,1.058-.4c-.3-.953-1.345-.486-1.955-1.1s-.276-1.745,0-2.5a10.775,10.775,0,0,0,.83-3.976,3.191,3.191,0,0,1,.372-.954l1.067.83c.811-.286.811-.286.859-1.307l-1.822-1.326.7-1.259a34.927,34.927,0,0,1,.429-6.532,5.169,5.169,0,0,1,.324-1.325q1.345-2.761,2.766-5.473c.353-.678.838-1.278,1.153-1.974a19.2,19.2,0,0,1,6.371-7.352l1.516-1.135a14.327,14.327,0,0,0,4.576-1.907,6.671,6.671,0,0,1,2.975-1.059,7.569,7.569,0,0,0,2.518-1.019,26.293,26.293,0,0,1,5.283-2.137,2.615,2.615,0,0,0,.829-.353,6.057,6.057,0,0,1,3.251-.953,44.822,44.822,0,0,1,5.722-.125,36.826,36.826,0,0,0,5.884.134,22.918,22.918,0,0,1,6.361.457,13.017,13.017,0,0,1,5.559,2.547,19.086,19.086,0,0,0,5.388,3.394,3.939,3.939,0,0,1,1.45,1.087c2.127,2.289,4.243,4.587,6.3,6.933a12.9,12.9,0,0,1,1.334,2.116c1.145,1.974,2.165,4.044,3.443,5.932,1.574,2.336,3.281,4.587,5.083,6.76a74.068,74.068,0,0,1,4.977,6.256,11.136,11.136,0,0,0,2.861,2.756,17.687,17.687,0,0,1,5.569.448c2.069.429,4.091-.133,6.122-.439,3.309-.505,6.618-1.039,9.927-1.535a4.563,4.563,0,0,1,1.364,0A4.4,4.4,0,0,0-9.5-78.035c2.575.639,5.149,1.259,7.734,1.908a8.737,8.737,0,0,1,4.882,3.194,5.348,5.348,0,0,0,1.221,1.326,11.245,11.245,0,0,1,3.251,3.49A41.481,41.481,0,0,1,9.863-63.9a3.8,3.8,0,0,1,.267,1.1,2.307,2.307,0,0,0,0,.677,21.123,21.123,0,0,1,.954,5.807c.066.754.277,1.507.3,2.261.048,1.525,0,3.042,0,4.768l-.686.886C9.911-40.7,8.728-38,6.134-30.9l-1.2.5-.781,1.04-.954.3c-1.765,2.861-2.966,6.1-4.939,8.85l-1.116-.057c-.371.591.4.553.439.953a3.172,3.172,0,0,1-1.84,2.184l-1.115-.811-1.316.839-.582,1.907H-7.54l-.143-.829-.954-.772.487-.506.849-.505a2.03,2.03,0,0,1-.1-2.4c.047-.105-.057-.286-.115-.553l-.725-.563a3.117,3.117,0,0,0-2.918,2.957c-1.269.353-2.146-1.316-3.462-.544a2.86,2.86,0,0,1-1.1,1.659.686.686,0,0,0-.358.9c.007.018.016.034.024.052l1.755-.954a4.089,4.089,0,0,1,2.49,1.536c.076.076.247.047.428.085l1.164-1.316a2.974,2.974,0,0,1,.4-2.345l.954.439c.276.582-.506,1.173.276,1.525v.544l-2.374,1.907a22.628,22.628,0,0,0-1.2,4.291,9.684,9.684,0,0,1-.495,1.478c-.286-.591-.563-1.183-.878-1.755,0-.057-.257,0-.457,0L-14.3-9.643l.705.657c-.514.086-1.077.086-1.3.744A2.067,2.067,0,0,0-14.1-6.764c0,.22-.133.525.286.535.162-.382,0-.477-.344-.477.067-.353.134-.705.21-1.058s.2-.849.3-1.278ZM-83.618,113.761l.077-.048v.077l-.125.105ZM-28.2,92.325l.1-.077-.047.134H-28.8c.134-1.04-.486-1.65-1.306-2.309v.954l-.678.791c.286.487.6.705.954.477a.951.951,0,0,1,1.049.057Zm13.636-122.7h-.057l-.439-.467v-.143l.077.086Zm-90.591-15.152c.324.077.448-.115.525-.381,1.688-1.5,3.633-2.727,5.016-4.625l-.487-.535v.048a16.118,16.118,0,0,1,4.053-3.2,4.2,4.2,0,0,0,.7-.582,32.5,32.5,0,0,1,3.814-2.861c1.908-1.049,3.986-1.821,6-2.7a2.883,2.883,0,0,1,.591-.134l1.192.954,1.354-.592-.238-1.5,2.069-.743,1,.8c.563.725.592.725,1.5.152l-.2-.62.514-.467c1.908-.514,3.757-1.659,5.875-1.078A9.533,9.533,0,0,1-67.5-64.666a17.283,17.283,0,0,0,4.454-.753,22.189,22.189,0,0,0-6.094-1.717A40.223,40.223,0,0,1-73.4-67.9a6.6,6.6,0,0,0-2.47-.238,18.525,18.525,0,0,1-2.05.086,3.143,3.143,0,0,1-2.308-.753l-.419-1.078h.582l.066.1h-.124l-.467-.066-1.24-.668-1.011,1.049.105,1.058-2.107-.181.1-1.287-.9.152-.668,1.2-1.03.439-1.735-.8c-1.908,0-2.432,0-2.861.343l-.735,1.287a10.94,10.94,0,0,1-1.907.553,21.449,21.449,0,0,0-7.581,2.308,35.1,35.1,0,0,1-3.709,1.736c-2.861,1.049-5.092,3.042-7.266,5.007-1.678,1.515-3.28,3.156-4.93,4.519-.639,1.851-1.192,3.586-1.85,5.274a3.605,3.605,0,0,0-.077,2.279c-.639.954-1.277,2.032-1.964,3.023a8.653,8.653,0,0,0-1.6,5.6,39.129,39.129,0,0,1-.124,5.426,8.706,8.706,0,0,1-.658,2.479l-3.566.563c-.143,0-.276-.6-.811-.324.048.181,0,.476.172.552.506.325,1.058.573,1.584.878.114.066.162.238.238.362l-.3.524.553.715.066-.076a2.469,2.469,0,0,0-2.2.677l.648.573-.1,1.125.734.859.077-.077h-.6l-2.107,1.554-1.506-.906c-1.088.849-.954,2.032-1.164,3.09l-.1.115.047-.152.754,1.087.439-.715,1.421-.22.124,1.325-.954.315c-1.115.353-2.308.525-3.147,1.469a1.1,1.1,0,0,0-1.163.81,1.373,1.373,0,0,1-1.1.954c-.276-.1-.5-.6-.887-.152.276.525.629.057.953.1,0,.077,0,.2.057.21l2.918,1.144,1.059-.849c.753.41.476.954.228,1.612l-1.812,1.334.658.734V-9.92c-.124.458-.476.544-.877.534a2.684,2.684,0,0,0-1.984.773l-.677,1.411a1.47,1.47,0,0,0,.115.3c.085.125.19.229.285.344v-.048c.954.954,1.507,1.145,2.4.582a12.71,12.71,0,0,0,1.3-1.058l2.175,1.908.734-.125-.573.649v1.545a5.135,5.135,0,0,0,2.232.21l-.344.715-.858-.115-.554,1.554.744-.381h-.057l1.545,1.116V-.079a.362.362,0,0,0,0,.392l-.124.076.066-.124.715.858h2.1l1.049-2.193-.3-.829-1.4-.1-.458,1.42-1.5-2.308H-128a3.251,3.251,0,0,0-1.773-2.308l.428-1.115,1.326.21.5.954,2.222.715.886.954c.849.392,1.316.62,1.783.82s.954.392,1.441.591c.429,1.965,1.325,3.815,1.44,5.875l-1.382.181-.077.086V3.945l1.706.687c.61,1,.954,2.136,1.755,2.736A12.218,12.218,0,0,1-115.5,9.9a12.808,12.808,0,0,0,4.51,4.139,14.288,14.288,0,0,0,3.815,3.509c2.222,1.611,4.54,3.07,6.9,4.454,1.115.648,2.145,1.468,3.3,2.041,4.263,2.136,8.7,3.661,13.57,3.4a9.007,9.007,0,0,1,4.644.839l.953-.172a18.25,18.25,0,0,1,7.277-.076,6.679,6.679,0,0,0,4.615-.582,80.873,80.873,0,0,0,15.935-9.794,69.67,69.67,0,0,1,6.856-4.95,7.478,7.478,0,0,0,2-1.85,80.173,80.173,0,0,0,5.474-8.153A8.758,8.758,0,0,0-34.688.4c.267-1.031.371-2.1.543-3.147.63-3.986,1.1-8,2.05-11.93a5.831,5.831,0,0,0,.057-2.489,82.963,82.963,0,0,0-3.509-14.476,8.393,8.393,0,0,1-.333-1.1,8.18,8.18,0,0,0-3.567-5.378,30.851,30.851,0,0,1-6.37-5.483c-.1-.115-.229-.2-.333-.3l-5.893-5.818-8.115-3.337a2.77,2.77,0,0,0-.877-.238c-2.861-.152-5.636-.372-8.449-.363a19.365,19.365,0,0,1-3.137-.162l-4.769,2.193a10.774,10.774,0,0,0-1.907.82c-2.021,1.45-4.377,2.431-5.96,4.52-1.02,1.345-2.632,2.041-4.053,2.918-2.737,1.688-5.378,3.471-7.19,6.217a10.478,10.478,0,0,1-.954,1.03,9.069,9.069,0,0,0-1.755,3.185c-.306.954-.61,1.908-.877,2.861a29.722,29.722,0,0,0-1.364,7.152,2.017,2.017,0,0,1-.19.506l-1.183.953-.4,1.679,1.908,1.812a12.5,12.5,0,0,0,.133,1.554,39.047,39.047,0,0,0,1.307,5.3,32.17,32.17,0,0,0,2.689,5.292A11.968,11.968,0,0,0-94.67-2.911a25.416,25.416,0,0,0,6.99,4.273,6.031,6.031,0,0,0,2.4.6,25.769,25.769,0,0,0,5.436-.505c1.392-.392,2.813-.668,4.214-1.011A7.155,7.155,0,0,0-74.32.064c2.213-1.01,4.492-1.907,6.59-3.128a15.341,15.341,0,0,1,4.386-1.792c.639-.716,1.278-1.374,1.85-2.08a7.956,7.956,0,0,0,.954-1.525c1.153-2.4,2.279-4.816,3.4-7.238a3.134,3.134,0,0,0,.324-2q-.478-2.23-1-4.453a24.072,24.072,0,0,0-3.756-7.515,5.667,5.667,0,0,0-1.908-1.907,13.651,13.651,0,0,0-8.783-2c-2.956,1.174-5.722,2.356-6.56,5.322l-.143,3.1a13,13,0,0,0,2.918,2.374,3.289,3.289,0,0,1,1.83,2.193c-.2.735-.229,1.555-1.23,1.908l-1.44-.258-1.087.534-1.364-.333-.6-1.278-1.86-.487c-.9-.591-.849-1.621-1.153-2.431l-1.23-1.325-.306-2.375c.429-1.287.859-2.67,1.355-4.023a5.623,5.623,0,0,1,1.907-2.527,23.037,23.037,0,0,0,3.185-2.918,6.877,6.877,0,0,1,4.673-2.565,30.04,30.04,0,0,0,4.053-.63,5.863,5.863,0,0,1,2.927,0,26.287,26.287,0,0,0,2.661.621A31.107,31.107,0,0,1-55.7-36.048l.953,2.127c.553.276,1.164.582,1.765.9a3.7,3.7,0,0,1,1.669,1.506c.553,1.078,1.144,2.146,1.6,3.262a14.412,14.412,0,0,1,.829,2.861c.439,2.394.82,4.768,1.164,7.209A25.358,25.358,0,0,1-47.467-15v5.264A7.921,7.921,0,0,1-48.2-6.42c-.476,1.115-.877,2.27-1.316,3.4-.8,2.05-1.468,4.166-3.013,5.893a3.055,3.055,0,0,0-1.1.162c-1.706.954-3.385,2.051-5.063,3.09-.8,1.221-2.127,1.678-3.357,2.241-1.8.82-3.652,1.516-5.426,2.384a12.984,12.984,0,0,1-4.1,1.306,50.96,50.96,0,0,1-5.455.535c-2.356,0-4.721-.105-7.076-.22a17.47,17.47,0,0,1-2.7-.381l-.591-.763c-2.995-.668-6.218-.849-8.459-3.1C-99,7.264-99.514,7-100.792,5.615c.086-.821.086-.821-.3-1.374l-.954.42c-2.861-2.689-4.567-5.617-4.863-8.392l1.01-1.058,1.154.172.134-1.373a2.289,2.289,0,0,0-2.432.315c-.344-.325-.954.133-1.164-.582h1.24V-7.9l-1.631-2.365-.954,1.355c-.238-1.45-.763-2.508-.61-3.757a14.015,14.015,0,0,0-.162-2.26,3.827,3.827,0,0,1,.152-.859l1.525,1.65a.89.89,0,0,0,.553-1.183.954.954,0,0,1,.5-1.252.976.976,0,0,1,.215-.064l-.067-.066.211.505c.133,0,.219.086.257.066.439-.247,1.154.191,1.4-.552l-.057.057a2.346,2.346,0,0,0,1.507-1.317l-1.049-1.449-.057.057c.639-.562,1.259-1.135.954-2.127-.344-.21-.954.267-1.115-.439l.743-.9-.858-.62-.954,2.632.467,2.089-2.1,1.22-.953-.276-1.068-2.184.3-1.354-1.325-1.574a14.053,14.053,0,0,1,.324-2.947l1.774.276,1.087,3.872c.62,0,.573-.534.8-.791s.553-.705.772-.954l-.047-1.02,1.1-.1c.115-.686,1.144-.791,1-1.765-.953,0-1.726-.572-2.679-.391l-.524-.515-2.394-1.706-.953,2.021c-.163-.324-.363-.543-.324-.7.219-.8.505-1.574.763-2.365q1.382-4.233,2.746-8.468a2.049,2.049,0,0,0,0-.439l-.63-.772c.868-2.107,1.231-4.263,2.623-5.961.229.268.381.315.544.048m-35.283,29.2.181-.048-.152.105v.086Zm17.87-58.065c.2,0,.458.1.238-.267l-.19.315-.1.1ZM-135.856,1.161l.134-.057-.086.1-.363.181.306.3c.448.153.877.535,1.468.182-.544-.506-1.049-.086-1.525-.134Zm-4.52-2.794v.152l-.086-.086v-.086Zm4.11,9.221.105-.047v.114h-.553l-.42-.534h.057l.42.525.181.334Zm-5.073-11.939c.306-.057.7.238.954-.21-.42-.277-.677-.105-.868.267l-.1.105Zm35.722-10.041c.191-.2.734.152.705-.668l-.639.734c-.171,0-.514-.115-.267.3Zm21.542-59.5-.172-.124.239.057.514.705.163-.219Zm1.812-.428c-.362-.639-.953-.544-1.488-.382l1.459-2.1-1.907.258,1.04-1.421.066-.067v.125c-.467-.258-.2-1.106-.954-1.144l-.867,1.973-.134.152.077-.21.886.535c-.258.524-.954.953-.362,1.687l.82.143c.381.573.953.363,1.488.381,0,.248-.306.515.2.83l.172-.82c1.259.5,1.5,1.993,2.66,2.68l1.221.076.371-.657a7.026,7.026,0,0,1-.953-1.145A9.563,9.563,0,0,0-80.8-76.166l-.153-.057.143.067-.849,1.907Zm.954,201.857c-.515-.1-.582.172-.505.6.486,0,.629-.2.467-.639h.1ZM-.722-24.777c-.734.105-.953.582-.953,1.259-.705.105-.3.668-.41,1.011l-1.383-.1c-.534.411-.886.754-.763,1.345A.743.743,0,0,0-3.212-21a.743.743,0,0,0,.259-.258H-3.01l.858-.105v-1.2l.429-.954A1.5,1.5,0,0,0-.769-24.8l.086-.19ZM-54.371,131.155a2.821,2.821,0,0,0,.773-.258c.086-.057,0-.362,0-.553-.725,0-.821.353-.744.859l-.1.124ZM-6.691-22.088l1.649.267-.371-.782c-.6-.085-1.126-.247-1.412.392l-.143.267ZM-12.3-29.135h.838c-.152-.705-.152-.705-.7-.954a1.687,1.687,0,0,0-.105.954v.086ZM-139.431-18.588c.1.258-.172.687.552.811l-.609-.763-.268-1.393-1.058.22a1.535,1.535,0,0,0,1.383,1.125m15.477,27.12c0-.476-.267-.467-.573-.3-.047,0,0,.238,0,.41l.63-.162.238,1.277c1.154.82,1.154.839,1.993.811.191,0,.372-.191.592-.3l-1.469-1.564ZM-3.125-25.4l.105.105-.163-.048.086-.773a5.066,5.066,0,0,1-1.03-.181,9.485,9.485,0,0,1-1.164-.648l-1.183.9.182.715-1.078.057-.839-1.812.954-.829a2.05,2.05,0,0,0-2.117-.553,3.089,3.089,0,0,0,0,2.861l2.021.333c.334,0,.687.487.954-.047,1.173.543,2.241.066,3.271-.077m-127.267-1.765-1.42.782c-.954,2.384-.954,2.384-.621,3.815.639.143.954-.143,1.164-.82l-.333-1.03c.362-.61.782-1.231,1.116-1.908a2.188,2.188,0,0,0,0-.849h.1Zm41.2-45.41.066.057-.41-.514-2.746.7.449.849,1.973.877,1.355-.763.715.238c-.476.486-1.278.743-1.192,1.745l1.116.41,2.279-1.5a4.19,4.19,0,0,0,0-.457,3.361,3.361,0,0,0-.115-.63l.62-.954c.124-.162.429-.276.124-.62l-.076.668-.954-.8-.191,1.277-1.173.4-.21-.791Zm6.942,194.115.829-.248v-1.164l-.953.353c-.477-.7-.954-1.382-2.107-1.125l-.563.639.744,2.069,1.345.457.715-.953ZM-104.3-10.721c.067-.42,0-.734-.657-.859l-1.031.658-.428,2.508.953.858a1.908,1.908,0,0,0,1.67-1.592l-.5-1.116c.047,0,.152-.1.143-.124a2.373,2.373,0,0,0-.125-.333Zm22.886,140.493.057.057-.638-.306-.582.744-.877-.182v.9l1.964.744a4.29,4.29,0,0,0,4.062-.229,2.527,2.527,0,0,0-.066-2.641l-.9.1a1.182,1.182,0,0,1-.072,1.67,1.2,1.2,0,0,1-.2.151ZM-78.087-81.7c-1.373.6-1.144,1.7-1.515,2.641l2.011,1.144,1.04-.686-1.106-.9ZM-95.795-71.512l-1.173-1.507-1.441.734v1.908l1.364.285Zm-6.5,44.256.286-1.192-2.68-1.84-.5,1.068,1.153.428.83,1.707Zm83.115,10.49a1.81,1.81,0,0,0-1.03,1.907l.877.429,2.021-1.1-.115-.858-.687.371Zm-59.5,210.057,2.384-.258.8-.953-1-.734a2.564,2.564,0,0,0-2.184,1.945M-98.484,2.734a1.212,1.212,0,0,0,.51-1.635A1.253,1.253,0,0,0-98.1.9c-.163-.276-.515-.448-.754-.648a1.344,1.344,0,0,0-.6,1.764Zm15.4,116.2c.887-.448,1.64-.448,2.175-1.1.047-.877-.277-1.335-1.173-1.354a4.6,4.6,0,0,0-.963,2.45ZM-67.244-77.5l-1.03-1.727c-.763-.238-1.2,0-1.383.544-.076.229.077.534.134.858Zm51.065,51.7,1.907-.686-.4-1.068-1.678-.362c-.077.124-.163.19-.152.238a17.672,17.672,0,0,1,.371,1.916ZM-80.366,110.977l.954.229.954-1.736c-.763-.6-1.326-.267-1.908.152ZM-134.349.007c.457-.953,1.125-1.735.133-2.689-1.03.487-.705,1.468-1.1,2.222Zm3.509,8.086a8.521,8.521,0,0,0-.954-1.191.762.762,0,0,0-1.078-.039.758.758,0,0,0-.115.134c.057,1.211.057,1.211,1.736,1.7Zm59.934-64.081-.859,1.287a4.179,4.179,0,0,1,2.489.41L-69.629-56ZM-83.875-83.041c-.3.715-.734,1.268-.439,2.184l.954.667a6.906,6.906,0,0,1-.057-1.259c.057-.353.258-.686.344-1.039a1.459,1.459,0,0,0-.134-.392Zm-58.083,59.618a2.074,2.074,0,0,0-.582,1.641l.954.439.715-.562a1.479,1.479,0,0,0-1.087-1.526Zm51.189,155.1a.734.734,0,0,0,.949.421.744.744,0,0,0,.243-.154c.524-.372,1.115-.782.743-1.631-.514.458-.725-.181-1.173-.267ZM-74.32-60.365c1.077.724-.392,1.64.371,2.374.7.143,1.106-.19,1.364-.954-.582-.353-.4-1.459-1.745-1.44Zm63.757,22.752,1.011-.763-.573-1.5a1.364,1.364,0,0,0-1.137,1.558c0,.021.007.042.012.063ZM-54.715,146.794c0-.954-.353-1.44-1.115-1.593-.114,0-.258.115-.524.248l.21,1.04Zm35-153.1.705-.534a4.692,4.692,0,0,0,0-.9,2.354,2.354,0,0,0-.381-.61l-.954.467v1.154ZM-53.408,144.648c-.429-.62-.544-1.621-1.84-1.554.505.839.754,1.631,1.84,1.545ZM-91.217-73.487c0-.381.076-.657.1-.954,0,0-.1-.1-.172-.162A1.764,1.764,0,0,0-93.2-74ZM-9.333-33.55c.067,0,.143.1.191.076l1.6-.553c-.906-.61-.906-.61-1.783-.333a1.32,1.32,0,0,0-.143.4,1.262,1.262,0,0,0,.133.411M-82.416,127.4a2.707,2.707,0,0,0-.133-2.174c-.906.524-.582,1.2-.506,1.85Zm-53.4-150.143.725.3,1.135-.954-1.2-.953ZM-143.808.541c.2.763.581.829,1.116.419,0-.439.124-.954-.6-1.02ZM-11.945-20.505l-.782-.953-1.068.372c.363.686.821.886,1.822.581ZM-131.584-2.663l-.448,1.745L-131-.86ZM-27.594,98.179c-.258.344.076.544.19.791s-.057.649.458.6l.267-.639c-.21-.381-.286-.886-.915-.754M-87.585-81.582l.677.829c.343-.715.343-.715-.677-.829m12.8,206.425c-.639.743-.639.743-.7,1.411l1.173-.954Zm76.03-162.4-1.4-1.287c-.258.677-.229,1.2.486,1.574Zm-137.471,26.3c-.229.544-.839.839-.115,1.516l.954-.724Zm61.24-60.438c0,.953,0,.953.743,1.248ZM-140.07-10.321c.371.61.371.61,1.2.134-.381-.419-.734-.62-1.2-.086Zm63.633-48.413c-.2-.515-.391-.764-.839-.544-.258.505-.133.811.458.877Zm4.472,243.557c.3-.276.791-.439.315-.954-.505-.124-.839,0-.877.621Zm-7.447-64.845c-.086-.19-.1-.3-.143-.324-.258-.105-.525-.2-.782-.286,0,.124-.133.324-.1.343a5.009,5.009,0,0,0,.725.419,2.645,2.645,0,0,1,.3-.152M-65.27-68.232c-.182,1.087-.057,1.516.543,1.774l.7-.306Zm-37.7,54.116-1.067-.838-.115.953.6.325Zm45.2,174.365c-.315-.534-.544-.791-1.03-.514-.067.572.171.781,1.01.505ZM-.159-26.388c.362-.41.886-.525.61-1.269l-.782.163ZM-134.873-18.76c.3.63.534.716.9,0Zm-2.461,5.893c-.066.124-.2.267-.171.372a3.067,3.067,0,0,0,.353.657c.362-.581.419-.877-.2-1.039ZM-19-7.145c1.249.677,1.249.677,1.554-.258ZM-126.835,6.206c-.047-.125-.066-.306-.162-.363s-.248,0-.381.067l.181.5Zm-1.907,4.014c-.067-.782-.286-.953-.954-.591ZM-19.87,7.836l.592.591c.1-.734.1-.734-.61-.515ZM-129.381.617l-.849-.858c-.277.668-.01.811.849.858m4.911-64.31c-.62-.115-.877.143-1.067.668.591.2.887,0,1.067-.668m30.306-20.674-.563.668.716.267.3-.591Zm-10.49,72.34c-.381-1.135-.381-1.135-.954-.734Zm12.5-66.466c.439.211.525,0,.562-.333,0,0-.1-.066-.181-.134Zm14.036,273.806h.286V194.7h-.247Zm-8.391-76,.782.582.172-.362Zm32.632,34.139.363-.429-.553-.267-.229.306Zm-7.19,3.09c.219-.267,0-.362-.181-.439,0,0-.125.124-.114.133s.2.211.3.315ZM-73.281-71.017a2.306,2.306,0,0,0-.19.3s.115.134.152.124a2.127,2.127,0,0,0,.333-.19Zm59.839,49.349-.868-.553-.152.353Zm-4.549,2.021c-.353-.429-.687-.458-1.031,0,.344.487.639.4,1.031,0M-14.234-35.2a.758.758,0,0,0-.124.066.977.977,0,0,0,.134.334l.152-.067Zm-.171,20.092-.392-.162c0,.124-.152.267-.124.372a.363.363,0,0,0,.324.143c.105-.048.133-.22.191-.344Zm-56.1-45.638h-.152v.534h.152Zm-36.771,48.633.067.172.066-.172ZM-90.34,132.662v.162c0,.019.124,0,.19,0l-.047-.267Zm34.6-1.659.181-.077-.181-.076Zm-27.979-2.442-.143-.362c-.057,0-.152.048-.152.086a2.047,2.047,0,0,0,0,.353Zm-.229,6.094.268-.057-.105-.591-.3.057ZM-98.484-75.918l.333.162v-.3Zm28.884.229-.1-.153-.134.115.181.191Zm55.566,39.6c0-.057,0-.134-.1-.153a.72.72,0,0,0-.2,0l.124.258ZM-137.859-13.868l-.076-.163-.077.163ZM-6.415-18.379a.214.214,0,0,0-.162.125c-.019.056.057.115.1.172l.258-.2ZM-123.211.951a.422.422,0,0,0,.152,0,.215.215,0,0,1,.048-.134.422.422,0,0,0-.152,0,1.242,1.242,0,0,1-.048.134m53.525-69.9v0Zm-53.144,2.116a3.324,3.324,0,0,0-.439-.172s-.124.152-.115.172.172.22.258.22.181-.124.286-.22Zm-.849,69.164h-.143a.448.448,0,0,0,0,.172h.239ZM-140.442-8.2s-.066-.124-.115-.124-.086.066-.134.1.067.124.114.124.048-.057.134-.1M-124.1-2.8l-.077.115h.115Zm-20.664-12.177.077-.115h-.114Zm6.094,3.128-.105-.076v.114Zm121.641.315v.286l.143-.124ZM-126.911,5.147l.076-.105h-.1ZM-134.177,1l-.1-.076v.1Zm57.625-58.255-.077.1h.105Zm-63.662,6.189.162-.133a.187.187,0,0,0-.133-.143c-.048,0-.105.076-.163.124ZM-3.85-19.027s.124-.066.134-.115-.066-.1-.105-.143-.124.067-.133.115.124.1.162.143Zm-130.871,1.554v.134h.133Zm27.95-17.822-.086.115h.124Zm29.38,161.158-.1-.134s-.125.066-.125.115.067.086.1.134Z" transform="translate(166.952 114.35)"/>
      </g>
      <g id="Group_403" data-name="Group 403" transform="translate(99.354 0)">
        <path id="Path_899" data-name="Path 899" class="cls-4" d="M-3.726-10.609a1.21,1.21,0,0,0,.569-1.224,11.4,11.4,0,0,1,.277-2.606l.521-.4c.427-.067.846.352,1.238-.041h-.041c.1.108.237.2.271.332.162.555.283,1.116.433,1.671,0,.088.128.156.2.23l.635.081.975-.541.365-.968L.491-15.224H-1.148l.047.047-.365-.365h.041c-.068-.392.2-.6.46-.792,2.348-1.739,3.539-4.311,4.852-6.767a1.236,1.236,0,0,0,.156-.46A5.854,5.854,0,0,0,4.1-25.172c-.128-.629.419-1.062.3-1.678a8.571,8.571,0,0,1,0-1.57,1.415,1.415,0,0,0-1.462.169A8.288,8.288,0,0,1-.816-26.9a3.213,3.213,0,0,0-.771.236,14.762,14.762,0,0,1-5.075.907c-1.455.061-2.917,0-4.467,0l-.108-.818h-.778l-.136.785c-.1.041-.2.122-.3.114a15.956,15.956,0,0,1-5.685-1.143c-.941-.406-1.888-.792-2.842-1.177a7.326,7.326,0,0,1-2.43-1.584c-.995-.982-2.064-1.895-3.079-2.863a14.889,14.889,0,0,1-3.465-5.414c-.3-.751-.589-1.509-.927-2.239a4.3,4.3,0,0,1-.44-2.321c.169-1.5.311-3,.487-4.737.041-.094.379.1.758-.088l.508-.555a1.036,1.036,0,0,0-.86-.954l-.067-.636.527-.561-.142-.914-.568-.44.128-1.787,1.272.237c.344-.453.067-.9.175-1.293s.25-.677.392-1.082l-1.218-.677a17.05,17.05,0,0,1-.379-2.165c-.067-1.238,0-2.484,0-3.857l-2.2-2.423c-.115-.3-.3-.8-.494-1.3a1.7,1.7,0,0,0-1.875-1.224,2.384,2.384,0,0,1-.405-.048c-.474-.677-1.482-1.015-1.685-2.1l-1.956-.495a2.047,2.047,0,0,1-.189-.25c-.264-.4,0-1-.467-1.306A5.509,5.509,0,0,0-41.3-72.135a1.191,1.191,0,0,1-.772-.494,11.149,11.149,0,0,0-2.294-2.9,10.066,10.066,0,0,1-2.524-4.446,23.232,23.232,0,0,0-1.029-2.707l-.5-1.293c-.1-1.151-.2-2.031-.231-2.977,0-.589.054-1.185.1-1.774a18.827,18.827,0,0,0,.067-3.864,10.681,10.681,0,0,1,0-1.354c.481-.717,1.083-1.542,1.61-2.422s.9-1.706,1.354-2.6l1.164-.163a14.015,14.015,0,0,1,4.839-2.49c1.293-.366,2.525-.934,3.8-1.354a24.447,24.447,0,0,0,5.1-2.03,3.539,3.539,0,0,1,1.069-.38,30.826,30.826,0,0,0,6.767-2.591c2.031-.974,4.06-2.071,6.172-3.174.927-1.415,1.915-2.9,2.889-4.385.535-.812,1.069-1.624,1.563-2.47.866-1.5,1.793-2.964,2.524-4.527a43.611,43.611,0,0,1,4.06-6.612,5.66,5.66,0,0,1,.921-.9c.163-.142.419-.2.528-.366,1.353-1.969,3.687-2.808,5.136-4.649a2.02,2.02,0,0,1,.6-.541A20.04,20.04,0,0,1,6.4-137.533c.785-.182,1.57-.352,2.612-.588,1.035.318,2.308-.108,3.579-.271a18.1,18.1,0,0,1,4.995.061,34.94,34.94,0,0,1,7.139,2.03,2.791,2.791,0,0,1,1.523,1.137,3.7,3.7,0,0,0,1.238,1.259,1.594,1.594,0,0,1,.386.3c1.739,2.064,3.965,3.681,5.454,5.976.6.325.366,1.042.738,1.523a16.989,16.989,0,0,1,1.313,2.348c-.332.466-.907.3-1.285.574l-.677-.392c-.413,0-.494.271-.494.6l1.454,2.03.528-.352,1.157.528c-.033,1.428.711,2.828.108,4.161.068.86.833,1.036,1.124,1.421a3.058,3.058,0,0,1,0,1.929,35.939,35.939,0,0,1,1.61,4.142,4.578,4.578,0,0,1,1.936,1.259,4.263,4.263,0,0,0,2.172,1.354,8.127,8.127,0,0,1,2.416,1.218l-.1,1.129h-.115l.075-.06a2.6,2.6,0,0,1,.575.2,2.539,2.539,0,0,0,2.625-.033.282.282,0,0,1,.041-.15h-.048l.711-.372v.034l1.164.474-.216.805c-.244,0-.521,0-.575.358l-.677.278-.1.033.081-.054.677-.3c.271.048.453.488.852.129l-.291-.474.494-.061.413.318.366-.48.582.155.392-.372,1.909.433.155.392c1.78.5,1.429.237,3.147,1.624.054,0,.115.054.156.041.243-.094.487-.2.73-.3a4.212,4.212,0,0,1,2.145.676,15.114,15.114,0,0,1,5.975,4.853c.609.893,1.177,1.814,1.834,2.666a4.524,4.524,0,0,1,.907,2.707c0,1.022,0,2.031-.054,3.08-.067,1.354-.169,2.707-.277,4.06-.088,1.123-.21,2.247-.318,3.383l-1.171.738-.325.852c-.088.067-.169.169-.257.183a2.235,2.235,0,0,0-1.713,1.354c-.635,1.123-1.265,2.253-1.827,3.417a10.023,10.023,0,0,1-.894,1.523,34.889,34.889,0,0,1-4.06,5.028,5.479,5.479,0,0,0-.507.677L57-66.079a2.574,2.574,0,0,0-.677,1.441c-.244,1.049-.541,2.084-.8,3.133a3.451,3.451,0,0,0-.163,1.11,5.3,5.3,0,0,1-.385,2.361c-.278.758-.461,1.55-.677,2.321a3.38,3.38,0,0,0-.128,1.868l-.616,1.617-1.293-.3-.561.453.318.488,1.3.149,1.651.907.054.826a2.605,2.605,0,0,0-1.8.447c-.562.677.189,1.394-.352,2.03.676.149.676-.46,1.068-.541l.731.067.805-.6c.149.081.23.1.244.128a3.781,3.781,0,0,1,.271,1.063c0,1.171.582,2.281.284,3.491l-1.022-.142-.785.677.6.86-.054.047v-.081l1.489-.622a4.587,4.587,0,0,1-.23,2.538c-.311.974-.636,1.949-1.022,2.9a2.032,2.032,0,0,0,0,1.773,5.341,5.341,0,0,1-1.793,2.917,2.454,2.454,0,0,0-.535.8,8.544,8.544,0,0,1-2.2,2.768,2.943,2.943,0,0,0-.522.615,2.766,2.766,0,0,1-.392.514c-1.82,1.422-3.3,3.283-5.454,4.263a3.992,3.992,0,0,1-1.063.38,31.975,31.975,0,0,1-4.311.676,11.478,11.478,0,0,0-1.577.2c-1.461-.155-2.754-.244-4.06-.446a37.7,37.7,0,0,1-4.276-.886,7.281,7.281,0,0,1-1.962-1.11,6.143,6.143,0,0,0-2.93-1.191c-1.056-.582-2.031-1.076-2.937-1.638a23.53,23.53,0,0,0-2.707-1.948,4.893,4.893,0,0,0-.088.812,28.67,28.67,0,0,0,.676,4.974,1.371,1.371,0,0,1,.081.48,6.63,6.63,0,0,0,.961,3.383,24.587,24.587,0,0,1,.968,3.079c.061.2.054.434.122.636a11.336,11.336,0,0,0,.5,1.2c.819,1.638,1.232,3.472,2.172,4.737C25.955-8.931,28.1-8.125,29.94-6.792a9.291,9.291,0,0,0,4.453,1.82,23.227,23.227,0,0,1,3.452.86c1.617.447,3.235.88,4.831,1.354a17.414,17.414,0,0,1,4.642,2.3c.583.4,1.151.806,1.719,1.219a3.247,3.247,0,0,1,1.353,1.894V4.346c.474.623,1.3.975,1.441,1.875a4.994,4.994,0,0,1-.5,2.748,11.706,11.706,0,0,0-2.551,3,8.282,8.282,0,0,1-1.57,1.774c-1.3.3-2.4.555-3.491.8A3.736,3.736,0,0,1,41.8,14.5a6.689,6.689,0,0,0-1.726-.4,11.385,11.385,0,0,1-3.9-1c-.853-.332-1.773-.528-2.592-.92-1.848-.88-3.743-1.719-5.075-3.384a3.752,3.752,0,0,0-.677-.676,8.8,8.8,0,0,1-2.362-3.059c-.832-1.509-1.536-3.093-2.294-4.649a6.861,6.861,0,0,0-.582-1.158,11.617,11.617,0,0,1-2.031-5.069,22.6,22.6,0,0,0-.629-2.172q-.2-.676-.38-1.387c-.054-.21-.054-.433-.122-.636-.622-1.787-1.238-3.566-1.881-5.346-.453-1.266-.974-2.511-1.387-3.8-.264-.818-.366-1.684-.582-2.517a13.688,13.688,0,0,0-.461-1.292c-.433,0-.392.3-.392.487,0,2.484-.169,4.981,0,7.444.3,4.365.2,8.757.819,13.108a52.468,52.468,0,0,0,.785,7.079,26.7,26.7,0,0,0,.609,2.842c.074.318.21.615.264.934A38.575,38.575,0,0,0,19.059,15.3a31.54,31.54,0,0,0,1.956,4.256Q23,23.268,24.94,27a11.969,11.969,0,0,1,.507,1.313c-.358.433-.94.332-1.184.886-.128.3-.677.4-1.1.6a3.537,3.537,0,0,1-.089.48c-.02.156-.033.319-.054.488l.629.751.677.041L25.6,29.9A12.885,12.885,0,0,1,26,33.75l-.3.419h.041l-.487-.548-.677.677.067,1.238-.6,1.245A1.252,1.252,0,0,0,23,37.891l.149.988-.494.629.44.312v.812c-.277.6-.805.73-1.312.968l-.129.555c.223.318.413.074.6.041-.067-.041.129.2-.047.041l.345-.223c.474.345.21.852.392,1.238l.677.941-.488.413v1.9l.575.765-.358.846-.758-.128-1.354.677.169.778h1.354A10.918,10.918,0,0,1,21.5,53.32a45.294,45.294,0,0,0-3.194,8.48c-.46,1.827-1.09,3.62-1.61,5.414-.325,1.137-.569,2.294-.88,3.437-.155.562-.386,1.1-.677,1.942,0,.5-.074,1.307-.094,2.118a5.536,5.536,0,0,1-.386,2.031,10.582,10.582,0,0,0-.345,3.512c-.041.677-.054,1.4-.142,2.1-.041.325-.243.6-.771.555a4.622,4.622,0,0,1-.318-.63,13.878,13.878,0,0,1-.86-4.107c-.054-1.4-.142-2.808-.223-4.237A5.151,5.151,0,0,1,10.763,71a20.069,20.069,0,0,0-1.354-3.817c-.8-2.125-1.584-4.25-2.416-6.361-.338-.853-.771-1.665-1.164-2.5A117.814,117.814,0,0,1,.971,45.971,55.972,55.972,0,0,1-.782,38.4c-.183-.955-.392-1.9-.636-2.836a17.453,17.453,0,0,1-.427-8.019c.278-1.354.461-2.659.785-3.965a20.51,20.51,0,0,1,1.651-4.21A87.879,87.879,0,0,1,6.8,9.307a22.843,22.843,0,0,0,3.12-7.444A33.554,33.554,0,0,0,10.655-3.1c.149-1.542.067-3.146.676-4.419-.047-1.1-.108-2.03-.108-2.924a.826.826,0,0,1,.569-.886l.033.081-.067-.094.291-.935-.73-.365c-.047-5.414.047-10.828-.494-16.574a4.823,4.823,0,0,0-.386.853q-.5,2.876-.96,5.752a3.8,3.8,0,0,0,0,1.13,10.323,10.323,0,0,1-.325,3.383l-1.3.535-.488,1.143A2.089,2.089,0,0,0,8.611-14.9c-.223.467-.413.846-.589,1.238-.569,1.285-1.1,2.578-1.692,3.851-.358.771-.805,1.5-1.3,2.4l-.5,1.97A2.189,2.189,0,0,0,3.386-4.092c-.175.453-.325.914-.514,1.354A4.94,4.94,0,0,1,1.519-.4,33.9,33.9,0,0,0-.511,3.278,12.312,12.312,0,0,1-2.677,7.054a5.958,5.958,0,0,0-1.557,3.072c-4.412,3.465-9.257,5.136-14.928,3.3-1.353-.812-2.707-1.671-4.114-2.484a5.107,5.107,0,0,1-2.031-2.03c-.155-.284-.332-.555-.5-.832a8.126,8.126,0,0,1-1.286-5.1A29.285,29.285,0,0,1-26.76-.4,11.109,11.109,0,0,1-22.362-7a1.355,1.355,0,0,1,.521-.23c1.895-.284,3.526-1.292,5.306-1.895.676-.223,1.353-.405,1.867-.575A56.843,56.843,0,0,1-5.12-13.384l.6,1.043.135-.054.264,1.421h.047c-.236.271-.724.38-.6,1.035a2.788,2.788,0,0,0,.6-.25,2.241,2.241,0,0,0,.358-.433ZM4.747-8.68l.075-.048-.034.1L4.361-8.68c-.054-.264-.23-.311-.405-.15s-.068.345.122.461c.054.2-.068.541.379.48l-.088-.48ZM46.277-43.8l.332-.319h.054v.061a.285.285,0,0,0-.324.238.261.261,0,0,0,0,.08l-.223.142.189.2.048.1-.089-.061ZM-13.132-27.919c-.054,0,.122.183-.041.041l-.041-.088ZM-4.051-5.107a.385.385,0,0,0-.122,0v.088l.1-.149c.163,0,.319,0,.136-.2ZM22.24-83.084l.338.352c.406.358.9.25,1.354.284.3,0,.677,0,.8.392l-.392.832.676.453,1.056-.291.595-.893-.358-.853-.886.231-1.164-.677a4.058,4.058,0,0,0-1.754.582q.035-.366-.332-.358c0-.15.089-.325-.182-.2Zm3.566,9.731.033.1-.061-.1-.041-.067ZM31.619-118.8h0v-.074ZM.822-56.077H.686l.1-.067.122-.1ZM26.8-72.4l-.041.041c-.122-.115-.216-.379-.48-.081Zm3.877-2.564.264-.223-.271-.088.616-.636c-.616.088-.792-.88-1.394-.521-.379.46.081.778.163,1.157l-.115.094.068-.135h.676v.385c-.155,0-.338-.067-.169.2ZM-11.46-45.121c-.067.223-.38.379-.183.677l.886-.136-.751-.535.865-.561h-1.353ZM27.789-74.01l-.041.041c-.142-.21-.3-.419-.433-.636s-.217-.4-.338-.622l-.528.461c.433.2.69.832,1.326.751Zm7.126-45.13c.277.1.48.474.818.243a4.9,4.9,0,0,1,0-.886c.068-.365-.162-.291-.44-.324l-.358,1.008-.42-.081c-.074.318,0,.527.386.677ZM27.146-84.032l-.38-.339.583-.3,1.3.927c-.237.744.474,1.218.257,1.887l.772.555,1.143-.717.812.894-.514,1.434a9.419,9.419,0,0,0-.778-.541c-.258-.142-.264-.677-.839-.453a1.753,1.753,0,0,0,.25,1.827l-.074.088.041-.122c.568,0,.223-.677.446-.73l.934-.122c.569-.23.677.366,1.063.548l.677-.277c1.1.961,1.354,2.355,1.875,3.241.169,1.022.291,1.76.405,2.5a3.69,3.69,0,0,1,.089.805,14.59,14.59,0,0,0,.345,3.648,18.529,18.529,0,0,1,.257,3.985,6.83,6.83,0,0,0-1.151,2.152,5.161,5.161,0,0,1-.48,1.016,28.066,28.066,0,0,0-2.707,4.2c-.677.6-1.1.974-1.489,1.4A35.05,35.05,0,0,1,27.6-53.891a23.573,23.573,0,0,1-3.032,2.139A6.055,6.055,0,0,0,22.212-49.4v.9c-.507.23-1.082.094-1.353.676l-.088.738c-.766.081-1.516.128-2.261.244A11.067,11.067,0,0,1,13.1-47.4a9.668,9.668,0,0,0-1.076-.366,21.783,21.783,0,0,0-3.133-.778,11.5,11.5,0,0,1-5.772-2c-1.13-.108-2.031-.156-2.883-.3-.325-.054-.609-.366-.934-.568l-3.58-1.354.392-1.008-.46-.427.033.034-.372-.25-1.055.609a10.235,10.235,0,0,1-2.45-2.653c-.757-1.354-2.111-2.321-2.409-3.952A7.768,7.768,0,0,1-11.67-63.6c-.339-1.922-.819-3.8-1.272-5.691a7.982,7.982,0,0,1-.183-2.084c0-1.076.223-2.153.236-3.235a7.805,7.805,0,0,1,.522-2.856,31.533,31.533,0,0,1,2.084-4.384q1.055-1.733,2-3.519a32.608,32.608,0,0,1,3.64-4.737,1.4,1.4,0,0,1,.25-.21A20.913,20.913,0,0,1-.619-93.093a7.028,7.028,0,0,0,.907-.676c.677-.453,1.353-.935,2.03-1.354,1.124-.636,2.314-1.171,3.424-1.82a42.554,42.554,0,0,1,6.422-3.039c2.369-.9,4.737-1.84,7.112-2.707a16.382,16.382,0,0,1,5.319-1.354,1.567,1.567,0,0,0,1.252-.433,5.929,5.929,0,0,0-1.09-.427,30.5,30.5,0,0,0-5.786-.676,6.723,6.723,0,0,1-1.434-.211,16.636,16.636,0,0,0-3.682-.514c-1.949.054-3.9.048-5.84.081a8.434,8.434,0,0,0-1.455.1q-2.146.42-4.276.907a28.271,28.271,0,0,0-7.228,2.789c-.947.513-1.834,1.15-2.747,1.725a3.467,3.467,0,0,0-1.171,1.32A7.35,7.35,0,0,1-11.2-96.727a21.866,21.866,0,0,0-4.683,4.892,1.552,1.552,0,0,0-.311.562,20.678,20.678,0,0,1-1.726,4.7,2.677,2.677,0,0,0-.149.629l-2.382,9.934a5.172,5.172,0,0,0-.135,1.124c0,2.03,0,4.107-.067,6.165a8.552,8.552,0,0,0,1.015,4.209,26.09,26.09,0,0,1,1.171,3.255l-.549,2.192,1.55,2.206c.189.535.237,1.3,1.015,1.6h.7a6.7,6.7,0,0,1,1.725,2.389,40.108,40.108,0,0,0,3.708,5.888l.183,1.279h1.354c.812.805,1.59,1.556,2.341,2.334s1.848,1.32,2.484,2.382l-.677,1.069-.1.115.054-.156a3.309,3.309,0,0,0,2.761.63l-.1-.677a4.665,4.665,0,0,1,3.655-.2,24.956,24.956,0,0,0,3.262.927c2.139.3,4.3.453,6.449.676.48.041.96,0,1.441,0v-.169l-1.482-.271a14.215,14.215,0,0,1,3.248-.155c1.171.088,2.362-.176,3.526.263a1.849,1.849,0,0,0,1.083-.2q3.816-1.353,7.62-2.707a14.188,14.188,0,0,0,5.738-3.214,14.831,14.831,0,0,0,3.019-3.147c1.874-2.646,3.762-5.278,5.7-7.883A4.312,4.312,0,0,0,42.1-58.1c.271-1.922.622-3.837.866-5.766a9.974,9.974,0,0,0,.048-4.337,9.45,9.45,0,0,1-.311-3.052,6.238,6.238,0,0,0-.393-2.22,11.586,11.586,0,0,1-1.028-3.383c0-.677-.109-1.394-.17-2.2-.283-.677-.6-1.5-.954-2.287a15.381,15.381,0,0,0-.907-1.706c-.88-1.42-1.8-2.821-2.707-4.236-.345-.541-.677-1.1-.941-1.556a12.327,12.327,0,0,1-4.345-2.031c-.636-.5-1.353-.927-1.976-1.415a5.039,5.039,0,0,0-1.887-.886c-1.415-.338-2.808-.737-4.277-1.129l-.535-.609-.352.433H20.8a19.309,19.309,0,0,0-8.8,1.57c-1.523.677-3.025,1.441-4.562,2.1A39.527,39.527,0,0,0,.355-86.285,2.1,2.1,0,0,0-.2-85.7c-.514.826-1.008,1.658-1.5,2.5-.244.413-.474.839-.677,1.259a7.374,7.374,0,0,0-.514,1A44.893,44.893,0,0,0-4.531-76.21a42.77,42.77,0,0,1-1.5,5.123,5.19,5.19,0,0,0,.189,3.465,1.158,1.158,0,0,0,.427.677A2.313,2.313,0,0,1-4.443-65.5a3.3,3.3,0,0,0,1.78,2.03A5.931,5.931,0,0,1-.6-61.7c.487.575.988,1.144,1.475,1.719a1.673,1.673,0,0,1,.156.271l-.163.791.447.541c.757.081.866-.474,1.116-.832.616,0,1.238.1,1.671-.453H4.07a13.014,13.014,0,0,1,4.1.4,6.036,6.036,0,0,1,.677-.494c.25-.141.514-.3.771-.446l-.324-.345a2.34,2.34,0,0,1,1.671.223l-.088.075.054-.109,2.314,1.408a8.093,8.093,0,0,0,1.171-.2c2.416-.778,4.818-1.59,7.234-2.369a3.312,3.312,0,0,0,1.76-1.191,23.608,23.608,0,0,1,1.076-2.47c.974-1.7.677-3.491.311-5.2a15.25,15.25,0,0,1-.5-3.993,6.081,6.081,0,0,0-.42-2.538,4.763,4.763,0,0,1-.284-.927,1.7,1.7,0,0,1,.109-.575l.873.109.3-.731c-.474-.873-1.394-.859-2.031-1.245a12.492,12.492,0,0,1-4.567-.372,6.509,6.509,0,0,0-3.174-.163c-.508.487-1.11,1.029-1.665,1.6s-1.218,1.353-1.861,2.03a4.159,4.159,0,0,0-1.09,1.773,1.913,1.913,0,0,0,.108.731h2.071c1.353.852,2.957,1.211,4.222,2.348.488,1.42-.974,2.158-1.231,3.322h-.453L13.93-67.656c-2.247.575-4.257-.047-6.416-.73a10.521,10.521,0,0,1-2.233-4.06A9.155,9.155,0,0,1,5.8-77.414c.894-1.3,1.665-2.342,2.348-3.431a19.915,19.915,0,0,1,2.5-3.166,16.32,16.32,0,0,1,1.935-1.448,13.308,13.308,0,0,1,1.793-1.077c.555-.311,1.124-.588,1.949-1.015a9.553,9.553,0,0,1,2.111.068,19.738,19.738,0,0,1,3.2,1.068,16.583,16.583,0,0,0,3.8,1.354l.163,1.245,1.231-.568.372.345-1.116.826a2.879,2.879,0,0,0,1.679-.42.517.517,0,0,0-.63-.405Zm-40.948,38-.365.149a.961.961,0,0,0,.513.954c.109.048.271,0,.549-.047l-.724-1.1h.081ZM27.809-80.54c-.122-.257-.284-.311-.467-.074,0,.033.068.155.115.277l.379-.257L27.2-79.187l.677.271c-.094-.6.528-.886.481-1.462ZM7.934-23.27l.175.175-.061-.291a1.352,1.352,0,0,0-.622-1.076c-.067-.047-.2,0-.379,0l-.068.954Zm27-88.7-.075-.075.1.054a1.574,1.574,0,0,0,.676,1.353.676.676,0,0,0,.438-.851.682.682,0,0,0-.113-.211.905.905,0,0,0-1.021-.271m-46.47,70.229-.041-.1.067.061.583,1.218.757-.3c-.169-.5.3-1.008-.2-1.408Zm10.774-16h.344l.3-1.212-.791-.325-.63.752.217,1.055.574-.332ZM25.847-76.812l-.041-.041c-.054.284-.054.535.426.582a3.009,3.009,0,0,0,1.191-1.157l-.724-.609v-.677l-.677-.358-.677.426-.175.609-.616.3.2.792Zm24.7,27.745a8.914,8.914,0,0,0,.791-.588c.1-.089.109-.291.183-.508l-.677-.819-1.021.461c-.189-.677-.128-1.354-.9-1.645-.447.108-.934.183-1.137.758l.88,1.3h.677c.263.44.433.988,1.224,1.029ZM-2.122-52.619a2.031,2.031,0,0,0,2.538.244L-.471-53.1-1.3-54.731c.033-.189.163-.46-.149-.676-.677.115-.677.115-1.043,1ZM1.167-15.6c.88-.183,1.584.676,2.5.527.141-.4-.2-.46-.3-.568l-.291-1.394A1.352,1.352,0,0,0,1.654-17l.163.366c-.067.44-.86.344-.65,1.035M-2.8-9.255l-.758-.264c-.433.982-.433.982-.115,1.767l.879-.136Zm52.012-37.7a2.429,2.429,0,0,1-.392-1.848c-.677.1-.8.616-.995,1.151l.258.6Zm4.615,2.409c-.372.352-.8-.433-1.151.074,0,.4.271.541.609.6a.852.852,0,0,0,1.076-.433c-.047-.277.142-.676-.332-.771ZM19.235-86.921h-.791l-.2,1.029.677.236c.548-.372.677-.744.277-1.265ZM-3.232-56.95c-.677-.1-.913.041-.873.677l.96.263ZM23.985,33.784c-.094-.427.1-.954-.6-1.185l-.366.853.508.615ZM-.376-8.659l.766-.9C.152-9.8.192-10.31-.4-10.2l-.4.758Zm51.309-92.425c-.542-1.11-.542-1.11-.805-1.029l-.42.677.9.595ZM4.307-13.715c.142-.3.413-.426.169-.677a3.8,3.8,0,0,0-.622.034,1.933,1.933,0,0,0-.589.1c-.081.033-.1.23-.169.426Zm20.9-62.169c-.42.332-.569.575-.3,1.008l.894.122Zm22.135,33.9-.1.568,1.2,1.083.067-.528ZM-9.031-2.278h1.312c-.379-.2-.6-.765-1.15-.494Zm60.816-53.46c.047.46-.081.846.427.826.433-.935.433-.935.2-1.191Zm-69.566,6v-.311l-.744-.467c-.338.366-.244.616.128.893ZM.794-9.133l.311.737c.359-.033.677.115.874-.324ZM31.389-74.145l.257.521,1.09-.223-.575-.582ZM49.66-44.884c.2.677.2.677.677.609l-.189-.711ZM29.359-95.82l-1.475.128-.048.38c.264.257.447-.075.677-.108s.636.318.886-.393ZM-.051-54.731c.406.089.677.176.813-.135s0-.4-.339-.488Zm4.3,33.836c.338-.386.433-.677-.081-.954l-.5.332ZM2.5-18.188c.46-.128.561-.358.291-.832l-.629.453ZM27.964-72.257c.907.075.907.075.941-.548Zm16.241-33.158c-.2.324-.324.548,0,.8.1-.236.474-.386.054-.791ZM28.838-68.874c-.122-.433-.453-.372-.758-.3s-.392.189-.189.541c.345-.175.738.284,1.021-.236Zm2.646-53.6.345-.318-.372-.677-.406.582ZM2.669-10.493c-.379.115-.5.291-.352.588l.352.089Zm21.709-61.96L25.4-72.7c-.2-.419-.352-.405-1.022.258ZM54.871-41.02c-.088.3-.278.541.135.71.122-.216.258-.406-.135-.7ZM38.63-106.83l.047.514.494-.054ZM5.227-15.576c-.413-.088-.582-.183-.676-.136-.223.142-.163.332,0,.522ZM-8.524-4.18c-.054-.2-.094-.636-.474-.319Zm7.309-3.776c0-.041-.075-.122-.088-.115a2.481,2.481,0,0,0-.271.136c.054.054.136.169.163.155a.727.727,0,0,0,.2-.183Zm5.61-4.92-.677.041c.244.318.42.332.677-.047ZM.727-37.677l-.115.041c.028.082.059.163.1.244l.136-.048ZM-17.781-27.364l.258-.061ZM7.934-21.5c.426.141.426.141.575-.2l-.413-.2ZM-5.7-55.677l-.25-.122c-.041.088-.122.189-.1.257s.156.089.244.136ZM17.99-84.918c-.19.115-.271.142-.271.163a1.074,1.074,0,0,0,.041.236Zm-25.459,22.8c-.054-.257-.175-.358-.419-.189a.149.149,0,0,0-.047.136c.135.257.3.2.48.054ZM-.749-8.295v.129h.38v-.1Zm-8.635-.913v.1a.478.478,0,0,0,.136,0l-.041-.163ZM21-81.934c-.041,0-.075-.075-.115-.075a.323.323,0,0,0-.122.054c-.041.02.075.074.108.074a.461.461,0,0,0,.142-.054Zm1.57.284-.115.04.108.042Zm-39.249,54.9a.5.5,0,0,0-.129,0,.123.123,0,0,1-.041.088.433.433,0,0,0,.129,0,.593.593,0,0,1,.047-.088Zm4-19.408v-.108a.408.408,0,0,0-.142,0l.041.176Zm64.626,3.5v.122a.369.369,0,0,0,.142,0l-.041-.2ZM-5.187-10.8l-.223-.061c0,.033,0,.1.041.108a.608.608,0,0,0,.189-.048Zm6.679,0a.389.389,0,0,0-.128-.034.115.115,0,0,1-.041.088.338.338,0,0,0,.122,0l.054-.074Zm50.828-39.3h-.1v.345h.1ZM-5.391-11.536l-.1-.081A1.9,1.9,0,0,0-5.6-11.4s.067.047.108.074Zm2.145-42.836-.108.094c0,.034.061.1.1.1s.074-.054.108-.088Zm1.313-4.06.061-.088h-.1Zm-12.7,50.7a.134.134,0,0,0,.094-.1c0-.034-.054-.067-.081-.108s-.094.061-.094.094.054.014.081.047Z" transform="translate(48.653 138.536)"/>
      </g>
    </g>
    <g id="Group_405" data-name="Group 405" transform="translate(156.381 -458.681)">
      <path id="Path_901" data-name="Path 901" class="cls-4" d="M0-.062.433.216.549-.718l-.4-.088Z" transform="translate(0 0.806)"/>
    </g>
    <g id="Group_406" data-name="Group 406" transform="translate(172.311 -396.457)">
      <path id="Path_902" data-name="Path 902" class="cls-4" d="M0-.01.128-.084.041-.125Z" transform="translate(0 0.125)"/>
    </g>
    <g id="Group_410" data-name="Group 410" class="cls-3" transform="translate(0 -579.875)">
      <g id="Group_407" data-name="Group 407" transform="translate(196.544 33.839)">
        <path id="Path_903" data-name="Path 903" class="cls-4" d="M0-.014c.23-.3.44-.122.677,0V-.048H-.044Z" transform="translate(0.044 0.181)"/>
      </g>
      <g id="Group_408" data-name="Group 408" transform="translate(199.373 34.446)">
        <path id="Path_904" data-name="Path 904" class="cls-4" d="M-.012-.015-.154-.062A.913.913,0,0,1,.009-.2s.067.061.108.1Z" transform="translate(0.154 0.198)"/>
      </g>
      <g id="Group_409" data-name="Group 409" transform="translate(196.49 34.006)">
        <path id="Path_905" data-name="Path 905" class="cls-4" d="M-.008-.029a1.089,1.089,0,0,1-.1-.23l.1-.115H-.063V.018Z" transform="translate(0.11 0.374)"/>
      </g>
    </g>
    <g id="Group_411" data-name="Group 411" transform="translate(173.746 -407.136)">
      <path id="Path_907" data-name="Path 907" class="cls-4" d="M-.006-.006-.04-.067-.081-.073Z" transform="translate(0.081 0.073)"/>
    </g>
    <g id="Group_412" data-name="Group 412" transform="translate(143.902 -452.347)">
      <path id="Path_908" data-name="Path 908" class="cls-4" d="M0,0,.379.37V.323L.028-.029Z" transform="translate(0 0.029)"/>
    </g>
    <g id="Group_413" data-name="Group 413" transform="translate(146.501 -456.861)">
      <path id="Path_909" data-name="Path 909" class="cls-4" d="M0,0V.372L.041.3V0Z"/>
    </g>
    <g id="Group_414" data-name="Group 414" transform="translate(146.549 -456.556)">
      <path id="Path_910" data-name="Path 910" class="cls-4" d="M-.027,0H.02L-.027-.051ZM-.359,0h.047L-.359-.051Zm.047,0,.284.284V0Zm.284.319L-.015.293-.027.281Z" transform="translate(0.359 0.051)"/>
    </g>
    <path id="Path_911" data-name="Path 911" class="cls-4" d="M169.372-472.474h1.65v-.047h-1.65Z" transform="translate(-12.97 -8.221)"/>
    <path id="Path_912" data-name="Path 912" class="cls-4" d="M167.158-472.823h.57v-.115h-.57Z" transform="translate(-12.8 -8.189)"/>
    <g id="Group_415" data-name="Group 415" transform="translate(152.023 -501.09)">
      <path id="Path_913" data-name="Path 913" class="cls-4" d="M0-.007.031-.033-.03-.087Z" transform="translate(0.03 0.087)"/>
    </g>
    <g id="Group_416" data-name="Group 416" transform="translate(143.632 -495.541)">
      <path id="Path_914" data-name="Path 914" class="cls-4" d="M0,0-.036-.036Z" transform="translate(0.036 0.036)"/>
    </g>
    <g id="Group_418" data-name="Group 418" class="cls-3" transform="translate(0 -579.875)">
      <g id="Group_417" data-name="Group 417" transform="translate(173.813 61.22)">
        <path id="Path_915" data-name="Path 915" class="cls-4" d="M0-.039C.125-.214.037-.547.45-.506L-.044-.08Z" transform="translate(0.044 0.51)"/>
      </g>
    </g>
    <g id="Group_419" data-name="Group 419" transform="translate(147.137 -499.142)">
      <path id="Path_917" data-name="Path 917" class="cls-4" d="M0,0,.109.027.15-.007Z" transform="translate(0 0.007)"/>
    </g>
    <g id="Group_420" data-name="Group 420" transform="translate(152.03 -450.059)">
      <path id="Path_918" data-name="Path 918" class="cls-4" d="M0-.031H.379V-.41Z" transform="translate(0 0.41)"/>
    </g>
  </g>
</svg>
