<svg xmlns="http://www.w3.org/2000/svg" xmlns:xlink="http://www.w3.org/1999/xlink" width="3.025" height="156.292" viewBox="0 0 3.025 156.292">
  <defs>
    <style>
      .cls-1 {
        fill: #7DA351;
      }

      .cls-2 {
        clip-path: url(#clip-path);
      }
    </style>
    <clipPath id="clip-path">
      <path id="Path_892" data-name="Path 892" class="cls-1" d="M0-63.708H3.025V-220H0Z" transform="translate(0 220)"/>
    </clipPath>
  </defs>
  <g id="Group_424" data-name="Group 424" transform="translate(0 220)">
    <g id="Group_391" data-name="Group 391" class="cls-2" transform="translate(0 -220)">
      <g id="Group_390" data-name="Group 390" transform="translate(0 0)">
        <path id="Path_891" data-name="Path 891" class="cls-1" d="M0-14.3l-.012.647c-.008-2.094.029-4.3.072-6.468C-.3-15.4-.615-9.824.148-6.173c-.406.4-.595,4.979-.5,5.072Q-.235.326-.162,1.788q-.043-1.006-.1-2,.057.993.1,2c.315,6.159.178,12.85.021,19.772C-.22,25.4-.308,35.831-.425,39.766c-.015.571-.029,1.138-.04,1.714l.072-1.91c.108,2.4.214,4.575.284,6.681a10.335,10.335,0,0,0,.194-1.316L.047,46.01c.168.979.16,3.236.231,4.3-.088-.229-.105.607-.119,1.346l.059-.292c-.037,2.8.035,6.048.024,8.551a4.211,4.211,0,0,1-.063.768l.068,2.4c-.118-.185-.1,1.989-.178.845.14,1.8.054,3.617.2,5.329C.285,75.37.375,81.879.573,88.2l.043-.155c.079,2.214.312,4.165.234,6.858a50.408,50.408,0,0,0,.487,5.42c.034,2.218.158,3.1.222,5.277.121-.561.147,2.113.241,1.043.171-1.443.026-1.522.164-2.747l-.042.037c.184-5.715.288-11.436.345-17.228-.1-3.865-.019-8.057-.05-12.075-.044-4.326-.123-9.007-.225-12.718a17.518,17.518,0,0,1,.125-2.279c-.055-3.413-.014-7.756-.081-11.606,0,.072,0,.143,0,.189-.02-2.046.105-3.578.084-5.575-.034.01-.037-.3-.055-.45.162-.347-.337-11.758-.244-12.463-.007-.207-.014-.423-.019-.642.073-4.216.388-8.576.36-12.194-.076-.786-.143-1.67-.229-2.332.069-.64-.065-.763-.046-1.535.324-1.958.188-3.1.074-2.094-.044-1.611-.015-3.227-.027-4.658-.024-.664-.048-1.324-.076-1.993a3.579,3.579,0,0,1,.1-1.172c-.045-1.454.034-1.026.068-2.551C2.132.191,1.838-3.266,1.872-3.7l.018.249c.019-1.763.238-2.935.248-4.66.083-4.79,0-10.022.038-14.46-.118-.044.027.979-.131,1.03.021-2.617.168-5.256.188-7.9.032-.476.092-1.059.13-1.276a10.84,10.84,0,0,0-.042-1.116l.107-.084c-.087-.9.12-1.32.075-2.17a2.071,2.071,0,0,1-.045-.657c.113-.016-.008-.931.1-.887l-.009-.009c0-.182-.005-.311.014-.534-.04-.345-.352-3.588-.4-3.939l.019-.164c0-.485-.088-.692-.109-.409l.007-.6.008.068L2.09-41.8c.01-.11.063-.234.113-.065a6.291,6.291,0,0,1-.041-1.053c-.07.937-.169,2.1-.284,3.081-.039-.4.021-1.13.009-1.566.075-.521.139-1.593.191-2.427A1.938,1.938,0,0,1,2-44.559c.088-.2,0-.47.06-.816a9.228,9.228,0,0,1,.022,1.189,5.988,5.988,0,0,0,.1-1.3c-.033-.15,0-.926-.028-1.415.1.213.064-.394.117-.683.012-.329-.028-.54-.063-.406-.108-.107-.065,1.31-.178.851a6.512,6.512,0,0,0,.03-1.113c-.059,0-.045.237-.1.012a6.878,6.878,0,0,1,0-1.017,2.252,2.252,0,0,1,0,.345c.006-.5.385,2.725.351,2.074-.053.169-.35-2.863-.354-2.528-.029.306-.107-.22-.127.1l.071.352c-.021.433-.125.611-.165.459.009-.727.4,2.063.343,1.441l-.028.252A5.07,5.07,0,0,1,2.046-48c-.058,0-.079-.357-.1-.651l.01-.1c-.029-.3-.016-.728-.093-.531.01,1.782-.592-1.172-.626.554.129-.725.132.244.147,1a3.422,3.422,0,0,0-.141.958c.01.473.047.278.08.369-.03.262-.054.764-.121.7a7.048,7.048,0,0,1-.024,1.032c.037.389.035-.026.074.25-.009.585-.02,1.4-.036,1.87-.063.18-.176.729-.274.329.013-.887.16.338.139-.585-.145.4-.04-.816-.15-.984A7.076,7.076,0,0,0,.883-42.4l.02-.1a11.136,11.136,0,0,1-.029,1.793c-.051-.112-.089.1-.1-.227l-.009.6c.016.077.033.156.044-.018a2.971,2.971,0,0,1-.013.79c-.054.066.227,3.217.193,3.119a5.917,5.917,0,0,0-.024.966c.044.045-.185-4.164-.167-3.589-.059.372.269,4.937.167,5.209,0,.323.015.712.07.636-.026.546-.1-.163-.156.225.009.009.028-.031.026.092l-.069.373c.085.847-.026,2.089.086,2.976A6.442,6.442,0,0,1,.7-30.676l.029-.1c-.017-.082-.035-.551-.09-.538a9.273,9.273,0,0,0,.027,1.576c-.014.106-.029.229-.044.311.007,0,.013-.011.021-.009-.034.187-.039.167-.061.1a.172.172,0,0,1-.012-.039c-.16.34.1,2.128.019,3.119.022.291.027.027.057.391C.586-24.854.537-24.156.5-23.1c.069.338.1.364.168-.043l-.022.8c-.184-.727-.175,1.493-.359.691a5.9,5.9,0,0,0-.021,1.16c.046.045.12.115.12.678-.061.783-.038.6-.1,1.245-.06.153-.084-.085-.132-.057a15.9,15.9,0,0,1-.12,1.817A7.886,7.886,0,0,0,.168-15.02c0,.8-.082.8-.168.718" transform="translate(0.465 49.39)"/>
      </g>
    </g>
  </g>
</svg>
