<svg id="Layer_1" data-name="Layer 1" xmlns="http://www.w3.org/2000/svg" viewBox="0 0 43.3 46.44"><defs><style>.cls-1{fill:#a70d17;}</style></defs><path class="cls-1" d="M44.84,26.78c-.09.12,0,.25,0,.37h0s0,.07,0,.1a1.54,1.54,0,0,0,.08.19l-.12,0,0,.29.05.18h.1v.29l-.16.22.16,0v.2l-.24.12.07.3a.65.65,0,0,0,0,.2c0,1.55,0,3.11,0,4.66v1l.15.07-.14.13v.2h.09l-.11.17.19.1.09-.11s0,.07,0,.09l-.07.12,0,0,0,0,0,0,.2-.08c0,.18,0,.2-.3.18l0,.23.12.2-.11.07c.12,0,.12,0,.11-.08s0,0,0,0v.13l-.19.06v.29h0v.05h0l-.05.2.15,0,.1.21h0l-.12.15.12,0,0,.07-.08,0v0l.07,0v.15l.14-.2c.16.15.15.23,0,.38l-.07,0v0h.08l0,.14.14,0h.06l0,.51c-.08,0-.13-.15-.22-.1V38.2h0l0,.06,0,.13-.07.11.11.18-.09,0-.1.47-.12,0v5.16l-.14.15.13,0v1.88a.42.42,0,0,1-.31,0l-.31,0h-3l0-.1h0l.09.06.07-.29-.15,0v0l-.28.23H38.34l0-.13-.11.13h0l.05-.13-.15.06h0l-.27.09c-.19,0-.37,0-.56,0l-.36,0,0-.07.13-.07,0-.14.14-.07h0c.05-.12.12,0,.21,0l-.15,0c.15.12.21,0,.28,0h0l.06-.06h0c.1,0,.11-.08.08-.18l-.2,0h0l.25-.28h0l0,.16c.12,0,.06-.1.07-.16h0l.11.06.09-.11h0l.1-.09,0,0-.19,0,.25-.28,0,.13,0,0v0l.05,0h.11l.13-.16-.06-.06h0l.11-.08v-.08L38.23,45h0c-.1-.09.07-.14,0-.23s.12-.14.2-.2h0v0l-.2,0-.14.11h0l-.06-.1h0v-.05l.08,0,0,0,0,.08c-.11-.06-.16,0-.22.09a1.45,1.45,0,0,0-.18.17l-.28.42.21,0-.21.3c-.15-.06-.16-.07-.06-.23-.22,0-.22.26-.39.3l0,.08h-.17l.08.11L37,45.7h0l0,.1,0-.1h0c.07,0,.13-.15.23-.05h0c-.15.12-.25.29-.45.33h0l-.05-.09-.42.19v0l.12-.13v0h0l0-.07.1,0c0-.07-.1-.15-.22-.12h0c-.13,0-.13,0-.26.08l-.06-.1c-.06.1-.22.07-.26.21h0l-.14,0,.06-.06,0,0,0,.09,0,.09h0l-.05.15h0L35.38,46l.09.1-.07.14h0l-.24.16-.07,0c-.15.09-.15.09-.19.2l-.12-.13,0,.11-.11,0-.39-.11v0h0v.1h0l0,0,0,0h0v.05h0c-.06,0-.1,0-.1.11h0l-.22-.09,0-.09-.2,0,0-.12c.07,0,.14-.05.14-.14h0c-.08,0-.17,0-.14.14a1.26,1.26,0,0,1-.27,0h-1l-.08.12-.2,0-.13.15h0l-.1-.14h-.47l-.18.16v-.2a4.13,4.13,0,0,1-.78-.08l0,.08-.11,0,0,.2-.11-.2-.2,0,0,.14-.3-.07,0-.1h-.29a.32.32,0,0,0-.26.12h0v-.09l-.14,0,0,0a7.14,7.14,0,0,0-1.6,0l-.14-.2v.17l-.24,0v.09h0l-.08.05a.52.52,0,0,0-.42-.17l-.17.21-.24-.14,0-.11-.22,0,0,.09-.17,0-.06-.16h-.87v-8a2,2,0,0,1,0-.35h0l-.11,0,.09-.33-.17.08-.08-.4-.14-.07.06-.08c-.14-.2,0-.41,0-.61h0l.12.06.07-.16a1.06,1.06,0,0,1,0-.66l0,0v0l0,0-.05-.1h0l-.15-.15-.29.13-.2,0c0-.13.1-.17.13-.27l-.05-.19h0l.1-.06,0-.16.12,0,0,.06,0,0,0,0,.08-.08,0,0,0,.1h-.05l-.06,0,.11-.18-.11-.17.25-.09,0-.28.23-.09c0-.18,0-.39,0-.59s0-.39,0-.59,0-.4-.05-.62a.19.19,0,0,0,.05-.1v-1.3a.5.5,0,0,0,0-.13l-.14.05h0c0-.1.08-.08.13-.11l0-.23-.18.1a3.41,3.41,0,0,1,.1-.54c.05-.17,0-.37.13-.52l-.1-.17.14-.24L24.77,29l.09-.16-.09,0a.62.62,0,0,0,0-.53l.12-.42h0l-.07,0c-.05-.07.07-.18-.05-.24a.78.78,0,0,1,0-.22l-.08-.22c.12-.2.11-.27-.06-.47l0-.07,0,0v0h-.1a.88.88,0,0,0,0-.15,1.45,1.45,0,0,0-.18-.16c0-.14.1-.26.05-.42l.1-.17-.13,0,.12,0-.1-.08.11-.07-.09-.06a.22.22,0,0,0,0-.23,1.81,1.81,0,0,1-.06-.27c.07-.05,0-.17.09-.26a.92.92,0,0,0,.11-.33l-.06-.08.08,0,0-.18-.07-.12h.09s0,0,0-.05V22.42a.89.89,0,0,1,.32-.72,13.41,13.41,0,0,1,1.15-1.89h0l.08-.16.21-.08h0l.14.1a.66.66,0,0,1,.06-.2,1.28,1.28,0,0,1,.11-.2l.08.17.09-.06h0l.06-.06h0l.17-.14v-.26l.22-.32.06.13.14,0,0-.19.06-.06,0,0,0,.08-.15,0,.15-.37,0,0-.11.1,0,0,.06-.1L28,18V17.9l.06,0,0-.05h0l0,0,0,.06h-.33l-.05-.2c.16-.23.34-.48.51-.74s.24-.42.37-.62c.26-.42.52-.84.79-1.26s.49-.74.72-1.12c.14-.21.26-.44.4-.65a.57.57,0,0,1,.29-.28v-.09a1.17,1.17,0,0,0,.24-.09s.08-.07,0-.12h0l-.16.12a1.21,1.21,0,0,1,.34-.64v0l.05,0,0-.05h0l0,0h0c.09-.15.18-.3.26-.46l.08-.16c.17-.05.14-.27.24-.41l-.14,0,0-.17h0l.12-.24.15,0A1.09,1.09,0,0,1,32.1,10h0s0,0,0,.07l0-.2.14,0h0l0-.14h.21c.16-.2.31-.4.46-.61s.07-.14.12-.2a.38.38,0,0,1,.15-.09l-.07.12,0,0,.12-.13h-.1s0,0,0-.06.11-.18.17-.26.12.06.14.13l-.1.09c.11,0,.1,0,.1-.1s.07,0,.09,0a2.3,2.3,0,0,0,.15-.23.26.26,0,0,1,.1-.25C34,8.06,34,8,34,7.91l-.06.17L33.78,8l.11-.15h0l0,.13L34,7.85h0l.06-.06h0l.19-.21-.15-.09h0l.09-.27c.17-.09.24-.3.34-.48h0l0,0,0,0h0c.07-.08,0-.2.14-.29s.06-.2.1-.31h0c.14-.11.14-.15.06-.31H35l0-.19c-.12-.09-.17.12-.27,0h0c0-.24.18-.39.27-.59a1.45,1.45,0,0,1,.19-.23l.06-.22,0,0,0,0,0-.05v0h0c.06.08.12.08.17,0l.06-.09.06.08a.37.37,0,0,0,.3-.26l0,.13c.1-.1.1-.1,0-.15s-.16,0-.19,0a.34.34,0,0,1-.2.17c0-.15.1-.23.19-.34l0-.26.13,0,.18-.37.13-.07v0l0,0h0v0h0a.46.46,0,0,1,.15-.3h0l.15-.2h0l.11.15.13-.13-.06.47c.18-.08.21-.25.29-.38l.27-.39.28-.42.1,0L37.69,2l.37-.27v.09h0l0-.07,0-.08h6.55L43,5.3l-.11-.13v.15l-.14.13c.07.08.11,0,.14,0l0,0c-.21.5-.43,1-.65,1.5-.08.2-.16.38-.25.56L41.81,8h0l-.05.12h0l-.12.16h0l-.06.2h0l-.07-.06,0,.06h0a.24.24,0,0,0-.06.35h0s-.06,0-.06,0a3.26,3.26,0,0,1-.29.79c-.28.67-.58,1.32-.86,2a2.24,2.24,0,0,0-.11.34h0l0,.06h0l0,0h0s0,.12,0,.13-.2.27-.24.46a1.19,1.19,0,0,0-.3.59h0l-.28.62h0c.09.07,0,.13,0,.2h0a.18.18,0,0,0-.17.16c-.05.17-.07.34-.11.51h0l-.05,0h-.09v0l0,0,0-.06H39c-.06.08-.08.2-.26.2l.18.11-.25.12c0,.12-.09.25-.14.37s-.12.22-.16.34a3,3,0,0,0-.08.32l.09.24-.27,0-.23.51,0,.47,0,0h0l0,0H38l.07,0v0H38l.21-.06-.3.54-.29.12.2.06h0l0,.3c-.12.12-.07.37-.25.46s-.13.24-.18.35l-.06.17h0v.06h0l-.05.09h0l0-.06,0,.06h0l-.06.05h0s-.07.06-.08.1a1.52,1.52,0,0,1-.2.38,3.36,3.36,0,0,0-.2.43h0l-.11,0,.06.24h0c-.16.05-.14.18-.15.3a.35.35,0,0,0,0,.14c-.08.13-.17.23-.36.18a.4.4,0,0,1-.2.32c0,.16-.16.2-.22.32l.08.07h0c-.1,0-.09.06-.08.15h.19l0-.16h0L36,22v0l-.1.05v0l.2.09h0l.07.12-.2.07,0,.2h0l0,0c0,.09,0,.05.09,0h-.1v0H36a.89.89,0,0,1,.38-.18c.1,0,.1-.19.24-.15h0l-.06.11h0c-.16,0,0,.16-.07.24.13-.07.31-.09.27-.29h0l.17,0,0-.08.29,0a.34.34,0,0,1,.14.05h0a.33.33,0,0,1,.15,0h.77l0,.12.11.08c.09-.05.09-.09,0-.14h0a1.87,1.87,0,0,1,.91,0,3.41,3.41,0,0,1,.9,0c.29,0,.58,0,.87,0l0,.05-.1.09,0,.1-.19-.11-.22.08,0,.21-.19.12v.17l.09-.09.08.09h0l.2,0h0v0h0l.06-.06h0l.11,0,.08-.13-.1-.13.19-.07,0-.14h0l.06.06h0l-.05.13c-.09,0-.11,0-.09.11h0c.07,0,.11,0,.11-.09l.52-.38v-.19l.32-.1h0s0,.06.06.05l.16,0,.06.21.4-.09h0l.06.15c-.07,0-.1,0-.1.1l-.09-.07,0,.11.13-.05.09-.1.27,0,.07.08-.11.07.12.25.23-.24,0,0-.18,0-.05-.09.1-.09h1.41V23.9l.09.06-.07.34.09,0-.07.2.13.17-.13.21.2.14-.13.18,0,.4h0l.07.13h0l-.08.92.1.09h0l-.06,0,.06,0ZM29.57,15.62l.05,0h0v0l-.05,0-.05.06h0ZM25.35,32.8v0h0l0,0,0,0h0Zm4.89-18.4h.06v0l0,0Zm13.32,18v.07l.07.06,0-.08v0l0,0h0Zm.76-3.55h0l0,0v0h0ZM37.83,17.13h0v0h0Zm-5.65-6.86h0V10.2h0ZM41,9.55ZM30.71,14.29v0L30.59,14l-.08.08.09.2h.12v.07h0Zm11.58,8.6h0v0l0,0h0Zm-16.1.88v.06l0,0,0,0h0Zm16,.16v0Zm.72-.35,0,0v0l0,0,0,0v0Zm-5.56-.79Zm4.26-.23h0l.06-.06.14-.08h0c-.08,0-.11,0-.14.09ZM27.93,18.34l0-.06h0l0,.06h-.07c0-.06,0-.14-.11-.11l.11.11Zm-.53,7.35ZM44,45h0l0,0,0,0h0ZM34,46.43l0,0h0l.05,0h0Zm.56-.34,0,0h0l0,0,.06,0,.08-.06,0,0-.05.09Zm3.33.23h0Zm6.4,0,0,0,0,0h0Zm-5.6,0h0Zm.81-4.35ZM24.93,41h0ZM40.11,7.38h0l0,0h0ZM39.3,42.2Zm2.51.14-.05,0,0,0,0,0,0,0h0Zm-1.19-1.76h0v0h0Zm-.9-32.45h0Zm-11,8.73,0,.07h0v-.08l.06-.05h.1l.13.08.09-.1,0,0-.2.07,0-.06,0,.05Zm4.18-2.57,0,.06h0v-.06l0,0v0ZM36,4.43,36,4.36h0v.09l-.07,0,0,0,0-.11-.06,0v.12h0v0h.06v.09h0l.07-.14Zm1.19,14.2-.05.05,0,0,0-.08v0ZM35.12,5.48l.05-.07,0,0v.08l0,0Zm7.69-1,0,0h0l0,0,0-.08h0ZM25.49,37.12l0,.05h0v-.06Zm18.08-4.89,0,.05h0v-.06h0ZM37.91,44h0v0ZM25.11,23.61H25v0l.05,0h0Zm1.71,21.72h-.09v0l.07,0h0l0,0-.05,0v0h.06Zm6.59,1-.07,0,0,0,.06-.05,0,0ZM44,44.81l-.09,0c0,.09.06.12.09,0h0Zm-5.73-1.19h0v.11h0Zm.28.71,0,.08,0,0-.07,0,0-.09h-.06ZM34.2,8.55l.13-.07c-.11,0-.12,0-.12.08h0Zm2.38,37,0,.08h0l0-.09h.06ZM24.92,40.82l.09,0,0,0-.06.08h0ZM40.27,23l.09,0,0-.05,0,.08-.07,0,.06,0Zm-15.16,4.9,0,.06h.05l0-.08h.08v0Zm5-13.2.09-.09.09.14.11-.14,0,0-.17,0c-.07,0-.08,0-.09.09l-.06.06c-.06,0-.12,0-.09.13h.06l0-.13ZM26.5,46v0l.07.13V46ZM33.79,9.36l-.09.1h0c.06,0,.11,0,.11-.08l0,0h0Zm2.42-5.31.1-.14.11-.17c-.14,0-.11.11-.1.18s-.08.09-.1.14h0Zm.19,41.51c.09,0,.13,0,.13-.15l-.13.16h0Zm6.22-19.44c.05,0,.12-.06.09-.14h-.1v.13l-.1,0,0,0Zm-14-9.48-.11.12h.14l0-.12h0Zm5.25-7.46h0l.07.15L34,9.24ZM37,22.56l-.11,0v.1l.11-.09h.09v0Zm.29,22.35h0v.16c0-.06.1-.11,0-.16ZM29,16.48l-.09-.05.05-.05.25-.05c0,.06.06.1.13,0h0l0,0,.15-.13-.1-.61-.17.1.07,0-.12,0c.05.07.18.09.1.2L29,15.83l-.08.13v.17l.09.06-.08.19-.05.05h-.1l.1.14-.15.13c.12,0,.12,0,.15-.14.08,0,.1,0,.1-.08l0,0v0Zm9,27.71-.19,0,0,.13.22-.09h0Zm-1.56-23.1-.2.07.18.07v-.15l0,0,0,0Zm6.07,19a.4.4,0,0,0,.19-.27h0a.39.39,0,0,0-.18.27l0,0ZM28.53,17v0h0l0-.16-.17.15C28.42,17,28.47,17,28.53,17ZM38.77,43.71c-.05.08-.19.11-.18.25a.22.22,0,0,0,.18-.25h0Zm-3.23-39-.07.08-.1-.07V5c.18,0,.18,0,.18-.23l.16.12,0,0-.21-.29-.1.11Zm7.51,25.77h0l0,.08.18,0-.06-.19h.08l0,0h0l0,0-.08-.31h0ZM25.26,40.11l0-.09c-.13.11-.29.17-.22.37l-.16.09H25v-.1l.1.14.22-.16-.08-.21c.07,0,.11,0,.08-.09Zm12-16.88.19.05a.17.17,0,0,0,.06-.22ZM39,43.56a.24.24,0,0,0,.2-.22C39,43.37,39,43.43,39,43.56ZM30.33,14.11l-.09,0,0,.2.17-.13ZM42.38,40.36l-.12-.14-.08.18Zm-7.05,5.69c0,.07-.14.12-.11.25a.19.19,0,0,0,.11-.25h0Zm.16-.41c-.14,0-.17.09-.21.16l0,0Zm-1.6,0v.23l.16-.05Zm9.56-21.08,0,0h.14l0-.19ZM39.16,43.86c0-.12-.1-.16-.21-.06Zm-13.94-17-.17.15.12.07Zm17-3.66c-.11,0-.14.05-.15.14Zm-17.29-.32c.17,0,.17,0,.2-.19ZM37.39,6.94l-.15.13c.11,0,.16,0,.16-.13Zm.79,38.61.06,0,0-.12-.05,0Zm2.39-23.07,0,0-.12.06,0,.05ZM24.82,37.58v-.14l-.18,0ZM28,17.42a.2.2,0,0,0,0-.26ZM38.83,46.06c-.09,0-.16,0-.13.12Zm-.11-1.86.05,0,.06-.09,0,0ZM35.24,5.29l0-.07-.13,0v0ZM36.3,22.54c0,.13.06.14.17.1ZM34,9l0,0-.07.1.09,0Zm3.27,14.37,0,0,0,.11h0ZM25,38.43v.2l.09-.12Zm2.76,7.15v0l.07,0a.18.18,0,0,0,.07-.05l0,0ZM29,16.65l0,0,0,0,0,0Zm5.82-9.29c-.09,0-.15,0-.1.09ZM42,42.1c.11,0,.16,0,.13-.08Zm2.86-5c0-.1-.07-.1-.13,0Zm-3.18,2.31h0l0-.06h0Zm.85-15.22h.05l0-.14h0Zm-4,19.92h0v.07h0Zm-1,.49.06.07.06-.08,0-.05ZM42.8,22.38l0,0,.07-.11,0,0Zm-6,23,.05,0,0-.09h0ZM26.34,25.52l0,.05.06-.09,0,0Zm17.43-.59s0,0,0-.06,0,0,0,0l0,.06Zm-.23-.58,0,0s0,0,0,0-.05,0-.1,0ZM43,22.51h0v-.07h0ZM30.5,14.42l0,0-.06,0,0,0Zm6.77,4.42h0l0,0h0Zm-.2,3.41,0,0,0,0s0,0,0,0ZM24.49,37.07l0,0,0-.07,0,0Zm8.16-14.73,0,0,0-.08,0,0Zm-7.72,4.94v0h-.06l0,0Zm12.75-5,0,0-.06.06,0,0Zm5.81,7.88,0,0-.05.07,0,0Zm-6.43-11v0h.12v0ZM26.93,46.3l0,0,.05-.06,0,0ZM38,26.42h0a.17.17,0,0,0,0,.05l0,0Zm6.42,3v0h0v0Zm-.58-.64,0,0,0-.08,0,0ZM24.93,22.61v0H25v0Zm18.65,8.15v0l.07,0,0,0ZM37.35,23h0V23l0,0Zm.13-4.48v0H37.4v0Zm.58,27.16,0,0,0-.08,0,0ZM25.55,40.05l0,0-.06.07,0,0Zm2,5.59v0h-.09v0ZM25.31,40h0l.05-.05,0,0ZM25,40v0l0,0v0Zm7.57-.07,0,0-.06.06,0,0Zm3.7-36.19h.05l0-.12ZM35.93,43l0,0-.06.07,0,0ZM34.79,7.49l0,0-.08,0,0,0ZM36,4V4l-.09,0v0Zm3.45,39.37v0h0Zm-5.3,2,0,0-.05,0v0Zm-6.79-.29,0,0,0-.06h0Zm17.22-.1h0v.06h0a.08.08,0,0,0,0-.07Zm-19,.31,0,0,0,.07,0,0ZM44.72,24.67ZM41.29,46.28l0,0,0,0Zm-3.1-2.45h0v.05h0Zm-11.82-20v0h0v0ZM44.73,25.7v0h0v0Zm-2.33,0ZM27.71,45.42h0v.07h0ZM30,25l0,0v0Zm10.57,0v0h0v0ZM39.15,43.64l0,0v0Zm3.69-21.1v0h-.06v0Zm-16.49,24H26.3v.07h0Zm8.88-1.12h0v-.07h0Zm-7.87.05Zm11-1.15h0v-.07h0Zm4-21.26h0Zm-16.85,0v0l.06,0v0ZM34.6,46.4v0h-.06v0Zm3-2v0ZM26.94,46.43h0v-.06h0ZM24.89,22.79h0v-.07h0ZM28,46.39ZM34,22.7v0h0v0Zm8.82,1,0,0,0,0ZM39,23.67Zm5.58,21.22h0v0h0Zm-10.67.5h0l0,.12Zm9.19-21.85v0H43v0Zm-2.3,22.78v0l.12,0ZM37,23.4h0v-.06h0Zm1.66,20.75h0v0ZM37.07,23.29h0v0h0ZM27.21,46.05h0v0h0Zm.43-.31h0v-.07h0Zm-1.23-.06v0h0v0Zm-.64-6.27v0h0s0,0,0,0Zm.1.35v0h-.06v0Zm-.54-7.34,0,.08h0Zm2.13,13.8Zm10.24,0h0v0h0Zm4.19-8.68h0Zm-17.31-.75h0v.07h0ZM25,38h0v0h0v0Zm.11.43,0,0a.05.05,0,0,0,0,0Zm.94.87h0v.07h0ZM24.92,28.11l-.05,0,0,0ZM41.54,46.28v0ZM44.82,28s0,0,0,0h0ZM30.18,28l0,0,0,0Zm.25,0h0v-.06h0Zm0-.27h0v.05h0Zm-2.42-1h.06v0Zm2.42-.42h0ZM24.8,30.58l0,0h0Zm.54,10v0h-.07v0Zm-.32.31v0h.07v0Zm3.16,4.72v0h-.06v0Zm15-4.55v0h-.07v0Zm-8.71,5.18v0h.06v0ZM44.1,28.94v0l0,0h0ZM29.64,15.22v0h0Zm5.51.37h0v.07h0Zm-8.64,5.05,0,0h0ZM37.88,2.24l0,0s0,0,0,0h0Zm3.57,6.14,0,0h0ZM30,16l0,0,0,0ZM43.12,3.92v0h0Zm-7.18,0h0v0Zm6.68.47v0h.06v0ZM31.11,12.94l0,0h0Zm9-5h0V8h0Zm-10,7.71h0v-.07h0ZM41.32,8.74v0l-.12,0ZM39,2V2H39V2ZM34.21,8.9h0V9h0ZM37.15,19h0V19h0Zm-2.86-9.8v0h0v0Zm-1.85,5.26v0h-.06v0Zm-3,2.47v0h0ZM37,5.08h0S37,5.06,37,5.08Zm5.3,1.56s0,0,0,0ZM28,17.45h0ZM39.17,2V2h-.05v0Zm0,41.21h0Zm-1,.18a0,0,0,0,0,0,0h0s0,0,0,0,0,0,0,0Zm-.23.3h0v0Zm6.24.9h0Zm-17.78.13h0s0,0,0,0h0ZM38.1,44h0s0,0,0,0Zm-3-38.18s0,0,0,0h0s0,0,0,0ZM26.84,44.34h0v0Zm17.67-.09h0l0,0Zm-17.7,0h0Zm-1.92-4.08h0ZM34,8.45h0Zm-8.16,30.8v0h0Zm8.3-29.91h0ZM26.52,38.86h0s0,0,0,0l0,0ZM41,8.53h0ZM25,39.79h0a0,0,0,0,0,0,0v0Zm.26,0h0s0,0,0,0ZM34.16,9.06s0,0,0,0,0,0,0,0h0Zm9,33.29h0s0,0,0,0ZM44.5,43h0l0,0v0Zm-5.69-.15h0Zm.09-.05h0ZM34.31,7.4l0,0v0h0ZM31.48,42.54h0s0,0,0,0v0Zm3.1-34.75h0ZM43.49,41.4h0l0,0h0Zm-5.25.82h0ZM31.3,42v0h0v0Zm7.41-34.3h0s0,0,0,0h0Zm-4,38.53h0Zm-4,.09,0,0v0h0Zm11-.05h0l0,0Zm-.62-.24h0v0h0Zm-15.75.11v0h0s0,0,0,0Zm16.13.18a0,0,0,0,0,0,0s0,0,0,0l0,0Zm-9.31.13v0h0Zm9.43-.08h0Zm-3.13-1.15v0h0Zm-1.09,0h0Zm-11,0h0l0,0ZM36.14,4.15v0h0Zm.26,41.23s0,0,0,0,0,0,0,0l0,0Zm6.06-41h0ZM28,45.3s0,0,0,0h0l0,0Zm10.38-.4h0s0,0,0,0,0,0,0,0,0,0,0,0Zm-.9,0h0a0,0,0,0,0,0,0h0Zm7,.3,0,0v0h0Zm-17.83.71,0,0v0h0Zm11.22-.11v0h0s0,0,0,0,0,0,0,0ZM28.07,46h0v0Zm-1.39-.29v0h0v0ZM36.49,3.55h0l0,0ZM30.41,25.37h0Zm-4.07-.09,0,0v0h0ZM40.09,25h0a0,0,0,0,0,0,0h0Zm4-.05h0l0,0Zm-7-6.22v0h0ZM26.38,25.66h0a0,0,0,0,0,0,0h0Zm.2-.19,0,0v0h0ZM37,19.4v0h0l0,0Zm-5.93,4.94v0l0,0h0Zm6-5.09v0a0,0,0,0,0,0,0v0Zm-10,5.46h0s0,0,0,0h0Zm1-6.63h0v0Zm11.31,9.05h0Zm-14.28,0h0s0,0,0,0Zm5.36-.43h0v0Zm-3,.75h0v0Zm15-1.46v0h0l0,0Zm-.54,0h0s0,0,0,0v0Zm1.28.62h0v0Zm-5.93-8.24h0Zm-10.62,8h0Zm-2,0v0h0l0,0Zm5.91-.11v0s0,0,0,0v0Zm-5.26-4.65v0h0Zm12.06,1h0s0,0,0,0,0,0,0,0Zm-4.77,0h0s0,0,0,0v0Zm4.6.14v0h0v0Zm-4.64,0a0,0,0,0,0,0,0s0,0,0,0,0,0,0,0,0,0,0,0Zm5.56-.4h0s0,0,0,0Zm-.28,0h0Zm4.45-.14h0Zm-3,.09h0a0,0,0,0,0,0,0v0Zm-.23,0h0Zm-3.14,0h0s0,0,0,0v0Zm6.76.19h0l0,0Zm-5.5,0s0,0,0,0h0l0,0Zm-2.57-.29v0l0,0h0Zm-7.83-2.27v0s0,0,0,0,0,0,0,0Zm11,3.11h0s0,0,0,0,0,0,0,0v0Zm-.51,0h0l0,0Zm-1.56-2.08h0s0,0,0,0h0Zm1,2.05s0,0,0,0,0,0,0,0l0,0Zm1.14-.05a0,0,0,0,0,0,0s0,0,0,0h0ZM26.36,20.21h0s0,0,0,0v0Zm10.45,3.11s0,0,0,0,0,0,0,0v0Zm-8.53-2.8,0,0a0,0,0,0,0,0,0s0,0,0,0Zm-4,15.21v0h0Zm20.46-.16h0l0,0Zm-20.4-.28s0,0,0,0,0,0,0,0h0Zm18.53,1.4a0,0,0,0,0,0,0s0,0,0,0v0Zm-.72,0h0v0Zm1.21-.05s0,0,0,0h0l0,0ZM33.93,12.9s0,0,0,0,0,0,0,0h0ZM32.53,14v0h0v0Zm0,.33v0h0v0ZM44.68,35h0v0Zm-20.11-.17h0Zm17-.06v0l0,0h0Zm-5.19-.44v0s0,0,0,0v0Zm8.5,3.52h0ZM33.53,9.47v0h0v0ZM27.66,38.32h0l0,0h0Zm15.5-1.62v0h0v0Zm-18.1.73,0,0s0,0,0,0h0Zm3.4-20.82h0ZM29.6,16h0ZM43.79,30.5s0,0,0,0h0l0,0Zm-.14-.09v0h0a0,0,0,0,0,0,0ZM30.37,28.13l0,0v0h0Zm13.52-.06h0s0,0,0,0h0Zm-13.68,0s0,0,0,0v0l0,0Zm14,.74h0a0,0,0,0,0,0,0h0Zm-10.45-.64v0h0Zm-7.25,3.32a0,0,0,0,0,0,0s0,0,0,0l0,0Zm17.89-.06h0s0,0,0,0a0,0,0,0,0,0,0ZM34.92,15.6h0l0,0Zm-8.5,15.67h0a0,0,0,0,0,0,0s0,0,0,0Zm.16-.11a0,0,0,0,0,0,0s0,0,0,0,0,0,0,0,0,0,0,0ZM30,15.71h0l0,0Zm4.51,0h0s0,0,0,0A0,0,0,0,0,34.54,15.7Zm-2.39-.34h0s0,0,0,0v0Z" transform="translate(-1.99 -1.67)"/><path class="cls-1" d="M21.75,46.42c.07-.08.2-.15.09-.29h0l.09-.07,0,0-.12.06h0c-.12.2-.17.22-.43.15v-.09h-.23v.13l-.08,0v.09l.09-.06.24-.06-.06.22-.17,0H21L21,46.37a.91.91,0,0,1-.89,0l-.29.16-.05-.32c-.14,0-.08.2-.18.29l-.12-.07,0,0h0l0,0H19.3l0-.13.07-.08,0,0,0,.09-.15-.15v.12l-.2.16.08.09H18.8l.1-.16-.17,0,0-.17-.13,0v.09c-.14,0-.18.09-.24.18H15.85l0-.12-.12.13h0l.05-.14-.15.07h0a1.31,1.31,0,0,1-.28.09H13c-.11,0-.23,0-.29-.07a2.32,2.32,0,0,1-.38.06H10l-.08.13H9.72l-.12.15h0l-.1-.14H9l-.18.16v-.2A4.13,4.13,0,0,1,8,46.49l0,.08-.1,0,0,.2-.12-.2-.2,0,0,.14-.29-.06v-.11H6.93a.34.34,0,0,0-.26.12h0v-.09l-.14,0,0,0a7.78,7.78,0,0,0-1.6,0l-.14-.19v.18l-.23,0,0,.09h0l0,0-.43-.17-.2.23-.25-.11,0-.11-.23,0,.05.09-.18,0,0-.15H2.36l.13-.2h0q.13-.07,0-.15h0c0-.07,0-.13.12-.14v0l0,0h0l0,0,.13,0-.12-.05.07-.12,0,0,0,0,0,0a.15.15,0,0,1,.1-.18v-.24l0-.06,0,.26.19-.28-.14-.15-.08.17,0,0c-.13,0,0,.14-.07.26l-.12-.21,0-.05c.08,0,0-.09.05-.14l0,0h0l0,0,0,.15,0,.05-.1,0h0l0-.17.17-.24H2.47L2.34,45c0-.1,0-.22.1-.34l-.13-.08.09-.06v0a.43.43,0,0,1,0-.16V42.6a2.21,2.21,0,0,1,0-.25.39.39,0,0,1,0-.13c0-.22-.07-.46.06-.66-.14-.16,0-.34-.07-.51l.19-.14.06,0-.06.12h.12l.08-.16-.12-.11-.08.12c-.09-.07,0-.11,0-.17l.09,0,0-.15.24,0v0H2.73c.08-.12.14-.24,0-.37h0c.07,0,.12,0,.09-.09l-.09,0h0v-.2l0,.06.06,0,0-.26-.11-.06.18-.24H2.78v-.12h0l0,.11v0h0a.24.24,0,0,0-.14.3h0c-.15,0-.14.13-.22.23h.26l-.14.15v.22l-.16.1h.16v-.1l.06.1-.23.1v-.28c0-.06.16-.08.13-.2h0l-.11,0v-.51c.12,0,.19,0,.14-.17h0s0,0,0,0l0-.16h.05c.07,0,.07,0,.14-.06l-.13.06,0-.09h0v.09l-.11.11c0-.2,0-.35.05-.52s0-.31,0-.46A.65.65,0,0,1,2.51,38l-.26.08a.65.65,0,0,0,.1-.15.61.61,0,0,0,0-.19l-.09,0-.06,0-.07-.39L2,37.35l.06-.08c-.14-.2,0-.4,0-.61h0l.12.06.08-.16a.86.86,0,0,1,.05-.72l-.14-.22v-.2a1.41,1.41,0,0,1,0-.2l.18-.16L2.24,35h0a.09.09,0,0,0,0-.06c0-.12,0-.23.07-.35a1.15,1.15,0,0,0,0-.37.77.77,0,0,1,0-.15v-.56l.15-.05-.17-.2v-.48a1.5,1.5,0,0,0-.06-.29s.06-.09.06-.13v-1.3a.5.5,0,0,0,0-.13l-.14,0h0c0-.1.07-.07.13-.12v-.22l-.17.1a2.34,2.34,0,0,1,.09-.54c.06-.17,0-.37.13-.53l-.1-.11.14-.23L2.27,29l.09-.16-.09,0a.54.54,0,0,0,0-.52l.13-.43H2.38c0-.08.07-.19,0-.25a.78.78,0,0,1,0-.21l-.08-.23c.12-.2.11-.27-.06-.46a.41.41,0,0,1,0-.07l.06,0v0H2.25a.58.58,0,0,0,0-.14A1.29,1.29,0,0,0,2,26.34c0-.14.12-.26,0-.39l.12-.2-.13,0,.11,0-.09-.07.11-.07-.09-.07a.21.21,0,0,0,0-.23c0-.08,0-.16,0-.26s0-.17.09-.26a1.42,1.42,0,0,0,.11-.33l-.06-.09.09-.05s0-.06,0-.09,0,0,0,0L2.23,24h.1s0,0,0,0V22.46a.92.92,0,0,1,.32-.73,13,13,0,0,1,1.15-1.88h0l.09-.18h.15l0-.13.16-.05,0,0c-.1-.34.22-.49.33-.75h0l.1-.18.21,0v0l-.17-.08.18-.22.15.09.08-.22h.09l0,0-.06.05-.13,0,.19-.13-.06-.14.07-.12A3.51,3.51,0,0,1,5.64,17a5.67,5.67,0,0,1,.59-1c.2-.34.47-.71.7-1.07s.52-.87.79-1.3a3.69,3.69,0,0,1,.29-.4l.16-.15V13l.22-.07c.06,0,.12-.08,0-.14h0l-.16.12a1.23,1.23,0,0,1,.35-.64v0l0,0,0,0h0l0,0h0l.26-.46c0-.07,0-.14.07-.22.17-.05.15-.26.3-.42l-.2,0V11H9l.12-.25.15,0A1.06,1.06,0,0,1,9.63,10h0s0,0,0,.07l0-.2.14,0h0l0-.14h.21c.16-.2.31-.4.46-.61s.07-.14.12-.2a.38.38,0,0,1,.15-.09l-.07.12,0,0,.12-.13h-.1s0,0,0-.06a2.33,2.33,0,0,1,.17-.26c.1,0,.12.06.14.13l-.1.09c.11,0,.1,0,.1-.1s.07,0,.09,0a2.3,2.3,0,0,0,.15-.23.26.26,0,0,1,.1-.25c.07,0,.11-.06.06-.17l-.06.17L11.3,8l.11-.15h0l0,.13.08-.08h0l.06-.06h0l.19-.21-.15-.09h0l.06-.23a.8.8,0,0,0,.15-.17c.63-1,1.25-2,1.87-3l1.06-1.68L15,2.11l.1,0L15.15,2l.38-.26v.09h0l-.05-.07,0-.09h1.56l.5,0,.53,0,0,.15L18,1.75c-.06.09,0,.15,0,.22s-.08.17,0,.23h0l.15,0h0c0,.06-.14,0-.12.14l-.11,0h0L18,2.34h0c-.1.08,0,.16,0,.23h-.08l0-.23-.25.28.08.06-.1.1L17.34,3v.09l.22.08.1.19c-.15,0-.11.15-.15.23s-.08.08,0,.12v.17l.11-.17h.15l0-.19-.12.18h-.09V3.58l.22-.19.13,0,0,0-.14-.16h0l-.05-.12.15-.1L17.77,3,17.68,3l.07-.2.1,0v0l.08-.18h.2l-.1.17c-.09.11,0,.26-.07.38l.05,0L18.14,3c.06-.07.1-.16.18-.19a.48.48,0,0,0,.2-.37h.08l0-.15h0l.06,0a.44.44,0,0,0,.21-.41l-.2.2,0-.06h0l-.05-.15c.09,0,.2,0,.24-.07l-.28-.09h0l.4-.05,0,.17h0l.06-.16c.51,0,1,0,1.54,0v.12a.29.29,0,0,0-.08.39l.07-.11v.14h.18L21,2c-.1,0-.2.05-.21.09s-.11,0-.16.06,0-.2,0-.29l.25-.12s.13-.05.21.06l-.12,0,0,.1.14,0,.13-.25.14.1h0l-.17.15v.23h0L21.35,2l.21,0-.2-.17v0c.05,0,.11-.08.16-.07s.32-.05.46.07l.15-.08L22,2l-.12-.09h0V2l-.32.14-.07.19h0a.29.29,0,0,0-.2.28h0l-.06.16.06,0h0L21.13,3l.28,0,0-.29.13.07.08-.09,0,0-.16.39c-.06.13-.12.29-.2.43s-.08.29-.22.39L21,3.9V4l.12,0s-.06.1-.1.11a.12.12,0,0,0-.1.15h0a.57.57,0,0,1-.15.48.76.76,0,0,0-.09.18h0v.18l-.12,0-.17.2.06.07s-.14.05-.1.15h0l-.11.06c-.05,0-.09.05-.13,0h0L20,5.74l-.1,0,.1,0a.34.34,0,0,1,0,.14.44.44,0,0,1-.08.11l.15,0c0-.11,0-.21-.06-.29v0l.16,0,.1.19-.11.16h0c-.08,0-.1,0-.08.09l.08,0h0a2.46,2.46,0,0,1-.07.29c-.17.4-.35.79-.52,1.18-.06.13-.15.25-.22.38h0l0,.12h0l-.12.16h0l-.06.19h0l-.07-.05,0,.06h0a.24.24,0,0,0,0,.33s-.06,0-.06,0a2.62,2.62,0,0,1-.28.75c-.27.66-.57,1.31-.86,2-.05.13-.09.26-.13.4h0l0,0h0a.17.17,0,0,1,0,.07,1.29,1.29,0,0,0-.22.3,2.17,2.17,0,0,1-.15.35c-.16.33-.32.66-.47,1-.58,1.32-1.17,2.63-1.75,4l-1.29,2.92c0,.09-.1.17-.16.28a.39.39,0,0,1-.19.34s0,.07,0,.08-.09.24-.14.34-.09.32-.21.44,0,.1,0,.19l.29-.12c.1,0,.26-.07.4.06l-.2.08-.13.2.06,0c0,.09.06.05.1,0h-.1a1,1,0,0,1,.36-.21,1.43,1.43,0,0,0,.24-.16v.1h0c-.14,0,0,.16-.08.22.23,0,.26-.08.29-.28h0l.16.05,0-.08a1.23,1.23,0,0,1,.27,0,.55.55,0,0,1,.17,0h0c.08,0,.17-.1.25,0s.18-.12.27,0h0c.12-.09.25-.05.41-.05l-.1.13.2.06c.07-.05.07-.09,0-.13h0a2.34,2.34,0,0,1,.79,0s0,0,.05,0l-.07,0v0l.08,0a2.14,2.14,0,0,1,.43-.07H20l.36,0c.09-.1.23,0,.37,0a1.36,1.36,0,0,1,.45,0h.93v1.71l.08.05-.07.34.09,0-.07.2.14.17-.14.21.19.14-.13.18.06.4h0l.06.12h0l-.08.93.09.09h0l-.06,0,.06,0h0c-.1.13,0,.25,0,.38h0s0,.07,0,.1a.71.71,0,0,0,.08.18l-.12,0-.05.29.06.18h.09v.29l-.16.22.16,0v.2l-.24.12.08.31a.92.92,0,0,0-.07.74l-.09,0-.14-.06-.05.18.2-.12.07.39-.07.13.07.07-.08.09a.78.78,0,0,1,0,.5h0l.06.13-.23,0v.12l.17.05,0-.08c.08.14-.19.11-.11.26h.11v.83l-.14-.1v.35h0l-.13.1-.07,0c-.22.12-.22.36-.32.55l.05.07-.06.25h.26l-.24.19,0,0h0l0,0a.3.3,0,0,0,.23.29l0,.2.25-.21h-.18a.89.89,0,0,1,.08-.17s0,0,.06-.06l.12.15h.14v1l.15.09-.14.13v.2h.09l-.11.17.18.1.09-.11c0,.05,0,.07,0,.09a.41.41,0,0,1-.07.11l0,0,0,0,0,0,.2-.08c0,.18,0,.2-.29.18l0,.23.13.19-.12.08c.12,0,.12,0,.11-.08s0,.09,0,.15l-.18.06v.28h0v.05h0l-.06.2.16,0,.09.21h0l-.11.15.12,0,0,.07-.08,0,0,0,.08,0v.15l.14-.2c.16.15.15.23,0,.38l-.07,0v0h.08l-.05.13.2,0,0,.52c-.08,0-.12-.15-.22-.1h0v.13l-.06.11.11.18-.09,0-.1.46-.11,0v.25l-.31.06.12.07v.17l.22,0-.05.32h0l.05.1c-.32,0-.3.32-.53.37l0,0,.23,0-.06.16.16,0,.06.1.11-.07-.06.14a.86.86,0,0,1,.06.23v2l-.15.14.15,0a5.39,5.39,0,0,1,0,1.07l-.25.2.26.06a.26.26,0,0,1-.07.33h.1l0,.27c-.06,0-.05-.17-.16-.1v0l0,0,0,.1-.1.12,0,0,.17-.16s0,0,0,0c0,.42,0,.84,0,1.25-.15.11-.28,0-.41,0Zm0-13.9Zm-.43.19-.05,0h-.07v0l.06,0,.05,0h0Zm.48-3.84h0l0,0v0h0ZM18.52,9.55Zm-8.82.72h0V10.2h0ZM2.58,33.72H2.52c0-.08,0-.07-.14,0h.15l0,0,0,0v0ZM19.7,23.94v0Zm.72-.35,0,0v0l0,0,0,0v0Zm-16.69.22,0,0v0l0,0,0,0Zm11.13-1ZM5.51,17.89l0,0v0l0,0,0,0v0Zm-.6,7.8ZM7.37,25l0,0,0,0h0Zm10-21.59h0l0,0Zm2.46,0h0v0h0Zm1.33,41.85h0v0h0v-.05h0Zm-.76,0,0,0,0,0h0Zm.67,0h0Zm.47.86,0,0v0l.06-.06h.17L21.63,46l-.08.11Zm-6.08.13h0Zm.8,0h0ZM4.1,42l0,0h0l0,0h0Zm11.71.19v0l0-.06,0,0,0,.06,0,0h0ZM17.62,7.37h0l-.05,0h0Zm-14,33.4h0ZM17.24,8.13h0ZM4.9,44v0ZM4,44.69l0,.06,0,0H4l0,0,0,0,.06-.09Zm17.33-.08h0Zm-11-30.31,0,.06h0V14.3l0,0,0,0ZM17.32,4l0,.09h0l0-.07,0-.06c.07,0,.14,0,.14-.18L17.38,4ZM21,2.29h0v.09l0,0Zm.89,38.56,0,0,0,0,0-.05,0,0h0ZM15.1,45.6h0l.07,0v0ZM22,42.89,22,43l0,0v-.09l0,0,0,0ZM4.19,42.33h0ZM16,42.13h-.08v0l.07,0h0ZM7.23,28l0-.06,0,0V28h0ZM20.84,41.63h.07v0l-.06.05v0Zm-10-13.57ZM3,37.12l0,.05H3v-.06ZM21.43,31.2l0-.09h0v.08l0,0h0Zm-.3,1h0l-.05.05,0,0h0v-.06Zm.62.05h0l.07,0v0Zm-12.9.81,0-.07h0v.08h0ZM21.9,44.71l.09-.05s.11,0,.08-.1l-.08.11-.09,0h-.06l0-.11-.2.12h0a.38.38,0,0,0-.19.28h0v0a.14.14,0,0,0,.09,0,1,1,0,0,0,.34-.27ZM2.64,23.61H2.56l0,0,.06,0h0ZM4,44.29l0,.06H4v-.08H4Zm7,2.08-.07,0v0l.06-.05.05,0Zm-6.59-1H4.25l0,0,.06,0h0l0,0-.06,0v0h.07Zm16.93-.15.09,0,0,0-.08,0,0,0h0Zm.14.1-.08,0,0,0,0,0h0Zm-1,.6v0l.16,0,.11-.15h.1l.16-.23-.15-.09.12-.18-.16-.08a.35.35,0,0,0-.07.35h0v.06l-.29.3v.08a.06.06,0,0,0,0,0l-.08,0v.15h0v0c.12.06.16-.07.24-.09h0l-.14-.1h.13v0Zm1.37-4.4h0v.08l.1,0,0,0ZM4.21,43.57c-.07,0-.08.07,0,.14v-.14h0Zm15.08-1.19.07,0v0l-.06.07h0ZM2.88,44.33h0v.12L3,44.33ZM11.74,8.56l.13-.08c-.11,0-.12,0-.12.08h0ZM4.24,31.19v.06l0,0,0,0c-.09,0-.09,0-.08,0ZM8,27.92,7.88,28C8,28,8,28,8,27.92v0Zm14,1.71-.07.06,0,0,0-.09h0ZM2.62,27.87l0,.06h.06l0-.08H2.7v0ZM4,46v0l.07.13V46ZM17.71,4.86l-.07,0,0,0,.1.15V4.86Zm1.66.81h0c-.05,0-.05,0-.19,0ZM2.63,34l-.09,0,0,0L2.63,34h.12l0,0ZM4,31.56v0l.11-.09-.18,0Zm7.3-22.2-.09.1h0c.06,0,.1,0,.1-.08l0,0h0Zm-6,33.16h.13v0l-.13-.07v.11h0Zm5-14.27c-.08,0-.06.05,0,.09v-.1h.08v0ZM18.7,2.77c.06,0,.14,0,.07-.16l-.06.16,0,.06h0Zm2.76,38.14.09,0v0h-.11v-.15c.2,0,.2,0,.13-.16l-.12.16-.12.15ZM18.74,3.05c-.1.06,0,.11,0,.15l0-.13.06,0,0,0ZM3.82,31.19c-.08,0-.06.08,0,.17l.06-.07-.06-.11,0-.05h0ZM18.7,8.42c.06,0,.14,0,.09-.13s-.08.08-.08.14l0,0h0ZM20.23,26h-.1v.14l-.1,0,0,0,.07-.07c.05,0,.12-.05.09-.14h0Zm0-3.65-.09-.07-.05.11.13,0,.05-.07h0ZM22,31.94l-.06,0,0-.11c-.11,0-.18,0-.2.18l.14,0,0,0,.13.06C22.09,32,22.09,31.86,22,31.94ZM19.66,5h0l-.07.08,0,0L19.77,5Zm-8.3,4.18h0l.06.15.11-.09ZM4.66,41.72l-.06.12.17,0-.11-.1c.12,0,.12,0,.13-.15ZM17.43,4.62c.07,0,.13-.06.07-.16s-.08.1-.07.17h-.08v0Zm3,41c-.1,0-.12.09-.06.21l.09-.15,0-.07h0Zm.95.42h0v.11l.23-.16-.13,0-.05-.06,0,0,.07,0ZM22,30.1l-.22,0,.06.14.15-.16L22,30h0ZM4.05,31.17l-.14.09.14.18,0-.24,0,0ZM2.78,32.84h.14v-.15l0,0-.11.17h0ZM4.16,31l-.09-.06L4,31.1l.16,0V31l0,0ZM19.38,5.29h0l-.05.09.32-.07C19.53,5.19,19.45,5.3,19.38,5.29Zm-16.75,28-.07,0v0h.09l-.07.24h0a.5.5,0,0,0,.2-.27ZM18.31,3.36l.05,0,0,0h-.05l0-.14.2-.1c.07-.24.07-.24-.08-.38a1.36,1.36,0,0,1,0,.2c0,.09-.07.18-.1.28-.12-.06-.17,0-.24.09l-.08,0,0,0,.06-.06Zm2.86,38.12.13,0c.06-.19.06-.19-.05-.31a.55.55,0,0,1,0,.18,1.15,1.15,0,0,1-.06.17H21.1v0Zm.48-.39v0L21.49,41l-.11.17.06.11ZM20,46l.12.08c0-.12.22-.15.16-.31-.18,0-.22.13-.28.24h-.12a1.12,1.12,0,0,1,0,.2h0l.14-.06Zm.58-15.49h0l0,.08.18,0-.06-.19h.08l0,0h0l0-.05-.07-.31h0Zm.28-26.85V3.55l-.18-.09-.06.19.24,0-.21.13c-.08,0-.2,0-.26.09l.3.1c0-.16.18-.17.25-.31ZM19.92,2s-.09.14.07.19L20.2,2l-.07-.14Zm-2.56.09c-.1.09-.23.17-.25.33.18,0,.2,0,.25-.33Zm-.25.4c-.22.09-.22.09-.21.24a.26.26,0,0,0,.21-.24Zm3.51,43.75c.11,0,.11,0,.33-.06l-.22-.08ZM15.05,23.09l0,0-.25.16.21.06ZM3.56,42.69l.13.41A.32.32,0,0,0,3.56,42.69Zm-.92,2-.11-.06-.16.14.07.1ZM17.57,2.4a.25.25,0,0,0-.22.22C17.52,2.61,17.53,2.6,17.57,2.4Zm4.27,29.3c.18-.13,0-.24.05-.34C21.79,31.46,21.87,31.56,21.84,31.7ZM21.92,41l0,.17c.13-.08.13-.08.15-.2l0,0ZM16.69,4l0,.29.18-.13Zm4.93-2.25.07.23h0l.07-.22ZM17.91,5c.09.12.16.06.24,0l0,0H18V4.83ZM5,18.39l0,.12c.16,0,.2-.05.16-.12Zm9.69,4.18,0-.06-.2,0v.05C14.49,22.59,14.57,22.63,14.64,22.57ZM13,45.63c-.14,0-.16.09-.21.16l0,0ZM2.91,39.27h.18l0,0-.2-.12Zm9.79,7c.14,0,.16-.05.14-.23ZM17.05,3.69l.07.22c.07-.13.07-.13-.06-.22Zm-5.51,42.1-.1-.15h0v.19ZM19.61,42l0,0c-.11.08-.11.08-.08.2Zm1.54-17.6c-.16,0-.19.07-.16.14h.13ZM2.67,27a1.17,1.17,0,0,0,.05-.11.28.28,0,0,0,0-.09L2.57,27Zm1.62-7.49-.06,0,0,.2h0ZM19.58,46.18l.16-.13C19.63,46,19.57,46.07,19.58,46.18ZM2.72,22.69c-.16,0-.16,0-.23.2ZM4.18,44.08l.12-.16-.12-.08Zm13.15-41-.14.16.11.08ZM4.09,43.54H3.88c.08.1.13.11.2,0Zm12.2-21.26.07.13.09-.13Zm3.88,23.87v.17h.15ZM14.78,7.05c.09,0,.14,0,.13-.09ZM2.34,37.45H2.16l.18.11Zm.15,1.21c.12-.1.11-.16,0-.21Zm17.38-36,.16.05,0,0L20,2.53ZM3.13,39.39v0l.16.06.06-.09Zm18.21,6.25-.05,0-.07.11,0,0Zm-5,.43,0,0-.11.11,0,0ZM5.58,17.35h0v-.19h0Zm16,15.12.06,0,0-.14,0,0Zm.47-2.95L22,29.44l-.06-.05c0,.12,0,.15.14.13ZM19,8.31l0,0-.06.11,0,0Zm-14.84,32H4l0,.12Zm9.78-17.67,0-.05-.13-.05v0ZM11.51,9l0,0-.06.09.09,0ZM14.7,23.43l0,0,0-.11h0ZM3.06,43.72l.09-.14-.09-.07Zm-.48-5.83-.05,0L2.47,38l0,0ZM19.81,6.4l-.16-.07v.14Zm.45-1.94,0,0s.08-.06,0-.16Zm.34-.33,0,0L20.7,4l-.06,0ZM19.4,45.79l0,0,.08.07,0,0ZM5.24,45.57l0,0,.14-.07,0,0Zm11.9-42,.1-.15-.08-.05Zm3.41,42.76v0h-.1v0ZM13.68,29.89c.09,0,.14,0,.13-.07ZM4.24,43.2h0v0l.06.1Zm.9-24.5v-.05l-.07,0v0Zm7-11.32,0,0,.08-.07,0,0Zm6.58-4.86,0,0-.06.06,0,0ZM11.3,46.37l0,0,.08-.07,0,0Zm-6-28.07,0,0-.08-.06,0,0ZM21.72,34.45v0h.06v0ZM21.83,46c.09,0,.13,0,.11-.09Zm.5-8.94s0-.05,0-.05l-.06,0,.05.06.05,0ZM17.48,3.74c-.09,0-.09,0-.06.08ZM3,40H3l0,.09H3Zm18.44-8.22,0,0,.09,0v0Zm-.33.63-.05,0-.06.07.09.06ZM17.73,4.3h-.08a.43.43,0,0,0,0,.07l0,0ZM20,24,20,24l0,.13h0ZM4.75,43.93v0L4.63,44l0,0Zm15-38.08,0,0,0-.06,0,0ZM17.79,2.1h0v.06h0Zm.15,2.6c.1,0,.13,0,.08-.1Zm-.32-.06.1-.1-.1,0ZM4,25.5l0,0-.07.07,0,0ZM4.5,43.6c0,.1,0,.12.08.09Zm.13-24.32,0,0,0,.11h0ZM3.3,43.72l0,0,.09-.07,0,0Zm12,1.73,0,0-.06.11,0,0ZM21,24.26v0l.12,0v-.05Zm.36.6-.05,0-.05.06.06.05Zm-.69-2.49,0,0,.06,0v0Zm-11.35,3v.05h.08v0ZM17.52,3.23l0,0-.06.06,0,0Zm4.07,29.39,0,0,.06-.06,0,0Zm-8.3-.07,0,0-.06,0,0,0ZM2.11,37h0l0,.06,0,0Zm8.16-14.75,0,0-.06.07,0,0Zm4.94,0s-.08,0-.08,0,0,0,0,.1Zm-.61,0v0l0,0v0ZM21,30.16c-.08,0-.08,0-.06.07ZM4.44,46.3l0,0,0-.06,0,0ZM20,46.23v0h.11v0Zm.42-43.54,0,0,.06-.06,0,0ZM2.4,27.22v.08l.05,0Zm19,1.57,0,0,0-.07,0,0ZM2.52,22.66l0,0-.09,0v0Zm1,8.91v0h.09v0Zm4.15-6.31,0-.05-.06.07,0,0ZM14.85,23h0a.19.19,0,0,1,0,.07l0,0Zm6.24,7.82v0l.07,0v0ZM20.55,2.29v0h-.11v0Zm-5,24.13h0v.07h0ZM21,40.64h0l0,.06h0Zm-15.93,5v0H5v0ZM3.54,40.44v0h.1v0Zm-.42,0v0h.1v0ZM10,39.92l0,0,.05-.06,0,0Zm9.9-34.49,0,0,.06,0,0,0ZM13.35,43.07c.09,0,.09,0,.06-.07ZM4,42.75l0,0,0,.07,0,0Zm1.61.47v0H5.47v0ZM4,43.32l0,0-.06,0,0,0ZM12.3,7.5l0,0-.06,0,0,0ZM6.05,42.36l0,0,0-.07,0,0ZM17.69,4.13s0,.07,0,.09,0,0,.07,0Zm2.17,2.14,0-.09-.08.06,0,0Zm-2.37-2,0,0,0,.07h0ZM17,4V4h.1V4ZM20.57,41l0,0,.06-.07,0,0Zm-2.78-36v0l.05,0v0ZM11.63,45.43v0l0,0h0ZM21.12,3.48h0v.06h0ZM4.9,45.1h0l0,.06h0ZM2.39,37.62c.09,0,.09,0,.07-.07ZM16.92,3.35v0H17v0ZM3,39.56l0,0,0,.07H3Zm.3-.25h0l0,0,0,0ZM22.24,24.67ZM8,24.9v0H8v0ZM18.29,46.33v0h.07v0ZM3.66,43.74Zm1.57,1.69h0v.07h0ZM4.56,44Zm16.23,2.38h0v0h0ZM3.89,23.81v0Zm18,21.55h0ZM3.34,43.18v0H3.27v0ZM10.73,26.1h0s0,0,0,0Zm11.55-.38Zm-2.35,0h0ZM15.58,45.14l0,0,0,0Zm1.08-1.7v0h0Zm-3.89,1.9h0v.07h0ZM7.6,25v0H7.53v0ZM18.09,25v0H18v0Zm-3.48-1.74,0,.07h0ZM4.88,45.4h0v.05h0Zm.68,1v0h0v0Zm5.84-1h0l0,.12ZM3.83,46.59h0v-.07h0ZM3,23l0,0,0,0ZM3.5,44.31v0h0v0Zm18.21.25h0v-.07h0ZM2.42,22.7h0v.07h0Zm9.11,0h0Zm8.75,1v0h.06v0Zm.25-.18v0h.06v0Zm-6-.12h0v-.06h0Zm-10,23.05,0-.07h0Zm.74-.79h0v.07h0Zm-1.26,0v0h0v0h0Zm-.05-6,0,0h0Zm-1.1-7h0v-.07h0Zm.55,7.09v0h0v0Zm-.48-7.29h0v0h0Zm19-.33v0H21.8v0ZM5,46.17H5v0H5Zm10.24,0h0v0h0Zm6.13-14.33v0h0v0ZM3.83,31.71l0-.07h0Zm15.56,5.84h0ZM21.2,46v0h-.07ZM2.06,36.86h0v-.07h0Zm.48,1.5,0,0,0,0Zm-.09.81h0v-.05h0ZM4.73,46s0,0,0,0h0l0,0ZM3.57,39.27h0v.07h0ZM2.46,34h0s0,0,0,0ZM2.4,28.19h0v-.07h0Zm20-.15v0h0ZM7.71,28l0,0,0,0ZM8,27.72H8v.05H8Zm-5.2-.64h0S2.8,27.1,2.78,27.08Zm13.65,15.2,0,0,0,0ZM5.6,26.76v0h0v0Zm0,15.72h0v0h0ZM16.67,43l0,0,0,0ZM8,26.32h0v0ZM19.24,45.69l0-.07h0ZM3.63,40.28l0,0,0,0Zm18.42-9.52h0V30.7h0Zm-.53-.1h0v-.07h0Zm-19.21,0h0v-.06h0Zm3.4,15,0,0,0,0Zm15.71-4.19h0Zm.19-12.47v0h0v0ZM6.18,41.52s0,0,0,0h0v0Zm-1-22.8h0v.05h0ZM19.57,5.54h0Zm.56-3.21v0h0v0Zm-2.2,2.06,0,0h0ZM13.47,20.56l0,0H13.4Zm-8.2-2.5h0v.07h0ZM20.32,2.33l0,0h0v0ZM7.52,16v0h.07v0ZM20.09,3.08h0V3h0Zm.23-.42v0h-.05v0Zm-2.8,0ZM12.68,15.58l0,0,0,0ZM20.46,4.16h0v.07h0ZM7.62,15.67h0V15.6h0ZM16.79,3.94h-.06V4Zm-8.15,9h0v0h0Zm9-4.86h0V8h0ZM20.2,4.37h-.05v0ZM17.27,3h0V3h0ZM5.15,18.4l0,0v0ZM18.83,8.75V8.7l-.12,0Zm-2.12-6.7-.07,0v0Zm-5,6.85,0,0,0,0Zm5.4-4.16ZM16.49,2V2h.07V2Zm1,1.44h0v0Zm2.62-1.6h0s0,0,0,0ZM6.93,16.89v0Zm4.88-7.73ZM9.88,14.4l0,0,0,0Zm10.27-11v0h.06v0ZM18,5.12H17.9l0,.11Zm3.11-1.78v0H21v0Zm-2.81.28,0,0h0Zm2.27-.39v0h-.05v0Zm-5.14-1v0h0v0Zm4.4,4.43h0v0h0ZM4.18,43.78v0l0,0h0Zm-.39.09h0v0Zm.63-.42h0a0,0,0,0,0,0,0h0Zm-.59,0h0v0Zm12.68,0h0a0,0,0,0,0,0,0h0Zm-12.37,0h0l0,0ZM19.88,5.22s0,0,0,0,0,0,0,0,0,0,0,0A0,0,0,0,0,19.88,5.22ZM4,44.64v0a0,0,0,0,0,0,0s0,0,0,0Zm14-39.34h0s0,0,0,0h0ZM2.79,44.44h0l0,0v0Zm1.58-.27v0h0s0,0,0,0ZM4,43.92H4l0,0H4ZM19.58,5.39v0h0v0Zm-15.2,39h0ZM17.89,5.5v0l0,0h0ZM22,44.25h0l0,0Zm-17.69,0h0l0,0Zm-1.64,0v0h0v0Zm17.62,0h0Zm1.18-3.7h0l0,0Zm-10-32.06h0Zm9.54,31.72a0,0,0,0,0,0,0s0,0,0,0l0,0Zm.26.61v0s0,0,0,0v0ZM3.22,39.34l0,0h0l0,0Zm8.45-30v0h0Zm-.6.15h0l0,0Zm9.67,29.65h0Zm-13.94,0,0,0v0h0Zm-.2,0h0Zm-3.75,0v0h0Zm.6-.12v0s0,0,0,0v0ZM2.78,39h0v0Zm9,1h0ZM18.54,8.53h0a0,0,0,0,0,0,0v0Zm3.38,31.35h0l0,0h0ZM11.67,9.05h0l0,0h0ZM22,39.36h0s0,0,0,0,0,0,0,0Zm-15.42,0h0s0,0,0,0v0ZM9,42.54H9Zm6.79,0h0l0,0v0Zm4.82-.13,0,0s0,0,0,0h0Zm-8.82-35v0l0,0h0ZM3.55,43v0h0v0Zm13.24-.37h0Zm-10.85,0a0,0,0,0,0,0,0s0,0,0,0l0,0Zm-1.15,0h0Zm11.75,0h0v0ZM12.1,7.78h0ZM2.48,41.45h0l0,0ZM21,41.4h0a0,0,0,0,0,0,0v0ZM2.5,41.11v0h0v0ZM15.75,42.2l0,0h0Zm.48-34.47v0l0,0h0ZM8.81,42v0h0v0Zm-6.19-.27,0,0v0h0Zm17-39.24v0a0,0,0,0,0,0,0v0Zm1.3.1h0l0,0ZM12.25,46.25h0s0,0,0,0ZM18.91,2.36v0s0,0,0,0v0Zm-10.65,44v0h0Zm12.29-44a0,0,0,0,0,0,0s0,0,0,0h0ZM18.92,3h0s0,0,0,0h0Zm.75,0V3h0V3ZM18.61,46.06s0,0,0,0,0,0,0,0h0Zm1.78-43h0l0,0V3Zm.37,0h0Zm-.14.1s0,0,0,0h0s0,0,0,0a0,0,0,0,0,0,0ZM17.3,2.74h0l0,0v0Zm1.09.19h0a0,0,0,0,0,0,0s0,0,0,0ZM2.84,46.13s0,0,0,0,0,0,0,0,0,0,0,0ZM17.23,1.89h0ZM20,2.27h0ZM12.11,46.38h0s0,0,0,0h0ZM18.84,2.32h0Zm2.55-.22a0,0,0,0,0,0,0s0,0,0,0v0ZM9.67,46.5v0h0ZM5.56,45.3v0l0,0h0Zm9.63-.06h0v0h0ZM16.64,4.3v0h0v0ZM20,4.36h0Zm-3,0h0Zm.14,0h0Zm3.47,41,0,0h0s0,0,0,0ZM20.11,5V5h0ZM15.05,44.92s0,0,0,0,0,0,0,0,0,0,0,0Zm-11.15,0h0l0,0v0Zm-.53,0v0h0l0,0ZM20.78,4.59h0l0,0h0ZM3.85,45.25h0ZM21,45.2a0,0,0,0,0,0,0h0l0,0ZM17.89,4.64h0s0,0,0,0h0Zm-1.28.06v0h0s0,0,0,0Zm.32,0h0a0,0,0,0,0,0,0s0,0,0,0ZM18.39,5h0l0,0V5Zm1.33-1.66h0s0,0,0,0v0ZM4.18,45.91h0l0,0Zm15.45,0h0Zm1-42.51s0,0,0,0,0,0,0,0h0ZM3.17,45.76s0,0,0,0h0s0,0,0,0S3.17,45.78,3.17,45.76ZM19.5,46v0h0l0,0Zm-.16,0v0h0v0Zm0-42.74v0s0,0,0,0v0Zm-1.4.06v0l0,0h0ZM5.6,46h0Zm12.29-42h0l0,0Zm3.51,41.6h0l0,0Zm-17.19.14h0s0,0,0,0v0ZM21,3.56v0a0,0,0,0,0,0,0h0ZM18,3.61l0,0a0,0,0,0,0,0,0s0,0,0,0ZM17,3.64h0s0,0,0,0,0,0,0,0Zm.23.28v0a0,0,0,0,0,0,0v0ZM7.92,25.37h0a0,0,0,0,0,0,0v0Zm-4.06-.09v0l0,0h0ZM17.62,25l0,0v0h0Zm4-.05h0a0,0,0,0,0,0,0h0Zm-14.33.77v0s0,0,0,0h0Zm-2.46-7v0l0,0h0Zm2.42,6.88v0l0,0s0,0,0,0,0,0,0,0Zm-3.39,0h0s0,0,0,0v0Zm.21-.18v0l0,0h0Zm4.49-1.15v0s0,0,0,0v0Zm3.05,0a0,0,0,0,0,0,0s0,0,0,0h0Zm.55-.1h0l0,0v0ZM4.56,19.44s0,0,0,0,0,0,0,0l0,0ZM7.88,25h0a0,0,0,0,0,0,0Zm-3.32-.24h0l0,0Zm12.28,2.41h0s0,0,0,0h0Zm-14.28,0h0a0,0,0,0,0,0,0v0Zm4.27-.38h0Zm3.87,1.08v0s0,0,0,0v0ZM5.46,18h0l0,0Zm3.12,9.46v0h0Zm-3.64,0a0,0,0,0,0,0,0s0,0,0,0h0Zm3.11-1.24h0s0,0,0,0v0Zm-3.36-7.5v0h0ZM20,26v0h0Zm-.52,0s0,0,0,0,0,0,0,0h0Zm-9.63,0h0Zm-1.9.78v0h0Zm12.82-.11,0,0v0h0ZM5.26,18.53h0s0,0,0,0h0Zm-1.1,7.81v0h0Zm-2,0h0l0,0Zm.63-4.74h0Zm12.08,1h0Zm-4.75,0a0,0,0,0,0,0,0s0,0,0,0v0Zm10.21-.06s0,0,0,0,0,0,0,0h0Zm-5.62.18h0s0,0,0,0v0Zm-4.62,0,0,0s0,0,0,0h0Zm3.36-.44h0s0,0,0,0h0Zm2.18.06v0h0l0,0Zm-.29,0h0Zm1.23-.05h0Zm3.62.19h0l0,0Zm-5.54-.05h0a0,0,0,0,0,0,0v0Zm-2.54-.28h0ZM4.27,19.81a0,0,0,0,0,0,0s0,0,0,0,0,0,0,0S4.27,19.82,4.27,19.81Zm9.18.81v0h0v0ZM15.23,23v0h0s0,0,0,0Zm-2.1-2.1h0s0,0,0,0v0ZM14.71,23h0l0,0Zm-.52-.05h0a0,0,0,0,0,0,0h0Zm1.13,0h0l0,0h0Zm-1.51-2.7h0l0,0Zm-9.94.05h0v0Zm14,3.08h0Zm-3.55,0h0a0,0,0,0,0,0,0v0ZM5.78,20.52v0a0,0,0,0,0,0,0s0,0,0,0ZM22.21,35.57h0l0,0Zm-1.85,1.09h0s0,0,0,0h0Zm-.74,0h0v0Zm1.22,0h0ZM11.42,12.89v0h0v0ZM10.07,14h0ZM21.75,34.25h0v0ZM2.93,34a0,0,0,0,0,0,0h0v0ZM22.11,34h0ZM10.05,14.32h0ZM21.47,33.57h0s0,0,0,0,0,0,0,0,0,0,0,0ZM22.2,35h0s0,0,0,0h0Zm-.2-.23v0l0,0h0Zm-3,0v0l0,0h0Zm-5.17-.43h0l0,0Zm8.5,3.51h0l0,0ZM4,38.84H4s0,0,0,0H4ZM2.78,38.6h0s0,0,0,0v0Zm.64,0h0l0,0Zm1.74-.22h0v0l0,0ZM20.68,36.7h0s0,0,0,0h0Zm.05,1v0l0,0h0ZM2.56,37.43v0s0,0,0,0h0Zm19.12-7.5v0l0,0h0Zm.38,1v0s0,0,0,0,0,0,0,0Zm-.77-.42h0Zm-.13-.11h0v0h0Zm-9.93-2.22h0Zm-3.35,0v0h0Zm13.52-.06h0s0,0,0,0h0Zm-13.66,0h0s0,0,0,0h0Zm14,.76h0s0,0,0,0h0Zm-10.55-.2v0a0,0,0,0,0,0,0v0Zm.11-.13a0,0,0,0,0,0,0s0,0,0,0l0,0Zm-.52-.09s0,0,0,0,0,0,0,0h0Zm10.72,4h0Zm-12.76.75h0s0,0,0,0h0ZM2.6,33.1h0v0Zm10.5-.24h0s0,0,0,0h0Zm8.63-1.31h0Zm-.28,0s0,0,0,0h0s0,0,0,0Zm.27-.2h0s0,0,0,0v0ZM7.52,15.69h0s0,0,0,0v0Zm4.53,0h0s0,0,0,0h0Zm-2.38-.32h0l0,0v0ZM9.52,31.86v0s0,0,0,0v0ZM12.43,15.6h0Z" transform="translate(-1.99 -1.67)"/><path class="cls-1" d="M18.39,2l-.06.15.2,0v.05l-.12,0,0,0h.13l0,.15h0l-.2.13a1.12,1.12,0,0,0,0-.21.37.37,0,0,0-.05-.11h0c0-.1-.1,0-.15,0h0l.11-.2,0,.05L18.39,2Z" transform="translate(-1.99 -1.67)"/><path class="cls-1" d="M36.6,20.9c-.09-.08,0-.16,0-.24h0l.06-.2h0l.09.05h0l0,.09h.16l-.12.14h.13c0,.06,0,.15-.06.16s0,.13-.13.16h-.09a.58.58,0,0,0,.05-.14l-.05,0Z" transform="translate(-1.99 -1.67)"/><path class="cls-1" d="M33.46,48l-.06-.11-.23.1c0-.15.09-.2.17-.24l.2.07-.08.17Z" transform="translate(-1.99 -1.67)"/><path class="cls-1" d="M33.84,46.94l-.09,0h0l-.09-.12.15-.24h.08c.1.15-.06.18-.12.28l.06,0Z" transform="translate(-1.99 -1.67)"/><path class="cls-1" d="M34.56,6.15l-.05-.24.11-.14.17,0h0c-.13,0-.13.15-.16.25l-.08.09Z" transform="translate(-1.99 -1.67)"/><path class="cls-1" d="M34.36,47a.24.24,0,0,1-.14,0l-.14-.17.14-.11h0l.06.05h0l0,.17.08,0Z" transform="translate(-1.99 -1.67)"/><path class="cls-1" d="M41.24,22.41l0-.18.33-.08-.33.3h0l-.05-.05Z" transform="translate(-1.99 -1.67)"/><path class="cls-1" d="M39.58,13.88l.12.07c0,.13,0,.24-.18.31l.1-.23Z" transform="translate(-1.99 -1.67)"/><path class="cls-1" d="M45.13,36.63v-.14c0,.1.12.16,0,.27L45,36.7v0Z" transform="translate(-1.99 -1.67)"/><path class="cls-1" d="M22.69,36.76l-.24-.07.2-.06v-.1h0C22.69,36.59,22.78,36.66,22.69,36.76Z" transform="translate(-1.99 -1.67)"/><path class="cls-1" d="M33.91,47.06a.28.28,0,0,1-.1.32C33.81,47.25,33.75,47.14,33.91,47.06Z" transform="translate(-1.99 -1.67)"/><path class="cls-1" d="M10.13,9.37,10,9.61c-.05-.13-.05-.13.06-.27l.08,0Z" transform="translate(-1.99 -1.67)"/><path class="cls-1" d="M32.61,9.37l-.13.24c-.06-.13-.06-.13.06-.27l.08,0Z" transform="translate(-1.99 -1.67)"/><path class="cls-1" d="M33.68,8.38l-.23,0,.2-.22,0,0Z" transform="translate(-1.99 -1.67)"/><path class="cls-1" d="M11.18,8.39H11l.18-.21C11.25,8.25,11.2,8.31,11.18,8.39Z" transform="translate(-1.99 -1.67)"/><path class="cls-1" d="M22.15,33.31,22,33.13l.13-.08Z" transform="translate(-1.99 -1.67)"/><path class="cls-1" d="M40.62,22.89l.05-.2.2.16h0l-.06,0h-.19Z" transform="translate(-1.99 -1.67)"/><path class="cls-1" d="M22.13,33.57v.16H22q0-.15.15-.15Z" transform="translate(-1.99 -1.67)"/><path class="cls-1" d="M21.65,2.49v.18l-.24,0,.23-.13Z" transform="translate(-1.99 -1.67)"/><path class="cls-1" d="M36.91,46,37,46l-.15.11L36.73,46l.2,0Z" transform="translate(-1.99 -1.67)"/><path class="cls-1" d="M33.7,47.59h-.1l0-.14.14-.07v.2Z" transform="translate(-1.99 -1.67)"/><path class="cls-1" d="M39.54,14.31l0,.2-.1-.19Z" transform="translate(-1.99 -1.67)"/><path class="cls-1" d="M18.57,1.73c0,.11-.09.11-.18.06s.09-.1.17-.07Z" transform="translate(-1.99 -1.67)"/><path class="cls-1" d="M2.53,45.46l.1.17-.2-.05.1-.12Z" transform="translate(-1.99 -1.67)"/><path class="cls-1" d="M37.11,21.9c-.1,0-.1,0-.19.14l.07-.22.11.08Z" transform="translate(-1.99 -1.67)"/><path class="cls-1" d="M2.49,46.27l-.11,0,0,0v-.07l.13,0h0v.15Z" transform="translate(-1.99 -1.67)"/><path class="cls-1" d="M37.35,45.66l.16-.06-.11.2,0-.15Z" transform="translate(-1.99 -1.67)"/><path class="cls-1" d="M2.81,46.89l-.06-.16C2.85,46.73,2.85,46.73,2.81,46.89Z" transform="translate(-1.99 -1.67)"/><path class="cls-1" d="M25.22,46.67c.13.06.15.11.07.2Z" transform="translate(-1.99 -1.67)"/><path class="cls-1" d="M21.62,46.39l-.12,0v0l.13,0Z" transform="translate(-1.99 -1.67)"/><path class="cls-1" d="M32.62,9.38c0-.08,0-.15.15-.17l-.15.16Z" transform="translate(-1.99 -1.67)"/><path class="cls-1" d="M10.13,9.38c0-.08,0-.16.14-.16l-.15.15Z" transform="translate(-1.99 -1.67)"/><path class="cls-1" d="M40.9,22.6l-.18,0,.06-.14Z" transform="translate(-1.99 -1.67)"/><path class="cls-1" d="M22.41,37.13l.09-.24,0,.15-.13.08Z" transform="translate(-1.99 -1.67)"/><path class="cls-1" d="M27,46.61l.2,0v0H27l0-.08Z" transform="translate(-1.99 -1.67)"/><path class="cls-1" d="M37.74,19.06l0-.1,0,0,0,.09Z" transform="translate(-1.99 -1.67)"/><path class="cls-1" d="M30.84,46.67H31l-.2,0Z" transform="translate(-1.99 -1.67)"/><path class="cls-1" d="M44.9,37.13l.08-.24L45,37l-.12.08Z" transform="translate(-1.99 -1.67)"/><path class="cls-1" d="M8.54,46.69l-.18,0v0h.18Z" transform="translate(-1.99 -1.67)"/><path class="cls-1" d="M34.55,6.32h0l0,0,0,0H34.4l.09-.14h0l.08.07,0,.08Z" transform="translate(-1.99 -1.67)"/><path class="cls-1" d="M22.59,38.49l-.15.06c0-.1,0-.2.15-.11h0l0,0,0,0Z" transform="translate(-1.99 -1.67)"/><path class="cls-1" d="M45.08,38.49l-.16.06c0-.1,0-.2.16-.11h0l0,0,0,0Z" transform="translate(-1.99 -1.67)"/><path class="cls-1" d="M4.52,46.61l.2,0v0H4.55l0-.08Z" transform="translate(-1.99 -1.67)"/><path class="cls-1" d="M21.31,2.54l.12,0-.12.24h0v-.2Z" transform="translate(-1.99 -1.67)"/><path class="cls-1" d="M33.61,47.6l-.09.11-.06-.11h.15Z" transform="translate(-1.99 -1.67)"/><path class="cls-1" d="M33.7,47.59a.42.42,0,0,1,0,.1.24.24,0,0,1,0,.08l-.06,0h0l.05-.15Z" transform="translate(-1.99 -1.67)"/><path class="cls-1" d="M34,47.26l.1-.08,0,.11Z" transform="translate(-1.99 -1.67)"/><path class="cls-1" d="M35.46,4.19l0,.14h0l0-.14Z" transform="translate(-1.99 -1.67)"/><path class="cls-1" d="M39,14.68l.14,0,0,0-.16,0h0v-.05Z" transform="translate(-1.99 -1.67)"/><path class="cls-1" d="M39.54,14.64l0-.1h0l0,.1Z" transform="translate(-1.99 -1.67)"/><path class="cls-1" d="M26.58,19.61l-.09-.07v0l.11,0,0,.09Z" transform="translate(-1.99 -1.67)"/><path class="cls-1" d="M19.13,8.46l-.06.16,0-.16h.09Z" transform="translate(-1.99 -1.67)"/><path class="cls-1" d="M36.14,21.52l.11,0v0h-.12Z" transform="translate(-1.99 -1.67)"/><path class="cls-1" d="M41.62,8.46l-.06.16,0-.16h.09Z" transform="translate(-1.99 -1.67)"/><path class="cls-1" d="M35.76,3.57l.05.08,0,0-.06-.07Z" transform="translate(-1.99 -1.67)"/><path class="cls-1" d="M35.64,45.94l.11,0-.11.11h0v-.15Z" transform="translate(-1.99 -1.67)"/><path class="cls-1" d="M27.25,18.33l.11,0v0h-.11Z" transform="translate(-1.99 -1.67)"/><path class="cls-1" d="M33.89,7.81c0-.1.09,0,.14,0h0L34,7.86h0l-.11-.05Z" transform="translate(-1.99 -1.67)"/><path class="cls-1" d="M11.41,7.81c0-.1.09,0,.14,0h0l-.06.05h0l-.1-.05Z" transform="translate(-1.99 -1.67)"/><path class="cls-1" d="M34,7.63l0,0,0,0s0,0,0,0S34,7.63,34,7.63Z" transform="translate(-1.99 -1.67)"/><path class="cls-1" d="M11.55,7.69h-.08l0-.05Z" transform="translate(-1.99 -1.67)"/><path class="cls-1" d="M22.25,34.29l0,.06h0l0-.06Z" transform="translate(-1.99 -1.67)"/><path class="cls-1" d="M44.71,34.25l0,.09h0Z" transform="translate(-1.99 -1.67)"/><path class="cls-1" d="M2.49,45.88l0-.05,0,0,0,.06Z" transform="translate(-1.99 -1.67)"/><path class="cls-1" d="M22.52,36.12V36h0v.09Z" transform="translate(-1.99 -1.67)"/><path class="cls-1" d="M45,36v.09h0V36Z" transform="translate(-1.99 -1.67)"/><path class="cls-1" d="M22.54,37.14l0,.06,0,0-.05,0Z" transform="translate(-1.99 -1.67)"/><path class="cls-1" d="M31.39,11.35l-.06.05,0,0,.05-.06Z" transform="translate(-1.99 -1.67)"/><path class="cls-1" d="M8.83,11.39l0-.08,0,0-.05.06Z" transform="translate(-1.99 -1.67)"/><path class="cls-1" d="M45.05,37.22l0-.06,0,0,0,.07Z" transform="translate(-1.99 -1.67)"/><path class="cls-1" d="M38.58,15.69h.05v0h-.06Z" transform="translate(-1.99 -1.67)"/><path class="cls-1" d="M21.69,2.31h.08l0,0-.06,0Z" transform="translate(-1.99 -1.67)"/><path class="cls-1" d="M37.17,19.9l-.09.09h0c0-.06,0-.1.09-.09Z" transform="translate(-1.99 -1.67)"/><path class="cls-1" d="M34.73,5.61V5.7l-.07,0,.09-.06Z" transform="translate(-1.99 -1.67)"/><path class="cls-1" d="M18.6,46.37l0,.08h-.08l0-.08Z" transform="translate(-1.99 -1.67)"/><path class="cls-1" d="M36.49,21.37l0,.07h0l0-.07Z" transform="translate(-1.99 -1.67)"/><path class="cls-1" d="M36.31,21.68v.09h0v-.09Z" transform="translate(-1.99 -1.67)"/><path class="cls-1" d="M36.64,22.18l.09-.05.05.1h0l-.15-.05Z" transform="translate(-1.99 -1.67)"/><path class="cls-1" d="M34.15,7l.06,0,0,0L34.18,7Z" transform="translate(-1.99 -1.67)"/><path class="cls-1" d="M11.67,7l.06,0,0,0,0,.06Z" transform="translate(-1.99 -1.67)"/><path class="cls-1" d="M27.57,18l-.08,0v0h.08Z" transform="translate(-1.99 -1.67)"/><path class="cls-1" d="M26.66,46.58l.05,0,0,0,0,0Z" transform="translate(-1.99 -1.67)"/><path class="cls-1" d="M21.79,33.45h0S21.78,33.47,21.79,33.45Z" transform="translate(-1.99 -1.67)"/><path class="cls-1" d="M4.18,46.58l.05,0,0,0,0,0Z" transform="translate(-1.99 -1.67)"/><path class="cls-1" d="M21.82,2.22l0,0v0l0,0Z" transform="translate(-1.99 -1.67)"/><path class="cls-1" d="M36.4,21.92l0,0,0,0,0-.05Z" transform="translate(-1.99 -1.67)"/><path class="cls-1" d="M14.1,22.28l.08,0,0,0-.06-.08Z" transform="translate(-1.99 -1.67)"/><path class="cls-1" d="M26.87,19l0-.09,0,0-.08.05Z" transform="translate(-1.99 -1.67)"/><path class="cls-1" d="M23.91,35.64v.06h0v-.06Z" transform="translate(-1.99 -1.67)"/><path class="cls-1" d="M39.56,13.5v.05h0V13.5Z" transform="translate(-1.99 -1.67)"/><path class="cls-1" d="M33.46,48l0,.09-.08,0h0l.1,0Z" transform="translate(-1.99 -1.67)"/><path class="cls-1" d="M35.46,46.27v.08h0l0-.08Z" transform="translate(-1.99 -1.67)"/><path class="cls-1" d="M2.22,34.48V34.4h0v.08Z" transform="translate(-1.99 -1.67)"/><path class="cls-1" d="M38.71,16.36" transform="translate(-1.99 -1.67)"/><path class="cls-1" d="M36.54,2.67l-.1.05h0l0-.06Z" transform="translate(-1.99 -1.67)"/><path class="cls-1" d="M38.21,16.62l.06-.06v0l-.08,0Z" transform="translate(-1.99 -1.67)"/><path class="cls-1" d="M22.24,23.52h.06v0h-.06Z" transform="translate(-1.99 -1.67)"/><path class="cls-1" d="M44.77,23.56l-.05,0v0l.06,0Z" transform="translate(-1.99 -1.67)"/><path class="cls-1" d="M38.21,16.68v0Z" transform="translate(-1.99 -1.67)"/><path class="cls-1" d="M37.21,19.51l0,.09-.07,0h0l.06,0h0Z" transform="translate(-1.99 -1.67)"/><path class="cls-1" d="M27.11,18.61v-.07l0,0Z" transform="translate(-1.99 -1.67)"/><path class="cls-1" d="M24.65,31.22l0-.07h0Z" transform="translate(-1.99 -1.67)"/><path class="cls-1" d="M2.21,31.16l0,0,0,0Z" transform="translate(-1.99 -1.67)"/><path class="cls-1" d="M27.26,18.45h0Z" transform="translate(-1.99 -1.67)"/><path class="cls-1" d="M24.64,31l-.07,0v0h.07Z" transform="translate(-1.99 -1.67)"/><path class="cls-1" d="M2.16,31l-.08,0v0h.08Z" transform="translate(-1.99 -1.67)"/><path class="cls-1" d="M36.46,2.81h-.08l.07-.09h0v.09Z" transform="translate(-1.99 -1.67)"/><path class="cls-1" d="M36.73,20.52l.09-.05v0h-.09Z" transform="translate(-1.99 -1.67)"/><path class="cls-1" d="M2.62,39.78h0Z" transform="translate(-1.99 -1.67)"/><path class="cls-1" d="M2.36,45.75v-.06h0v.06Z" transform="translate(-1.99 -1.67)"/><path class="cls-1" d="M34,7.34l0,.06h0l0-.06Z" transform="translate(-1.99 -1.67)"/><path class="cls-1" d="M11.47,7.34l0,.06h0V7.35Z" transform="translate(-1.99 -1.67)"/><path class="cls-1" d="M34.45,6.59v.06H34.4l0,0Z" transform="translate(-1.99 -1.67)"/><path class="cls-1" d="M22.74,38l0-.06h0V38Z" transform="translate(-1.99 -1.67)"/><path class="cls-1" d="M45.23,38l0-.06h0V38Z" transform="translate(-1.99 -1.67)"/><path class="cls-1" d="M36,45.85h0l0,0-.05,0Z" transform="translate(-1.99 -1.67)"/><path class="cls-1" d="M38.18,45.06l0,0,0,0,.05,0Z" transform="translate(-1.99 -1.67)"/><path class="cls-1" d="M8.92,46.81h0v0Z" transform="translate(-1.99 -1.67)"/><path class="cls-1" d="M44.77,23.8v0Z" transform="translate(-1.99 -1.67)"/><polygon class="cls-1" points="31.14 46.44 31.13 46.43 31.14 46.43 31.14 46.44"/><path class="cls-1" d="M34.36,47h0Z" transform="translate(-1.99 -1.67)"/><path class="cls-1" d="M31.4,46.81v0h0Z" transform="translate(-1.99 -1.67)"/><path class="cls-1" d="M22.29,23.77h0Z" transform="translate(-1.99 -1.67)"/><path class="cls-1" d="M34.31,46.57l.08,0-.08,0h0v0Z" transform="translate(-1.99 -1.67)"/><path class="cls-1" d="M22.13,33.57v0Z" transform="translate(-1.99 -1.67)"/><path class="cls-1" d="M21.67,33v0h0Z" transform="translate(-1.99 -1.67)"/><path class="cls-1" d="M37.4,46.13l0-.08,0,.08H37.4Z" transform="translate(-1.99 -1.67)"/><path class="cls-1" d="M35.64,46.08l0,0,0,0h0Z" transform="translate(-1.99 -1.67)"/><polygon class="cls-1" points="0.06 36.04 0.09 36.03 0.08 36.05 0.06 36.04"/><polygon class="cls-1" points="22.55 36.04 22.57 36.03 22.57 36.05 22.55 36.04"/><path class="cls-1" d="M44.82,36.43" transform="translate(-1.99 -1.67)"/><path class="cls-1" d="M22.35,36.49" transform="translate(-1.99 -1.67)"/><path class="cls-1" d="M44.92,34.29v0Z" transform="translate(-1.99 -1.67)"/><path class="cls-1" d="M22.44,34.29h0l0,0Z" transform="translate(-1.99 -1.67)"/><path class="cls-1" d="M21.73,33.76h0v0h0Z" transform="translate(-1.99 -1.67)"/><path class="cls-1" d="M36.4,45.7h0Z" transform="translate(-1.99 -1.67)"/><path class="cls-1" d="M24.61,30V30h0V30Z" transform="translate(-1.99 -1.67)"/><path class="cls-1" d="M2.13,30V30h0V30Z" transform="translate(-1.99 -1.67)"/><path class="cls-1" d="M24.62,29.79h0Z" transform="translate(-1.99 -1.67)"/><path class="cls-1" d="M2.14,29.79h0Z" transform="translate(-1.99 -1.67)"/><polygon class="cls-1" points="42.81 27.13 42.81 27.12 42.83 27.12 42.81 27.13"/><polygon class="cls-1" points="20.33 27.12 20.33 27.13 20.31 27.12 20.33 27.12"/><path class="cls-1" d="M39.28,15h0v0Z" transform="translate(-1.99 -1.67)"/><path class="cls-1" d="M37,20.71l-.1,0h0l.1-.05Z" transform="translate(-1.99 -1.67)"/><path class="cls-1" d="M35.28,4.47h0Z" transform="translate(-1.99 -1.67)"/><path class="cls-1" d="M37.89,18.17h0Z" transform="translate(-1.99 -1.67)"/><polygon class="cls-1" points="10.1 4.8 10.11 4.8 10.1 4.82 10.1 4.8"/><path class="cls-1" d="M38.74,16.08h0Z" transform="translate(-1.99 -1.67)"/><path class="cls-1" d="M38.49,16v.06h0l0-.06Z" transform="translate(-1.99 -1.67)"/><polygon class="cls-1" points="35.97 17.08 35.96 17.1 35.95 17.08 35.97 17.08"/><path class="cls-1" d="M38.49,16Z" transform="translate(-1.99 -1.67)"/><path class="cls-1" d="M37.17,19.84l0,0-.05,0h0v-.07Z" transform="translate(-1.99 -1.67)"/><path class="cls-1" d="M37.17,19.84h0Z" transform="translate(-1.99 -1.67)"/><path class="cls-1" d="M37.5,19.62v0h0Z" transform="translate(-1.99 -1.67)"/><path class="cls-1" d="M37.51,19.63v0h0Z" transform="translate(-1.99 -1.67)"/><path class="cls-1" d="M20.39,5.65h0Z" transform="translate(-1.99 -1.67)"/><path class="cls-1" d="M42.09,21.94h0Z" transform="translate(-1.99 -1.67)"/><path class="cls-1" d="M39.27,14.55h0Z" transform="translate(-1.99 -1.67)"/><path class="cls-1" d="M18.25,1.9h0Z" transform="translate(-1.99 -1.67)"/><path class="cls-1" d="M38.1,17h0v0Z" transform="translate(-1.99 -1.67)"/><path class="cls-1" d="M14.31,22.22h-.08v0l.06.05Z" transform="translate(-1.99 -1.67)"/><path class="cls-1" d="M21.32,1.78v-.1l0,.09h-.05Z" transform="translate(-1.99 -1.67)"/><path class="cls-1" d="M36.58,21.14Z" transform="translate(-1.99 -1.67)"/><path class="cls-1" d="M36.28,21.44v0h0Z" transform="translate(-1.99 -1.67)"/><polygon class="cls-1" points="36.71 14.55 36.71 14.53 36.72 14.53 36.71 14.55"/><path class="cls-1" d="M27.06,19.43l0,0,0,0v.05Z" transform="translate(-1.99 -1.67)"/><path class="cls-1" d="M36.34,21.59v0Z" transform="translate(-1.99 -1.67)"/><path class="cls-1" d="M36.14,21.77" transform="translate(-1.99 -1.67)"/><polygon class="cls-1" points="9.93 4.94 9.94 4.93 9.93 4.93 9.93 4.94"/><polygon class="cls-1" points="32.56 4.66 32.57 4.67 32.57 4.66 32.56 4.66"/><path class="cls-1" d="M34.51,6.33l0,0,0,0h0Z" transform="translate(-1.99 -1.67)"/><path class="cls-1" d="M34.4,6.32v0h0Z" transform="translate(-1.99 -1.67)"/><path class="cls-1" d="M34.56,6.14l-.07,0h0Z" transform="translate(-1.99 -1.67)"/><polygon class="cls-1" points="9.93 4.93 9.93 4.95 9.93 4.94 9.93 4.93"/><path class="cls-1" d="M34.5,6.76v0h0v.06Z" transform="translate(-1.99 -1.67)"/><path class="cls-1" d="M20.13,6.09v0h0v0Z" transform="translate(-1.99 -1.67)"/><path class="cls-1" d="M38.11,44.56v0h0Z" transform="translate(-1.99 -1.67)"/><polygon class="cls-1" points="36.02 43.13 36.02 43.14 36.03 43.14 36.02 43.13"/><polygon class="cls-1" points="35.91 43.17 35.9 43.16 35.92 43.16 35.91 43.17"/><path class="cls-1" d="M38,44.8l.05,0h0l-.05,0Z" transform="translate(-1.99 -1.67)"/><path class="cls-1" d="M38.1,44.71l0,0h0l0,0Z" transform="translate(-1.99 -1.67)"/><path class="cls-1" d="M38.16,44.65l-.06.06h0Z" transform="translate(-1.99 -1.67)"/><path class="cls-1" d="M20.32,5.52v0Z" transform="translate(-1.99 -1.67)"/><path class="cls-1" d="M34.74,6.1Z" transform="translate(-1.99 -1.67)"/><polygon class="cls-1" points="20.15 38.79 20.16 38.79 20.16 38.8 20.15 38.79"/><path class="cls-1" d="M2.78,40.15l0,0,0,0h0v0Z" transform="translate(-1.99 -1.67)"/><path class="cls-1" d="M41.81,8V8Z" transform="translate(-1.99 -1.67)"/><path class="cls-1" d="M45.13,38.83h0Z" transform="translate(-1.99 -1.67)"/><path class="cls-1" d="M2.76,39.49l0,0,0,0Z" transform="translate(-1.99 -1.67)"/><polygon class="cls-1" points="9.29 5.83 9.3 5.83 9.3 5.84 9.29 5.83"/><polygon class="cls-1" points="31.77 5.83 31.79 5.83 31.79 5.84 31.77 5.83"/><polygon class="cls-1" points="9.6 5.84 9.6 5.85 9.61 5.85 9.6 5.84"/><polygon class="cls-1" points="32.09 5.84 32.09 5.85 32.09 5.85 32.09 5.84"/><path class="cls-1" d="M19.32,8V8Z" transform="translate(-1.99 -1.67)"/><polygon class="cls-1" points="9.3 5.91 9.3 5.92 9.29 5.92 9.3 5.91"/><polygon class="cls-1" points="31.78 5.93 31.78 5.91 31.79 5.92 31.78 5.93"/><path class="cls-1" d="M36.54,2.68h0v0Z" transform="translate(-1.99 -1.67)"/><polygon class="cls-1" points="34.16 44.52 34.16 44.54 34.15 44.54 34.16 44.52"/><path class="cls-1" d="M18.61,46.37Z" transform="translate(-1.99 -1.67)"/><polygon class="cls-1" points="34.06 44.64 34.05 44.63 34.06 44.63 34.06 44.64"/><path class="cls-1" d="M21.65,2.49h0Z" transform="translate(-1.99 -1.67)"/><path class="cls-1" d="M36,46.13v0Z" transform="translate(-1.99 -1.67)"/><path class="cls-1" d="M21.84,46.13l-.05-.05h0l.05.05Z" transform="translate(-1.99 -1.67)"/><polygon class="cls-1" points="34.33 1.34 34.31 1.34 34.33 1.34 34.33 1.34"/><path class="cls-1" d="M37.34,46v0Z" transform="translate(-1.99 -1.67)"/><path class="cls-1" d="M37.4,46.17l0,0,0,0h0v.05Z" transform="translate(-1.99 -1.67)"/><path class="cls-1" d="M36,46.13h0Z" transform="translate(-1.99 -1.67)"/><polygon class="cls-1" points="19.34 1.22 19.36 1.22 19.36 1.23 19.34 1.22"/><polygon class="cls-1" points="34.25 44.45 34.24 44.44 34.26 44.44 34.25 44.45"/><polygon class="cls-1" points="7.62 45.08 7.61 45.09 7.62 45.08 7.62 45.08"/><path class="cls-1" d="M34.32,46.7l-.06,0h0l.05-.05Z" transform="translate(-1.99 -1.67)"/><path class="cls-1" d="M18.39,2V1.92h0V2Z" transform="translate(-1.99 -1.67)"/><path class="cls-1" d="M34.32,46.65v.05h0v-.06Z" transform="translate(-1.99 -1.67)"/><polygon class="cls-1" points="26.61 45.02 26.61 45.01 26.62 45.01 26.61 45.02"/><polygon class="cls-1" points="4.13 45.02 4.13 45.01 4.14 45.01 4.13 45.02"/><path class="cls-1" d="M29.14,46.6h0l0,0v0Z" transform="translate(-1.99 -1.67)"/><polygon class="cls-1" points="25.48 44.95 25.48 44.97 25.47 44.96 25.48 44.95"/><path class="cls-1" d="M6.66,46.6h0l0,0v0Z" transform="translate(-1.99 -1.67)"/><path class="cls-1" d="M33.36,48.06Z" transform="translate(-1.99 -1.67)"/><path class="cls-1" d="M33.66,47.74h0Z" transform="translate(-1.99 -1.67)"/><path class="cls-1" d="M18.38,1.92v0Z" transform="translate(-1.99 -1.67)"/><polygon class="cls-1" points="31.76 45.32 31.75 45.33 31.77 45.32 31.76 45.32"/><path class="cls-1" d="M33.84,46.94h0l0,0v0Z" transform="translate(-1.99 -1.67)"/><path class="cls-1" d="M34.26,46.8l0,0s0,0,0,0h0v-.05Z" transform="translate(-1.99 -1.67)"/><path class="cls-1" d="M34.22,46.8v-.06h.06v.06h-.06Z" transform="translate(-1.99 -1.67)"/><polygon class="cls-1" points="30.1 45.08 30.09 45.09 30.11 45.08 30.1 45.08"/><path class="cls-1" d="M18.57,2.29l0,0,0,0h0Z" transform="translate(-1.99 -1.67)"/><path class="cls-1" d="M21.5,2.25v0Z" transform="translate(-1.99 -1.67)"/><path class="cls-1" d="M21.7,2.25v.06h0s0,0,0,0v0Z" transform="translate(-1.99 -1.67)"/><path class="cls-1" d="M41.09,46.37Z" transform="translate(-1.99 -1.67)"/><path class="cls-1" d="M36.12,46.37v0Z" transform="translate(-1.99 -1.67)"/><polygon class="cls-1" points="2.98 44.96 2.99 44.95 2.99 44.97 2.98 44.96"/><path class="cls-1" d="M21.75,46.42Z" transform="translate(-1.99 -1.67)"/><path class="cls-1" d="M36.12,46.36h0Z" transform="translate(-1.99 -1.67)"/><path class="cls-1" d="M21.7,2.25h0Z" transform="translate(-1.99 -1.67)"/><path class="cls-1" d="M38.2,45.22h0Z" transform="translate(-1.99 -1.67)"/><polygon class="cls-1" points="33.2 2.71 33.19 2.69 33.21 2.7 33.2 2.71"/><polygon class="cls-1" points="35.77 43.29 35.77 43.3 35.76 43.3 35.77 43.29"/><path class="cls-1" d="M35.84,45.94v0h0l0,0,0,0Z" transform="translate(-1.99 -1.67)"/><path class="cls-1" d="M35.84,45.94h0Z" transform="translate(-1.99 -1.67)"/><path class="cls-1" d="M37.59,45.71l0,0,0,0h0Z" transform="translate(-1.99 -1.67)"/><path class="cls-1" d="M37.07,45.71h0Z" transform="translate(-1.99 -1.67)"/><polygon class="cls-1" points="0.51 44.01 0.53 44.01 0.52 44.02 0.51 44.01"/><path class="cls-1" d="M37.83,45.66v0l0,0Z" transform="translate(-1.99 -1.67)"/><path class="cls-1" d="M26.86,18.94v0h0Z" transform="translate(-1.99 -1.67)"/><path class="cls-1" d="M37.25,19.37v.06h0v-.06Z" transform="translate(-1.99 -1.67)"/><path class="cls-1" d="M27.05,19.38h0Z" transform="translate(-1.99 -1.67)"/><polygon class="cls-1" points="35.79 16.43 35.8 16.42 35.78 16.43 35.79 16.43"/><path class="cls-1" d="M44.85,27.15h0Z" transform="translate(-1.99 -1.67)"/><path class="cls-1" d="M22.36,27.15h0Z" transform="translate(-1.99 -1.67)"/><path class="cls-1" d="M44.84,26.73v.05h0v-.06Z" transform="translate(-1.99 -1.67)"/><path class="cls-1" d="M22.36,26.73v.05h0v-.06Z" transform="translate(-1.99 -1.67)"/><path class="cls-1" d="M27.58,18l.05-.06h0l-.05.06Z" transform="translate(-1.99 -1.67)"/><path class="cls-1" d="M44.85,27.73h0v0Z" transform="translate(-1.99 -1.67)"/><path class="cls-1" d="M22.36,27.73h0v0Z" transform="translate(-1.99 -1.67)"/><path class="cls-1" d="M44.85,27.72h0Z" transform="translate(-1.99 -1.67)"/><path class="cls-1" d="M22.37,27.72h0Z" transform="translate(-1.99 -1.67)"/><polygon class="cls-1" points="42.87 24.38 42.88 24.37 42.88 24.38 42.87 24.38"/><polygon class="cls-1" points="20.39 24.39 20.39 24.37 20.41 24.37 20.39 24.39"/><path class="cls-1" d="M27.25,18.33h0Z" transform="translate(-1.99 -1.67)"/><polygon class="cls-1" points="34.64 19.96 34.62 19.97 34.62 19.96 34.64 19.96"/><path class="cls-1" d="M37.17,21.9h0Z" transform="translate(-1.99 -1.67)"/><path class="cls-1" d="M37.1,21.9h0Z" transform="translate(-1.99 -1.67)"/><polygon class="cls-1" points="38.94 21.11 38.94 21.09 38.95 21.09 38.94 21.11"/><polygon class="cls-1" points="34.56 19.28 34.55 19.29 34.56 19.29 34.56 19.28"/><path class="cls-1" d="M36.58,21.07v.07h0v-.06Z" transform="translate(-1.99 -1.67)"/><path class="cls-1" d="M36.17,22.13v0h0Z" transform="translate(-1.99 -1.67)"/><path class="cls-1" d="M16,22.23l0,0v0Z" transform="translate(-1.99 -1.67)"/><path class="cls-1" d="M38.45,22.23l0,0,0,0Z" transform="translate(-1.99 -1.67)"/><polygon class="cls-1" points="40.42 20.24 40.42 20.25 40.41 20.25 40.42 20.24"/><path class="cls-1" d="M35.84,22h0Z" transform="translate(-1.99 -1.67)"/><path class="cls-1" d="M35.79,22h0Z" transform="translate(-1.99 -1.67)"/><polygon class="cls-1" points="40.71 20.34 40.7 20.35 40.7 20.34 40.71 20.34"/><path class="cls-1" d="M41.2,22.41h0Z" transform="translate(-1.99 -1.67)"/><polygon class="cls-1" points="40.77 20.41 40.78 20.41 40.76 20.41 40.77 20.41"/><polygon class="cls-1" points="35.08 18.32 35.07 18.33 35.08 18.32 35.08 18.32"/><polygon class="cls-1" points="34.98 19.04 34.99 19.03 34.98 19.04 34.98 19.04"/><path class="cls-1" d="M36.6,20.9l-.06.05h0l.06-.05Z" transform="translate(-1.99 -1.67)"/><polygon class="cls-1" points="34.97 18.5 34.96 18.5 34.96 18.49 34.97 18.5"/><path class="cls-1" d="M24.12,35.31h0v0Z" transform="translate(-1.99 -1.67)"/><polygon class="cls-1" points="0.1 33.62 0.1 33.63 0.09 33.63 0.1 33.62"/><path class="cls-1" d="M24.54,36.69v0Z" transform="translate(-1.99 -1.67)"/><path class="cls-1" d="M2.06,36.69v0Z" transform="translate(-1.99 -1.67)"/><polygon class="cls-1" points="22.63 34.77 22.62 34.76 22.63 34.76 22.63 34.77"/><polygon class="cls-1" points="0.14 34.75 0.15 34.77 0.14 34.77 0.14 34.75"/><polygon class="cls-1" points="42.94 34.72 42.93 34.72 42.93 34.71 42.94 34.72"/><polygon class="cls-1" points="20.45 34.7 20.45 34.72 20.44 34.72 20.45 34.7"/><path class="cls-1" d="M39.29,14h0l0,0Z" transform="translate(-1.99 -1.67)"/><polygon class="cls-1" points="37.23 12.61 37.24 12.6 37.24 12.62 37.23 12.61"/><polygon class="cls-1" points="19.83 31.91 19.83 31.92 19.82 31.92 19.83 31.91"/><path class="cls-1" d="M39.57,13.21h0Z" transform="translate(-1.99 -1.67)"/><polygon class="cls-1" points="0.25 33.4 0.25 33.41 0.26 33.4 0.25 33.4"/><polygon class="cls-1" points="43.29 36.4 43.3 36.41 43.29 36.4 43.29 36.4"/><polygon class="cls-1" points="20.8 36.4 20.81 36.41 20.81 36.4 20.8 36.4"/><path class="cls-1" d="M45.23,38l.05.06h0L45.23,38Z" transform="translate(-1.99 -1.67)"/><path class="cls-1" d="M22.74,38l.05.06h0L22.74,38Z" transform="translate(-1.99 -1.67)"/><path class="cls-1" d="M22.65,38.83h0Z" transform="translate(-1.99 -1.67)"/><path class="cls-1" d="M45.14,38.82h0l0,0Z" transform="translate(-1.99 -1.67)"/><path class="cls-1" d="M22.65,38.82h0l0,0Z" transform="translate(-1.99 -1.67)"/><path class="cls-1" d="M45.08,38.44l0,0,0,0h0v-.06Z" transform="translate(-1.99 -1.67)"/><path class="cls-1" d="M22.59,38.44l0,0,0,0h0v-.06Z" transform="translate(-1.99 -1.67)"/><path class="cls-1" d="M17.66,12v0h0Z" transform="translate(-1.99 -1.67)"/><path class="cls-1" d="M40.15,12v0h0Z" transform="translate(-1.99 -1.67)"/><path class="cls-1" d="M44.7,36.69v.05h0v-.06Z" transform="translate(-1.99 -1.67)"/><path class="cls-1" d="M22.22,36.69v.05h0v-.06Z" transform="translate(-1.99 -1.67)"/><path class="cls-1" d="M9,11v0l0,0Z" transform="translate(-1.99 -1.67)"/><path class="cls-1" d="M31.52,11v0l0,0Z" transform="translate(-1.99 -1.67)"/><path class="cls-1" d="M38.2,16.62v.06h0l0,0,0,0Z" transform="translate(-1.99 -1.67)"/><polygon class="cls-1" points="22.67 27.78 22.68 27.79 22.67 27.79 22.67 27.78"/><polygon class="cls-1" points="0.18 27.79 0.19 27.78 0.19 27.8 0.18 27.79"/><path class="cls-1" d="M22,32.58h0Z" transform="translate(-1.99 -1.67)"/><polygon class="cls-1" points="37.55 13.1 37.53 13.1 37.55 13.1 37.55 13.1"/><path class="cls-1" d="M39.54,14.77Z" transform="translate(-1.99 -1.67)"/><path class="cls-1" d="M22.12,33.47Z" transform="translate(-1.99 -1.67)"/><path class="cls-1" d="M21.7,33.28h0Z" transform="translate(-1.99 -1.67)"/><path class="cls-1" d="M21.7,33.28h0Z" transform="translate(-1.99 -1.67)"/><path class="cls-1" d="M29.12,16.07h.07v0h-.07Z" transform="translate(-1.99 -1.67)"/><path class="cls-1" d="M29,16l0,0s0,0,0,0h0Z" transform="translate(-1.99 -1.67)"/><path class="cls-1" d="M29.32,16.08a0,0,0,0,1,0,0s0,0,0,0,0,0,0,0S29.32,16.07,29.32,16.08Z" transform="translate(-1.99 -1.67)"/><path class="cls-1" d="M29.29,16.29Z" transform="translate(-1.99 -1.67)"/><path class="cls-1" d="M25.26,40.1v.06l0,0Z" transform="translate(-1.99 -1.67)"/><path class="cls-1" d="M36.58,22.28l.09,0,0,0-.06-.08Z" transform="translate(-1.99 -1.67)"/><path class="cls-1" d="M35.88,4.48l-.05,0Z" transform="translate(-1.99 -1.67)"/><path class="cls-1" d="M17.68,2.81l0-.13.15-.06,0,.2Z" transform="translate(-1.99 -1.67)"/><path class="cls-1" d="M18.14,3l-.09,0v-.1l.07,0Z" transform="translate(-1.99 -1.67)"/><path class="cls-1" d="M18.2,2.54l-.09,0v0h.09Z" transform="translate(-1.99 -1.67)"/><path class="cls-1" d="M18.2,2.55v0h0Z" transform="translate(-1.99 -1.67)"/><path class="cls-1" d="M18,2.58h0Z" transform="translate(-1.99 -1.67)"/><path class="cls-1" d="M18,2.44h0Z" transform="translate(-1.99 -1.67)"/><path class="cls-1" d="M17.57,2.77l.08.06C17.59,2.89,17.58,2.87,17.57,2.77Z" transform="translate(-1.99 -1.67)"/><polygon class="cls-1" points="15.6 1.34 15.61 1.32 15.61 1.34 15.6 1.34"/><path class="cls-1" d="M20.7,45.47v0h0Z" transform="translate(-1.99 -1.67)"/></svg>