<svg xmlns="http://www.w3.org/2000/svg" width="1920" height="510.117" viewBox="40 0 1920 510.117"><defs><style>.a{fill:#ffffff;}</style></defs><g transform="translate(0)"><path class="a" d="M84.777,505.641c-5.033,2.9-12.742,3-20.706,2.9-1.338-.829-3.568-.463-5.479-.585s-4.523-.707-5.224-.439c-2.166.829-3.44-.2-5.033-.219-3.615.127-7.183.405-10.64.829-.892,0-1.72.439-2.548.414-2.931,0-5.352-.975-8.919-.244a74.463,74.463,0,0,1-10.194.39L14,506.25a69.032,69.032,0,0,1,12.742-3.705c.828,0,.51-.341,0-.317-.739.057-1.464.138-2.166.244.892,0,1.848.195,1.848,0-1.352-.7-2.007-1.567-1.848-2.438l-4.2-.317v-.39l6.371-.658L29.8,495.5l-2.1-2.438c-4.46,1.316-2.74,3.388-5.415,4.632l-6.371,1.682a57.654,57.654,0,0,1-3.759-5.217,2.679,2.679,0,0,1,1.21-2.438,20.668,20.668,0,0,0,2.994-5.875h3.568l.828.926h1.019c2.931-.439,0-1.975,3.377-2.438l-2.421-1.024L21.7,485.286l-2.294-.8,4.523-4.242-3.122-.634-.446,2.438-2.548.926-3.377-.926v-4.169c2.74-.829,2.74-.829,7.2-.756l1.465,1.584.573-3.047-2.485.707-2.676-1.024,4.778-1.658-3.759-.731-1.4.463a6.27,6.27,0,0,1-1.656-.658c-.892-1.414-1.656-2.852-2.357-4.193l3.058-1.17c1.274-1.828-2.23-3.315-3.058-5.192l3.249-1.341-1.529-.756,2.166-.219c.892.439,1.72.829,2.548,1.17h0l1.083.488.51-.2a13.439,13.439,0,0,0-1.338-.366c0-.658,0-1.341,0-2.194l-3.249-.975c.319-.756,1.465-1.658.765-2.023-1.848-.878.892-1.17,1.019-2l-2.994-1c2.548-1.585,4.587-3.072,1.465-4.876-.51-.317.51-1,.956-1.755l-2.421-.683v-2.755l2.612-1-1.338-.829c1.083-.853,1.593-1.877,5.606-2.243l-6.881-1.146v-1.219L8.39,434.7l1.784-2.267L7.816,430l1.4-2.633,1.848-.171,2.421-1.682a3.5,3.5,0,0,0-1.019-.634c-2.357-.756-4.778-1.487-8.091-2.438l5.8-.585v-1.463H4.057L1.7,418.443l5.224-1.316-1.593-.683,8.919-3.413v-7.776c-3.631-1.414-3.631-1.414-4.46-2.925l4.651-1.414c-.047-2.265,2.242-4.446,6.371-6.07.765,0,.446-.341,0-.317-.739.057-1.464.138-2.166.244.892,0,1.848.2,1.911,0-1.147-1.414-1.147-1.414,1.848-2.121L24,393.9l1.975-.9-3.249-1.974-3.7-.146L20.3,387.9l4.2-1.609c-2.626-.457-4.538-1.36-5.16-2.438l2.548-2.73-2.421-.2-.637-1.511-2.485-.341c-.7-1.341.828-2.048,4.842-2.438l-2.676-.561c-3.886-5.826-1.656-11.14-2.294-16.381-.542-1.328.593-2.675,3.058-3.632l-3.249-1.316,2.294-3.023L21.2,351.5l-1.911-3.388,3.44-1.9-.7-.341-2.931.634-2.931-.975,4.4-1.146-4.4-3.34c.446-.219,1.4-.512,1.274-.634-3.313-2.925,1.147-6.192-2.612-9.215l5.989-6.046-1.656-.926,1.72-1.1c-1.083-1.1-3.058-2.145,0-3.364.7-.293-.382-1.17-.7-1.975l2.612-1.926-3.568-1.511,5.352-4.29-2.23.463-2.612.366-.382-2.828,6.371-1.9a2.653,2.653,0,0,1,.892-1.414c0-.292-.892-.171-.828,0a3.31,3.31,0,0,0,.637.829c0-.341.51-.707,0-.731a25.418,25.418,0,0,1-6.371,1.292c-2.548-1.268,2.294-1,2.166-1.414-.446-1.292,3.568-.561,3.5-1.487l3.377.853-2.1-1.658-1.019-.293L21.45,303.7,20.3,301.652l4.587-.317.382-1.073-4.332.488c-1.465-1.024.828-2.438-1.465-3.681,2.867-1,2.867-1,6.881-.366l.319-.829-3.122-.585c0-1.268,2.485-1.292,4.4-1.658,0-.122-.446-.341-.7-.366H18.01l5.925-1.877-.765-.414-1.848.463s-.765-.219-.7-.317a9.134,9.134,0,0,1,1.21-1.268l-3.185-.731,1.529-.658c-1.911-1.146-.892-2.438-1.147-3.657l2.931-1.121c-3.5-1.121,0-2.1.573-3.145l3.185-.414-4.651-2.974,6.371-2.048-1.019-.536c-1.1.221-2.251.4-3.44.536-1.484.049-2.976.049-4.46,0l6.371-1.755-5.224-1.17L24,271.23a8.007,8.007,0,0,1-1.656-1.438c2.74-.707-2.1-1.975,1.529-2.584l-3.313-.585c.51-1.194,2.485-1.536,5.606-1.438l2.357-2.1-1.019-.244-3.44,1.731a18.242,18.242,0,0,0-2.166,0,14.339,14.339,0,0,0-2.1.488c-3.8-1.322-5.16-3.388-3.44-5.241a6.446,6.446,0,0,0,1.147-3.876c0-2.048,0-4.1,0-6.289l4.332-1.194c.51-1.024,1.147-2.438,1.656-3.754h0l1.274-.414-.51-.195a6.419,6.419,0,0,0-.956.512H21.323c-2.439-2.178-2.253-4.656.51-6.777-6.371-.829-5.925-3-5.861-5.022l4.651-3.413c.573-.683-1.4-1.853,1.4-2.657-2.74-.829-1.019-1.975-1.465-2.755l2.166-1.633-5.543-2.1v-2.8c0-.853.765-1.316.765-1.975s-.765-1.658-.7-2.438,1.147-1.39,1.4-2.1a10.3,10.3,0,0,0,0-2.852l7.39-3.559-1.911-.39,10.066-4.461h3.631l-2.357-1.755c-1.637.341-3.213.723-4.714,1.146a18.25,18.25,0,0,0-2.676,1.292c-4.332-1.1,1.019-1.9-.573-3.12l-6.371,3.242-3.5-1.073c.51-2.023-1.4-4.242,2.676-6.411l2.421,1.39c4.587-1,4.587-1,2.1-2.95h0l1.274-.414-.51-.2a6.428,6.428,0,0,0-.956.512c-.956.244-2.039.439-2.994.634-2.612-.366-2.548-1.194-3.313-2s-1.784-1.365,0-2.267a1.094,1.094,0,0,0,0-1.9,2.4,2.4,0,0,1,0-4,3.1,3.1,0,0,0-.064-4.485,5.9,5.9,0,0,1-1.911-2.8,3.334,3.334,0,0,1,1.465-2.657,5.5,5.5,0,0,0,1.465-5.022v-1.414l2.931-1.121-1.274-.585,5.8-2.048v-2.145L29.8,158.8v-1.755a10.3,10.3,0,0,0-1.274.171,12.379,12.379,0,0,0-4.778,2.755c-.573.512-2.166.853-4.46,1.682v-5.192c.238-1.205-.332-2.413-1.656-3.51-1.338-.926.765-2.17-1.4-3.291-.956-.488,0-1.828,1.4-2.584,1.436-.788,1.9-1.776,1.274-2.706-2.23-2.438,1.21-4.875,0-7.313,0-.488.765-1.024,1.083-1.316l-3.122-5.631,3.568-1.536v-1.853c-1.274-1.414-2.294-2.438-3.313-3.608,0-.341-.765-.658-1.083-1l3.058-6.826L24,113.022l-1.975-1.95,4.141-1.755-3.95-.634v-2.048c-2.548-1.658-4.842-3-1.72-4.485-.51-.78-1.656-1.56-1.21-2.17a2.108,2.108,0,0,0,0-3.388c-1.418-1.163-1.051-2.531.956-3.559a.555.555,0,0,0,0-.829c-.62-2.517.616-5.051,3.568-7.313l-3.5-1.438V81.7l3.185-1.219-1.147-2.852,2.548-1.073V74.116l6.371-1.877-1.019-.878-5.224,1.414c-.573,0-.956,0-.956-.146,0-.463-.51-.9-.7-1.341l7.327-2.194-4.4-.756,3.95-1.073-3.95-.707,3.759-.512-4.014-.634,4.906-.975L30.051,64h5.67V62.585a.881.881,0,0,1,0,.268l2.994-.219v-.366a12.6,12.6,0,0,0-2.931.317,22.254,22.254,0,0,1-8.983.707,12.427,12.427,0,0,0,1.274-1.1h0l1.274-.414-.255-.146a6.429,6.429,0,0,0-.956.512H24.763l6.371-2.438V58.1H24.763c-2.471-1.437-3.427-3.179-2.676-4.875l4.141-4.875L21.45,45.692l3.631-.9V42.718c2.8-.268,3.7-1.194,4.523-2.1l.7.171,4.141-2.438H31.771a28.388,28.388,0,0,0-2.23,2.291c-1.338.146-2.8.268-4.969.439a14.12,14.12,0,0,1,1.975-1.268c3.036-1.3,5.22-2.85,6.371-4.534A16.672,16.672,0,0,1,36.1,33.162l4.014-.171c.573-.731,1.21-1.487,1.784-2.291h0l1.274-.414-.51-.2a6.427,6.427,0,0,0-.956.512,20.775,20.775,0,0,1-3.759.585,14.718,14.718,0,0,0-5.224.78,25.34,25.34,0,0,1-4.715.414c-.7-1,1.274-1.755,1.72-2.681,3.886-.488,5.861-1.9,8.537-2.706a14.865,14.865,0,0,0-1.21-1.658h0l1.274-.414-.51-.2a6.429,6.429,0,0,0-.956.512c-1.848.609-3.7,1.194-5.479,1.731H28.458V25.508l-2.8-.366,1.529-2.877,5.8-.829-3.5-.561,2.166-1.511h7.709l-1.911-.829c2.506-.3,4.371-1.108,4.842-2.1a20.08,20.08,0,0,1,5.925-3.34h5.925c.573.341,1.274.731,1.911,1.146H51.33l.637,1.146,1.72-.561,2.357.536V14.245c3.5,0,6.753-1.268,10.958-.317-1.975,1.463-7.2,2.438-6.371,4.388h0l-1.274.414.51.2a6.429,6.429,0,0,0,.956-.512c3.95-.293,4.969-1.828,7.581-2.681-.637-2.023,3.95-2.438,7.072-3.193L76.5,13.66a30.388,30.388,0,0,1,4.715-1A52.561,52.561,0,0,1,87.262,13L92.8,12.3l-1.848-.731,2.23-.9,1.4,1.194c5.16-.829,11.723-.561,14.526-2.681l8.537-.756,2.039.731v3L116.7,13.465c4.141.39,4.2-.78,5.288-1.56h6.371l-4.969,1h5.16l9.939-4.583,1.21,1.853,1.465-.439v2.779a49.716,49.716,0,0,1,5.606-.609,36.873,36.873,0,0,1,4.715.536l-1.274,1.9c5.352-1.048,5.352-1.048,2.994-2.925l3.568-.146h2.8l5.1,1.268a20.326,20.326,0,0,0,2.1-.244,68.352,68.352,0,0,1,8.856-2.633c3.5-.609,6.881-2.121,11.786-.8,1.529.414,4.46,0,7.327,0l2.548,1.292a15.541,15.541,0,0,0,2.166-.439,9.5,9.5,0,0,1,6.371-.609l-1.72,2.755c8.091-1.121,15.609-2.438,24.146-3.34a8.32,8.32,0,0,1,1.147-.853,9.351,9.351,0,0,1,1.465-.561c3.631-.293,5.1.512,5.734,1.633A274.377,274.377,0,0,0,275.906,7.4l3.95,1.438h14.4l2.166,2.194,7.836-1.073,1.911.926-1.72,1.243,8.219,1c2.166-.78,4.4-1.243,4.778-2.438l6.944-.951.828,1.9,6.371-1.658,4.4,1.438L337.514,10h5.16l1.147,1.17,7.327-.512,6.371.585,2.867,1.706,2.293-1.39,3.44,1.463-.765-.293L363.061,14h2.931v-1.17c3.249-.219,2.612-1.926,5.033-2.145s2.294-1,3.7-1.365c3.568.2,3.759,1.292,3.377,2.877l3.377-1.706h4.842c-.764.244-2.1.39-2.994.707s-.319.609-.51,1.1l4.906-.731a2.522,2.522,0,0,0-1.21-.756c-.828-1.073.7-1.56,3.249-1.828l1.784,1.414,8.346-1.9a38.031,38.031,0,0,1,8.919.488V5.787l2.548-.926,1.083.39,6.817-.658L413.264,7.03,421.8,9.882a21.919,21.919,0,0,0,9.493-1.048h29.052l2.612-1.194a26.2,26.2,0,0,1,2.74,0,14,14,0,0,1,2.1.488l7.263-.439,3.7,1.414h15.418c.382,0,.7.268,1.147.414l2.166-.878-2.931-1.194,2.357-.756c3.7.2,7.773-.414,11.4.585a6.024,6.024,0,0,0,2.23,0c5.224-1.438,8.6,0,11.914,1.024,4.778.926,9.493-.878,14.526,0l8.155-2.9,2.421-3.267c3.95,2.121,9.429,3.608,10.894,6.216h11.213c3.5,0,6.944.439,10-.488,3.058,1.073,6.817.244,10.13.512l10,.756.382.707,7.581.609A71.088,71.088,0,0,1,618.6,8c3.759-.341,7.836-1.975,11.786-.317a67.011,67.011,0,0,0,7.327-1.365,10.293,10.293,0,0,1,4.842-.366c3.44,1.048,6.371.244,8.792,0l6.881,2.608v.658c1.975.658,5.224-.268,6.817.8l6.371-.585.765,1.706a32.678,32.678,0,0,1,3.568.146c1.512.288,2.961.622,4.332,1,1.656-.463,4.46-.512,4.715-1.633h3.122l2.421-1c.5-.073,1.008-.13,1.529-.171a99.123,99.123,0,0,1,15.1.878s0,.2-.892,1c0,.293.892.171.828,0a3.31,3.31,0,0,0-.637-.829c0,.341-.51.707,0,.731a42.68,42.68,0,0,1,4.523-2.145,105.548,105.548,0,0,1,21.852-.317l4.46-3L748.123,9h4.269l5.415-2c2.039-.634,3.122-1.9,6.753-1.438l6.371,3.388c2.739.293,5.861-.488,8.6-.39s5.67-.78,7.836,0,6.371.244,9.365.561,5.543-.658,8.537-.609,6.371,0,9.939,0,5.989-.366,8.983.439l5.16-1.048c6.371,1.463,13.761-.244,20.2,1.121a11.457,11.457,0,0,0,4.906-.317,13.105,13.105,0,0,1,4.842.366l8.41-2.438,10,2.291h59.951l3.7-1.877,7.327,1.9h24.974A61.5,61.5,0,0,0,986.4,7.274a53.479,53.479,0,0,0,14.781,1.706h37.4c8.537-.146,16.756,1.1,26.185.512,1.911-.414,2.1-1.975,6.052-2.072l4.2,1.609h12.3l1.975.8-1.847,3.876h-2.421c0-.414-.446-.8-1.019-1.78-2.166,1.194-5.1,1.463-5.224,2.974l4.842-.171-1.911-.9h3.377c.892.536,1.848,1.048,2.8,1.56l-1.593.609,3.44.561-1.784,1.8.828.171,3.95-1.828c4.269.414,5.543-.707,7.9-1.487l-1.848-2.267c2.421-.609,3.058-.146,3.249.878l5.416-1.073,1.019,1.073,2.994-1.731,6.371,1.585,3.568-.658.51-.878h5.224l1.211-1.268,3.7.829c-.765,1.1-4.014,1.341-4.651,2.438-.318.634-4.842.488-4.077,2.17l1.848-.634c2.349.253,4.763.408,7.2.463,2.156-.151,4.284-.354,6.371-.609,5.288-1.536,7.008-3.973,10.639-5.948l4.332.78-1.529,2.438c3.823-.171,3.823-.171,4.842-1.95,1.529.122,3.7.561,4.523.341,3.886-1.048,7.39-.488,12.232.341l-1.848-1.365,6.371-1.121c5.352,1.219,9.238-.268,15.673-1.243h13.761l2.867-1.755h3.5l1.019,1c2.23.219,5.734,0,5.989,1.877,10.831,0,21.789.219,32.619,0a91.338,91.338,0,0,1,12.3-.39c4.882.383,9.862.554,14.844.512l5.033,1.024a53.318,53.318,0,0,1,12.742-1.048c.949.028,1.889.093,2.8.2,1.6.156,3.155.368,4.651.634,1.975.39,3.185-.463,5.16-.293a17.375,17.375,0,0,0,4.778-.439c2.039-.39,4.969,0,7.454-.171q2.992-.172,5.925-.463c4.715,1.121,9.811,0,15.1,0a117.61,117.61,0,0,0,16.055-.975l.828,1.121,8.6,1.95.765-.853a13.978,13.978,0,0,1,6.753.414c1.508-.258,3.091-.446,4.715-.561A142.127,142.127,0,0,0,1400.7,8.98c8.537.439,16.819-.878,25.484-.585,2.166,0,4.332-.268,6.371.488a12.865,12.865,0,0,0,4.906-.146,16.647,16.647,0,0,1,7.135-.268c2.867.731,6.052.463,8.983.975a62.911,62.911,0,0,0,9.557,0l2.1.8-3.632,1.706,6.052.8,14.462-3.852h3.631l3.95-1.365c3.7.439,7.39.8,10.958,1.316a10.179,10.179,0,0,1,6.371,3.388c2.867-.366,5.8-.658,8.6-1.073s5.1-.9,7.964-1.414c1.848,1.17,2.867,2.438,7.454,2.73-1.465-1.048-1.147-2.17-5.989-2.145l3.249-1.39a22.286,22.286,0,0,1,3.058.512,7.4,7.4,0,0,1,1.848,1.121h3.632l3.058-1.463,7.645-.951,6.371,1.341-1.147.9c.51,0,1.083.219,1.4.171a48.882,48.882,0,0,1,11.277-1.146c2.676.634,2.166,2.121,5.479,2.438v.585l-.764-.293-2.357,1.365h2.931v-1.17h2.676l.828,1.78L1577.24,14c0-.585-.637-1.1-.828-1.609a3.939,3.939,0,0,1,0-1.219l-5.415.585,2.039-1.633h5.352l4.2.829-3.7.293-.319,1.511c4.332-.146,7.836-1.585,12.3-.78v.78l-4.587.268a1.151,1.151,0,0,0,.382,1.024h-3.186v2.389a20.474,20.474,0,0,0,3.186-2.291c2.676.366,4.714-.341,7.327-1a2.869,2.869,0,0,1-1.147,1.1c-1.438.454-2.973.862-4.587,1.219l6.817.975,3.186-3.218-2.485-.317-.51-1.024,6.371.293,4.523-2.072h.892c0,.439.573.9.765,1.316l-5.1,1.243c4.523.9,6.881-.878,10.576-.9l1.21-1.341,2.294,1.706c6.02-2.7,15.527-3.865,24.528-3v1.56c-.51.146-1.529.366-1.465.463.637.658,1.465,1.292,2.548,2.243l4.014-2.072h7.263l6.371-1.78-2.039,1.95c3.122,1.194,5.8-.8,8.792,0l1.147,1.1,1.911-1.511.764,2.048c2.995-.2,5.925-.488,8.919-.585s6.371,0,9.429,0l4.906-2.438,1.019.268-4.2,2.9c3.058-.39,4.778-.609,6.371-.78l5.67-.536,5.925,1.243a17.922,17.922,0,0,1,3.568-1.219,38.214,38.214,0,0,1,5.1,0l.446-1.633c6.371-.244,12.742-.585,19.113-.683a54.321,54.321,0,0,1,13.124.536c2.867-.585,5.8.171,8.665,0s5.415-.634,8.155-.926a15.191,15.191,0,0,1,3.568-.171,33.164,33.164,0,0,0,12.742,0,27.94,27.94,0,0,1,5.288,0c6.371.244,13.507-.561,20.132.439.382,0,1.019-.268,1.593-.366a7.811,7.811,0,0,1,5.8,1.024l-1.975,2.438,3.5,2.438,6.371-2.267h4.906l1.019,1.95,5.352-3.193,3.44,1.1-1.465.683c.637,0,1.274.268,1.465.219,1.848-.658,3.631-1.365,5.925-2.267h2.612l3.122,2.438,4.969-1.877V10.808l9.047-.853a2.992,2.992,0,0,1-1.019,1.268c-1.022.46-2.13.892-3.313,1.292V14.44l4.523-2.56h5.925a15.155,15.155,0,0,0-1.529,1.073h0l-1.274.414.51.2a6.421,6.421,0,0,0,.956-.512h4.587l-2.357-1.658,5.415.171,5.734-.78,1.274.439,2.294-2.316a65.251,65.251,0,0,1,15.1,1.731l5.543-.829-4.523,2.243c3.5.609,5.607.39,6.753-.829l6.371.317,1.975-1.073,3.568.78,3.313-.707,2.23.634c1.338-.8,3.5-.463,5.415-.561s4.269.268,6.371-.39c1.21-.341,3.695,0,6.371,0l-2.039,1.389,5.415,1c1.593,1.073,1.593,1.073,5.543,2.17,2.994-.585.573-1.024-.7-1.706h5.1v3.169l6.371-1.17,5.543.39,7.773-3.364,6.052-.609.382.293-4.714,1.463c1.465.926,2.357,1.828-.828,2.633-2.867-1.146-5.415,0-8.792.293l1.21,1.975,7.836-.561.956,2.243,2.357-1.755,1.274.244.446,1.219a18.513,18.513,0,0,1-6.371,1.341c-.828,0-.51.341,0,.317.739-.057,1.464-.138,2.166-.244-.892,0-1.848-.2-1.848,0-1.21,1.633-1.21,1.633-5.16.926l-2.039,1,4.523,1.024,1.975-1.341,5.033,3.413h1.975V22.753l4.523.878v7.313l-7.2.561-1.274-.488,1.274-1.9-4.651-.926-2.676,1.389-2.1-2.438.765.293,2.357-1.365h-2.931v1.17a46.266,46.266,0,0,1-9.11,2.657c2.293.756,4.014,0,6.371-.341l4.714.951-4.269,2.974-8.219.926v.414h5.8v1.121H1959.5l5.16,1.024a7.944,7.944,0,0,1,1.211-.366,7.209,7.209,0,0,1,1.147-.122l4.4-2.779h4.4l-1.593,1.609c4.332.146,5.033-1.487,8.537-1.755,3.018.986,4.508,2.494,3.95,4l-5.606.244-4.906,2.291v.731l6.689.853,2.867-2.706c1.125.772.976,1.723-.382,2.438,5.16,2.828,1.848,5.972,2.931,8.971l-5.224.317a16.861,16.861,0,0,1,5.542,4.875,3.787,3.787,0,0,1,1.02,2.145,6.631,6.631,0,0,1-1.465,6.484.392.392,0,0,0,0,.585c3.186,4.071.7,8.239,1.529,12.335a9.7,9.7,0,0,0,1.338,2.438l-1.529,1,8.219,3.388v2.925c2.23,1.609,4.842,2.95,1.975,4.875-.764.463,0,1.365.637,2.438a6.918,6.918,0,0,0-2.421,1.463c-.318.536.828,1.195,1.4,1.926-.892.78-4.778,1.219-2.612,2.681,2.166-.39,3.823.8,6.881.171,1.656-.341,4.842.439,8.155.78l2.931,2.218c-.828,1.95-4.4,1.511-7.836,1.584l.892,2.243h-8.473l.318,1.414,4.714-.853,2.421,1.536-1.975,1.292c6.371,0,8.282,1.536,10.066,3.462l-11.914,1.463-1.848,2.438c2.135,1.255,1.956,2.889-.446,4.071l1.975.9-5.288,1.56,2.485,3.778,2.548.219v3.169l-4.523,1.121c0,1.073,2.166,1.292,4.714,1.633l-1.019,2.17,3.568,2.779-1.019.439,1.529.585c-4.778,1.146-3.95,3.315-6.371,5.07l3.44,1.536L1999,149.734v6.046c0,.146-.7.268-1.4.536l3.122.2,5.1,1.633a13.671,13.671,0,0,0-1.465.878,9.1,9.1,0,0,0-1.083,1.17l-3.377-.731-.7.878,10.7.975v2.072h-5.8l-2.293-1.121c-3.058.8-2.676,2.706-7.2,2.56v1.292l5.033,1.268-2.039,1.292c2.1,1.638,2.1,3.555,0,5.192l2.357.853,3.886,7.313,4.4,1.121-6.371,2.316c-.892.975,1.083,2.17-1.848,3.023l3.186,1-1.4.731,3.44,1.487-3.568,1.463c1.007.23,1.653.635,1.73,1.083s-.427.881-1.348,1.16l2.676,6.289-.956.512,1.4,2.316c-2.8.293,0,1.1-1.019,1.731s0,1.633,0,2.608c1.784,0,4.2.268,5.1,0a6.6,6.6,0,0,1,2.867,0l-4.4,1.706-1.593-.268-6.881,1.755,1.019,2.121-2.548.561,4.651,4.242c-2.357.707.382,1.414,0,2.121s.382,1.658-.51,2.243-1.465,1.536.382,2.194c-2.8,1.511-.637,3.193-1.465,4.729,1.465.512,1.593-.2,2.739-.268l3.5,2.218c-.637,1.316-3.377,1.268-6.371,1.438l2.039,6.777,2.1.171c2.421,1.316-4.46,2.95.7,4.339l-5.1,1.268,1.211.926c0,.439-1.083,1.1-.573,1.365,1.345.8,1.345,1.831,0,2.633a2.174,2.174,0,0,0,0,2.73,8.408,8.408,0,0,1-.637,8.946,20.919,20.919,0,0,1-3.44,1.78l5.033,1.463v1.658c-7.518,3.169-7.645,3.486-2.931,6.752-.828.585-1.911,1.195-2.676,1.853s-.828.853-.446,1.073c3.313,1.828,0,4.144,2.867,6,.446.268-1.338.975-1.338,1.487v7.557c2.8.634-.7,1-.573,1.633a28.67,28.67,0,0,0,.446,7.874,25.2,25.2,0,0,1,.956,15.553c-.7,4.412-.828,8.824-1.211,13.31l4.842,2.8-4.778,2.852c.51,1.78-1.593,4.1,2.357,5.875l-1.21,3.193,5.479,1.341-4.906,2.145-2.23,4.7,10.512,2.438-3.886,1.706v2.876l-4.587,1.658v2.633c0,.877-.828,1.926,0,2.584s-.637,1.658,0,2.438a4.193,4.193,0,0,1,0,2.633c0,.8-.7,1.609-1.147,2.608,2.931,1.95,0,4.315,1.657,6.9l3.313.926-2.931,2.438a8.432,8.432,0,0,0,.765,2.95c.318.9,1.4,1.682.7,2.267a3.162,3.162,0,0,0-.7,2.8,7.09,7.09,0,0,0,0,2.633,11.152,11.152,0,0,0,.956,3.1c-2.994,1.121,0,2.316,1.911,3.559-2.612,1.146-1.4,2.56-1.21,3.827s-1.911,2.194,0,3.34-3.377,2.438-.637,3.705-1.656,2.438-1.083,3.754c.923,1.2.508,2.5-1.147,3.583-1.72.951,3.759,2.438,0,3.462a7.756,7.756,0,0,1,1.211,2.438v9.946c0,.9-1.019,1.926,1.338,2.706a.458.458,0,0,1,0,.829c-3.122,2.194-.574,4.534-1.529,6.533l4.4,3.266c-4.587.61-1.465,2.657-4.2,3.657,1.019,1.755,4.969,3.267,1.529,5.241-.828.463,0,1.341,0,2.023s1.019,1.975,1.465,2.974a19.976,19.976,0,0,1,1.465,3.267,13.583,13.583,0,0,1,0,3.218c0,.219.956.414,1.019.463a7.315,7.315,0,0,0-1.083,1.682,6.941,6.941,0,0,1-1.465,5.924,1.1,1.1,0,0,0,0,1.95c1.583.9,1.961,2.027,1.019,3.047a23.664,23.664,0,0,1-3.886,4.875l3.185,1.56c1.4.9,0,2.072,2.23,3.1.637.317-.637,1.17-1.083,1.877s1.72,1.463,1.083,1.95-1.848,1.39,0,2.291a1.317,1.317,0,0,1,0,1.926,12.611,12.611,0,0,1-1.975,2.438l-7.581,1.707-7.135-.536c-.956-.39-2.676-1.1-4.332-1.828s-2.485-1.17-4.651-2.194v-1h-3.631l-1.4,1.1h-3.759l1.465-1.414-.574-.439-4.714,1.1c-2.612-1.243-7.135.171-10.7-.926a76.009,76.009,0,0,0-10.831-1.268l-2.612,1.658-1.465-1.609-5.607.317-8.664-2.681c-6.052.561-6.052.561-9.3,0l-2.421,1.365c-2.485-.268-5.033-.877-6.371-.634-3.631.634-7.964,0-10.767.609-4.714,1.073-8.728,0-12.742-.244-2.867-.244-5.734-.268-8.792-.536l-.573-.975-3.823-.171-4.014-1.853-.573.317-5.989-.829-1.465,1.414L1864,496.6l-.956,1.8,2.931.39v1.536h-2.23c-1.529-1.316-2.867-2.657-4.842-4.583l-.446,3.51c1.4,1.633,7.072,1.536,8.219,3.34l-6.371.366,4.523.9,2.1-.463,2.994,1.146,3.185-1.9c5.989,1,6.753,3.657,10.64,5.436l-4.014-.634-3.95.756-.828-1.731c-1.72-.2-4.077-.756-5.479-.512s-3.186-.512-5.161-.317a49.628,49.628,0,0,1-6.817,0c-9.811-.39-19.113.634-29.179.585-1.593-.064-3.17-.179-4.714-.341l-6.371.926-7.518-1.365-4.332,1.487c-3.122-.853-5.989-.487-9.493-.244a112.37,112.37,0,0,1-19.113.609c-3.5,1.487-7.836,1.268-12.742,1.268l-1.784-1.389-6.052.658c-2.867-1.024-6.944,0-11.022-.658l-3.759-1.438-2.548.609-2.293-.658a25.18,25.18,0,0,1-9.365,1.146,130.387,130.387,0,0,0-15.227,0c-5.917.37-11.906.55-17.9.536l-7.135-1.853c-1.21,0-3.313.366-5.033-.341a5.213,5.213,0,0,0-2.039-.171c-6.371,1.1-13.315.268-20.2.658l-.51.829-4.587.878-8.856-.853-2.039-.878h-7.9l-2.8-1.828a66.241,66.241,0,0,0-7.645,0c-8.282,1.072-16.819,1.9-25.484,2.681l-19.814-1.146v-2.023c4.777-.268,8.876-1.442,10.895-3.12l-5.607.634-1.72-.609-8.027,2.438h-4.269l-4.778,2.267-2.23-.853,2.23-1.877a21.472,21.472,0,0,0-4.014,0q-3.314.741-6.371,1.633l-4.651-.829,1.975,2.1q-4.468.67-9.111,1.146c-3.822.3-7.7.5-11.6.585h-12.232a13.417,13.417,0,0,1-2.23,0c-3.058-1.024-5.8-.341-8.6.122-1.848,1.463-2.74,3.267-8.219,3.437-2.294-.39-1.656-1.779-4.969-1.828a52.6,52.6,0,0,1-5.543-.585l-6.371,2.438v1.024l-7.39.8c-4.2-.536-2.74-1.95-3.313-3.193l-4.078.78c-4.587-1.536-9.811.853-15.227-.146l-.51-.707a2.956,2.956,0,0,0-.956-.268h-13.7l-8.027,3.437h-4.715l-5.033-4.12c-3.886.268-6.371,1.633-10.512,1.268a45.945,45.945,0,0,1-4.969-.39c-1.784-.341-4.524,0-8.091.171-5.033-.682-12.742-.2-17.52-2.438l-26.885-.9-3.44-1.609c.446-.975,4.969-1.316,2.548-2.8h-6.371l-3.44,1.243-2.739-.78-1.083,1.1-6.753.146-.446,1.463c-2.612.951-4.4-.561-6.944-.317l-.828.975-10.257,1-2.293.878a29.19,29.19,0,0,1-10.895-1.1l5.607-1.658-2.166-1.316-11.531,1.268-.446,1.585-2.23.122-.892-.975a56.025,56.025,0,0,0-6.753.512,80.993,80.993,0,0,1-15.736,1.073c-4.4,0-8.728.439-13.124.536s-9.174,0-13.761,0l-7.263,2.8c-5.479.731-5.033-1.438-7.709-2.1-6.12-.067-12.214-.328-18.221-.78-7.375-.439-14.835-.635-22.3-.585l-3.568-1.706a51.8,51.8,0,0,0-6.753.731,9.628,9.628,0,0,1-5.925,0c-.892-.268-3.058,0-5.033.171l-.7-.78h-5.288c-4.268,1.633-9.939.926-14.972,1.073l-2.485-.951a29.907,29.907,0,0,1-4.268.341,130.288,130.288,0,0,0-13.889.634,114.608,114.608,0,0,0-13.316,1.1c-3.249.512-5.989-.463-9.493-1.1-2.23.244-5.351-.39-8.6.463s-6.371-.463-9.238.658a12.1,12.1,0,0,1-3.5-.171,43.24,43.24,0,0,0-13.315.317l-2.23-1.341c-4.906.341-9.556-.463-13.634.658a45.027,45.027,0,0,0-13.634-.341,82.148,82.148,0,0,1-15.736,0l-10.13.536v.146c0,.146.319.146.51.219l1.019.536H1001.3l-2.676-.975c-4.651-.39-9.238.414-13.634-.487-.828-.171-2.485.414-3.759.39a131.534,131.534,0,0,1-14.016-.439,29.824,29.824,0,0,0-11.531.414,11.277,11.277,0,0,1-2.23,0c-2.612-.171-5.479-.731-7.709-.487a58.854,58.854,0,0,1-7.072.487,109.338,109.338,0,0,0-14.908,1.073,8.463,8.463,0,0,1-2.166,0c-6.753-1.219-13.889-.219-21.024-.658l-2.612,1.243h-5.1l-2.867-1.1h-8.027c-.7,0-.828.561-2.23.2a15.081,15.081,0,0,0-7.454.292,21.366,21.366,0,0,1-7.072.536l-2.8-1.072h-9.811v2.243c-2.039,1.536-4.906,1.146-7.454,1.219l-4.2-2.438c-7.008,1.438-13.57-.731-20.323.171l-.573-1.121c-3.886-.878-7.263,1-11.086.341-2.8,1.731-3.631,1.828-14.781,1.828l-3.568-1.511c-3.631-.439-6.371.146-7.773-.8a5.478,5.478,0,0,1-1.656.536h-9.174c-2.552.247-5.151.418-7.773.512q-6.911-.35-13.7-.975l-1.656.414a34.153,34.153,0,0,0-12.36-.293c-4.269.853-9.238-.731-12.742,1.073l-2.8-.756c-4.523.707-4.523.707-10.194,0a82.9,82.9,0,0,0-18.03-.2c-1.437.137-2.915.2-4.4.195a123.582,123.582,0,0,1-14.4,0c-4.46-.536-9.238,0-13.443-1.024a25.348,25.348,0,0,0-4.523,0c-.446,0-.828-.366-1.211-.39,1.743-.3,3.407-.655,4.969-1.073l-4.969-.756v1.828c-1.824-.139-3.684-.2-5.543-.171l-.956,1.048c-5.224.634-9.875-.853-14.908-.731s-10.066.39-16.119.634a29.835,29.835,0,0,0-4.906-.122,77.443,77.443,0,0,1-11.149.975,36.883,36.883,0,0,0-4.842.561l-1.656-.439-11.4.609-2.676,1.414-5.989.78-7.008-2.974c-4.46,0-10.385-.561-15.163,1.341a10.559,10.559,0,0,0-2.421-.731q-8.4-.456-16.883-.585H484.428l-2.867-1.1h-8.792l-7.135,1.8-9.174-2.145a14.07,14.07,0,0,1,1.593-2.438c1.725-.284,3.369-.635,4.906-1.048-3.568-.487-4.2.293-4.906,1.048a67.768,67.768,0,0,1-14.844,2.949l-4.842-1.024c-2.74,1.365-7.773-.317-10.7,1.048-4.715-1.414-11.468.463-15.927-1.585l-.319-.634c-.7,1-3.631,1-4.969,1.658l-1.848-.634-4.4.78-1.274-1.414-1.72,1.243h-9.684v-1.146h0l1.274-.414-.51-.195a6.43,6.43,0,0,0-.956.512c-2.485.2-3.377,1.926-7.008,1.048l-2.1-2.438,1.656-.707c-.828,0-1.975-.268-2.1-.171-1.656.878-3.122,1.779-4.906,2.828a28.849,28.849,0,0,1-12.1.22l-17.2,1a13.936,13.936,0,0,1,3.44-1.731,44.776,44.776,0,0,0-4.523,0,65.087,65.087,0,0,1-17.138,1.755c-2.1,0-4.2.2-6.944.317l-11.977-.536v-1h0l1.274-.414-.51-.2a6.428,6.428,0,0,0-.956.512c-2.931.975-6.371.488-10.066.634a20.25,20.25,0,0,1-8.728,1.633c-3.631.219-7.263.2-9.684,1.341a65.522,65.522,0,0,0-7.581-1.243c-7.9-.366-15.8-.536-24.592-.8l-3.5-1.219-3.7,1.292c-3.186.536-7.645-.512-10.831.536l-11.4-.634-2.357-1.487c-1.147.658-1.4,1.755-5.224,1.658l1.019-1.706-8.473,1-2.357.9-3.44-.731-2.612-2.438-3.568.756-.765-.926-2.612.585-2.357-.634-.828.951-7.39-.536c.382.951,2.548,1.1,2.994,2.048v.78a8.293,8.293,0,0,1-6.052-.609v-3.12h-9.238L158.3,505.69c-6.371-.293-13.634.829-20.2-1.341l-3.759,1.316-1.784-.585-.51.731L120.9,508.688l-13.188-.829-3.058-1.9,7.327-.951.446-1.633h4.715q-1.59.639-2.994,1.341a2.513,2.513,0,0,0-.764,1.438l-2.867.39,2.994,1.1c4.523-2.316,10.894-2.438,18.412-2.681-2.931-.366-4.587-.512-6.052-.78s-1.147-1.17-1.656-1.755c0,0-.828-.146-1.72-.317l-1.911,1.268h-3.44a2.751,2.751,0,0,1,.7-1.56c-1.784-.414-1.019-1.219-1.147-2.194h0l2.8.317c.382.658.446,1.414,3.058.853v-1.682a44.58,44.58,0,0,0-5.8.39c-3.249-.22-3.823,1.536-7.2,1.414a1.333,1.333,0,0,0-.51-1.195h0l1.274-.414-.51-.2a6.4,6.4,0,0,0-.956.512c-1.465.61-2.994,1.195-4.523,1.78h-3.058v1.17l-1.529.585-1.529.585c-1.739.141-3.017.71-3.122,1.389a7.955,7.955,0,0,1-1.911,1.828L91.34,505.4l-3.823.707-3.058-.61v-1.17l1.975-.341c4.141,0,5.67-1.292,7.581-2.438h0l1.274-.414-.51-.195a6.412,6.412,0,0,0-.956.512c-4.077,0-5.543,1.316-7.581,2.438l-1.529.585c-2.1,0-3.568.219-4.587,1.17ZM28.012,74.945h0l1.274-.414-.191-.024c-.432.153-.7.361-.765.585h0l-1.274.414.51.2c.43-.215.593-.491.446-.756Zm1493.864-3.51h0l1.274-.414-.51-.2c-.432.153-.7.361-.765.585h0l-1.274.414.51.2a1.239,1.239,0,0,0,.764-.536ZM25.145,452.4a6.455,6.455,0,0,0,1.338-.634h0l1.274-.414-.51-.2a2.8,2.8,0,0,0-.892.536,6.457,6.457,0,0,0-1.338.634h0l-1.274.414.51.2a2.8,2.8,0,0,0,.892-.536ZM1965.869,16.586h0L1964.6,17l.51.2c.432-.153.7-.361.764-.585h0l1.274-.414-.51-.2c-.432.153-.7.361-.764.585Zm-847.339,2.291-1.465.585-.828-.293-2.357,1.365h2.931v-1.17a11.182,11.182,0,0,0,1.72-.488h0l1.274-.414-.51-.2A1.936,1.936,0,0,0,1118.531,18.877Zm31.855-4.047h0l-1.274.414.51.2c.509-.182.788-.44.765-.707h0l1.274-.414-.51-.2C1150.641,14.306,1150.362,14.564,1150.385,14.831Zm415.706.536,2.931-.2v-.39c-.975-.029-1.955-.029-2.931,0h0l-1.083-.488-.51.2a7.45,7.45,0,0,0,1.4.341v.585c-.51.2-1.019.39,0,1.487,0-.146-.573-.341-.956-.39s-.637-1.024-1.72-.293,0,1,0,1.731c1.338-.512,2.039-.78,1.274-1.95ZM23.552,253.605v.512l2.994-.219v-.366c-.956,0-1.975,0-4.651,1.975a7.96,7.96,0,0,0,1.72-.609,3.311,3.311,0,0,0-.637-.829C22.724,254.409,22.406,254.775,23.552,253.605Zm442.018,245.5V498.6l-2.994.219v.366c.956,0,1.975,0,4.651-1.975a7.951,7.951,0,0,0-1.72.609,3.315,3.315,0,0,0,.637.829C466.462,498.279,466.717,497.913,465.57,499.108Zm-1.593,1.292-.765.317,3.568.9V500.5a11.893,11.893,0,0,1-2.676-.244c-2.039-.658-4.2-.366-6.371-.366v.975c2.041-.235,4.129-.407,6.244-.512ZM22.023,455.546c2.357.341,4.969.585,6.371-.951a24.168,24.168,0,0,0-5.925,1.365h0l-1.274.414.51.195c.48-.309.6-.681.319-1.024Zm1929.7-396.714c2.4-.662,4.059-1.646,4.651-2.755l-4.651,1.39a4.069,4.069,0,0,1-1.784,2.633,7.952,7.952,0,0,0,1.72-.609,3.313,3.313,0,0,0-.637-.829C1950.77,59,1950.515,59.368,1951.726,58.831ZM26.674,491.795H22.406v2.779h.765l.892-1.633,2.676-.293c0-.39,0-.683.51-.878l2.23-1.731-.892-.244-3.44.951a4.256,4.256,0,0,1,1.529,1.048ZM1968.418,48.788h0l-1.083-.488-.51.2,1.465.463,3.759,2.17c2.239-.589,3.09-1.7,2.039-2.657Q1971.274,48.681,1968.418,48.788Zm-33.766-23.426c-4.969.512-5.861,1.121-2.8,2.438,1.148.494,1.723,1.145,1.593,1.8l.956.219,1.784-.731-2.548-1.926,2.74-1.048a3.217,3.217,0,0,0-2.357-.366l5.224-1.292-2.612-1.95a17.3,17.3,0,0,0-1.975,2.828Zm23.318,14.626h0l1.083.488.51-.2a12.423,12.423,0,0,0-2.548-.488l5.734-.658V37.916a9.326,9.326,0,0,0-6.371-.658,1.592,1.592,0,0,1,0,1,5.016,5.016,0,0,1-1.147.926,8.682,8.682,0,0,0,2.74.683ZM381.282,504.69l8.919-1.731-1.593-1.048,4.077-.731-4.969-.366-.51-.951c-1.975,0-.573,1.365-3.313,1.17a5.146,5.146,0,0,0-1.593,1.633A19.792,19.792,0,0,0,381.282,504.69ZM1973.96,60.318c-2.294,1.073-7.135.756-8.728,2.438,1.211.244,2.421.463,3.5.731s2.23.609,3.313.926c.51-.2.828-.268.828-.341a5.151,5.151,0,0,1,.51-2.438l2.867-.585Zm-1.21,6.241.382.658h3.95c5.288-3.388,5.288-3.388,4.523-5.339l-2.166,2.438Zm-898.179-47.1,1.465,2.852c4.332-.707,1.274-2.633,4.077-3.559a3.7,3.7,0,0,0-.637-.39Zm-1047.9,354.4a10.312,10.312,0,0,1-1.529-1.024,5.424,5.424,0,0,1-.7-1.438c-1.848,1.292-5.352,1.658-5.479,3.34,1.134-.224,2.3-.419,3.5-.585C23.807,374,25.273,373.955,26.674,373.858Zm154.942,129.37,4.077-.8v-.585l-10.321.463.637.268-2.74.366.7.439,6.371-.61ZM1984.982,44.766l-3.886-.975-.892,1.853-2.676.366v.268h5.416ZM1952.3,37.745l1.975-1.8c-2.931-.2-5.543-.268-7.2.829ZM103.508,498.059c-3.886,0-4.842.951-6.371,1.487v1.926ZM32.281,288.635l1.465,1.56c2.1-.9,4.778-1.121,2.931-2.438ZM1973.26,35.941l-1.975,1.658h4.269l2.166-.829ZM411.99,500.4c-.637,0-7.072,1.633-7.327,1.78l7.327-.878ZM34.765,22.509c-2.1.8-3.5,1.316-4.778,1.853,0,0,.319.244.7.488l5.415-1.1Zm1856.819-9.751c3.249-.2,4.269-.585,4.46-1.706ZM394.98,503.788h6.371v-1c-2.48-.349-5.245.085-6.371,1ZM30.624,273.107l-2.23,1.95,1.019.244,3.95-1.438Zm8.282,178.587c-1.4-.181-2.823-.327-4.269-.439a13.265,13.265,0,0,0-1.975.219l2.485.951,3.759-.122ZM1119.932,16.269l-1.274-.536-5.543,1.926C1117.384,17.8,1118.085,16.732,1119.932,16.269ZM449.579,503.349c-3.95.317-3.95.317-6.371,1.755C445.948,504.983,446.967,504.129,449.579,503.349ZM1967.653,39.622l4.587-1.243h-5.479ZM1109.484,21.754v2l3.568-1.877Zm867.662,36.566-4.714,1.341h5.479Zm-11.277,11.14,4.842-1.365h-5.479ZM33.236,279.713c-1.593.463-2.357.658-2.994.878s-1.338.536-2.548,1.024C31.516,281.639,32.472,281,33.236,279.713ZM435.881,502.52c2.294,0,2.294,0,3.568-1.121,0,0-.446-.292,0-.171Zm-398.7-480.5,3.44-.439-.573-.39-4.587.122ZM1945.8,32.187h4.651l-.637-1.243ZM404.345,498.669c0,1.316,1.147,1.316,3.185.853l-.446-.853Zm1436.844-8.825V488.6l-2.8.219.573,1.024Zm3.568-1.755,2.485,2.145v-2.145Zm113.4-446.346v1.78l3.249-.244Zm-.446,3.949h4.141a11.809,11.809,0,0,0,2.166-.78l-.828-.366ZM37,273.911v-1.78l-3.249.244ZM1914.9,15.416l5.224-1.121H1914.9Zm30.135-1.633-2.994.609.573.414,4.523-.219Zm27.2,29.472-3.886-1.438.892,1.658Zm-146.532-27.79,3.759-1.487-4.332.341ZM601.4,11.32l.573,1.146,1.975-1.146Zm1335.737,3.315h2.485l-.7-1.487ZM370.324,13.465l-3.568,1.487,4.332-.341ZM26.292,281.809c-2.294-.2-2.294-.2-2.039,1.243ZM1800.543,484.14l3.122-.39-.51-.244h-2.931ZM455.249,475.535c-4.077-.658-3.568,0-3.249.78ZM19.857,465.126h2.357l-.382-.78ZM21,458.008c2.294.195,2.294.195,2.039-1.243Zm7.645-4.68c2.294.195,2.294.195,2.039-1.243ZM375.166,13.173,370.643,14h4.523ZM1964.659,28.409c1.72-1.56,0-1.365-2.039-1.243ZM1104.9,23.753v.512l2.485-.219v-.268ZM303.047,12.344v-.512l-2.485.219v.268Zm1595.29-.39v.512l2.548-.219v-.293ZM126.316,499.108h1.338l-.573-.975h-.765Zm295.1-7h1.338l-.573-.951h-.7ZM40.69,269.962v.512l2.485-.219v-.268ZM1631.776,13.612h-.765v1.17h.765ZM33.045,294.534v.512l2.548-.219v-.293Zm20.9,2.73v-.512l-2.485.219v.268ZM27.885,299.02v-.512l-2.548.219v.292Zm-4.269,9.946v-.293H20.558v.293ZM472.769,477.607H472v1.17h.765Zm-453.74-10.97v.293h3.058v-.293ZM1966.761,18.877v-.609l-2.548.219v.293ZM1634.069,14.2h.51v-1.17h-.765Zm-72.5,4.193h-1.338l.573.975h.765Zm262.994-1.95v-.512l-2.485.219v.268ZM1948.349,33.5v-.512l-2.548.219V33.5ZM430.084,503.983h-1.338l.573.975h.765ZM1941.277,39.256h1.338l-.573-.951h-.7Zm-1.529,1.95v.512l2.485-.219v-.268Zm12.232-12.871v.512l2.485-.219V28.36Zm23.955,16.186V44.01l-2.485.219V44.5ZM127.59,502.277v.293h3.058v-.293ZM439,481.654h-.51v.585H439Zm-18.348,19.892h-.51v.585h.51Zm754.323,2.438v.2h1.529v-.2ZM457.861,478.338v.195h1.529v-.195ZM318.719,504.861v-.2H317.19v.2Zm145.258,0v-.2h-1.656v.2Zm1172.768-.878v.2h1.529v-.2ZM32.79,456.691v.195h1.529v-.195ZM672.945,502.13h-.382v.585h.51Zm475.019-489.1h.51v-.585h-.51ZM130.648,499.985v.195h1.529v-.195ZM1164.274,12.832v-.2h-1.529v.2ZM487.8,504.471h-.51v.585h.51Zm1070.323-493.2h-.51v.585h.51ZM392.24,498.23v.195h1.529v-.195Zm1267.823-485.4v-.2h-1.529v.2ZM480.287,496.28h-.51v.585h.51ZM1878.332,12.637v.2h1.529v-.2ZM469.584,504.471h-.51v.585h.51Zm-63.2-.488h.51V503.4h-.51ZM1941.532,13.027h.51v-.585h-.51ZM202.258,505.056h-.51v.585h.51ZM1366.107,11.564Zm-266.052,4.583v.293h1.529v-.293ZM49.1,15.952h-.51v.488h.51ZM1938.984,42.279h-.51v.585h.51Zm-4.587,1.755h-.382v.585h.51Zm6.371,5.07v-.2h-1.529v.2Zm15.8.78h.51V49.3h-.51Zm4.587,0h.51V49.3h-.51Zm-24.974.39v-.2h-1.529v.2Zm-1.019,1.95h.51V51.64h-.51Zm44.6,1.755h.51V53.4h-.51Zm-53.516,2.438h.51v-.585h-.51Zm-2.039,1.56v-.2h-1.529v.1Zm-334.858-39.3v-.2h-1.529v.2Zm386.335-.39h-.51v.585h.51Zm-873.587.585h.51v-.585h-.51Zm836.381,3.51h.51V21.8h-.51ZM1582.21,17.122h.51v-.683h-.51ZM51.139,26.873v-.2H49.61v.2Zm1916.9,5.46h-.51v.585h.51Zm-26.5,2.438h.51v-.585h-.51ZM1147.455,16.439v-.293h-1.529v.293ZM36.358,37.014h.51v-.585h-.51ZM31.771,266.354h.51v-.585h-.51Zm-3.568.78v.2h1.529v-.2Zm9.684.975h.51v-.585h-.51Zm-4.077,1.17H33.3v.683h.51Zm15.29.585h-.51v.585h.51Zm-21.916,7.021h.51V276.3h-.51Zm19.113,1.17h-.765v.585h.51Zm-23.955,7.8v.2h1.529v-.2Zm.765,27.985h-.382v.585h.51Zm2.039,37.638v.2h1.529v-.2ZM28.2,357.72v.2h1.529v-.2Zm1640.652-344.3v-.2h-1.529v.2ZM23.106,379.854h-.382v.585h.51Zm2.039,1.95v.293h1.529v-.2ZM782.016,14.587v-.2h-1.529v.2ZM33.81,65.681H33.3v.585h.51Zm1502.019.975v-.2H1534.3v.2ZM28.713,156.364H29.1v-.585h-.382Zm2.039,46.317h-.51v.585h.51Zm-3.568,25.06h.51v-.585h-.51ZM29.1,242.952h-.382v.585H29.1Zm3.058,18.722h-.382v.585h.51Zm51.987.585h-.51v.585h.51Zm-51.987,1.17h-.382v.585h.51Z" transform="translate(-1.7 -2.13)"/><path class="a" d="M23.016,207H26.01c0,1.593,0,4.077-.765,4.4-2.931,1.338-3.759,4.523-6.371,6.371l-1.975-4.4,1.529-1.529,1.529-1.529Z" transform="translate(79.939 275.148)"/><path class="a" d="M173.4,5h11.213c-.956,1.338-1.338,2.294-2.1,2.74A40.011,40.011,0,0,1,177.6,9.778Z" transform="translate(920.495 13.285)"/><path class="a" d="M311.09,9.712c.892-4.2,2.8-5.1,5.8-4.715l2.931,3.5C316.888,10.094,314.212,9.2,311.09,9.712Z" transform="translate(1660.024 12.841)"/><path class="a" d="M319.318,6.583l-6.371,4.969L310.08,8.24C313.074,7.22,315.049,4.672,319.318,6.583Z" transform="translate(1654.599 18.073)"/><path class="a" d="M8.8,7.78l2.166.446v3.631L6,14.215Z" transform="translate(21.395 28.216)"/><path class="a" d="M245.62,208.24h7.454C249.506,212.063,249.506,212.063,245.62,208.24Z" transform="translate(1308.386 281.809)"/><path class="a" d="M273.447,5.09c.51,3.759-1.338,4.587-3.823,5.352C268.159,7,270.326,6.109,273.447,5.09Z" transform="translate(1434.8 13.768)"/><path class="a" d="M307.47,10.487l4.077-5.1L313.9,7.556l-5.352,3.823Z" transform="translate(1640.581 15.379)"/><path class="a" d="M107.88,7.988V5.44h4.4C112.467,9.709,109.791,7.861,107.88,7.988Z" transform="translate(568.589 15.648)"/><path class="a" d="M303.019,8.287l-3.249-3.95,3.249-.637Z" transform="translate(1599.224 6.302)"/><path class="a" d="M75.123,211.9h-2.23l-.573-2.676,2.8-.573Z" transform="translate(377.598 284.011)"/><path class="a" d="M9.052,14.58,5.994,19.295C4.4,15.727,6.44,15.09,9.052,14.58Z" transform="translate(18.344 100.481)"/><path class="a" d="M217.22,209.439h-4.46v-.956l4.523-.573Z" transform="translate(1131.896 280.036)"/><path class="a" d="M207.612,208l-2.039,2.039L205,208Z" transform="translate(1090.218 280.519)"/><path class="a" d="M11.8,6.663l2.994-.573.892,4.332Z" transform="translate(52.547 19.139)"/><path class="a" d="M314.124,14.28v3.058h-.764V14.28Z" transform="translate(1672.216 97.844)"/><path class="a" d="M7.3,7.62h3.058v.765H7.3Z" transform="translate(28.377 27.357)"/><path class="a" d="M16.368,7.208H13.82V6.443l2.548-.573Z" transform="translate(63.396 17.957)"/><path class="a" d="M309.57,6.36V7.889h-.51V6.36Z" transform="translate(1649.121 20.589)"/><path class="a" d="M211.62,209.969V208.44h.51v1.529Z" transform="translate(1125.774 282.883)"/><path class="a" d="M16.029,6.23H14.5V5.72h1.529Z" transform="translate(67.048 17.152)"/><path class="a" d="M31.17,208.68v1.529h-.51V208.68Z" transform="translate(153.843 284.172)"/><path class="a" d="M60.189,5.99H58.66V5.48h1.529Z" transform="translate(304.23 15.863)"/><path class="a" d="M295.14,208.529V207h.51v1.529Z" transform="translate(1574.357 275.148)"/><path class="a" d="M295.54,5.48h1.529v.51H295.54Z" transform="translate(1576.505 15.863)"/><path class="a" d="M56,5.24h1.529v.51H56Z" transform="translate(289.944 14.574)"/><path class="a" d="M294.58,206.6h1.529v.51H294.58Z" transform="translate(1571.349 273)"/><path class="a" d="M252.43,5.4V6.929h-.51V5.4Z" transform="translate(1342.224 15.433)"/><path class="a" d="M259.348,5.61l1.274,1.083-.51.51L259.03,5.929Z" transform="translate(1380.411 16.561)"/><path class="a" d="M180.9,7.169V5.64h.637V7.169Z" transform="translate(960.777 16.722)"/><path class="a" d="M248.1,209.729V208.2h.51v1.529Z" transform="translate(1321.707 281.594)"/><path class="a" d="M302.074,7.253,300.8,6.17l.51-.51,1.083,1.274Z" transform="translate(1604.756 16.83)"/><path class="a" d="M6.21,16.44v1.529H5.7V16.44Z" transform="translate(19.784 115.439)"/></g></svg>