<svg id="Layer_1" data-name="Layer 1" xmlns="http://www.w3.org/2000/svg" viewBox="0 0 1024 30"><defs><style>.cls-1{fill:#fff;}</style></defs><path class="cls-1" d="M.85,24.5l1.89.58,4-1.31c6.92,2.16,14.59,1,21.32,1.34l4.84-2.23h9.75V26a9.24,9.24,0,0,0,6.39.6v-.77c-.47-.95-2.76-1.09-3.16-2l7.8.54.88-.95L57,24l2.75-.58.81.92,3.77-.75L67.11,26l3.63.73,2.49-.9,8.94-1-1.07,1.7c4,.09,4.3-1,5.51-1.65l2.49,1.48,12,.63c3.36-1.05,8.07,0,11.43-.54l3.9-1.28,3.7,1.21c9.29.27,17.63.44,26,.8a72.14,72.14,0,0,1,8,1.24c2.56-1.14,6.39-1.12,10.22-1.34a22.61,22.61,0,0,0,9.22-1.62c3.9-.15,7.53.34,10.63-.63a7.15,7.15,0,0,1,1-.51l.54.19-1.34.42v1l12.64.53c2.89-.12,5.11-.31,7.33-.31a72.92,72.92,0,0,0,18.1-1.75c1-.14,2.49,0,4.77,0a15.38,15.38,0,0,0-3.63,1.72l18.16-1a32.28,32.28,0,0,0,12.78-.22c1.88-1,3.43-1.94,5.18-2.81.13-.1,1.34.17,2.22.17l-1.75.7,2.22,2.43c3.83.87,4.78-.85,7.4-1a6.34,6.34,0,0,1,1-.5l.54.19-1.35.41v1.14h10.22l1.82-1.24,1.35,1.41,4.64-.78,1.95.63c1.41-.65,4.5-.65,5.24-1.64l.34.63c4.71,2,11.84.17,16.81,1.57,3.1-1.36,8.41.32,11.3-1l5.12,1a76.19,76.19,0,0,0,15.67-2.93c.74-.76,1.41-1.53,5.18-1q-2.44.61-5.18,1a13.53,13.53,0,0,0-1.68,2.42l9.68,2.13L360,26h9.29l3,1.09h51.46q8.94.12,17.82.58a11.51,11.51,0,0,1,2.56.73c5-1.89,11.3-1.34,16-1.34l7.39,3,6.33-.78,2.82-1.4,12-.61,1.75.44a42.72,42.72,0,0,1,5.11-.56,85.32,85.32,0,0,0,11.77-1,34.32,34.32,0,0,1,5.18.12c6.39-.24,11.71-.5,17-.63s10.22,1.36,15.74.73l1-1c2,0,3.92,0,5.85.17V23.65l5.24.75q-2.48.63-5.24,1.07c.4,0,.81.39,1.28.39a28,28,0,0,1,4.77,0c4.44,1,9.49.48,14.19,1a137.63,137.63,0,0,0,15.2,0c1.57,0,3.13-.05,4.65-.19a93,93,0,0,1,19,.19c6,.71,6,.71,10.76,0l3,.76c3.7-1.8,9-.22,13.45-1.07a38.25,38.25,0,0,1,13,.29l1.75-.41c4.77.41,9.6.74,14.46,1q4.15-.15,8.21-.51h9.68a6.07,6.07,0,0,0,1.75-.53c1.48.94,4.37.36,8.21.8l3.76,1.5c11.78,0,12.65-.1,15.61-1.82,4,.65,7.6-1.21,11.7-.34l.61,1.12c7.13-.9,14.06,1.26,21.45-.17l4.44,2.42c2.69-.07,5.72.31,7.87-1.21V26.44h10.36l3,1.06a23.85,23.85,0,0,0,7.47-.53,16.86,16.86,0,0,1,7.87-.29c1.48.36,1.61-.19,2.35-.19h8.47l3,1.09h5.38l2.76-1.24c7.53.44,15.07-.56,22.2.66a9.66,9.66,0,0,0,2.28,0,120.08,120.08,0,0,1,15.74-1.07,64.93,64.93,0,0,0,7.47-.49c2.35-.24,5.38.32,8.14.49a13.08,13.08,0,0,0,2.35,0A33.39,33.39,0,0,1,882,25.52a145.46,145.46,0,0,0,14.8.43c1.35,0,3.1-.55,4-.38,4.64.89,9.48.09,14.39.48L918,27h9.21l-1.07-.53c-.2-.08-.54-.08-.54-.22v-.15l10.69-.53a92.26,92.26,0,0,0,16.62,0,50.46,50.46,0,0,1,14.39.34c4.31-1.12,9.22-.32,14.39-.65l2.36,1.33a48.55,48.55,0,0,1,14.06-.32,13.3,13.3,0,0,0,3.7.17c3-1.11,6.32.2,9.75-.65s6.72-.22,9.08-.46c1.18.2,2.28.43,3.34.64V0H0V19.44H.45v.19H0v4.73l.18,0H0v.92l.32-.07Zm374.51-.61h.54v.59h-.54Zm-19.24,0h.54v.59h-.54Zm-5.38.39H349v-.19h1.75Zm-15.2-1.5c-2.76.77-3.83,1.62-6.72,1.74C331.37,23.09,331.37,23.09,335.54,22.78ZM315,23.41v1h-.81l-.6-1Zm-25-.58h.54v.58h-.54Zm-5.31-.61v1H277.9C279.09,22.31,282,21.88,284.63,22.22Zm-20.12-.12a5.28,5.28,0,0,1,1.69-1.62c2.89.19,1.41-1.17,3.49-1.17l.54,1,5.25.36-4.31.73,1.69,1-9.42,1.72A20.41,20.41,0,0,1,264.51,22.1ZM46.05,21.74,57,21.28v.58l-4.31.8L51.3,22.2l-6.73.6-.74-.43,2.9-.37Z"/></svg>