<svg id="Layer_1" data-name="Layer 1" xmlns="http://www.w3.org/2000/svg" viewBox="0 0 1024 30"><defs><style>.cls-1{fill:#00b095;}.cls-2{fill:#fff;}</style></defs><polygon class="cls-1" points="924.34 11.17 924.25 11.18 924.26 11.2 924.34 11.17"/><path class="cls-2" d="M1017,4.12l-2.09,1-6.72-.3c-1.21,1.14-3.43,1.35-7.13.78l4.77-2.1-5.85.78A77.49,77.49,0,0,0,984,2.66l-2.42,2.16-1.35-.4-6.05.72L968.46,5,971,6.53h-4.84a7.35,7.35,0,0,1-1,.48l-.54-.18,1.35-.39a16,16,0,0,1,1.61-1h-6.25l-4.78,2.39V6c1.25-.37,2.42-.78,3.5-1.21a2.84,2.84,0,0,0,1.07-1.18l-9.55.8v1l-5.24,1.75L943,4.89h-2.76c-2.42.85-4.3,1.51-6.25,2.12-.2,0-.88-.21-1.55-.21L934,6.17l-3.63-1-5.65,3-.42-.7-3.89,1.36-.6-1.06,4.48-.32-.65-1.1h-5.18l-6.73,2.12L908,6.14l2.09-2.27a9.11,9.11,0,0,0-6.12-1c-.61.09-1.28.34-1.68.34-7-.93-14.53-.18-21.26-.41a34.65,34.65,0,0,0-5.58,0,39.45,39.45,0,0,1-13.45,0,19.1,19.1,0,0,0-3.77.16c-2.89.28-5.58.71-8.61.87s-6.12-.55-9.14,0a64.9,64.9,0,0,0-13.86-.5c-6.73.09-13.45.41-20.18.64L806,5.53a43.9,43.9,0,0,0-5.38,0,20.79,20.79,0,0,0-3.77,1.14l-6.25-1.16-6,.5c-1.68.16-3.5.36-6.72.73L782.28,4l-1.07-.25L776,6.05c-3.23,0-6.79-.09-10,0s-6.25.37-9.41.55l-.81-1.91-2,1.41-1.21-1c-3.16-.76-6,1.11-9.28,0l2.15-1.83-6.72,1.67H731.1l-4.24,1.93c-1.14-.89-2-1.48-2.69-2.09a6.76,6.76,0,0,1,1.55-.44V2.87c-9.5-.81-19.54.27-25.9,2.8l-2.42-1.6-1.28,1.26c-3.9,0-6.39,1.68-11.16.84L690.34,5c-.2-.39-.81-.82-.81-1.23h-.94l-4.77,1.93-6.73-.27.54,1,2.62.29-3.36,3-7.2-.92c1.71-.33,3.32-.71,4.84-1.13a2.78,2.78,0,0,0,1.21-1c-2.75.62-4.91,1.28-7.73.94a22.16,22.16,0,0,1-3.36,2.14V7.46H668a1,1,0,0,1-.4-1l4.84-.25V5.53c-4.71-.75-8.41.59-13,.73l.33-1.41,3.9-.28-4.43-.77h-5.65l-2.16,1.53,5.72-.55a3.12,3.12,0,0,0,0,1.14c.2.48.87,1,.87,1.5l-3.16.14L654,5.89H651.4V5.44c-3.5-.3-3-1.68-5.79-2.28a58.72,58.72,0,0,0-11.9,1.07c-.34,0-1-.16-1.48-.16l1.21-.84L626.71,2l-8.07.89-3.23,1.36h-3.83a8,8,0,0,0-2-1,25.53,25.53,0,0,0-3.23-.48L603,4c5.11,0,4.77,1,6.32,2-4.84-.27-5.92-1.46-7.87-2.55-3,.48-5.45.93-8.41,1.32s-6,.66-9.08,1a11.2,11.2,0,0,0-6.72-3.16c-3.77-.48-7.67-.82-11.57-1.23l-4.17,1.27h-3.84l-15.26,3.6L536,5.51l3.83-1.6-2.22-.75a73.86,73.86,0,0,1-10.09,0c-3.09-.47-6.46-.22-9.48-.91a20,20,0,0,0-7.54.25,15.14,15.14,0,0,1-5.17.14c-2.16-.71-4.44-.46-6.73-.46-9.15-.27-17.89,1-26.9.55a170.6,170.6,0,0,1-19.51.57c-1.71.11-3.39.28-5,.52a16.59,16.59,0,0,0-7.13-.38l-.8.79-9.08-1.82-.88-1a142.14,142.14,0,0,1-16.95.91c-5.58,0-11,1-15.94,0-2.06.18-4.15.32-6.25.43-2.63.16-5.72-.21-7.87.16a20.89,20.89,0,0,1-5.05.41c-2.08-.16-3.36.63-5.45.27-1.58-.25-3.22-.45-4.91-.59-1-.1-1.95-.16-3-.18a63.29,63.29,0,0,0-13.45,1l-5.31-1c-5.26,0-10.52-.12-15.67-.48a109.55,109.55,0,0,0-13,.37c-11.44.2-23,0-34.44,0-.27-1.76-4-1.55-6.32-1.76L274.67,0H271l-3,1.64H253.41c-6.79.91-10.89,2.3-16.54,1.16l-6.73,1.05,2,1.27c-5.11-.77-8.81-1.3-12.91-.32-.88.21-3.16-.2-4.78-.32-1.07,1.66-1.07,1.66-5.11,1.82L210.91,4l-4.58-.73c-3.83,1.84-5.65,4.12-11.23,5.55-2.2.24-4.45.43-6.73.57-2.57-.05-5.12-.19-7.6-.43l-2,.59c-.8-1.57,4-1.43,4.31-2,.67-1,4.1-1.26,4.91-2.28l-3.9-.77-1.28,1.18h-5.52l-.54.82L173,7.12l-6.73-1.48-3.16,1.62-1.08-1-5.71,1c-.2-1-.88-1.39-3.43-.82l1.95,2.12c-2.49.73-3.84,1.77-8.34,1.39l-4.17,1.7-.88-.16,1.89-1.68-3.64-.52,1.69-.57c-1-.48-2-1-3-1.46H134.9l2,.84-5.11.16c.13-1.41,3.23-1.66,5.51-2.78.61.92,1.08,1.28,1.08,1.67H141l1.95-3.62-2.09-.75h-13L123.4,1.27c-4.17.1-4.37,1.55-6.39,1.94-10,.55-18.63-.62-27.64-.48H49.88a63.59,63.59,0,0,1-15.6-1.59A73.32,73.32,0,0,1,20.83,2.71H0V30H1024V4.23l-3.28.62ZM651.19,7H648.1l2.49-1.28.6.21Zm94.3-.66h-1.61V6.14h1.61Zm9.29.54h-1.62V6.69h1.62Zm222.76-.54h-1.61V6.14h1.61Zm12.38-.07,4.71-1.59C994.43,5.71,993.35,6.08,989.92,6.26Zm9.82-.48L997.05,6V5.51h2.69Z"/></svg>