<svg xmlns="http://www.w3.org/2000/svg" width="1849.573" height="906.859" viewBox="0 0 1849.573 906.859"><defs><style>.a{fill:#fff;}</style></defs><g transform="translate(0 0.02)"><path class="a" d="M1822.827,825.9c2.541,1.386,1.675,3.3,1.1,4.933-3.522,9.825-7.333,19.61-10.913,29.15l2.252,4.974c5.774,0,7.16-4.321,11.548-5.952h-9.239c.809-3.18,3.984-4.484,7.449-6.075,6.583,1.223,9.123-2.65,13.223-6.686l-1.1,4.688,4.966-.53,4.388,2.487-5.023,1.3-.924,4.077,7.391-3.343,1.443,4.362h-4.1l.866,4.077,3.06-4.077,5.255-5.178a8.6,8.6,0,0,1-2.252,8.48l1.675,3.506-3.465,3.3-.4,5.259,4.562,2.242-.52,3.058-3.638,1.223c-.693,8.6.693,17.286-2.31,25.44l-9.758,2.079-3.234-.734-5.428,3.547-14.089-2.242-3.349,4.688-6.929-4.077-8.2.693-1.559-2.813-24.194,4.729-2.252-2.527-10.567-.979c-3.984,1.59-4.619,5.218-9.758,6.034v-4.892c-6.178-2.528-10.393,2.691-15.879,1.957l-5.428,5.871,1.1-4.077-13.454-1.141c-4.735-4.077-12.3-1.549-19.113-3.139l-11.895,7.338-.751-3.058-7.911-4.077h-18.189v4.281l-9.816,2.161-5.024-2.528-2.829,1.427a127.381,127.381,0,0,0-34.645-3.221L1598.211,916l-12.992-2.732-2.541.571L1581,916.853l-4.562-1.06-1.79,4.281L1565.7,916c-3.176.245-3.869,4.321-8.892,3.465l2.194-4.077c-5.774-1.631-9.816,1.386-14.724,1.875l-2.829-5.341c-1.039,4.077-1.039,4.077,2.6,9.988l-3.926.53-1.905,4.077-4.388,1.875h-7.506l-1.675-4.077-8.373-2.976c-5.774.693-7.044,5.341-11.548,8.439l-7.564-3.628-6.64-.652-4.331-5.259c-.4-2.772,5.023-3.832,1.559-7.257l-2.656,3.18-3.927-3.751-2.6,1.3-9.181-.856-2.541,3.384,4.792,6.36-6.236,2.528-6.756-5.463,1.328-3.017-4.5-5.055H1439.71l-5.774,8.154c-5.774.245-11.144-.245-13.512,2.935l-8.488,2.039-10.855-2.813-3.234-7.379-13.281-.978L1376.6,910v.815l-16.283,1.672-1.328,1.3,2.887,2.405-8.142,3.3-2.079-2.976-8.2,7.216-9.412-4.077L1330,921.5l-8.026-8.154h-4.1l-.289,3.3c-3.118,1.386-3.869-1.223-6.236-1.549l-4.792,2.691-4.966-.693-3.234-3.791-8.257,1.468-3.7-1.875a55.237,55.237,0,0,1-18.881-1.264c-2.425-.367-4.908-.571-7.391-.775l-7.391-.571c-1.386,0-2.945-.734-4.042-.448-7.911,1.957-16.4-.652-24.54,1.672a20.608,20.608,0,0,0-11.953-2.12,99.955,99.955,0,0,1-18.535,0,115.781,115.781,0,0,0-13.685.449,48.881,48.881,0,0,1-7.333-.285,31.8,31.8,0,0,1-13.8,1.468c-2.368-.408-5.428,1.019-9.758,1.957l-3.926-3.791h-24.252l-2.021,3.751-7.68.611-2.367-4.566c-3.234.326-6.814.53-10.278,1.141a69.416,69.416,0,0,1-11.029,1.753l-6.121,5.789,1.559,5.667-4.619-.408-3.407,3.017,4.735,1.712-1.155,2.568h-9.181l-1.386,2.365c-4.5,0-3.811-3.1-6.121-4.607l4.562-4.444-4.677-.408.751-3.384c-2.541-2.65-6.525-4.444-7.8-8.154l-5.139-2.691,1.617,5.3-5.774,7.461-4.793-.734a13.69,13.69,0,0,0-3.234-11.7l-6.467,6.36-11.548,1.264c-.462-.815-.982-2-1.674-3.1s-1.444-2.039-2.252-3.139h-3.176l-.462,3.506-7.853,3.058c-2.829-3.18-1.213-4.974,3.522-6.808l-7.333-1.3-4.735,3.058-3.118-2.446H981.586l-7.968,3.792-7.564-4.077-4.793.612-.982,4.322H959.3l-1.213-3.669L949.424,910l-1.963,2.895-5.774-2.732-19.459-.693c-5.081.979-8.026,4.077-13.627,2.65l-2.772-2.283c-7.911.734-16.168-2.079-22.346,1.3-12.645-2.895-24.194-1.264-35.627-.815l-6.525-1.631-9.874,3.139-4.85-2.283h-6.871c-9.643-4.077-25.811-4.077-41.17-1.345a42.8,42.8,0,0,0-15.359-1.264,90.361,90.361,0,0,1-26.273-2.976,21.114,21.114,0,0,0-10.1,0,52.219,52.219,0,0,1-9.008.53l-4.85,2.365-.866-.571,1.444-2.405c-.346,0-.635-.408-.982-.408-4.215,0-4.735,2.569-6.64,5.137l1.79-11.986a64.766,64.766,0,0,1-8.488,4.077,75.057,75.057,0,0,1-9.989,1.672l7.275-7.175-1.155-.856-8.719,4.077-.751-.367,2.829-3.18c-.289,0-.751-.449-.924-.408-9.181,2.976-11.895,5.055-17.323,13.128-2.887.367-6.178.693-9.47,1.182s-6.178,1.1-9.758,1.753l-7.275,7.705-2.252-6.4c-5.774-4.607-11.548-.53-16.976-1.712l-2.31,4.281-3.522-4.077-20.845-.815-1.213,3.1L586.921,910v-1.06L565.5,913.02c-3.234-4.077-8.95-4.077-16.283-3.3l-4.157,4.077-3.58-2.283-8.372,3.629.982-3.669a41.6,41.6,0,0,0-17.323-1.223l-5.774,2.528-23.674,2.446-14.089-4.077-5.024,1.508-9.123-1.019-6.409-2.854-5.774,2.405-2.887-1.549a34.833,34.833,0,0,1-23.443-2.2l-9.758,1.06-5.37,2.12a43.224,43.224,0,0,0-31.469.53c2.483-2.976,5.774-4.852,3.234-7.624l-12.819,3.71-9.989-2.242-2.656,2-4.042-1.794-7.8,2.324c-1.73-2.793-5.736-4.532-10.047-4.362l-10.682-7.379-6.7.734c-7.911,6.442-8.777,6.727-15.013,4.729l-5.081,2.895-3.465-1.712-5.774.775c-3.723,3.359-9.942,4.806-15.764,3.669l.808-3.1-4.85-1.3c.4-4.077.4-4.077-1.444-6.727h-6.929l3.869,6.4-10.567,2.283-3.06,5.218-9.527,2.895-7.391-.571.808-4.077-9.239-8.154-3.926,4.077-.289-4.526c-8.373,2.65-17.323,3.792-23.1,9.988l-6.525-3.751-18.189,7.665c-5.774-2.161-10.567-4.077-11.548-8.6l-1.5,2.079-4.85-3.017-3.984,4.077-8.43-1.549-6.294,2.772-4.446-8.4h-7.622l-5.774,3.669c-3.176,0-6.467,1.182-9.758-.938l-13.4,6.523-6.871-.815-2.714,1.835L72.5,907.8,66.32,909.6l-1.79-1.427H49.46c2.772-2.568,6.929-1.1,9.816-2.242s6.063-2,8.95-2.895c0-2.732-2.656-3.1-4.677-3.71-9.754-2.72-15.847-9.62-15.013-17l-3.118-1.59v-3.751c4.619-1.019,5.774-3.18,4.388-6.4a9.647,9.647,0,0,1,0-4.322,54.987,54.987,0,0,1,4.446-19.569c1.27-2.772.4-6.034,1.5-9.132l-2.772-3.588a13.223,13.223,0,0,0,1.328-3.058,15.411,15.411,0,0,0-.346-3.751c11.548-9.051,8.892-19.691,5.2-30.373-4.908.2-1.213,4.321-5.139,5.463l-4.273-.938L54.83,793.4l-3.349-.367c-3.465-4.077,3.407-6.4,4.5-10.233l-1.848-2,1.79-2.732H49.691a43.106,43.106,0,0,1-14.435-11.66v-4.974l8.546-5.178.693.408,1.848-3.465a41.51,41.51,0,0,1-3.291-6.034,23.65,23.65,0,0,1-.693-5.667c-.462-5.178,2.021-10.518-3.926-15.248-2.079-1.631-1.559-4.852-1.963-6.441l5.139-8.4,5.312-4.729-3.638-2.12L39.3,692.339l-5.2-4.077v-8.154L31.04,676.6c0-5.463,7.218-6.115,12.126-8.888l-7.853-1.875v-3.18l9.354-1.345L46,655.81l-6.871-2.772-4.273-6.931,3.06-5.1-2.6-3.465-5.774-2-3.869-7.583,10.74,2.324,8.488-2.528-15.186-5.708c-1.039-1.468,0-3.058,2.021-4.688s6.121-3.751,4.735-7.3l11.144-.938-5.774-4.566v-3.343L30,605.747,25.9,603.3l2.425-9.01,5.024-.775-2.772-4.077,14.2-2.935,2.136-5.748c-2.656-1.1-6.409-.938-5.774-4.077L46,573.7v-3.3l-6.236,4.077a19.567,19.567,0,0,0-2.541-5.218,33.226,33.226,0,0,0-5.774-3.832l15.128-5.137c0-3.71.4-7.828.462-11.945,0-.53-.924-1.019-1.559-1.753l-7.8,2.732-1.444-4.729-5.081-.978c-.462-2.691,8.835-6.156,15.244-5.545l-1.155-18.631-10.855-3.384-1.039-6.768,7.564.449,3.118-11.619,2.31-2.732L44.9,481.891l-3.291-2.161,3.234-4.077-.982-2.324,2.541-1.672-3.638-9.744-.866.285-5.774-8.358-3.58-1.672v-3.139l3.984-.489L46.8,440.715c-3.522-2.405-7.1-4.077-5.139-8.154,3.984-.693,5.37-2.772,4.388-5.748-6.7-5.422-4.446-7.624-.751-11.415a19.246,19.246,0,0,1,0-3.058A15.825,15.825,0,0,1,46,409.445l-6.121-1.59-.982-3.832-6.236-.489,4.273-3.751,4.735-.326V396.6l3.176-1.712c.84-2.024-.115-4.207-2.425-5.545-3.543-2.018-5.79-4.955-6.236-8.154-2.772-1.549-6.987,1.019-9.932-1.957,5.485-3.139,14.031-1.753,18.535-5.952a67.615,67.615,0,0,1-3.811-8.888c-1.224-3.013.288-6.247,3.811-8.154l-1.732-5.5h.866l1.039-8.561-9.065-.938-.635-2.283,6.7-1.712.4-3.058-6.871-2.528c1.617-2.487,4.735-.408,5.774-.938,3.47-.881,5.7-3.271,5.485-5.871,0-2.079.751-4.077.924-6.278a6.17,6.17,0,0,0,0-4.281,14.384,14.384,0,0,1-.866-13.78c.751-2.854,1.386-5.667,2.079-8.643,5.081-2.2,6.236-4.077,4.793-7.338l3.638-5.708h-6.64l5.774-13.005-5.774-3.425,1.5-4.077c6.987-2.365,7.853-7.3,10.336-11.9-6.583-1.182-2.945-4.77-2.541-7.665H58.525l-4.273,4.321-.577-.163.577-2.935-5.37,2.283a58.242,58.242,0,0,1-2.656-8.6c-.462-3.221-6.294-3.832-6.409-6.645l6.7-7.012-3.06-4.077,2.829-17.49c-2.945-3.1-4.619-6.36,0-9.336a41.364,41.364,0,0,1,0-12.231,49.585,49.585,0,0,1,7.1-10.926l-5.774-2.772-1.5-3.343,11.548-10.681-2.945-2.242h.173c-2.079,1.386-2.136,4.566-7.275,3.628l.982-3.261-2.887-5.381,7.564-2L48.3,129.731l-9.758-.978-.4-4.077-9.758-.775-2.425-6.319,3.06-2.772L39.7,114.32l-8.488-5.952h5.774l2.136-2.242,5.774.571a30.286,30.286,0,0,0,4.388-15c-7.045-6.441-2.136-12.761-.751-18.061L44.494,59.446,56.446,55.94l.808-2.12,3.58-1.468c-2.656-.489-3.638,0-3.407,1.59l-5.774,1.835,3.984-6.523c-4.388-.285-8.95,2.691-12.7-1.182l-.808-4.077L47.9,40.937l5.37,1.386V41.63l16.283.9v.245l13.4.652c5.774,4.077,13.569,3.261,20.9,4.077,2.772,2.079,4.85,4.851,10.163,4.607l1.79-3.139,8.315.489,7.506-3.588-.635-2.731,2.194-1.672,9.008,1.835,1.963-1.59,11.086.489.577-2.65A195.853,195.853,0,0,0,191.5,39.8l2.31.9c9.932-1.06,19.921,1.019,30.141,0q15.577-.641,31.181,0l10.682,2.813a54.272,54.272,0,0,1,30.834-.775c8.084-3.3,17.323-2.079,26.388-3.791l2.367-2.038c6.583,0,13.4-.652,20.267-.53q8.482.432,16.861,1.508c.866,0,1.905.693,2.425.448,4.215-1.753,7.8.326,11.548.734a27.114,27.114,0,0,0,6.063.571c7.8-1.019,15.59-2.283,23.1-3.425l3.753-4.607c7.911-.367,7.333,6.645,14.262,7.216l3.522-3.588a86.371,86.371,0,0,0,9.239,2.446,90.624,90.624,0,0,0,12.184,1.06H468.55l54.624.326h44.057c2.839,2.623,3.373,6.144,1.386,9.132,4.215,2,7.68-.978,11.26-.245l4.562-4.077,1.155.571-3.522,4.729c7.449.448,8.2-5.545,14.147-6.034l6.294,5.3,4.966-3.751-5.139-4.077c6.063-1.264,11.548-2.2,16.4-3.384s10.509-1.712,12.126-6.115l5.312,1.386-1.79-3.588c2.194-3.506,7.853-1.753,11.548-3.1,4.562,2.365,11.2,1.06,14.609,5.341l-.346,3.1,7.853,3.588-1.963,1.753,6.813,6.686h6.121l2.829,3.221-2.656,2.691c4.619,1.386,8.6-.285,12.761-.693h0l.635-1.345,6.813,3.262-2.021,1.957c0,.285.346.775.52.775a69.905,69.905,0,0,0,21.711,0,115.992,115.992,0,0,1,14.9-.571,70.622,70.622,0,0,1,21.422,1.1h0l7.737,3.547a101.388,101.388,0,0,0,12.877-2.691A81.858,81.858,0,0,0,787.4,51.9l.462-2.895,8.892,3.547,3.291-2.691,6.063-.367,3.464-2.772h4.215l2.656-4.077c5.774-.693,7.333-.2,12.7,4.077l9.7-.53c2.28-2.169,6.561-2.706,9.758-1.223l-5.774,5.708,9.3-1.753a108.879,108.879,0,0,0,23.1,1.019c5.35-.818,10.77-1.39,16.225-1.712a69.994,69.994,0,0,1,10.1.978l.346-3.1a74.433,74.433,0,0,0,24.309-.856l-4.677-1.875c7.506-.734,13.569,3.3,21.249,2.568L944,43.138l10.509-.734-.346-.693,14.089-5.83,3.464,3.18,11.029,1.264-3.7,4.321,8.142-1.631-1.906-2.976a195.788,195.788,0,0,0,36.839-.489,23.088,23.088,0,0,0,5.774.53,50.96,50.96,0,0,1,18.708.448,19.44,19.44,0,0,0,2.656.245l11.26.693,2.772-1.182L1071.548,42l10.336-3.3c5.139,0,10.971.938,16.283-1.957a15.26,15.26,0,0,1,7.218-.571c9.989.856,19.979,2.405,30.026,2.65,5.139,0,11.144,1.3,15.648-1.712l8.372.53c3.349-6.808,13.165-6.971,20.787-9.866l4.446.775,3.118-2.813a73.652,73.652,0,0,0,9.008,4.077,24.669,24.669,0,0,0,7.8.775,23.843,23.843,0,0,1,9.3,1.06,79.175,79.175,0,0,0,10.913,2.242l5.485,4.933q4.105-.411,8.257-.489c12.357,0,24.771.938,37.07.571,7.276-.2,14.147,1.3,21.307.978,8.488-.408,17.034-.693,25.522-.612,12.184,0,24.309.693,36.493.775q28.871.2,57.742,0c4.042,0,8.084-1.019,12.126-1.3a54.147,54.147,0,0,1,8.084,0q5.347.778,10.8,1.1c16.976,0,34.01-.448,50.986-.856a42.7,42.7,0,0,0,6.813-1.3l6.178,1.264a29,29,0,0,1,17.323-.856l15.244-3.547c4.331.489,9.181,1.06,14.089,1.549a12.313,12.313,0,0,0,4.793,0c7.1-2.568,12.761,0,18.651,2.405l8.834-2.365,9.239,3.1,22.346-2.2a13.806,13.806,0,0,0,11.548,1.712l2.252-4.077,10.8,1.916,4.908,2.528,5.37-8.725H1668.6v2.935l5.2,3.425,19.632-2.691A45.342,45.342,0,0,0,1710,38.491a54.883,54.883,0,0,0,21.538-1.712A95.576,95.576,0,0,1,1747.59,34.7a9.956,9.956,0,0,1,4.042,0c6.756,2.405,13.569.734,20.383.367,4.331-.245,8.661-.734,12.992-1.019s9.643-.693,14.436-.775a46.542,46.542,0,0,1,8.777.571,121.409,121.409,0,0,0,24.021.448,61.289,61.289,0,0,1,10.8.856c9.585,1.508,19.113,3.18,29.622,4.974,3.984,2.365,2.483,5.911,1.27,9.377a10.33,10.33,0,0,1-2.194,3.547,19.183,19.183,0,0,0-3.984,7.5,15.127,15.127,0,0,1-3.7,3.832l2.714,15h-.808l2.31,5.952-2.829,4.4c2.194,6.156-1.155,12.761,4.966,17.979l-2.656,2.935,1.617,3.547-3.118,4.362a27.122,27.122,0,0,1,2.195,17.2l1.1,1.142c-.808,4.077-1.617,7.705-2.31,11.538-.578,3.058-1.27,6.115-1.675,9.173-.52,4.077-1.039,8.154-1.155,12.231a11.334,11.334,0,0,0,1.213,6.6c4.577,6.722,4.1,14.614-1.271,21.037-.462.571-.808,1.142-1.443,2.038l.982,2.935c-2.772,7.5-5.139,14.921,3.06,21.607-2.772,7.583-.751,15.614-5.312,22.83,4.388,9.418.635,18.591-1.213,28.538l3.753,4.484-2.772,5.5a8.77,8.77,0,0,1,.808,8.561c-.693,1.06.52,2.732.924,4.4l-3,2.324c.462,4.077,1.039,8.521,1.443,12.964a17.1,17.1,0,0,1,0,5.789,42.872,42.872,0,0,0-1.328,15.9,17.669,17.669,0,0,1-3.06,11.864A8.724,8.724,0,0,0,1856.49,358l-1.5,1.1c-.693,3.588,4.157,6.727,0,11.334l-2.136-3.262-1.386.285-1.386,5.626,5.081-2.038a9.6,9.6,0,0,1,2.945,7.175c.462,9.214.982,18.468,1.444,27.682v6.808a81.452,81.452,0,0,0-.347,14.921c.462,3.262,2.31,6.482,3.234,9.784s1.213,6.075-3.58,7.705V459.55l3.926,3.669.577,5.055-4.446,5.626,2.829,6.768c-2.4,3.987-1.9,8.548,1.328,12.231l5.37,1.468a16.913,16.913,0,0,1,0,6.278,15.745,15.745,0,0,0,0,8.48,13.891,13.891,0,0,1-1.04,9.581,4.276,4.276,0,0,0,0,4.077,21.668,21.668,0,0,1,1.79,6.034c1.147,3.356-.731,6.865-4.735,8.847,0,2.935-.4,6.156-.578,9.377a4.587,4.587,0,0,0,0,2.324,20.542,20.542,0,0,1,0,15.777c-.52,1.835-1.155,3.628-1.675,5.382s.635,4.525.693,6.808a16.942,16.942,0,0,0,1.963,9.54,3.111,3.111,0,0,1,.577,1.875c-.751,5.137-1.559,10.233-2.194,14.269-3.118,3.547-8.257,4.811-7.622,7.379l5.774,8.154-5.081,2.365,1.963,3.017c-2.772,1.3-2.483,3.139-1.328,5.1a60.668,60.668,0,0,1,3.638,6.319c.346.775-.347,1.753-.52,2.65h0l-4.446,4.077,1.617,4.077a3.823,3.823,0,0,0-1.815,3.734,4.728,4.728,0,0,0,3.027,3.319c-2.8,1.887-4.2,4.58-3.811,7.3.4,10.885.635,21.771.578,32.615,0,7.461-.809,14.921-1.155,22.382a34.122,34.122,0,0,0,0,13.046c1.79,4.892-.462,9.54.462,14.31,0,.856-.808,1.834-1.328,2.935l4.966,10.844-3.7.571.751,3.465a18.943,18.943,0,0,0,1.386,20.384,16.146,16.146,0,0,0-4.389,13.005c0,5.5,0,10.967-.519,16.307a28.779,28.779,0,0,0,1.848,14.432,15.383,15.383,0,0,1,.52,12.027,24.176,24.176,0,0,0-.577,6.115l-4.331,8.154c-3.522-1.468,1.155-5.585-3.984-7.053l-4.157,1.508a43.917,43.917,0,0,0,6.814-8.521,32.975,32.975,0,0,0,1.27-9.621l2.541-1.672-4.619-8.969-5.774,8.154L1823.173,839.6c-1.732-3.832,2.425-5.626,4.619-8.928l.4-3.832c8.447-6.04,13.443-14.067,14.031-22.545a37.252,37.252,0,0,0-2.714,3.221c-.751,1.1-1.617,2.691-2.194,3.71l-9.758,5.952v4.077l-4.908,4.077-.462.245ZM139.306,46.277l-2.021-.367v.734l2.021-.489h0ZM1841.131,903.032l-1.674,3.221,3.926-.245-2.483-2.895,5.37-1.835-1.848-3.1-11.548.856c-1.1,2.732,2.425,3.3,4.331,4.688Zm-20.845-72.12-3.349.285,1.675-7.012-5.774,5.911.693,2.895-9.239,12.027,5.774.489,2.772-4.077,4.735-2.12-.635-2.487,3.291-6.2v-.285Zm-22.4,7.583a26.754,26.754,0,0,0-11.548,7.094h0l-7.8,4.77,7.737.489-5.774,5.3h5.774l13.107-12.231-1.848-5.667,3.291,1.59c4.3-1.989,7.452-5,8.892-8.48C1803.31,832.258,1801.232,835.886,1797.882,838.5Zm5.774-43.949c-7.16,2.568-11.087,7.583-16.63,11.374a58.978,58.978,0,0,0-17.611,18.55c1.963,2.365.346,4.4-2.136,6.319a5.116,5.116,0,0,1,.982,6.442,18.275,18.275,0,0,0,0,6.931l1.213.448,16.052-12.231a5.5,5.5,0,0,1,.866-2.895c5.774-5.748,9.412-12.231,17.323-17.041,1.963-1.182,4.042-2.283,2.887-4.485l.462-.245-.346.367-5.139,1.549,5.428-6.768-8.43,2.935,2.136-6.2c0-2.038,4.735-2.528,3.176-5.3l2.367-.652-.52-.571Zm37.417,84.35a94.208,94.208,0,0,0-20.9,13.943l1.963,2.487,12.877-6.727Zm3.407,17.938,4.792-5.83-3.7-5.626-6.178,6.849-3.464-1.549-1.386,2.161Zm-40.419-50.594c-3.117,3.216-3.725,7.325-1.616,10.926l6.64-10.111Zm-15.07-15.981c.635.652.751.815.924.9a.8.8,0,0,0,.52,0l7.564-4.321,6.756-8.521-.982-.408ZM65.627,51.985l6.583-4.077c-4.157-.408-6.64,0-8.2,2.324Zm1755.352,753.12-1.617-.652c-.462,1.672-4.331,2.405-1.79,5.382Zm-307.186,114.56c0-2.2-.751-3.18-3.407-3.465C1509.751,918.28,1511.541,918.769,1513.793,919.666ZM33.638,119.62v-1.182l-3,.285v.775Zm23.79,41.217-1.27-.693-1.386,1.835.982.408ZM1510.963,913.184l1.039.775a12.137,12.137,0,0,0,1.271-1.182,7.881,7.881,0,0,0-.693-.53,17.922,17.922,0,0,0-1.617.938Zm-172.648,6.89.635.53,1.617-.938-.693-.611ZM656.961,34.985l-.52-.489-1.559.775.577.571ZM1835.7,857.29l.52,1.1,2.252-.693-.4-.815ZM63.029,50.069l-1.155-.734-1.328,1.182.693.53ZM1341.722,917.423h0C1341.375,917.423,1342.415,917.342,1341.722,917.423ZM1761.1,835.886h.346v-.652Zm-195.572,78.4v.326h1.386V914.2Zm-57.742,0,.866.367.289-.285Zm70.445-2.324v-.367h-.289a1.1,1.1,0,0,0,0,.367ZM63.433,240.337v-.326H61.99v.489ZM1836.108,853.7v-.408l-.635.285Zm-59.763.286h.52v-.938h-.346ZM293.65,898.507l-.289.326h.52ZM56.446,261.9v-.245h0Z" transform="translate(-25.67 -25.75)"/><path class="a" d="M30.27,81.45l-.55-1.09,1-.25Z" transform="translate(-25.67 142.584)"/><path class="a" d="M140.05,28.39l-1.59.13v-.1l1.54-.34Z" transform="translate(515.496 -25.75)"/><path class="a" d="M139,241.12c-.27.83-.57.69-1.07.36Z" transform="translate(512.076 658.669)"/><path class="a" d="M145.4,242.94l-.86-.24.07-.25.85.27Z" transform="translate(543.472 658.669)"/><path class="a" d="M122.7,29.24l.64.21-.09.26-.61-.17Z" transform="translate(438.296 -25.75)"/><path class="a" d="M339.87,225.17l.38-.49C340.58,225.19,340.36,225.28,339.87,225.17Z" transform="translate(1503.585 658.669)"/><path class="a" d="M30,85.17l.44-.24-.38.32Z" transform="translate(-25.67 156.663)"/><path class="a" d="M137,27.88h.31v.1l-.34.07Z" transform="translate(506.261 -25.75)"/><path class="a" d="M121.34,30.1l.13-.22h.09l-.11.24Z" transform="translate(431.39 -25.75)"/><path class="a" d="M340.22,223.63v.23h-.08v-.23Z" transform="translate(1503.585 658.669)"/><path class="a" d="M60.05,217.38l.05-.1.02.1Z" transform="translate(0 684.419)"/><path class="a" d="M343.35,175.95h.03Z" transform="translate(1503.585 436.458)"/><path class="a" d="M136.17,26.65s.07.06.06.08-.05,0-.08.07-.07-.06-.06-.08A.285.285,0,0,1,136.17,26.65Z" transform="translate(501.723 -25.75)"/><path class="a" d="M152.13,33.36l.07-.18-.1.15Z" transform="translate(578.119 -25.75)"/><path class="a" d="M4.88,56.36l.04.08H4.84Z" transform="translate(0 173.536)"/><path class="a" d="M328.33,224.31h-.1v-.06h.1Z" transform="translate(1503.585 658.669)"/><path class="a" d="M330.63,226.83l1,.22h0l-.44.75-.53-1Z" transform="translate(1503.585 658.669)"/><path class="a" d="M331.9,226.79v-.08l-.06.05Z" transform="translate(1503.585 658.669)"/><path class="a" d="M331.87,226.76l-.25.26h0Z" transform="translate(1503.585 658.669)"/></g></svg>