<svg id="Layer_1" data-name="Layer 1" xmlns="http://www.w3.org/2000/svg" viewBox="0 0 100 100"><defs><style>.cls-1{fill:#dc5636;}</style></defs><path id="Path_2086" data-name="Path 2086" class="cls-1" d="M96.42,14.3a.82.82,0,0,0,.11-.74,3.55,3.55,0,0,0-.42-1.18c-.1-.17-.38-.18-.38-.53,0-.18-.4-.32-.54-.53s-.15-.41-.4-.3-.05-.32-.37-.33c-.58,0-1.06-.43-1.62-.55,0,0-.1,0-.16.08l.22.25a.69.69,0,0,1-.78-.3c-.1-.14-.14-.22-.32-.24a28.43,28.43,0,0,1-2.88-.63l-3.4-.74c-.17,0-.33-.17-.51-.17s-.28.18-.4.16-.12-.29-.23-.34-.27.07-.39.1S83.55,8,83.33,8a6.51,6.51,0,0,1-1.25-.3,5.35,5.35,0,0,0-.8,0s-.11-.16-.22-.2c-.31-.12-.68,0-1-.26-.79.17-1.45-.32-2.18-.44a7,7,0,0,1-1.86-.44.92.92,0,0,0-.71,0A2.11,2.11,0,0,0,75,6c-.12-.06-.14.25-.36.09A4,4,0,0,0,73,5.64c-.33,0-.67-.42-1,0,0,0-.23-.07-.23-.09,0-.3-.15-.27-.36-.3A4.89,4.89,0,0,1,70,5a25,25,0,0,0-2.74-.7c-.7-.2-1.46-.22-2.17-.42-.34-.1-.61-.19-.89.06-.18-.37-.24-.45-.49-.33s-.21,0-.28-.08-.28-.28-.5-.22c-.66.19-1.2-.71-1.9-.21-.28-.56-1-.24-1.27-.58-.26.05-.1.63-.54.33l-.09-.53c-.11.08-.22.2-.24.18a8.84,8.84,0,0,0-1.3-.4c-.38-.16-.75-.06-1.09-.2s-.73-.42-1.13-.33-.73-.53-1.13-.05a.26.26,0,0,1-.13-.06c-.36-.43-.92-.29-1.37-.49a1.55,1.55,0,0,0-.6-.18,3.14,3.14,0,0,0-.67.17c-.09-.14-.14-.34-.24-.37C50.52.39,49.74.49,49.12,0c-.06,0-.2,0-.29,0H47.66c-.39,0-.69.33-1.09.2,0,.47-.4.39-.7.38,0,0-.07,0-.09,0A4,4,0,0,1,44.22,2c.07.48-.42.54-.6.8a8.32,8.32,0,0,0-.69,1.09c-.22.43-.7.58-1,1-.05.07-.1.15-.16.22-.4.52-.81,1-1.22,1.55s-.81.56-.77,1.15c0,.07-.11.18-.2.2-.28.08-.42.2-.37.53,0,.08-.14.2-.24.28a3.82,3.82,0,0,0-1.12,1.4c0,.08-.09.2-.13.2-.65-.05-.78.62-1.24.86l.2.22c-.41,0-.38.58-.75.7a.85.85,0,0,0-.44.33,10.39,10.39,0,0,1-1.6,1.78c-.11.12-.23.22-.33.35-.34.45-.5,1-1.1,1.3-.13.05-.17.3-.25.46l-.32.65c-.11-.14-.22-.22-.35,0l-.33.45a24.46,24.46,0,0,1-1.6,2.08,3.71,3.71,0,0,0-1,1.6l-.27-.2c-.86.43-1,1.43-1.78,1.9-.07,0,0,.31,0,.47l.17.13-.17.07c-.16,0-.42-.07-.47,0-.25.37-.74.57-.88,1s-.78.64-.91,1.16a11.81,11.81,0,0,0-2.45,2.59,5.05,5.05,0,0,0-.85,1.1.61.61,0,0,1-.27.28c-.48.22-.65.67-.89,1.08s-.63.84-.54,1.39a2.08,2.08,0,0,0-1.72.94,7.41,7.41,0,0,1-.77.91,5.86,5.86,0,0,0-.47.54l.24.28c-.2.07-.5.08-.59.22-.34.55-1,.78-1.33,1.34l.13.22c-.44.14-.57.65-1,.85a.76.76,0,0,0-.53.83c-.26.16-.11.86-.73.58-.11.47-.72.47-.88.89-.24.64-1,.9-1.18,1.56-.58,0,0,.37-.15.54-.47.13-.75.23-.86.49a4.57,4.57,0,0,1-.84,1c-.14.16-.22.5-.35.51-.4,0-.24.29-.3.47s-.17.29-.24.28c-.62-.1-.48.51-.72.76a2,2,0,0,0-.29.49l-.2-.21c.22.27-.56.38-.11.68-.25.15-.56.21-.62.6a1.16,1.16,0,0,1-.36.72c-.4.32.06.55,0,.83,0,0-.09,0-.12.06l-.2-.15c-.1.24-.2.43-.26.63s-.14.46-.2.7-.2.44-.12.57c.21.37-.24.35-.28.57-.12.7-.27,1.39-.38,2.09a2.76,2.76,0,0,0,.11.69c-.06.09-.29.26-.29.43,0,.74-.16,1.45-.2,2.17-.07,1.46,0,2.93,0,4.4,0,.2-.07.46,0,.57s.11.55.16.82a8.43,8.43,0,0,1,.19.9A8.31,8.31,0,0,0,4.91,66.1c0,.05,0,.13,0,.2s-.06.23,0,.33c.1.25.17.61.36.71s.23.3.29.5.29.2.45.31l-.18.18c.74.62,1,1.71,1.92,2.12.61.79.8.89,1.66.92,0,0,.08.07.08.07L9.31,72c.2-.11.31-.23.4-.22.37.06,0,.23,0,.26a1.48,1.48,0,0,0,.43.31c.16.07.42,0,.53.12a3.78,3.78,0,0,0,1.8.86l2.51.79a7,7,0,0,0,1.2.37,2.07,2.07,0,0,1,1.22.38c.17.14.46.13.68.23.91.4,1.94.47,2.83.94.09,0,.27-.07.42-.12s.16.28.29.34c.36.16.74.27,1.11.4a.34.34,0,0,1,.27-.12c0,.4,0,.82,0,1.29,0,1.38-.25,3.75-.25,5.12,0,1.71.42,3.08.42,4.79,0,2.38-.42,5.09-.42,7.48,0,1.47.08,1.5,1.47.73.27-.15.53-.33.8-.5.73-.47,2-2.12,2.77-2.59,1.6-1,2.6-.86,4.21-1.85a1.34,1.34,0,0,1,1.89.12l.06.08c.82.87,1.65,1.72,2.49,2.57.63.63,2.93,2.08,3.56,2.71,1.32,1.31,1,1.81,2.29,3.12l.36.36a1.76,1.76,0,0,0,.25-.62V94.66c0-1-.43-2.75-.43-3.8,0-2.43.44-4.2.44-6.64,0-.44,0-.88,0-1.32l1.76.48c.22.05.46,0,.64.22s.36.2.56.28a10.77,10.77,0,0,1,1.91.58c.07,0,.21-.1.35-.16.33.48.91.49,1.43.65a8.81,8.81,0,0,0,2.85.69.48.48,0,0,1,.26.07,1.72,1.72,0,0,0,1.05.53,3.13,3.13,0,0,1,1.11.39,4,4,0,0,0,1.31.35,4.86,4.86,0,0,0,2.7-.52c.19-.08.32-.09.33-.35s.22-.51.57-.47l-.18-.3L61.19,85l-.29-.58.56.21c.11-.28,0-.7.53-.76.12,0,.28-.26.3-.42s.07-.31.31-.37.33-.29.49-.44l-.18-.22c.19-.17.37-.42.59-.46a.68.68,0,0,0,.58-.5,2.54,2.54,0,0,1,.68-.88,4.65,4.65,0,0,0,1.15-1.74l.28.09c-.07-.47.56-.28.65-.7s.42-.54.65-.8a2.78,2.78,0,0,0,.48-.49,7.84,7.84,0,0,1,1.46-1.84l.1-.15-.64-.42c.45-.21.82-.39,1.2-.55,0,0,.09.08.14.14a2.08,2.08,0,0,1,.73-1,2.67,2.67,0,0,0,.85-1.43h.5l-.19-.21a9.57,9.57,0,0,0,.93-.87c.57-.7,1.07-1.46,1.64-2.16a4.88,4.88,0,0,0,.72-1,3.3,3.3,0,0,1,1-1,4.18,4.18,0,0,0,.73-1s-.11-.17-.17-.28l1.2-.76c.21-.14.09-.24,0-.34a3.48,3.48,0,0,0,.58-.43c.28-.3.51-.64.77-1a18.93,18.93,0,0,0,1.3-1.52c.64-.93,1.42-1.75,2.11-2.63a5.81,5.81,0,0,1,1.41-1.67c.14-.07.18-.3.27-.46s.11-.25.18-.26a.74.74,0,0,0,.55-.68c.06-.44.58-.27.64-.6,0-.07,0-.14,0-.2a.64.64,0,0,1,.16-.29c.26-.22.54-.43.83-.65l-.2-.23A6,6,0,0,0,88.23,52a4.58,4.58,0,0,1,.56-.75c.27-.33.79-.5.72-1.08,0-.08.21-.25.35-.28.3-.07.37-.29.45-.53s.24-.49.33-.74,0-.33.09-.45.14.19.34,0a2.25,2.25,0,0,0,1.17-1.27c0-.15.22-.27.36-.39s.29-.15.37-.27a11.25,11.25,0,0,1,1.53-1.91,2,2,0,0,0,.67-1.58c0-4,0-8,0-12a2.91,2.91,0,0,0,0-.59c-.07-.29-.19-.56-.3-.88h-.54l.24-.48c-.09-.06-.28-.22-.31-.2-.37.33-.19-.14-.29-.2a1.87,1.87,0,0,0-.4-.2c-.1,0-.3.07-.33,0a.85.85,0,0,0-.87-.29,6.13,6.13,0,0,1-.73.11c-.2,0-.4-.13-.57-.09s-.45.15-.7.2a1.6,1.6,0,0,0-1.2.81c-.07.14-.35.23-.06.42a2.11,2.11,0,0,0-.37.3,2.57,2.57,0,0,0-.36,1.3c-.15,1.31-.2,2.62-.22,3.93,0,2,0,4,0,6.06a1.9,1.9,0,0,1-1,1.83,1.34,1.34,0,0,0-.43.39c-.84,1.18-1.93,2.16-2.77,3.34-.13.19-.35.31-.47.5a1.53,1.53,0,0,0-.17.55c0,.15,0,.28-.25.31a1.19,1.19,0,0,0-1,.92,1.3,1.3,0,0,1-.38.52c-.38.33-.8.62-1.18.92l.14.33c-.37,0-.42.42-.72.57s-.46.58-.71.86c-.4.44-.91.79-1.06,1.42a.49.49,0,0,1-.25.28,2.24,2.24,0,0,0-1,1c-.17.25-.29.56-.66.71a1.15,1.15,0,0,0-.57.92c0,.23-.1.28-.32.36s-.33.3-.49.46l-2.17,2.38v.8c-.26,0-.52,0-.68.09s-.25.44-.44.58-.06.33-.08.5l-.6.11c.22.13.33.25.11.37s-.55.12-.65.29a8.64,8.64,0,0,1-1.12,1.3,2.07,2.07,0,0,0,.18.26c-.47,0-.54.4-.76.68a11.67,11.67,0,0,1-1,1.13,7.22,7.22,0,0,0-1,1.18c-.08.14-.3.2-.46.29v.68l.17.13-.17.07H66l-.2.2c0,.27-.23.14-.35.2-.32.17-.81.16-.82.7l.46.2-.4.63c-.28-.33-.32.13-.48.16l-.71.11c-.12.2.12.59-.35.57-.09,0-.24.16-.26.27s.28.2,0,.33a3.75,3.75,0,0,1-.43.16.6.6,0,0,0-.21.14c-.26.32-.5.65-.82,1.07v.52c-.2,0-.4,0-.49.08a5.63,5.63,0,0,0-1,1A17.23,17.23,0,0,1,58,77c-.24.26-.31.68-.73.76.1.58-.38.85-.71,1.06-.55.32-1,1.16-1.84.6,0,0-.12,0-.16.07s-.2.15-.22-.06-.28-.22-.43-.2a3,3,0,0,0-.6.18s-.09-.07-.13-.11l.39-.2c-.6-.3-1.26-.27-1.84-.6A5.76,5.76,0,0,0,50.11,78c-.27-.07-.54.06-.82-.18a2.61,2.61,0,0,0-.84-.3c-.22-.08-.44,0-.68-.1A28.13,28.13,0,0,0,43.46,76c-.25-.06-.5-.18-.74-.25,0-1.73.23-3.46.34-5.19a4.83,4.83,0,0,0-2.34-4.33,5,5,0,0,0-2.8-1c-1.58,0-2.83-1-4.37-1.13s-2.81-1-4.25-1.21a11.69,11.69,0,0,0-3.87,0,3.19,3.19,0,0,0-1.89,1.4A5.82,5.82,0,0,0,22.83,67c0,.92,0,1.84,0,2.76a3.45,3.45,0,0,0-.43-.12,8.79,8.79,0,0,1-2-.57c-.09-.05-.27.08-.42.14s-.16-.23-.25-.24c-.48,0-.87-.53-1.4-.21a.23.23,0,0,1-.18,0c-.05-.55-.53-.08-.67-.27-.28-.4-.49,0-.66,0a22.78,22.78,0,0,0-2.05-1.09c-.69-.3-1.25-.91-2.1-.86l.26-.48-.74-.67c-.23-.22-.58-.42-.66-.7s-.37-.45-.63-.6c.11-.24.2-.5,0-.71s-.08-.6-.5-.56c0-.16.16-.38.1-.46-.48-.64-.24-1.46-.57-2.12a13.21,13.21,0,0,1,.18-3.44c0-.1-.12-.27-.21-.47a1.39,1.39,0,0,0,.36-.4c.08-.2,0-.44.09-.64a5.43,5.43,0,0,1,.4-.8,5.17,5.17,0,0,0,.38-.83c.08-.24.42-.4.64-.6a3.65,3.65,0,0,0,.31-.36A1.15,1.15,0,0,1,13,52.2c.08,0,.16-.07.25-.1a2.61,2.61,0,0,1,.86-.27A9.08,9.08,0,0,1,18,52.2a1.5,1.5,0,0,0,.4.2A52.82,52.82,0,0,1,24.22,54c.82.24,1.7.34,2.48.63,1.2.44,2.48.57,3.64,1.12a6.61,6.61,0,0,0,1,.22c.32.09.69.41.91.33.42-.17.57.14.85.24s.66.11,1,.21c.55.17,1.07.44,1.62.57,1.19.26,2.35.62,3.51,1,.57.18,1.14.42,1.72.56a16.86,16.86,0,0,1,1.91.6c.65.23,1.33.4,2,.6s1.34.54,2,.73c.35.09.68.29,1,.38s.63.53,1,.11l.12.09c.61.57.78.66,1.38.66h.79a.53.53,0,0,1,.17.08l-.2.24a7.3,7.3,0,0,0,1,.37,6.36,6.36,0,0,0,1.23.08c.36,0,.8-.23,1-.09.53.29.7-.25,1.07-.32a3.48,3.48,0,0,0,1-.49l-.19-.39a3,3,0,0,1,.48-.23c.07,0,.15.25.27,0A13.83,13.83,0,0,1,58.22,60c.22-.3.38-.7.8-.84a.37.37,0,0,0,.15-.32c0-.24.11-.27.31-.36s.33-.37.49-.57a5.94,5.94,0,0,1,.72-.95c.29-.25.68-.46.76-.84.13-.57.77-.52,1-.95,0,0,.06,0,.07-.07.23-.89,1.25-1.21,1.52-2.09,0-.12.28-.19.37-.24l0-.32c.37,0,.44-.41.73-.56a1.49,1.49,0,0,0,.68-.68c.14-.35.51-.51.62-.81a1.64,1.64,0,0,1,.44-.6c.48-.56,1-1.1,1.45-1.66a.5.5,0,0,0,0-.13,5.84,5.84,0,0,1,.37-.6l.17.17c.2-.32.6-.45.68-.87s.62-.47.77-.84a1,1,0,0,0,.1-.46c-.07-.56-.09-.57.43-.8s1.3-.4,1.28-1.28c0,0,.08-.09.13-.14.23-.2.27-.66.74-.54.25-.52.8-.75,1.15-1.17s.67-.84,1-1.33c0-.36,0-.36.4-.78a4.21,4.21,0,0,1,.81-.71c.28-.17-.18-.4.15-.59a9.92,9.92,0,0,0,1.22-.91l-.23-.26.39-.18-.29-.34.69.19v-.79l1.2-.57v-.94c.44,0,.91.09,1-.52.49-.15.55-.72.95-1s.35-.65.75-.74a1.66,1.66,0,0,1,1-1.16.92.92,0,0,0,.34-.34c.27-.62.85-1,1.26-1.46l-.22-.26c.72.09.53-.88,1.18-.88l1.1-1.31L88,25.33v-.7l.38.28c.24-.31.63-.44.57-.94,0-.17.23-.35.31-.55a.52.52,0,0,1,.43-.36,1.77,1.77,0,0,0,1.23-1l-.2-.11-.4-.15.75-.24.2-.2c.38-.29.9-.5,1.12-.88s.8-.64,1-1.13c.09-.22.24-.56.41-.58.46-.08.53-.54.84-.76a5,5,0,0,0,.86-1,.81.81,0,0,0,0-.2l-.34-.23.38-.65.3.51a3.52,3.52,0,0,0,.37-1.75l.32.29C96.49,14.63,96.35,14.38,96.42,14.3ZM74.89,24.61c-.11.25-.4.43-.63.66l.15.18A5.24,5.24,0,0,0,72.87,27a5.32,5.32,0,0,1-.67.89.55.55,0,0,1-.3.2,7.11,7.11,0,0,1-3.46,0,2.57,2.57,0,0,0-.82.11c-.06-.08,0-.36-.29-.33-.17,0-.35-.09-.53-.1-.75,0-1.4-.44-2.16-.48A9.57,9.57,0,0,1,63,26.88c-.94-.23-1.9-.43-2.83-.72s-1.77-.25-2.58-.6c-1.27-.54-2.67-.6-3.93-1.14a1.62,1.62,0,0,0-.58,0,1,1,0,0,1-.62-.18,1.3,1.3,0,0,0-1-.22c-.23.05-.4-.09-.6-.17a9.45,9.45,0,0,0-1.8-.58c-.18,0-.37.2-.6-.09s-.54,0-.69-.17c-.36-.37-.63,0-1,0-.08-.34-.46-.31-.63-.47-.35-.36-.5.21-.76.06s0-.64-.47-.29a.33.33,0,0,1-.13.07c-.51-.62-1.36-.32-2-.73-.06-.05-.26.09-.38.14a2.7,2.7,0,0,0-.22-.33c-.46.2-.83-.07-1.23-.2a.81.81,0,0,0-.31,0c0-.33.2-.66.09-.84a1,1,0,0,1-.15-.81,3,3,0,0,1,.55-1.13c.25-.3.24-.77.64-.94s.47-.5.71-.74.67-.42.88-.78a1.43,1.43,0,0,1,.34-.31l-.26-.31H44.6l-.23-.29c.16-.4.43.25.65-.07s.4-.26.63-.39a.49.49,0,0,0,.63.09,2,2,0,0,1,.73-.13c.31,0,.6.44.93,0a5.24,5.24,0,0,1,.92.31c.33.17.68-.07,1,.17a3,3,0,0,0,1,.28c.68.17,1.35.43,2,.58s1.42.33,2.12.55c.16.05.39-.1.59-.15.1.13.25.38.3.37.3-.11.51.46.86.08.12-.13.5-.24.53.22,0,0,.15.09.23.11.62.15,1.25.29,1.87.45a1.68,1.68,0,0,1,.34.2c0-.16.09-.28.14-.4s.12,0,.13,0a.5.5,0,0,0,.52.51h0c.64,0,1.23.4,1.89.4.13,0,.27.18.4.17s.25-.14.4-.23l.15.4c.12-.06.33-.19.37-.15.76.68,1.84.42,2.64,1a.4.4,0,0,0,.37,0c.15-.15.21-.1.36,0a1.52,1.52,0,0,0,.8.4,4.49,4.49,0,0,1,1.76.45l.19-.45c.53.81,1.43.74,2.2,1s1.59.42,2.4.6a1.61,1.61,0,0,1,.94.78,1.09,1.09,0,0,1,.11,1.23c-.07.14.08.38.14.64a.89.89,0,0,0-.76.47Z"/></svg>