<svg id="Layer_1" data-name="Layer 1" xmlns="http://www.w3.org/2000/svg" viewBox="0 0 438.22 462.35"><defs><style>.cls-1{fill:#f0ebe7}</style></defs><path class="cls-1" d="M165.82,229.8c-.29,0-.68,0-.86.16a2.89,2.89,0,0,0-.61,1,1.16,1.16,0,0,1-1.15.67,22.19,22.19,0,0,1-6.85-.36,2.28,2.28,0,0,0-.88.12,44.09,44.09,0,0,1-8.12.27c-.46,0-.69-.34-.74-.79-.12-1-.26-2.06-.34-3.1q-.27-3.82-.5-7.65-.59-9.57-1.16-19.14c-.13-2.22-.31-4.45-.38-6.67,0-1.09-.28-2.24.5-3.21-.27-.5.78-1.53-.63-1.59-.11,0-.28-.35-.29-.55-.36-5.09-.69-10.19-1-15.29-.09-1.27-.21-2.55-.33-3.82a2.73,2.73,0,0,1,.5-1.77,14.92,14.92,0,0,1,3.1-3.29c.26-.22.51-.43.29-.75a.85.85,0,0,0-.62-.27,7.44,7.44,0,0,0-1.41.17c-.18,0-.45.29-.44.42.1,1-.67,1.48-1.34,2.43a38.71,38.71,0,0,1-.64-6.95,14.75,14.75,0,0,0,0-1.88c-.53-4.13-.66-8.28-.86-12.43-.1-2.15-.38-4.29-.52-6.44-.21-3.35-.37-6.7-.58-10,0-.88-.21-1.75-.29-2.62s.19-1.27,1.22-1.3a9.73,9.73,0,0,1,2.16.06,35.29,35.29,0,0,0,6.66.07c4.64,0,9.27-.11,13.9-.17a5.83,5.83,0,0,1,.72.06.94.94,0,0,1,.91.93c0,.32,0,.64,0,1,.13,3,.28,6.06.38,9.1.22,6.39.4,12.78.63,19.18.24,6.63.53,13.25.79,19.88.06,1.68.08,3.36.13,5,0,.53.11,1.06.16,1.61.87-.24,1-1,1.23-1.49q3.93-7.95,7.8-15.93,9.08-18.63,18.14-37.26c.18-.36.38-.7.53-1.07a1.48,1.48,0,0,1,1.48-1c.4,0,.8,0,1.2,0h13c.4,0,.8,0,1.2,0,1.12.08,1.3.25,1.41,1.47.34,3.66.65,7.33,1,11,.41,4.45.84,8.9,1.25,13.36q.28,3.1.55,6.21l1.59,19.1c.15,1.75.33,3.5.52,5.25,0,.11.17.29.26.29a.51.51,0,0,0,.4-.2c.29-.56.56-1.14.81-1.73Q226.31,164,233,148.09c2.93-6.92,5.82-13.84,8.77-20.75.92-2.17.58-2.25,3.31-2.25,6.15,0,12.31,0,18.47,0a39.21,39.21,0,0,1,4.05.31.82.82,0,0,1,.69,1.06,12.32,12.32,0,0,1-.68,1.78c-2,4.36-4,8.69-6,13.06-2.88,6.32-5.7,12.67-8.57,19q-4.95,10.91-10,21.79c-1.86,4-3.82,8.06-5.65,12.13C232.19,205.8,227,217.4,221.78,229c-1.47,3.24-.69,2.74-4.39,2.77-4.72,0-9.44,0-14.16,0-.56,0-1.12,0-1.68,0-1,0-1.15-.16-1.37-1.26a7.38,7.38,0,0,1-.16-.94c-.37-3.74-.71-7.48-1.09-11.21-.4-3.89-.84-7.78-1.24-11.68-.39-3.73-.75-7.47-1.13-11.2q-.63-6.09-1.27-12.16c-.11-1.11-.17-2.23-.28-3.34,0-.47,0-1.07-.6-1.17-.19,0-.55.49-.72.82-1.81,3.47-3.58,7-5.38,10.44l-18.79,36.42a3.48,3.48,0,0,0-.22.43,2.64,2.64,0,0,1-2.88,2c-.73-.07-.64.53-.66,1Zm29.64-81.56a1.63,1.63,0,0,0,1.55-.32c.47-.33.71-.62.21-1.1a.52.52,0,0,1-.15-.4c.08-.34.14-.69-.25-.8s-.76.19-.87.6c-.18.68-.29,1.37-.43,2.06-1,.34-1,1.32-1.41,2a.82.82,0,0,0,.55,1.1c.57.06.55-.42.59-.79C195.35,149.84,196.15,149.1,195.46,148.24Zm6.78-6.64c.47.3.68,1.07,1.55.68a4.65,4.65,0,0,1,2.05-.38c1.1,0,1.3-.72,1.57-1.45.4-1.1-1.41-1-1.17-2.08,0-.11-.29-.37-.48-.42a1.58,1.58,0,0,0-1.64.69c-.62,1-1.22,2-1.84,3-.37-.34-.78-.57-1.25-.23-.88.62-1.76,1.26-2.61,1.93-.13.1-.09.41-.14.63.29,0,.64.22.84.11.78-.45,1.39-1.15,2.44-1.19C202.15,142.9,202.29,142.2,202.24,141.6Zm-9.34,9c-.35-.31-.59-.65-.91-.76s-.58.16-.77.36a.89.89,0,0,0-.12,1.28c.25.29.62.66,1,.35A4.75,4.75,0,0,0,192.9,150.6Zm-12.6,14.32a2.18,2.18,0,0,0,.41-.4c0-.07-.06-.3-.15-.37-.35-.26-.64-.71-1.18-.55-.14.05-.33.06-.4.15a.52.52,0,0,0,0,.42A1.21,1.21,0,0,0,180.3,164.92Zm61.48,13c-.13-.09-.31-.3-.47-.29a4,4,0,0,0-1.12.27c-.17.07-.4.29-.41.45a.79.79,0,0,0,.36.53C240.91,179.33,241.69,178.9,241.78,177.87Zm-19.9,11.35a1.26,1.26,0,0,0,1.13-1,.64.64,0,0,0-.29-.53c-.53-.24-.85.12-1.14.5a.73.73,0,0,0-.14.18c-.05.2-.19.47-.11.6S221.71,189.14,221.88,189.22Zm21.39-19.65c-.34.31-.68.47-.71.68a.92.92,0,0,0,.38.72c.29.21.79-.14.77-.55C243.7,170.19,243.48,170,243.27,169.57Zm-99-41.85a.86.86,0,0,0-.9-.92c-.15,0-.39.42-.36.47a3.52,3.52,0,0,0,.79.75C143.92,128.06,144.18,127.81,144.32,127.72ZM156.54,229.3c-.48-.3-.72-.58-.91-.55s-.37.36-.55.56c.16.14.32.4.49.4S156,229.53,156.54,229.3ZM245.43,165a2,2,0,0,0-.08-.36c-.12,0-.31,0-.36,0a4.74,4.74,0,0,0-.45.79c0,.05,0,.19.06.19s.34,0,.41,0A4.54,4.54,0,0,0,245.43,165ZM221.34,206.7a7.6,7.6,0,0,0-.82-.61.42.42,0,0,0-.36.14.45.45,0,0,0,.37.66C220.7,206.93,220.91,206.81,221.34,206.7Zm-73.9-80.16c-.25-.29-.35-.51-.53-.59a.44.44,0,0,0-.68.33c0,.14.17.46.28.47A3.72,3.72,0,0,0,147.44,126.54ZM292.21,199H271.34c-2.32,0-2.4.09-2.48,2.41a13.76,13.76,0,0,0,.38,4.28,9.16,9.16,0,0,0,6.1,6.55,17.37,17.37,0,0,0,8.28.69,23.91,23.91,0,0,0,12.11-5.36c.5-.41,1-.83,1.47-1.24s.83-.46,1.38.17c.11.12.21.24.31.37q5,6.48,9.91,13c.75,1,.72,1.14-.21,2a42.22,42.22,0,0,1-16.32,8.83,49.31,49.31,0,0,1-17.54,2,35.83,35.83,0,0,1-13.39-3.4c-8.82-4.29-13.62-11.45-14.4-21.12a67.75,67.75,0,0,1,5.81-33.88,43.39,43.39,0,0,1,11.87-15.76,37.51,37.51,0,0,1,8.39-5c.65-.3.95-.16,1,.5s-.06,1.08.82,1a15.19,15.19,0,0,1,1.64.17c1.53,0,1.53,0,1.69-1.46a3.26,3.26,0,0,1,.1-.95,2,2,0,0,1,.69-.88,6.24,6.24,0,0,1,2-.77c2.13-.28,4.28-.45,6.43-.63a4.38,4.38,0,0,1,1.18.14c1.06.21,1.2.37.75,1.41a1.87,1.87,0,0,0,0,1.6.76.76,0,0,0,1.16.41,29.86,29.86,0,0,0,3.29-2.37,1.63,1.63,0,0,1,1.7-.48c1.38.39,2.77.75,4.13,1.19a1.8,1.8,0,0,1,1.4,2.19,6.65,6.65,0,0,1-.22,1.65,2.81,2.81,0,0,0-.23,2.05,2.06,2.06,0,0,1-.13,1.39c-.34.6-.5.91.29,1.27.24.11.15.87.27,1.31a2,2,0,0,0,.38.52c.21-.21.51-.37.61-.62.19-.46-.47-1.38.74-1.24a5.61,5.61,0,0,0,.34-1.56c-.14-1.62,1.25-2.44,1.82-3.69a.9.9,0,0,1,.84-.18,21.94,21.94,0,0,1,3.23,2,25.82,25.82,0,0,1,8.41,13.92,35.66,35.66,0,0,1,.51,14.51,3,3,0,0,1-.54,1.54c-.66.7.2,1.8-.75,2.36-.08,0,0,.46.07.65a3.24,3.24,0,0,1,0,2.74,30.73,30.73,0,0,0-.65,4c-.3,1.71-.45,1.87-2.15,1.88-5.59,0-11.19,0-16.79.06Zm-8.38-15.5v0h4.55c2,0,4,0,6,0,1.24,0,1.34-.18,1.57-1.31a13.52,13.52,0,0,0-.09-5.7c-.78-3.57-2.8-6-6.53-6.79a12.25,12.25,0,0,0-10.18,2.24c-3.64,2.68-5.46,6.56-6.72,10.75-.15.49.21.73.66.76.63.05,1.27.06,1.91.06Zm-9-11.26a2.07,2.07,0,0,0-1.36-2,.85.85,0,0,0-1.09.62c-.22,1.22.35,2.44,0,3.67,0,.12.4.5.66.54a1.13,1.13,0,0,0,.81-.32c.33-.31,0-.47-.22-.7-.41-.47-.34-.84.1-.82C274.59,173.28,275,173.07,274.86,172.24Zm22.38-8.3a3.66,3.66,0,0,0,.27.51c.1.11.27.29.36.26a.76.76,0,0,0,.48-.34,16.11,16.11,0,0,0,.4-1.83,1.4,1.4,0,0,0-.06-.67c0-.11-.25-.16-.39-.22s-.21,0-.22,0Zm-23.44-3.31a5.39,5.39,0,0,0,.23,1.25c.1.19.6-.48.66-1,0-.3,0-.61.08-.91s.72-.23.29-.6c-.11-.1-.66.09-.82.29A3.68,3.68,0,0,0,273.8,160.63Zm1.9,8-.64,1.36c.2.07.41.22.6.2a.48.48,0,0,0,.43-.65A7,7,0,0,0,275.7,168.62Zm23.24-1.25c-.15.39-.33.65-.27.74a1.7,1.7,0,0,0,.68.54c.07,0,.3-.28.45-.43ZM165.82,229.8c0,.46-.08.92-.11,1.39a.38.38,0,0,0,.57.37,1.91,1.91,0,0,0,.56-.38c.25-.38.67-.86.58-1.18-.16-.57-.77-.23-1.2-.21a4,4,0,0,0-.46.08ZM306.09,415.46a55.78,55.78,0,0,1,1.2-10.71c1-5.42,2.09-10.81,3.2-16.2A51.12,51.12,0,0,1,314,377.4c.9-1.94,2-3.78,3.13-5.63a6.72,6.72,0,0,1,1.28-1.39c.61-.56,1.47-.84,1.63-1.87.06-.38.61-.71,1-1,1.07-.82,2.17-1.61,3.26-2.42.43-.31.85-.43,1.27,0s.77-.18,1.05,0,.15.59.32.84a.52.52,0,0,0,.94-.07c.34-1,1.56-1.41,1.52-2.63,0-.22.37-.49.62-.67a3,3,0,0,1,.88-.36,30.12,30.12,0,0,1,14.46-.55,18.8,18.8,0,0,1,9.69,5.41c.42.44,1,1.13,1.42,1.09.78-.08.52-1,.66-1.6.3-1.24.55-2.49.81-3.75a1.06,1.06,0,0,1,1.17-.94c.48,0,1,0,1.44,0h18.7c.95.05,1.17.29,1,1.15-.1.63-.22,1.26-.35,1.89-1.1,5.39-2.21,10.77-3.29,16.17a2,2,0,0,1-.92,1.58c-.56.3-.51.72-.16,1.18a1.26,1.26,0,0,1-.11,1.75,3.82,3.82,0,0,0-.89,3.53c.09.67-.22.84-.75.93a3.89,3.89,0,0,0-.91.21.79.79,0,0,0-.25,1.21,1.9,1.9,0,0,1,.25,2.56c-.53.87-.87,1.52.18,2.2a.62.62,0,0,1,.1.6,8.49,8.49,0,0,0-.4,3.46,4.4,4.4,0,0,1-.09,1c-.21,1.1-1.08,1.95-.88,3.28a10.92,10.92,0,0,1-.5,3.53c-.9,4.46-1.84,8.91-2.72,13.37s-1.71,8.93-2.55,13.39a53.15,53.15,0,0,1-4.61,14.56c-5.44,10.71-14.12,17.08-25.89,19.29a50.47,50.47,0,0,1-21.4-.53,41,41,0,0,1-4.54-1.53.66.66,0,0,1-.38-1c.46-1,0-1.05-.83-.84-.29.07-.68-.31-1-.47s-.66-.4-.87-.31c-1.36.59-2-.36-2.86-1.08a19.69,19.69,0,0,1-3.44-2.88,13,13,0,0,0-1.12-1.22c-.25-.26-.44-.55,0-.75.24-.13.76-.15.87,0,.94,1.31,1.89,1,3,.22.43-.29.79-.41.72-1s.36-.64.7-.85a1.2,1.2,0,0,0,.46-1.83,1.17,1.17,0,0,1,.26-1.69c.48-.41.92-.88,1.38-1.32a1.45,1.45,0,0,1,1.27-.55c.65.11,1-.08,1.15-.83a2.28,2.28,0,0,1,.63-1.23c1.45-1.37,3-2.69,4.44-4a.8.8,0,0,1,1.25.09c.1.12.22.22.33.34A13.73,13.73,0,0,0,326,449.73a18,18,0,0,0,6.14-.86c5.34-1.9,8.47-5.79,10-11.1a31.6,31.6,0,0,0,.88-4c.11-.71.63-1.47,0-2.21-.57.41-1.16.81-1.71,1.24a21.42,21.42,0,0,1-16.91,4.32,22.58,22.58,0,0,1-11.07-4.76,19.12,19.12,0,0,1-6.68-10.52A24.69,24.69,0,0,1,306.09,415.46Zm24.41-7.94a25,25,0,0,0,0,2.87c.32,2.54,1.41,4.63,4,5.48,3.69,1.22,8.81.4,11.21-4a29,29,0,0,0,2.1-4.81,71.45,71.45,0,0,0,2.94-14,24.25,24.25,0,0,0,.06-5.25A5.82,5.82,0,0,0,345,382.2a21.17,21.17,0,0,0-2.39,0,7.87,7.87,0,0,0-6.28,3.45,24.45,24.45,0,0,0-3.21,6.91c-.36,1.12-.62,2.27-.88,3.42s-.42,2.36-.73,3.51A32.38,32.38,0,0,0,330.5,407.52Zm-8.17,11c-.1,0-.38,0-.55.08a3.45,3.45,0,0,1-2.46.52c-.07,0-.25.2-.26.32a.41.41,0,0,0,.23.32,1.36,1.36,0,0,1,1.18.61c.82,1.15.85,1.12,1.78-.06.2-.25.46-.44.66-.69A.72.72,0,0,0,322.33,418.5Zm.32-2.78c-.11.13-.33.28-.39.47a1.12,1.12,0,0,0,1.23,1.28.5.5,0,0,0,.33-.29A1.2,1.2,0,0,0,322.65,415.72Zm4.81-12.24a7.48,7.48,0,0,0,.74,1.27c.13.15.54.05.82.07a1.72,1.72,0,0,0-.06-.65,5.76,5.76,0,0,0-.63-1,3.13,3.13,0,0,0-.47-.42ZM325.93,402c.45-.11.91-.2,1.35-.34a.42.42,0,0,0,.19-.34.58.58,0,0,0-.26-.34c-.65-.4-1.07-.3-1.58.36a.5.5,0,0,0-.06.43C325.62,401.9,325.8,402,325.93,402ZM318,421.84c0,.33-.06.54,0,.64a4.32,4.32,0,0,0,.63.57c.17-.23.48-.45.48-.68a2.76,2.76,0,0,0-.31-1.09.51.51,0,0,0-.4-.2.47.47,0,0,0-.33.25A2.05,2.05,0,0,0,318,421.84Zm10.58-26.93-.52.67c.24.11.51.36.71.31s.31-.39.46-.6Zm-3.71,19.5a6.65,6.65,0,0,0,.49-.73c.05-.11,0-.29-.07-.43-.21.05-.48,0-.6.17a1.3,1.3,0,0,0-.22.66C324.5,414.15,324.7,414.25,324.91,414.41Zm27.59,1a2,2,0,0,0-.5,0c-.11,0-.19.15-.28.23a6.18,6.18,0,0,0,.79.45c.1,0,.32-.07.4-.17a.38.38,0,0,0,0-.37C352.79,415.49,352.61,415.48,352.5,415.44Zm-23.15-16.21a2.86,2.86,0,0,0-.7-.1c-.1,0-.25.3-.21.35s.33.36.44.32S329.14,399.51,329.35,399.23Zm-18.72,59.22.47-.2a1.69,1.69,0,0,0-.37-.42c-.06,0-.24.1-.36.16ZM117.47,335.84c-3,0-6.08,0-9.12,0-1.09,0-1.21.15-1.51,1.15-.06.23-.13.46-.17.7-.83,4.15-1.64,8.3-2.47,12.45-.29,1.48-.62,3-.89,4.46-.06.34-.14.68.39.93.71.34.7.62.18.95s-.86.36-1,.89,0,.75.54.79a1.45,1.45,0,0,1,.68.14.61.61,0,0,1,.16.53,1.68,1.68,0,0,1-.81.47c-.61.1-.8.4-.73,1,.2,1.6-.5,3-1,4.49-.24.73-.1,1,.39,1.33a.84.84,0,0,1-.15.53c-.71.07-.79.55-.53,1a2,2,0,0,1-.18,2.25,6.47,6.47,0,0,0-1,2.66c-.28,1.47-.26,3-1.24,4.3a4,4,0,0,0-.46,1.6q-1.25,6.23-2.47,12.45-2.75,13.86-5.51,27.72-2.2,11-4.43,22.07a6.2,6.2,0,0,0-.13.95.68.68,0,0,0,.64.83c.64.06,1.28.08,1.91.08h13.68c1.84,0,3.68,0,5.51,0,1.22,0,1.35-.16,1.62-1.31.17-.7.31-1.4.45-2.1q2.17-10.92,4.35-21.84,2.35-11.75,4.73-23.48a20,20,0,0,1,1.73-5.21,11.06,11.06,0,0,1,10.88-6.43,6.38,6.38,0,0,1,6,4.31,9.49,9.49,0,0,1,.52,5.18c-1,4.85-1.88,9.72-2.84,14.57-.58,2.88-1,5.78-1.68,8.65-1.21,5.12-2.16,10.31-3.14,15.49-.61,3.2-1.6,6.35-1.58,9.66a2.23,2.23,0,0,1-.25.66c-.57,1.68-.51,1.78,1.16,1.83.56,0,1.12,0,1.68,0,4.95-.05,9.91.17,14.86-.21,1.18-.09,2.38.17,3.57.19s1.46-.11,1.72-1.43q2.17-10.8,4.34-21.6,2.52-12.56,5.08-25.11a47.85,47.85,0,0,0,1.17-15,20.9,20.9,0,0,0-4.75-11.57c-4.11-4.82-9.55-6.88-15.75-6.81A28.61,28.61,0,0,0,126,365.8a8.94,8.94,0,0,1-1.24.7c-.08,0-.39-.21-.43-.37a1.89,1.89,0,0,1,.1-.69q2.39-11.87,4.76-23.72c.33-1.65.66-3.29,1-4.94.12-.63-.09-.87-.74-.92-.4,0-.8,0-1.2,0H117.47ZM79,368.85c-3,0-6.07,0-9.11,0-1.11,0-1.19-.11-1.41-1.21-.27-1.41-.42-2.85-.81-4.22a8.94,8.94,0,0,0-5.17-6,6.12,6.12,0,0,0-1.59-.5c-6-.72-11.48.41-15.8,7.5a32.77,32.77,0,0,0-3,7.3,160.25,160.25,0,0,0-4.28,17.68Q36.55,396,35.6,402.65c-.37,2.61-.47,5.25-.6,7.88a12,12,0,0,0,.85,4.69,8.93,8.93,0,0,0,6.45,5.9,13.55,13.55,0,0,0,11.83-2.26A18.92,18.92,0,0,0,59.67,412c.44-.85.76-2,1.47-2.39s1.84-.25,2.79-.26c3.27,0,6.55,0,9.82,0a8.56,8.56,0,0,1,2.38.24,4.84,4.84,0,0,0,2.32.23,3.05,3.05,0,0,1,1.81.46,1.55,1.55,0,0,0,2-.24c1-1.23,2.34-.63,3.56-.6.13,0,.33.33.35.53a1.71,1.71,0,0,1-.17.68,56.89,56.89,0,0,1-10.34,18.52,38.92,38.92,0,0,1-22,13.12c-7.88,1.64-15.77,1.6-23.4-1.18-11.15-4-17.83-12-19.93-23.72a30,30,0,0,1-.35-7.41,175.54,175.54,0,0,1,3.45-22.46c1.07-5.32,2.11-10.65,3.47-15.91a78.8,78.8,0,0,1,3.4-10.46,40.76,40.76,0,0,1,6.08-10.55,42.58,42.58,0,0,1,9.05-8.47,42,42,0,0,1,11.2-5.35A45.76,45.76,0,0,1,62.69,335a38.36,38.36,0,0,1,10.1,1.9,28.47,28.47,0,0,1,18.26,18c.52,1.42.88,2.9,1.28,4.36a2.23,2.23,0,0,1-.47,2.22,2.5,2.5,0,0,0-.62,2,3.6,3.6,0,0,1-1,2.82,2.27,2.27,0,0,0-.82,1.84c0,.19-.36.55-.59.59a15.41,15.41,0,0,1-2.15.11ZM75.72,413.4c-.23.19-.34.27-.44.37s-.28.37-.44.53c-.69.74-.66,1.28.25,1.69a1,1,0,0,1,.75,1c0,.54,0,1.08,0,1.62a.28.28,0,0,0,.18.12c.07,0,.2,0,.22,0,.58-1,1.17-2,1.68-3.06.07-.13-.3-.68-.47-.69C76.45,415,76,414.32,75.72,413.4Zm2.73-.84v0a3.46,3.46,0,0,0,.72,0c.27-.06.72,0,.6-.49a.84.84,0,0,0-.44-.49c-.55-.28-1.3,0-1.75-.63,0,0-.3,0-.37.1-.24.3-.59.62-.61.94,0,.54.56.44.9.52A3.76,3.76,0,0,0,78.45,412.56ZM63.81,350.71c.44,0,.74-.33.79-1a.49.49,0,0,0-.17-.4.43.43,0,0,0-.43.07,6.09,6.09,0,0,0-.49,1C63.5,350.47,63.71,350.61,63.81,350.71Zm3.4-4c-.11-.1-.22-.27-.33-.27a1.05,1.05,0,0,0-.88,1.17.24.24,0,0,0,.15.16C66.53,347.88,67.22,347.18,67.21,346.73Zm134.24,90c-1,.08-1.46.8-2,1.26a23.66,23.66,0,0,1-8.93,4.48,24.72,24.72,0,0,1-11.63.22,14,14,0,0,1-2.48-.85c-.22-.09-.39-.44-.49-.7a3.87,3.87,0,0,1-.13-.84,3.45,3.45,0,0,1-.81.37,2.54,2.54,0,0,1-1.36,0,16,16,0,0,1-3.14-1.68,21.26,21.26,0,0,1-8.66-16.39,30.15,30.15,0,0,1,1.46-11.58,22.82,22.82,0,0,1,12.49-13.81,35.52,35.52,0,0,1,15.81-3.31c5.11.08,10.21-.08,15.31-.06l1.44,0a1,1,0,0,0,1.06-.79,20.24,20.24,0,0,0,.93-5.88,6.44,6.44,0,0,0-3.89-5.86,10.28,10.28,0,0,0-1.34-.51c-.34-.13-.42-.35-.43-.73,0-.93-.52-1.28-1.26-1-.14.06-.33.1-.41.21-.66,1-1.7,1-2.74,1.12a39.61,39.61,0,0,0-4.5.63,19.11,19.11,0,0,0-8.65,4.44c-.24.22-.46.45-.7.66-.6.51-.85.5-1.36-.16-1.88-2.48-3.74-5-5.62-7.47-1.48-2-3-4-4.45-5.95-.91-1.22-.9-1.27.3-2.33a33,33,0,0,1,10.87-6.42,47.26,47.26,0,0,1,12.63-2.56,59.54,59.54,0,0,1,11,.07,32.93,32.93,0,0,1,14.66,4.79A20,20,0,0,1,233.73,381a34.67,34.67,0,0,1-.83,11.41c-2.13,10.8-4.33,21.59-6.5,32.39-1,5.08-2,10.16-3,15.24-.11.55-.24,1.09-.36,1.63a1,1,0,0,1-1,.85c-.4,0-.8.05-1.2.05h-18.7c-1.42-.07-1.63-.32-1.35-1.79.19-1,.44-2,.64-3.05A8.82,8.82,0,0,0,201.45,436.72Zm-19-16.53a2.1,2.1,0,0,1-.4.56c-.4.3-.84.64-.38,1.11s.68-.14,1-.34l.19-.13c.65-.52.56-.73-.48-1.14,0-.15-.07-.31-.12-.46-.27-.71-.27-.75.49-.83a.57.57,0,0,0,.61-.54c.28-1.28-.32-2.46-.45-3.7,0-.1-.38-.26-.57-.24a.71.71,0,0,0-.54.37c-.35,1.29.34,2.75-.67,4-.1.12.1.64.3.82A4.24,4.24,0,0,0,182.4,420.19Zm16.84-10.78v-.2c-2.23.12-4.48.09-6.68.4-3.79.54-6.5,2.59-7.59,6.36-1.36,4.73.87,7.81,5.33,8.54a11,11,0,0,0,4.73-.35,13.19,13.19,0,0,0,8.8-6.8,24.14,24.14,0,0,0,2-6.85c.13-.71-.14-1.07-.88-1.09C203.06,409.39,201.15,409.41,199.24,409.41Zm8.24-31.89c-.17-.09-.4-.33-.55-.28a4.81,4.81,0,0,0-1.26.58c-.3.2-.33,1-.08,1.05a1.33,1.33,0,0,0,.82-.17,4.79,4.79,0,0,0,1-.68C207.46,378,207.44,377.74,207.48,377.52Zm-28.54,59.86c-.11.09-.38.17-.45.34s.32.82.86.89a.6.6,0,0,0,.47-.35C179.93,437.75,179.59,437.4,178.94,437.38Zm58-34.32a102.94,102.94,0,0,1,2-11.56c1.18-5.86,2.32-11.72,3.47-17.59q1-5.06,2-10.1a5.73,5.73,0,0,1,.42-1.37,1.11,1.11,0,0,1,.71-.52,6.79,6.79,0,0,1,1.43-.07h18.23c1.82,0,1.83,0,1.53,1.94-.19,1.26-.46,2.51-.65,3.77a.74.74,0,0,0,.25.54c.05.06.3,0,.43-.11a7.25,7.25,0,0,0,.76-.58A27.93,27.93,0,0,1,285.2,361c9.1-.11,17.05,5.51,19.21,14.93a.89.89,0,0,1-.49,1.17c-.28.14-.51.44-.8.49-1.27.25-1.81.88-1.36,2.2.16.47-.28.51-.59.47-.51-.07-.93-.16-1,.57a2.75,2.75,0,0,1-.52,1c-.42.63-.43.68.2,1,.42.21.87.39,1.32.59.16.55-.31.81-.55,1.18s-.65.17-1,.2c-.17,0-.44.48-.42.72.07.73-.23,1-.93,1a3.48,3.48,0,0,0-.72,0c-.12,0-.31.22-.29.27a.94.94,0,0,0,.35.55.92.92,0,0,0,.67,0c.45-.17.74-.14.82.42,0,.24.21.45.23.68a1.83,1.83,0,0,0,.93,1.5c.52.33.71,1.18,1,1.8.17.32.57.36,1,.12a.5.5,0,0,0,.16-.8,4.6,4.6,0,0,0-1.05-.92c-.4-.24-.64-.55-.5-1,.08-.21.44-.35.7-.46a3.29,3.29,0,0,1,.91-.23c1.15-.14,1.26-.26,1.2-1.48,0-.13,0-.37.09-.39a1.2,1.2,0,0,1,.67-.06,1,1,0,0,1,.6,1.17c-.21,1.33-.44,2.66-.69,4-.77,4.08-1.54,8.16-2.35,12.23q-2.73,13.74-5.51,27.47c-.66,3.28-1.31,6.57-2,9.86-.2,1-.44,1.16-1.45,1.24H272.67a2.22,2.22,0,0,1-.94-.12,1,1,0,0,1-.53-.67,7.08,7.08,0,0,1,.19-1.65q3.51-17.61,7-35.22c.72-3.6,1.51-7.19,2.17-10.8a16.24,16.24,0,0,0,.28-6.41,6.87,6.87,0,0,0-6.83-5.54,11.15,11.15,0,0,0-10.32,6.19,18.34,18.34,0,0,0-1.81,5.18q-3.14,15.62-6.26,31.22-1.65,8.22-3.32,16.43c-.23,1.13-.41,1.38-1.31,1.36-4.63-.08-9.27.36-13.89-.24a8,8,0,0,0-4,.09,5,5,0,0,1-1.9.12c-2.12-.05-2.56,0-2-2.42,1.12-5.22,2.07-10.48,3.13-15.71.65-3.19,1.39-6.35,2.07-9.54.15-.7.19-1.42.32-2.13.5-2.67,1-5.33,1.53-8A8.93,8.93,0,0,1,237,403a7,7,0,0,0,.18.91.49.49,0,0,0,.35.24c.5,0,.59-.45.63-.82s-.2-.55-.57-.48A4.21,4.21,0,0,0,237,403.06Zm6.73-9.2c.35.33.7.68,1.24.52.28-.09.79-.21.79-.33,0-.53-.4-.26-.67-.25-.47,0-.94.08-1.41.12.46-.57,1.5-.72,1.24-1.82-.08-.36.27-.53.62-.51a4,4,0,0,1,.46.13c1.06.23,1.2.17,1.14-.75a10.08,10.08,0,0,1,.6-4.31,6.64,6.64,0,0,0,.33-2.1c0-.5.36-1.22-.29-1.46-.27-.1-.76.42-1.16.65s-.73.12-.9-.35c-.05-.14-.11-.37-.21-.4a1.8,1.8,0,0,0-2.43,1.95,5.87,5.87,0,0,1-.52,2.73c-1.27.83-1.12,2.37-1.77,3.52-.13.23.06.75.25,1a4.27,4.27,0,0,0,.91.76c-.76.53-.63,1.38-.74,2.13,0,.08.33.31.47.29a.92.92,0,0,0,.85-1,6.69,6.69,0,0,0-.26-1.14Zm52.26,4c-.35-.33-.59-.76-.88-.8-.9-.14-1-.66-.85-1.38a1,1,0,0,0,0-.47c0-.14-.19-.38-.23-.37-.22.06-.51.14-.6.3a10.36,10.36,0,0,0-.89,4.11,2.56,2.56,0,0,0,.35,1.12.78.78,0,0,0,1.23.16,6,6,0,0,1,1.11-1.19A4.66,4.66,0,0,0,296,397.83Zm1.62-3.53c.38-.16.77-.21.92-.42a1.81,1.81,0,0,1,1.56-.9.75.75,0,0,0,.21-.59,6.08,6.08,0,0,0-.9-1.06c-.45-.43-.67.21-1,.25s-.46-.08-.69-.06a1.89,1.89,0,0,0-.55.19c.1.19.16.49.32.56,1.34.61.2.61-.18.85-.17.11-.37.45-.31.56S297.34,394.08,297.58,394.3Zm-47.26-16c-.09-.1-.18-.28-.28-.29a1.14,1.14,0,0,0-1.06,1c0,.12.28.41.41.39A1,1,0,0,0,250.32,378.29Zm-14.12,45c0-.07,0-.18,0-.21a12.79,12.79,0,0,0-1-1c-.06,0-.28.06-.41.13a.27.27,0,0,0,0,.22,1.48,1.48,0,0,0,1.24.93C236.07,423.38,236.14,423.3,236.2,423.26Zm.86-5.91a5.4,5.4,0,0,0-.71-.72s-.37.23-.42.4c-.1.34,0,.67.44.67C236.56,417.7,236.74,417.52,237.06,417.35Zm185.15-7.72H401.34c-2.62,0-2.64,0-2.73,2.66a12.57,12.57,0,0,0,.64,5.19,9,9,0,0,0,4.38,4.87,13.15,13.15,0,0,0,5,1.38,23.2,23.2,0,0,0,17.06-5.68l.91-.78c1-.84,1.06-.86,1.85.18q5,6.48,9.88,13c.89,1.18.86,1.23-.15,2.14a40.59,40.59,0,0,1-14,8.08,49.84,49.84,0,0,1-21.74,2.44,59.55,59.55,0,0,1-6.55-1.37,1.84,1.84,0,0,1-.67-.23,5.42,5.42,0,0,0-2.33-.89,11.66,11.66,0,0,1-3.28-1.45c-7.58-4.26-11.78-10.78-12.89-19.36a55,55,0,0,1,0-10.5,76.83,76.83,0,0,1,1.46-11.14,56.29,56.29,0,0,1,6.71-17.59,38.69,38.69,0,0,1,3.8-5.5,10.87,10.87,0,0,1,1.15-1.2c.26-.23.63-.24.76.17.19.61.3,1.23.93,1.59.31.17.68.11.76-.22s.06-1.08.35-1.33c.83-.73,1-1.91,2-2.56a1.7,1.7,0,0,0,.86-2,1.34,1.34,0,0,1,.63-1.65,29,29,0,0,1,6.43-3.66,36.16,36.16,0,0,1,8.93-2.66,34.84,34.84,0,0,1,10.74-.15,4.36,4.36,0,0,1,2.62,1.74,6,6,0,0,1,.32.62c.38.58.44,1.39,1.19,1.72L429,365c.61-.12,1.48,0,1.79-.4.89-1.08,1.66-.49,2.48-.07a25.67,25.67,0,0,1,13.33,15.89,35.75,35.75,0,0,1,1.28,14.22,101.94,101.94,0,0,1-2.12,13.24c-.07.31-.1.63-.2.93a1,1,0,0,1-1,.84c-.64,0-1.27,0-1.91,0H422.21Zm-37.37-24.41a12,12,0,0,0,1.34-.35.62.62,0,0,0,.08-.55c-.12-.14-.52-.25-.58-.18a10.1,10.1,0,0,0-.78,1.15c-.15,0-.31-.14-.43-.1a2,2,0,0,0-.5.29l.35.53a2.48,2.48,0,0,0,.42-.36A1.18,1.18,0,0,0,384.84,385.22Zm18,3.29a.87.87,0,0,0,0-.23c-.09-.42-.11-.92-.76-.81a.24.24,0,0,0-.15.16c-.08.59.27.78.78.8h.22c0,.45.48.81.1,1.34-.64.87-1,1.91-1.71,2.75A10,10,0,0,0,400.1,395c0,.1.09.38.16.39,1.16.14.57,1.14.87,1.7.58,1.08-.42,1.31-1,1.82a2.66,2.66,0,0,0-.56,1c-.1.27-.2.78-.1.84.53.3.56-.25.79-.53a10,10,0,0,1,1-.91c.95-.87,1.94-1.71,1.42-3.23a1.55,1.55,0,0,1-.06-.71,1,1,0,0,1,.89-.95q.48,0,1-.06l18-.08c.64,0,1.28,0,1.92,0,.81-.07,1.11-.34,1.22-1.2a17.49,17.49,0,0,0-.06-5.73c-.69-3.38-2.51-5.89-6-6.82a12.86,12.86,0,0,0-6.88.11,26.31,26.31,0,0,0-4.39,1.84c-.43.21-.55,1.06-1,1.26a3.9,3.9,0,0,0-1.86,2.25,23,23,0,0,1-1.39,1.94C403.8,388.45,403.28,388.33,402.86,388.51Zm0-5.44a.88.88,0,0,0,.68,1.22c.6,0,.5-.48.64-.81a4.84,4.84,0,0,1,.28-.66,8.89,8.89,0,0,0,1.22-2c.26-.9-.93-1.38-1-2.27a1.22,1.22,0,0,0-.13-.45.68.68,0,0,0-1-.21,1.43,1.43,0,0,0-.69,1.39C402.91,380.54,402.85,381.81,402.85,383.07Zm3.44-8.44c.21-.62-.14-.88-.71-.69-1,.33-1.3.87-1.05,1.74.14.53.31,1,.45,1.57.09.34.26.55.64.52a.84.84,0,0,0,.88-.86Zm-17,6.43c-.83-2.11-.83-2.11-2.53-1.31.42.2.76.34,1.09.51S388.64,380.7,389.29,381.06ZM386,383.34c.15,0,.34,0,.44,0a2.24,2.24,0,0,0,.4-.46,2.13,2.13,0,0,0-.57-.23,1.54,1.54,0,0,0-.66.12.52.52,0,0,0-.29.29c0,.06.13.23.24.27A1.56,1.56,0,0,0,386,383.34Zm-81.2,1.19c-.38.22-.73.48-1.09.73a3.15,3.15,0,0,0,.95.51c.61.09.36-.48.5-.84C305.09,384.8,304.88,384.51,304.84,384.53ZM42.2,236.54c.67-2.09,2.12-3.5,3.39-5a33.69,33.69,0,0,1,3.08-3c.2-.19.61-.38.79-.29a1.06,1.06,0,0,1,.46.78c0,.54-.16,1.09-.12,1.62,0,.23.33.53.57.63a.51.51,0,0,0,.71-.43c.1-1.08.8-2.08.26-3.25-.3-.67.47-1.13.87-1.22.89-.19,1.22-.75,1.72-1.42a7.86,7.86,0,0,1,3.33-2.19c.28-.12.65-.09.89-.26,3.59-2.5,7.76-3.24,11.92-4a43.59,43.59,0,0,1,11-.42,34.63,34.63,0,0,1,12.27,3,28.22,28.22,0,0,1,14.2,14.33,41,41,0,0,1,3.33,14.87c.08,1.38-.12,1.6-1.42,1.6q-11,0-22.07-.05c-1.13,0-1.18-.08-1.4-1.19-.28-1.4-.42-2.85-.83-4.22-1-3.21-3-5.57-6.32-6.26-4.3-.89-8.43-.42-12,2.44a17.83,17.83,0,0,0-5.29,7,60.52,60.52,0,0,0-3.17,9.53,219.31,219.31,0,0,0-5,25.12,67.37,67.37,0,0,0-.84,9.07,14,14,0,0,0,.89,4.92,9.15,9.15,0,0,0,7.88,6.15,14,14,0,0,0,13.51-5.58,23.41,23.41,0,0,0,3.16-5.35,1.53,1.53,0,0,1,1.65-1.06c.4,0,.8,0,1.2,0H101.4a13.45,13.45,0,0,1,1.9.11c.15,0,.29.32.36.52s0,.31-.1.46a59.91,59.91,0,0,1-5.44,11.71c-.3.5-.5,1.78-1.65.81a.52.52,0,0,0-.32.21c-.19.52-.33,1.06-.53,1.57a1,1,0,0,1-.54-.08c-.51-.25-1,0-.87.41a1.36,1.36,0,0,1-.82,2c-.23.1-.37.47-.48.75s0,.48-.1.71a3.14,3.14,0,0,1-3.94,2.5c-.69-.11-1,0-1.22.69a19.42,19.42,0,0,1-1.27,3.05,4.83,4.83,0,0,1-1.27,1.4,32,32,0,0,1-11.58,5.57,50.37,50.37,0,0,1-5.63,1.07,42.51,42.51,0,0,1-10.5.36A33.73,33.73,0,0,1,41.14,321a43.54,43.54,0,0,1-4-3.1c-.56-.47-1-1-.35-1.84a.77.77,0,0,0-.91-1.13c-1.21.58-1.83,0-2.37-.87-.84-1.33-2-2.52-1.86-4.3a1.08,1.08,0,0,0-.14-.44,19.05,19.05,0,0,1-.39-2.46l-.33-2.55a1.32,1.32,0,0,1,.39-1.72,1.59,1.59,0,0,0,.42-2.12c-.24-.59-.29-1.25-.48-1.86s0-.9.6-1,.47-.35.24-.78c-.32-.63-1.05-.35-1.41-.74s-.39-1.1-1.05-1.21-.87-.46-.43-1.08-.15-1.24-.06-1.84a2.12,2.12,0,0,0-.26-1.75c-1.05-1.58-.62-3.37-.31-5.09.15-.78.4-1.54.6-2.31a2.12,2.12,0,0,1,1.47-1.68c.79-.26.87-.78.24-1.45a1.65,1.65,0,0,1-.45-1.93.73.73,0,0,1,1.11-.48l.44.21c.43.2.8,1.12,1.33.39.36-.5-.45-.69-.73-1s-.56-.56-.8-.87c-.05-.06,0-.26.1-.38s.15-.05.23-.05.18,0,.23,0c.33.29.68.86,1,.84a2.86,2.86,0,0,0,2-1.09.69.69,0,0,0,.13-.2c0-.07.09-.18.07-.21s-.21-.22-.32-.21c-.31,0-.63.09-.94.12-.48.05-.71-.23-.92-.61s-.29-.77.06-1.07a2.36,2.36,0,0,0,.43-3.4,3.17,3.17,0,0,1-.36-1.14c-.18-1.07.18-1.57,1.28-1.87a7.13,7.13,0,0,0,.91-.23,1.36,1.36,0,0,0,1-1.45c0-.52-.37-1.06.24-1.53a2.59,2.59,0,0,1,1.95-.74,5,5,0,0,0,.94.1c.42,0,1-1.1.84-1.54,0-.05-.12-.11-.18-.11-1.21.16-.71-.41-.61-1.09s.92-1.11,1-1.8c.12-.84.74-1.13,1.33-1.56s.56-1.06,0-1.88-.57-1.28,0-1.84a4.79,4.79,0,0,1,.73-.62c.9-.64.87-.66,1-1.93.06-.74.75-1.5-.08-2.2a2.29,2.29,0,0,1,1.32-1.88c.57-.28.67-.52.18-1-.2-.22.19-.33.42-.27.54.13,1,.17.84-.63a.52.52,0,0,1,.14-.41c.32-.28,1.13-.09,1-.74-.06-.28-.9-.32-1.12-.65-.45-.69-1.22-1.27-1-2.31a2,2,0,0,0-1.24-2.51c-.42-.2-.71-.64-1.11-.9A6.14,6.14,0,0,0,42.2,236.54Zm5.58,3.06a2,2,0,0,0,.23.07l.44,0c0-.14,0-.35-.08-.4a1.73,1.73,0,0,1-.66-1.19c-.11-.45-.44-.35-.73-.16-.13.08-.31.19-.34.32-.12.52-.44,1.18-.25,1.55.3.55.7-.42,1.16-.23A1.55,1.55,0,0,0,47.78,239.6Zm2.76-6.78-.58-.48a2.35,2.35,0,0,0-.48.62c0,.09.33.45.37.43A4.48,4.48,0,0,0,50.54,232.82Zm353.25,59.85H383.65c-.56,0-1.12,0-1.68,0-1.16.05-1.21.09-1.43,1.17a11.47,11.47,0,0,0,1.9,9.11,7.76,7.76,0,0,0,2.5,2.16,13.81,13.81,0,0,0,6.19,1.66,23.31,23.31,0,0,0,16.17-5.53c.68-.54,1.38-1.05,2.08-1.58.64.69,1.34,1.33,1.91,2.07q3.81,4.93,7.56,9.91a26.67,26.67,0,0,1,1.58,2.39c.27.44.46.93-.43.86a.45.45,0,0,0-.35.23c-.55,1.45-1.8,2.17-3,3a45.2,45.2,0,0,1-19.89,7.71,49.07,49.07,0,0,1-10.76.39,34.15,34.15,0,0,1-15.46-4.6c-6.69-3.94-10.49-9.88-11.84-17.45a53.51,53.51,0,0,1-.2-13.85,70.36,70.36,0,0,1,2.61-14.1,52.82,52.82,0,0,1,8.49-17.33,35.67,35.67,0,0,1,20.7-13.79,37.44,37.44,0,0,1,20.56.6,27.54,27.54,0,0,1,11.54,7.43,26.71,26.71,0,0,1,7.22,17A68.25,68.25,0,0,1,428,289c-.15.7-.29,1.41-.47,2.1-.38,1.51-.42,1.54-1.9,1.57-.56,0-1.12,0-1.68,0Zm17.29-38.82c-.08.7-.14,1.4.61,1.82,0,0,.17-.06.18-.11a1.4,1.4,0,0,0-.85-1.66,2.14,2.14,0,0,0-.1-.22c-.21-.37-.48-.67-.9-.3-.15.14-.16.42-.23.63a8,8,0,0,0,.85,0A1.6,1.6,0,0,0,421.08,253.85Zm-1.38,4.78c-.2.37-.38.76.11,1,.12.06.53-.1.55-.2.1-.53-.39-.6-.73-.77.13-.41.6-.85,0-1.22a1.14,1.14,0,0,0-1.5,0,.65.65,0,0,0-.15.18c-.17.32-.6.61-.27,1,.11.13.53,0,.81,0Zm-24.29,18.76v-.08c3.51,0,7,0,10.54,0,1,0,1.3-.23,1.48-1.21a13.28,13.28,0,0,0-1-8.42,7.66,7.66,0,0,0-4.57-4A21.81,21.81,0,0,0,396,263c-.94-.06-1.46.89-2.35.94a1.52,1.52,0,0,0-.66.27,25.89,25.89,0,0,0-3.36,2.25c-2.81,2.53-4.37,5.85-5.58,9.36a2.49,2.49,0,0,0-.12.47.82.82,0,0,0,.7,1c.64.05,1.28.05,1.92.05Zm23.15-24c.31-.42.65-.83.92-1.27,0-.06-.24-.45-.34-.43a2.16,2.16,0,0,0-1.05.32c-.37.29-.19.69.06,1A2.83,2.83,0,0,0,418.56,253.43Zm-207.3,39.24H190.63c-2.68,0-2.79-.22-2.9,2.74a13.16,13.16,0,0,0,.46,4.27,9.16,9.16,0,0,0,5.4,6,12.86,12.86,0,0,0,4.9,1c1.67,0,3.35,0,5,0a2.62,2.62,0,0,0,.93-.14c4.07-1.67,8.16-3.28,11.4-6.43.86-.84,1-.8,1.7.07q5.12,6.65,10.2,13.33c.64.84.61,1.07-.21,1.8a40.69,40.69,0,0,1-11.33,7.09,49.59,49.59,0,0,1-23.94,3.64,33.7,33.7,0,0,1-12.61-3.56,24.06,24.06,0,0,1-13.38-17.67,34.73,34.73,0,0,1-.74-6.65c0-9.67,1.36-19.12,5.09-28.12a46.2,46.2,0,0,1,10.64-16.08,35.71,35.71,0,0,1,21.12-9.82,37.77,37.77,0,0,1,16.09,1.55c1,.32,1.91.82,2.9,1.11s1.31,1.28,2.24,1.6c.6.21.13.65-.09.93-.33.45-.22.82.28.87a2.4,2.4,0,0,1,1.51.56,1.3,1.3,0,0,0,1.92.18.67.67,0,0,1,.63.11c1,1,2,2,2.94,3.13.54.67.4,1.87,1.58,2.08.68,1.17,1.45,2.31,2,3.53a25.48,25.48,0,0,1,2.41,9.21,63.12,63.12,0,0,1,.27,6.45,73.91,73.91,0,0,1-1.61,12.57c-.22,1.1-.45,2.19-.71,3.28s-.38,1.19-1.44,1.21c-1.76,0-3.52,0-5.28,0Zm-8.48-15.34h9.11a17.54,17.54,0,0,0,1.91-.08,1,1,0,0,0,.94-.91,22.43,22.43,0,0,0,.36-3.81c-.06-1.11,1-2.28.11-3.22s-1.28-1.81-2-2.69a8.22,8.22,0,0,0-5.38-3.27A12.41,12.41,0,0,0,196.49,267a22.18,22.18,0,0,0-5.2,9.32c0,.07-.06.18,0,.23.16.25.3.64.5.68a11,11,0,0,0,1.91.13Zm28.08-19.86c-.76.16-1.44.3-2.12.47-.26.06-.3.63-.11.82a2.7,2.7,0,0,0,2.25.56c.12,0,.35-.34.33-.49A12.92,12.92,0,0,0,230.86,257.47Zm-6.76-4.62c-.07-.17-.08-.27-.13-.3s-.31-.18-.44-.14c-1.28.36-1.64,1.21-1,2.51.15.33.57.88.65.84.53-.22.22-.63.06-1a.89.89,0,0,1,.24-1.06C223.7,253.45,223.91,253.12,224.1,252.85Zm81.78,13.52c-.36.76-.94,1.45-.17,2.36a.83.83,0,0,1-.49,1.34c-.89.22-1.06,1-1.17,1.61s0,1.19-.87,1.32c-.17,0-.31.5-.36.78-.15.84-1.36,1.19-1,2.24,0,0-.12.11-.17.1-.44-.07-.8-.45-1.34-.2s-1.21.39-1.07,1.27c.05.3-.21.66-.12.93.29.85-1,1.21-.55,2.13a12.17,12.17,0,0,1,.68,2c-.8,0-1.06.61-1.19,1.27-.09.43-.59,1-.1,1.26.26.15.86-.22,1.27-.42a.64.64,0,0,0,.19-.54c0-.55-.15-1.09-.23-1.63a10.66,10.66,0,0,0,3.28-1.83,5.74,5.74,0,0,1,3-1.3,5.22,5.22,0,0,0,2.06-1.08,3.15,3.15,0,0,1,0,2.14c-1.28,6.42-2.53,12.85-3.81,19.27q-2.27,11.38-4.58,22.77c-.09.47-.18.94-.29,1.4-.45,1.93-.52,2-2.32,1.82a19.37,19.37,0,0,0-2.85,0c-2.88.06-5.76,0-8.63.06a.89.89,0,0,1-1-.76,11.56,11.56,0,0,0-.61-1.8.72.72,0,0,0-1.17-.24,18.84,18.84,0,0,0-1.31,2,1.45,1.45,0,0,1-1.37.79h-.24c-3-.05-3.53.61-2.64-3a1.57,1.57,0,0,0,0-.23c.08-.78.16-1.56.25-2.34-1-.13-1.47.8-2.12,1.28-7.74,5.68-16.14,6.8-24.91,3.07a19.92,19.92,0,0,1-12-14.86,28.06,28.06,0,0,1,2-17.8,21.92,21.92,0,0,1,10.71-10.87,39.08,39.08,0,0,1,6.49-2.44,1.94,1.94,0,0,1,.67,0,7.81,7.81,0,0,1-.29.81,1.46,1.46,0,0,1-.32.34c.18.07.39.23.55.2a1.47,1.47,0,0,1,1.36.21,1.14,1.14,0,0,0,1.53.05c.81-.58,2-.74,2.27-1.95.08-.29,1.1-.18,1.24.16,0,.11-.18.33-.28.5s-.17.26-.25.4c.19,0,.49.17.56.09.61-.62,1.94-.55,1.87-1.87a1.66,1.66,0,0,1,.84-.25l9.11,0c2.48,0,4.95,0,7.43-.05,1.31,0,1.49-.16,1.79-1.45a22.2,22.2,0,0,0,.74-5.2,6,6,0,0,0-4.07-5.89,7.47,7.47,0,0,0-1.36-.45c-.77-.17-1.05-.43-.72-1.3.21-.55-.46-.7-.95-.77s-.63.12-.62.49c0,.87-.48,1.07-1.22,1.1a39.14,39.14,0,0,0-4.06.21,24.18,24.18,0,0,0-7.63,2.72,9.58,9.58,0,0,1-1.46.81,1.42,1.42,0,0,0-1.15,1c-.16.64-1.31.22-1.27,1.13-.69,0-.75-.69-1.17-1a4.92,4.92,0,0,1-.9-1.11l-8.49-11.31-.7-1a.75.75,0,0,1,.05-1.07,26.19,26.19,0,0,1,7.44-5.16c.42-.18.92-.16,1.37-.31s1.51.07,1.58-1c.52-.19,1.09-.64,1.54-.53a2.47,2.47,0,0,0,2.16-.63c.69-.47,1.2-.13,1.23.75a1.92,1.92,0,0,1,0,.48c-.59,2.54-.39,5.25-1.72,7.63-.36.64-.11,1,.59,1.23,1.47.4,1.86.31,2.63-1.15.28-.55.86-.4,1.05-.83s.28-.89.43-1.33c0-.05.13-.07.2-.1,0,.13.11.29.07.4-.15.46.05.66.44.48s.7-.66,1.11-.81a5.3,5.3,0,0,0,3.16-3.56c.2-.54.3-.71.92-.72.85,0,1-.57.38-1.25-.39-.41-.59-.64-.14-1.14s.77-.64.77-1.36c0-.52,1.18-.78,1.85-.5.08,0,.1.5.05.52-.83.31-.81,1-1.12,2.05,1-.57,1.67-.94,2.33-1.34a.56.56,0,0,0,.2-.81c-.17-.35-.11-.66.25-.76a1.44,1.44,0,0,1,.89.07c.19.08.31.35.45.54.27.36.62.56,1,.27,1.37-1,2.85-.8,4.38-.56a48.89,48.89,0,0,1,7.28,1.37,25.58,25.58,0,0,1,11.82,7.41,4.17,4.17,0,0,1,1.5,2.89c0,.8.32,1.61-.67,2.05-.11.77-.22,1.54-.29,2.31,0,.07.23.2.37.24.71.19.49.56.33,1.08-.31,1,.08,1.42,1.13,1.3.8-.08,1.24.53,1.87.74.1,0,.12.61,0,.88s-.31,0-.49,0a.82.82,0,0,0-.53.09c.07,1.37-.87,1.53-1.89,1.6a.86.86,0,0,0-.23,0c.08-.13.17-.25.26-.38.19-.29.27-.63-.07-.78s-.54.08-.81.13a4.57,4.57,0,0,0,.28.76C305.55,266.25,305.74,266.29,305.88,266.37ZM257.8,282.25a3.91,3.91,0,0,0,.53-.77.62.62,0,0,0-.18-.59,1.2,1.2,0,0,0-1.51.74.45.45,0,0,0,.11.4.7.7,0,0,0,.42.14,5.61,5.61,0,0,0,.71,0,4.65,4.65,0,0,0-.42.57c-.13.27-.33.6-.26.83s.47.32.74.36c.54.07,1.09,0,1.64.08a3.27,3.27,0,0,0,3.13-1.77,1.37,1.37,0,0,0-.11-1.07,1.06,1.06,0,0,0-.73-.52c-.49-.06-.61.38-.73.76s-.33.87-.46,1.19Zm28.36-33.17c-.64.33-1.25.69-1.91,1a1.15,1.15,0,0,1-.89,0c-.4-.2-.74-.79-1.22-.51a2.38,2.38,0,0,0-.78,1.17c-.39,1-1.48,1.93-.73,3.22-.22.84-.41,1.68-.67,2.51-.09.3.58.46.13.72s-.88.39-.7,1-.75,1.38-.17,2c.77.88,1.34-.44,2.13-.32,1.09.16,1.54-.69,1.78-1.55.34-1.22.57-2.47.8-3.71a1.68,1.68,0,0,0-.11-.91c-.11-.28-.53-.59-.47-.75a2.24,2.24,0,0,1,.75-.82c.37-.3.82-.5,1.17-.82a2.09,2.09,0,0,0,.84-2.26c.53,0,1.07,0,1.59,0,.14,0,.25-.26.38-.4-.19-.1-.44-.34-.56-.29A13,13,0,0,0,286.16,249.08Zm-11.23,43.25v0c-1.36,0-2.72-.05-4.07,0a22.3,22.3,0,0,0-3.56.4,9,9,0,0,0-7.13,8.48,5.88,5.88,0,0,0,4.68,6.09,11.12,11.12,0,0,0,5.44-.07c4.52-1.14,8-3.62,9.65-8.11a46.89,46.89,0,0,0,1.48-5.53c.19-.84-.12-1.22-1-1.23C278.6,292.3,276.76,292.33,274.93,292.33Zm-21.22,4.32c-.13.06-.32.07-.38.17-.93,1.35-1.85,2.7-2.75,4.07-.4.61-.07,1.26.82,1.61a.81.81,0,0,0,.65,0c.38-.24.18-.5-.06-.76-.48-.52-.05-.9.29-1.18A3.77,3.77,0,0,0,253.71,296.65Zm.4-3c.52.1.87.24.93.16.7-.83,1.67-1.48,1.89-2.64,0-.06-.34-.28-.41-.24-.5.3-.88.29-1.2-.24a2,2,0,0,0-.44-.56.52.52,0,0,0-.44,0c-.12,0-.3.24-.27.3.49,1.21-.08,2.09-.85,2.93-.07.08,0,.29,0,.44a2.71,2.71,0,0,0,.41,0Zm.44-7.87a4.09,4.09,0,0,0-.09-.87c-.08-.18-.23-.48-.35-.48a1.14,1.14,0,0,0-.59.33.83.83,0,0,0-.24.39c-.23.91-.45,1.82-.63,2.74,0,.16.15.37.23.56.12-.07.33-.12.35-.22C253.51,287.17,254.83,286.61,254.55,285.74Zm3.39,3.75a3.59,3.59,0,0,0,2.43-.76.62.62,0,0,0,.12-.58.69.69,0,0,0-.57-.29c-.77.31-1.33,1.06-2.24,1.14,0,0-.08.17-.05.21A2,2,0,0,0,257.94,289.49Zm46.63-26.64c-.16-.31-.28-.69-.36-.68-.6.07-1.25.1-1.62.68a.69.69,0,0,0,.09.62,1,1,0,0,0,1.25.21C304.22,263.51,304.37,263.12,304.57,262.85Zm-20.9-15.3c-.69.14-1.62-.38-1.92.73,0,.05.05.14.1.17C282.83,248.9,283.19,248.12,283.67,247.55Zm-27,37.55c0-.4-.41-.75-.73-.6a.68.68,0,0,0-.35.49c0,.39,0,.77.51.89S256.74,285.62,256.71,285.1Zm20.93-28.19c-.19-.26-.29-.52-.45-.56s-.39.15-.49.31a1.39,1.39,0,0,0-.17.64.47.47,0,0,0,.22.33.48.48,0,0,0,.41,0A4.54,4.54,0,0,0,277.64,256.91Zm44.94-1a15.81,15.81,0,0,0,2.06-.62,2.14,2.14,0,0,0,1-1c.13-.28-.08-.72-.15-1.09,0-.08-.13-.16-.12-.2.6-1.36.1-2.93.79-4.26a1.24,1.24,0,0,1,.66-.62c1.41-.37,1.58-1.69,2.13-2.71.09-.17-.12-.56-.29-.78-.59-.78-.63-1.13.16-1.39s.93-.48.51-1.13a.22.22,0,0,1,0-.22c.95-.92.62-2.24,1-3.34.32-.93.23-1-.75-1.34s-.83-.33-.66-1.33c.14-.82.78-1.61.2-2.52-.11-.16.17-.56.28-.85s.4-.62.33-.84c-.63-2,.33-3.76.64-5.61.14-.89.38-1,1.3-1.08.47,0,.95,0,1.43,0h18c.56,0,1.12,0,1.68,0,.76.07,1,.35.82,1.1-.4,1.95-.83,3.9-1.22,5.85-1,4.77-1.88,9.54-2.82,14.32a4.31,4.31,0,0,0-.09,1,.73.73,0,0,0,.72.78c.56,0,1.12.08,1.68.08,2.31,0,4.63,0,7,0a9.33,9.33,0,0,1,1.67.13.66.66,0,0,1,.42.48,5.72,5.72,0,0,1-.07,1.43q-1.41,7.17-2.84,14.33c0,.23-.13.46-.19.69a1.13,1.13,0,0,1-1.17,1l-1.68,0H347.8c-2.16,0-2.16,0-2.6,2.22l-1.44,7.28q-2.31,11.74-4.61,23.5a16.09,16.09,0,0,0-.29,3.09,3.26,3.26,0,0,0,3.19,3.51,15.34,15.34,0,0,0,1.92.08c1.67,0,3.35,0,5,0,1.47,0,1.63.22,1.41,1.74-.11.78-.3,1.56-.46,2.35-.94,4.69-1.9,9.38-2.8,14.09-.2,1-.39,1.37-1.55,1.37-4.32,0-8.65.1-13-.16a19.25,19.25,0,0,1-14-7.31,16.34,16.34,0,0,1-3.54-9.51,42.72,42.72,0,0,1,1.16-11.65c1.93-9.62,3.82-19.26,5.73-28.89a2.9,2.9,0,0,0,.16-.94c-.05-.25-.3-.63-.5-.66-.78-.11-1.59-.09-2.38-.14a6.43,6.43,0,0,1-3.16-.52l1.31-2c.14-.2.44-.38.43-.56-.09-2.27,2.21-3.14,2.87-5a1.69,1.69,0,0,1,1.88-1.15c.36,0,.73,0,.69-.4s-.38-.47-.6-.7Zm8.18,48c.17-.26.28-.61.52-.78,1-.75,1.16-2,1.75-3,.22-.37-.14-.77-.79-1-.48-.15-.79,0-.75.54,0,.37,0,.59-.47.62a1,1,0,0,0-.62.24,4.79,4.79,0,0,0-.52,3.38c.17.43.49.6.93.27.78.26,1.1.2,1.23-.29,0-.12-.24-.46-.28-.45A9,9,0,0,0,330.76,303.88ZM330,309a5.69,5.69,0,0,0,.69-.3c.54-.31.61-.77.15-1.08-.19-.14-.42-.22-.62-.35-1.59-1.1-2-1.1-3.48.06a6.68,6.68,0,0,0-1.06.91.92.92,0,0,0-.13.81c.8,1.62,1.15,1.63,2.41.18a4.81,4.81,0,0,0,.5-.51c.33-.48.61-.33.95,0A2.16,2.16,0,0,0,330,309Zm3.4-14.11c-.12.09-.22.13-.23.19a3.09,3.09,0,0,0,.76,2.81.29.29,0,0,0,.2.09.84.84,0,0,0,.45,0c.09,0,.17-.32.13-.35a2.68,2.68,0,0,1-.86-2.3C333.82,295.17,333.52,295,333.37,294.9Zm-186-32.7c0-.63-.11-1.26-.13-1.89-.06-2.54-.05-2.88,2.22-3.67.37-.12.77-.19,1.14-.32a1.54,1.54,0,0,0,1.23-1.52,7.92,7.92,0,0,1,.55-3.49c.55-.94,1.81-1.46,2.75-2.19.25-.19.43-.48.69-.65.5-.33,1-.93,1.68-.4a8.48,8.48,0,0,0,2.14-1.32,1.67,1.67,0,0,0-1.05-2.62,3.68,3.68,0,0,0-1.19-.08c-5.68.6-10.93,2.27-15.34,6.08-.34.29-.74.5-1.33.9.06-.81,0-1.36.15-1.89.19-1.1.45-2.19.66-3.29.11-.59-.14-.92-.75-.94-1.2,0-2.4,0-3.6,0a.87.87,0,0,0-.93.6,1,1,0,0,1-1.29.73.81.81,0,0,0-1,.3,2.65,2.65,0,0,1-1.73,1.16,1.74,1.74,0,0,0-.73.57c-.26.3-.49.71-.19,1.07a1.6,1.6,0,0,0,.81.33,6.73,6.73,0,0,1,.67.1c.11,0,.22.35.18.39a4.58,4.58,0,0,1-1,.91c-.09.06-.45-.28-.66-.47s-.55-.39-.73.06-.19,1.26-1,1c-.22-.07-.27-.81-.35-1.25a1.3,1.3,0,0,1,.45-1.49,1.06,1.06,0,0,0,.17-1.67c-.53-.59-.19-.68.27-1s.39-.86-.15-1.11a1.82,1.82,0,0,0-.66-.26c-1.83,0-3.67,0-5.5,0-.64,0-.89.49-.7,1.21.15.55.5,1.17.06,1.59-1,1-.62,2.46-1.47,3.46a.88.88,0,0,0,0,.86c.67.51.48,1.27.73,1.86.45,1.07.19,1.5-.69,2.08a3.49,3.49,0,0,0-1.9,3.77c0,.08.06.21,0,.23s-.37.33-.48.29c-.6-.24-.87.22-1.23.51s-.77.89-1,.83c-1.22-.27-1.05.69-1.26,1.28-.11.32,0,.61.45.64.95.08,1.7.42,1.69,1.58a.72.72,0,0,0,.2.42c1.07,1.1.55,2.21,0,3.3a.44.44,0,0,1-.4.15c-.09,0-.16-.22-.21-.35s0-.16,0-.23c0-1.06-.59-2-1.39-2.17-1-.17-.87,1-1.33,1.45a2.24,2.24,0,0,0-.39,1.11q-1.47,7.15-2.89,14.31-4,20.07-8,40.15c-.41,2.06-.4,2.11,1.81,2.12,5.92,0,11.83,0,17.75,0,4.14,0,3.13.36,4-3.36.29-1.24.47-2.51.71-3.76s.52-2.5.77-3.75.46-2.35.68-3.52a18.47,18.47,0,0,0,.64-3.77c0-1.34.69-2.39.92-3.61,1-5.1,2-10.18,3-15.27.79-4,1.53-8,2.42-12a14.8,14.8,0,0,1,7.22-10,13.3,13.3,0,0,0,1.65-.94c.34-.28.82-.85.73-1.12-.35-1.06.58-1.6.8-2.4l.64.14Zm8.34-2.24a.63.63,0,0,1-.2.59c-.54.3-1.05.78-1.76.49-.37-.16-.67-.09-.49.36.37.9,0,1.4-.63,2.07s-1.4,1.1-1.13,1.94c.16.48,1,.72,1.45,1.13q1.19,1,2.28,2.1c1,1,1,1,2.09,0l6.08-5.41q6.09-5.41,12.16-10.83c.82-.74.82-1,.12-1.78a18.75,18.75,0,0,0-11.78-6.24,8.28,8.28,0,0,0-3.62,0c.37.33.59.54.83.73.46.38,1.15.61.91,1.45,0,0,.21.22.33.24.41,0,.82,0,.47.64-.64,1.24-1.44,2.45-1.22,4,0,.24-.25.56-.45.79a3.92,3.92,0,0,0-1.16,2.29c-.05,1.62-1,2.51-2.24,3.39-.94.67-1.79.29-2.9.21C155.25,258.84,155.54,259.38,155.75,260Zm166.83-4.07c.1-.49.53-.94-.21-1.4-1.18-.74-1.14-.84-.18-2.07l-.06.06,0-.71c.06-.78,1.1-1.5.53-2.19s-1.39-.68-2.14-.94a10.55,10.55,0,0,0-1.33-.29,3.76,3.76,0,0,0,.47,4.46,2.7,2.7,0,0,1,.66,1.7c0,.64.17.88.68,1s1.08.2,1.62.31Zm-175.12,6.24c.3.45.64.89.91,1.36s.38.86.59,1.28a.38.38,0,0,0,.71,0,4.16,4.16,0,0,0,.49-2.5c-.07-.5-.33-.64-.77-.68a2.53,2.53,0,0,0-2,.59ZM28.31,298.36a.6.6,0,0,0,0,.61.69.69,0,0,0,.61.22,1.42,1.42,0,0,0,1-1.39c0-.11-.16-.23-.27-.37A14.81,14.81,0,0,0,28.31,298.36ZM319,255.7a.6.6,0,0,0-.28-.51.74.74,0,0,0-.61.19c-.41.48-.28,1,0,1.74A14.34,14.34,0,0,0,319,255.7Zm3.18-3.28a6.93,6.93,0,0,0,.68,1.19c.08.09.52-.12.79-.19-.06-.21-.06-.56-.19-.61a9.71,9.71,0,0,0-1.34-.33Zm-62.75,25.36c-.3-.11-.87.57-.68.71a2.6,2.6,0,0,0,1,.42c.13,0,.31-.21.58-.42C260,278.19,259.74,277.88,259.44,277.78ZM35.52,255.69c-.37-.24-.55-.06-.58.33,0,.21,0,.42,0,.63l1.12-.38A3.15,3.15,0,0,0,35.52,255.69Zm83.85-9.75-.52,1.61.29.09.51-1.61Zm-1.94,13.36a1.63,1.63,0,0,0-.61.18,4.5,4.5,0,0,0,.73.43c.07,0,.23-.13.43-.26C117.77,259.51,117.61,259.33,117.43,259.3ZM141.5,51.39c.47.74.95,1.46,1.39,2.21.56.95.85,1.06,1.94.66.49-.18.6-.47.31-.9a1.5,1.5,0,0,0-.47-.5.66.66,0,0,1-.22-1,15.72,15.72,0,0,1,1.82-2.45,2.52,2.52,0,0,1,1.56-.43c1.92-.07,3.84-.08,5.75-.1,1.12,0,2.24,0,3.36,0,1.48-.05,1.62-.17,1.91-1.59.65-3.21,1.28-6.42,1.92-9.63L166.47,9c.06-.32.09-.64.17-.94a.88.88,0,0,1,.84-.72,8,8,0,0,1,1.19-.08c3.28.27,6.54-.07,9.81,0,3.84,0,7.68.09,11.51.07,1.44,0,1.5.43,1.3,1.58-.34,2-.77,3.91-1.17,5.87l-5,25.12q-2.19,10.92-4.38,21.84c-1.38,6.88-2.8,13.76-4.19,20.64q-2.31,11.5-4.61,23c-.4,2-.8,4.07-1.22,6.1-.11.55-.26,1.09-.4,1.62a.89.89,0,0,1-.88.67c-.4,0-.8,0-1.2,0H147.57c-2.35,0-2.17-.1-1.77-2.07,1.89-9.22,3.73-18.46,5.59-27.7.78-3.91,1.57-7.82,2.34-11.74.24-1.2.1-1.36-1.18-1.4-2.31-.06-4.63-.13-7-.12-5.19,0-10.38.06-15.58.12-2.21,0-2.53-.45-3.1,2.46-1.6,8.23-3.37,16.42-5,24.64-.88,4.3-1.7,8.61-2.54,12.91-.07.32-.1.64-.17,1-.46,2-.46,2-2.55,1.78a6.56,6.56,0,0,0-1.17-.06,122.54,122.54,0,0,1-15.09.06c-1.1,0-1.13-.11-1.1-1.27a3.28,3.28,0,0,0,0-.7c-.09-.53-.6-1-.92-.88a.91.91,0,0,0-.57.94c-.1,2.21-.72,2.07-2.38,2.06-1.29,0-1.46-.26-1.19-1.65q.93-4.69,1.88-9.39Q98.41,91.34,100.73,80c1.58-7.82,3.18-15.64,4.75-23.46,2-9.86,3.91-19.73,5.88-29.6,1.22-6.1,2.49-12.2,3.74-18.3.06-.31.11-.63.2-.93s.86-.56,1-.33c.59.9,1.51,1.64,1.43,2.86,0,.2-.25.38-.33.59s-.19.56-.12.6c.79.5.48,1.3.55,2s.18.9.76,1c.76.18,1,.79,1,1.46s0,1.43,0,2.15c0,.14.07.37.16.41a11.75,11.75,0,0,0,1.55.52.79.79,0,0,0,.67-.16,2.73,2.73,0,0,1,2.38-.77,4.69,4.69,0,0,0,1.4-.3,2,2,0,0,0,1.31-1.76.81.81,0,0,0-.37-.56c-.62-.34-.68-.67-.34-1.34s1-1.26.94-2.16c0-.45.34-.44.67-.35a4.54,4.54,0,0,0,.69.21,1.54,1.54,0,0,0,1.86-1.59c0-.76.22-1.18,1-1.33.44-.09,1.11-.34,1.21-.66.29-1,1-.88,1.7-.9,1.36,0,2.72,0,4.07,0,1.52,0,1.53,0,1.26,1.46a9.93,9.93,0,0,1-.77,2c-.25.58-.52,1.08-.12,1.76.19.32-.07.91-.16,1.37-.17.85-.38,1.69-.54,2.54-1.26,6.59-2.49,13.17-3.76,19.75-.66,3.45-1.38,6.89-2.06,10.34a6.64,6.64,0,0,0-.17,1.66c0,.23.32.5.56.64a1.46,1.46,0,0,0,.7.1l7.42.08a3.75,3.75,0,0,1,1,.12,1.12,1.12,0,0,1,.35,1.75l-.65.65a17.94,17.94,0,0,0-1.52-1,.64.64,0,0,0-.61.17,1,1,0,0,0,0,.82C140,52.27,140.31,52.25,141.5,51.39Zm1.14,4.67a1.15,1.15,0,0,0-.76-1.29c-.73-.16-1.22,0-1.32.6s-.47,1.35-.13,2.08a1.13,1.13,0,0,1-.25,1.32,4.72,4.72,0,0,0-.7,1A1.8,1.8,0,0,0,141,62.15c.36,0,.88,0,.49-.66a1,1,0,0,1-.11-.6c.33-1.31.67-2.62,1-3.92C142.46,56.59,142.59,56.21,142.64,56.06Zm19-4.23a2.84,2.84,0,0,1,1.15-2.13,15.74,15.74,0,0,0,1.3-1.63.21.21,0,0,0,0-.22c-.11-.08-.26-.19-.36-.17-.3.08-.68.4-.84.31-.47-.27-.76-.34-1.22.06-2,1.7-2,1.68-.24,3.72C161.48,51.82,161.59,51.81,161.66,51.83ZM169.34,8c-.57.08-1,.12-1.32.21-.06,0-.07.26-.07.39s.09.14.15.17a2.89,2.89,0,0,0,.86.35,1.57,1.57,0,0,0,.8-.23.47.47,0,0,0,.11-.42A4,4,0,0,0,169.34,8ZM104,92.64c.79-.57,1.27-.9,1.72-1.27.1-.08.18-.38.14-.41s-.42-.32-.6-.28a1.23,1.23,0,0,0-.73.46A8.88,8.88,0,0,0,104,92.64Zm-3.33,13.48a1.36,1.36,0,0,0,.5,0c.1,0,.22-.32.22-.32a11.62,11.62,0,0,0-1.11-.71s-.31.15-.32.25a.81.81,0,0,0,.12.59A1.43,1.43,0,0,0,100.69,106.12Zm59.67-48.95c.07.16.1.36.2.41a.45.45,0,0,0,.41-.07,1.31,1.31,0,0,0,.3-.6.44.44,0,0,0-.19-.38.41.41,0,0,0-.39.08A2.66,2.66,0,0,0,160.36,57.17ZM126.85,28a7.26,7.26,0,0,0-.68.67s.11.3.22.35a.45.45,0,0,0,.71-.29C127.14,28.55,127,28.34,126.85,28Zm172.43,9.08c-.48-1.32.4-2.29.9-3.34.11-.23.49-.37.78-.45a3.75,3.75,0,0,1,1,0h12.71c.4,0,.81,0,1.2,0,.71,0,1,.3,1.1,1,.22,1.75.39,3.5.6,5.24.42,3.57.85,7.14,1.26,10.71.39,3.33.76,6.67,1.14,10,.52,4.52,1,9,1.56,13.57,0,.26.32.48.48.72a4.36,4.36,0,0,0,.58-.64,4.9,4.9,0,0,0,.39-.87q2.2-5.31,4.39-10.63l11.51-27.9a1.89,1.89,0,0,1,2.69-1.11c.15,0,.25.36.28.56.15,1,.17,1.08,1,.73.51-.22,1,0,1.38-.09s.7-.66,1.12-.84a4.72,4.72,0,0,1,1.82-.47c5.27,0,10.55,0,15.83,0,.82,0,1,.27.66,1-.24.59-.52,1.16-.8,1.74Q348.94,65.36,335,94.71c-1.23,2.6-2.43,5.21-3.72,7.78-.33.67-.38,1.88-1.71,1.43,0,.16-.15.39-.08.45a1.19,1.19,0,0,1,.17,1.53c-.53,1.07-1,2.16-1.55,3.25s-1.09,2.13-1.51,3.24a2,2,0,0,1-2.2,1.39c-2.63,0-5.27,0-7.91,0-2.24,0-4.48,0-6.72,0-1.41,0-1.53-.15-1.69-1.43q-1.48-11.89-3-23.78c-.7-5.54-1.44-11.08-2.16-16.63-.08-.63-.08-1.27-.14-1.91a.48.48,0,0,0-.28-.32.52.52,0,0,0-.4.18,14,14,0,0,0-.9,1.41c-1.79,3.48-3.55,7-5.35,10.44q-7.69,14.91-15.4,29.82c-.11.21-.25.41-.34.63a2.38,2.38,0,0,1-2.6,1.62c-4.15-.07-8.31,0-12.47,0-1,0-2.08,0-3.12,0a.87.87,0,0,1-.93-.88c-.15-2-.31-4-.4-6a1.63,1.63,0,0,1,.41-1.05c.42-.49.24-.69-.13-1.15-.91-1.11-.78-1.62.4-2.49.47-.34.49-1.51,0-1.68a1.4,1.4,0,0,1-1.09-1.4c0-2-.9-3.87-1-5.86s-.33-4-.5-6c-.43-5-.88-10-1.31-15-.39-4.54-.76-9.07-1.15-13.61q-.54-6.33-1.07-12.66a17.33,17.33,0,0,1-.07-1.91c0-2.17,1.27-3.85,2.35-5.58.22-.36.37-.52.22-1a1.75,1.75,0,0,1,1-2.3A21.33,21.33,0,0,0,261,33.59c0,.5.17.93.78.88.28,0,.75-.14.77-.28.15-.7-.41-.35-.71-.4l-.89-.15a4.87,4.87,0,0,1,1.14-.32c4.56,0,9.11-.07,13.66-.09a5.81,5.81,0,0,1,.72.05.8.8,0,0,1,.73.79,1.93,1.93,0,0,1,0,.24L277.61,46l.18,4.78c.13,3.27.27,6.53.4,9.79l.51,12.69a9.39,9.39,0,0,0,.09,1.19c0,.1.19.19.31.24s.16,0,.2-.09a10.43,10.43,0,0,0,.64-1c2.41-4.77,4.8-9.54,7.23-14.3a18.36,18.36,0,0,1,1.75-2.84c.29-.38.91-.49.74.43,0,0,.43.26.48.21A6,6,0,0,1,292.19,56a.66.66,0,0,0,.28-1,1.2,1.2,0,0,0-.71-.44c-.21,0-.45.16-.69.17-.59,0-.88-.33-.7-.91a5.92,5.92,0,0,1,.62-1.54,3.08,3.08,0,0,1,1.08-.86,6.65,6.65,0,0,1,.93-.19c.65-.22,1.29-.49,1.94-.73-.05-1-.75-1.31-1.5-1.66a.9.9,0,0,1-.22-.8,4.69,4.69,0,0,1,1.55-2.63,1.47,1.47,0,0,0,.64-1.4,5.91,5.91,0,0,1,2.19-3.65,1.62,1.62,0,0,0,.78-1.59,3,3,0,0,1,.17-1.39c.07-.19.51-.25.78-.37A4.73,4.73,0,0,1,301,39.52c0,.13.22.21.34.32a1.08,1.08,0,0,1-1.49.23.69.69,0,0,0-.63,0,1.68,1.68,0,0,0,0,2.5c.19.14.43.21.63.34s.68.67.92.61c.64-.15.25-.77.34-1.19a2.28,2.28,0,0,1,.45-1,2.47,2.47,0,0,0,.64-1.5c1.06-.42,1.74-1.29,1.41-2.23a4.78,4.78,0,0,1-.06-1.59.74.74,0,0,0-.69-.8c-.65-.08-1.26-.49-1.72.57C300.91,36.35,299.93,36.64,299.28,37.06Zm44.64,18.4c-.23.07-.43.06-.51.16-.91,1.1-1.82,2.21-2.69,3.34-.09.11.07.4.13.61s.22.58.16.62c-.87.58-.33,1.72-1,2.35s-.24,1.23-.17,1.8c.09.75.61,1.41.59,2.21,0,0,.35.17.39.12a5.87,5.87,0,0,0,.37-.59c.6-.72.83-2,2.25-1.45.4-.38.78-.77,1.2-1.12a2,2,0,0,0,.78-2.07c-.2-.92.22-1.83.1-2.82-.15-1.18,0-2.22-.45-2.53A7.19,7.19,0,0,0,343.92,55.46ZM261.67,96.52c-.14.41-.25.78-.38,1.14s.1.76.52.83a9.55,9.55,0,0,0,1.61.08c.1,0,.26-.17.28-.28a.48.48,0,0,0-.19-.37C262.92,97.45,262.32,97,261.67,96.52Zm5.48-3.12c-.18-.59-.31-1-.47-1.45-.05-.12-.24-.3-.32-.28a1.07,1.07,0,0,0-.49.33c-.09.11-.08.29-.15.43-.38.79-.15,1.25.72,1.32C266.66,93.77,266.9,93.53,267.15,93.4Zm23.6-33.62c.15-.83.23-1.31-.37-1.26-.42,0-1,0-1.19.54-.14.38.76,1.1,1.36,1C290.71,60.07,290.82,59.66,290.75,59.78Zm6.67-11.84a2.4,2.4,0,0,0-.16-.61.39.39,0,0,0-.39-.07c-.43.34-.38,1.46.06,1.61.08,0,.29-.1.33-.21A3.48,3.48,0,0,0,297.42,47.94Zm44.81-11.78-.69-.41c-.06.13-.19.32-.16.36a5.07,5.07,0,0,0,.61.52ZM245.7,52c-.9-.51-.57-1.38-.61-2.14s-.05-.89.74-.94c.15,0,.36.05.46,0,.57-.47,1.57.79,1.81-.36.16-.76-.93-.62-1.33-1.08a2.54,2.54,0,0,1-.42-2.1c.17-.3,1.26-.26,1.49.08,1.07,1.56,2.28,3,2.28,5.09a1,1,0,0,0,.08.46c1.74,3.25,1.64,6.8,1.42,10.27A113.15,113.15,0,0,1,247,86.34a45.21,45.21,0,0,1-7.43,14.92,33.28,33.28,0,0,1-22.42,12.95,37.8,37.8,0,0,1-15-.53,27.73,27.73,0,0,1-7.71-3.21,24.28,24.28,0,0,1-11.67-17.8c-.68-4.33-.23-8.61.28-12.88.3-2.54.84-5,1.27-7.55.06-.32.12-.63.19-.94.48-1.93,1.13-3.81,1.42-5.8a8.52,8.52,0,0,1,1.4-3.78c.64-.91.38-2,.73-3s.35-1.09,1.48-1.07a4.32,4.32,0,0,0,.7.06,1.1,1.1,0,0,0,.67-1.67c-.34-.51-1-1.09-1-1.52a3,3,0,0,1,1.65-1.78c0,.46,0,.76,0,1.06s.19.78.71.72a.78.78,0,0,0,.67-.86,2,2,0,0,0-.67-1.72,1.75,1.75,0,0,1-.28-2.55C197.48,40.73,205,35,215.24,33.18c2-.34,3.95-.57,5.94-.76a29,29,0,0,1,11.1,1.21,25.89,25.89,0,0,1,5.15,1.84c.35.19.69.39,1,.61s.41.69-.12.82c-1.18.28,0,.84-.21,1.21a4,4,0,0,0-.83,1.36c-.08.49.44.8.94.91s.7.54.49,1.07a4,4,0,0,1-.38.87c-.3.41-1.17.57-.69,1.27.35.5.86,0,1.3-.12a.58.58,0,0,1,.45,0c.25.17.68.44.65.59a1.83,1.83,0,0,1-.6.92c-.13.12-.45.05-.68,0s-.55-.08-.83-.12a3.34,3.34,0,0,0-.08.7,10.79,10.79,0,0,0,1.7,5.17c.36.52.61,1.1,0,1.7a1.07,1.07,0,0,0-.11,1.33c.34.63.64,1.28,1,1.92a2.51,2.51,0,0,0-.7-.12c-.19,0-.52.21-.52.31.07,1.14.16,2.28.31,3.42.05.41,1,.75,1.15.43.48-.94,1.43-.88,2.18-1.23a.65.65,0,0,0,.12-1.15,7.64,7.64,0,0,0-1.68-.75,1.5,1.5,0,0,1-.93-1c1.06.06,2.12-.67,3.19,0,.12.07.49-.08.63-.23.65-.67,1.4-1.29,1.19-2.44-.06-.34.21-.75.32-1.13l2.51-1.43c-.89.09-1.35.09-1.79.19C245.68,50.83,245.6,51.36,245.7,52ZM235.57,39.29l.18,1.63c.63-.71.47-1.2-.24-1.57.14-.44.07-1,.63-1.2.34-.13.63-.28.07-.54-.29-.14-.56-.31-.85-.43s-1.42.24-1.42.54a2.5,2.5,0,0,0,.37,1.06A1.22,1.22,0,0,0,235.57,39.29ZM205.49,84.86A37.67,37.67,0,0,0,206.2,89a5.88,5.88,0,0,0,5.08,4.48,9.83,9.83,0,0,0,9-2.8A12.84,12.84,0,0,0,223,86.54a56.15,56.15,0,0,0,2-5.62,113.15,113.15,0,0,0,3.26-16.63,14.09,14.09,0,0,0-.51-6.63,5.62,5.62,0,0,0-3.95-3.83,12,12,0,0,0-3.54-.37,9.76,9.76,0,0,0-8.08,4.84,25.57,25.57,0,0,0-2.71,6.09,87,87,0,0,0-2.84,12.33C206.24,79.39,205.9,82.08,205.49,84.86ZM239,68.72c.14.17.24.36.34.36a13.37,13.37,0,0,0,1.4-.1.53.53,0,0,0,.5-.65,2.13,2.13,0,0,0-.43-1c-.08-.09-.58,0-.77.21A13,13,0,0,0,239,68.72Zm1.21,2.79a6,6,0,0,0-.86-.69.58.58,0,0,0-.56.1c-.1.16-.11.57,0,.63a3.5,3.5,0,0,0,1,.34C239.85,71.9,240,71.71,240.18,71.51ZM231.62,41a4.37,4.37,0,0,0-1-.51c-.11,0-.42.3-.4.38.09.25.26.59.46.65S231.17,41.27,231.62,41Zm23.76-7.08c0,.13-.08.33,0,.39a2.28,2.28,0,0,0,.59.34s.2,0,.2,0,.08-.32,0-.37a3.33,3.33,0,0,0-.56-.36C255.52,33.89,255.38,33.89,255.38,33.92ZM122.1,17.68a.94.94,0,0,0,.22-.54A.58.58,0,0,0,122,17a1.45,1.45,0,0,0-.65.19c-.14.1-.18.33-.27.5l.45.18A1.7,1.7,0,0,0,122.1,17.68Zm180,21.55a2.26,2.26,0,0,0-.47-.37,1.61,1.61,0,0,0-.24.36,4.53,4.53,0,0,0-.13.66h1A2.72,2.72,0,0,0,302.09,39.23Z" opacity="0.5" transform="translate(-9.84 -7.2)"/></svg>