<svg id="Layer_1" data-name="Layer 1" xmlns="http://www.w3.org/2000/svg" viewBox="0 0 150.59 325.58"><defs><style>.cls-1{fill:#f0eae7;}</style></defs><g id="pbzBdt.tif"><g id="Group_1644" data-name="Group 1644"><path id="Path_7604" data-name="Path 7604" class="cls-1" d="M82.14,6.09h7.43L88.92,7a2.84,2.84,0,0,1,.43,1.2,2.69,2.69,0,0,0,.43.71l0,0c-.17.65.34,1.6-.84,2l1.78.33.37-1.65L91.32,11l1.9.74L93,10.49l2.46-2,.49.76-.52,1.17L98.53,10l.11-.95h1.12l-.37,1,.45.3,2.23-2.18,0,0h1.49L103,6.09h7.19L109,8.54c.4.68.76.69,2-.22l-.7-.8.6-.75-.51-.68h1.91l-1.2,1.53.74,1.28L112.29,7l1.22.88-.22-1.74H139.4l1.47,1.22-.37,1.11,2.14,2.29-1.76.74v2.94l.59-.66L143.29,16a1.22,1.22,0,0,1,1.35,1.06,1.25,1.25,0,0,1,0,.51c-.24,1.27-.5,2.54-.74,3.81q-4,20.49-8,41l-9.48,48.86c-.6,3.09-1.2,6.17-1.81,9.28l-1,.25L122.8,122l1.45.63c-.56,2.6-1.11,5.14-1.67,7.7a19.78,19.78,0,0,1-.78,4.44c-.15.65-.86,1.17-1.29,1.72l-1-.58v-1.83c-.92.27-1.36.76-1,1.62l1,.19-.74,1.2c.73,1.28.3,3.08,2,4.06a4.07,4.07,0,0,0-.87,3.68,1.37,1.37,0,0,1-.08.35c-.77,4-1.52,8-2.31,12-.49,2.47-1,4.92-1.56,7.39l-.31-.17-2.09,1.85-.23,1.23.9.37-.3.81.92-.09.15.25-.91.94.24,4.34h-1.15c.74,1.59.28,3-.09,4.48s-.09,2.9-.79,3.93l-.36,3.89-.85-.6-.35,1.14.87.73c-.66,3.31-1.29,6.54-1.93,9.78l-.35-.33-1.91,1.27.18.3,1.75.24-2.11,2.54-.2-.08-1.12,1,.66.51a20.63,20.63,0,0,0-.45,3c0,1.13-.46,1.57-1.58,1.45l1.87,2.65-.87,2.72h-.33c-.15-.82-.48-1.28-1.17-.88l-.31,2.3,1.09.48,1-.39.2.4-1.21.64-.16,1.92.77.58-1.26,2.38-1.11-.57c-.52.39-1.3.69-1.59,1.25a2.44,2.44,0,0,1-2.66,1.59l.34,1.66-1.69-.5-.2.24,1.12.83.1,1.86-1.28-.26a2.34,2.34,0,0,1-.42,3.19l-1.23-.73.34,1.43,1.33.08-1.15,1.22-.57,2.82,1.3.38.52.87-.21.3L96,235.17l-.6,1.43,1,1.82.53-1.53a11.05,11.05,0,0,1,1.51-.16,1.49,1.49,0,0,1,1,.35c.13.15-.06.65-.2.94-.45.9-.95,1.78-1.56,2.91l1.74-.17.49,1.72,1.08.46-1.63,3.58-1,.53.8,2.51-1.64,1.54L99,252.18l-.45.8a8.66,8.66,0,0,1-1.89,6.44l-1-.16L95,260.62l1.27-.38c.2,1.13.39,1.93.47,2.75a2.92,2.92,0,0,1-.17,1.34,6,6,0,0,1-.92,1.14l-.77.1c.13,1.45,1.4,2.8.28,4a4.31,4.31,0,0,1,.27,1.33c-.43,2.39-.93,4.77-1.43,7.32l-2,.48.57,2,.76.26a8.24,8.24,0,0,1-.06,1.22c-1.28,6.62-2.55,13.24-3.88,19.85a10.9,10.9,0,0,1-.85,2.06l.06,0L87.88,306l-.19-.08.26,1.38c-.44.46-.5,1.13-.87,1.4s-1.06.23-1.67.33l-.27.85,1.43,1.08-2.4,6.76,1.34,1.12a8.57,8.57,0,0,1-2,.64c-1.89.07-3.79,0-5.88,0l.55-.85,1.36.45L78,316.9l-.58,1.28-1-1.12c-.62,1.12.18,1.46,1,1.84a14,14,0,0,1-2.63.55q-7.55.07-15.09,0a19.94,19.94,0,0,1-2.56-.35l-.26-1.06H55.6c-.29-1.38-1-2.73.51-3.9l-1.94-.23-.11-1.13-.2,0-.62,1.48L51,313.75l.32,1.06,1.38.88-1,1.81,1.27.68-.2-.84,1.41.16.06,1.35a14.42,14.42,0,0,1-2.92.6c-11.41.05-22.83,0-34.25,0H11c.1-.92.19-1.72.3-2.52,0-.19.11-.51.22-.53,1.37-.26.41-.92.22-1.44l.47.44,1-1.21-.35-.34h.46a4.86,4.86,0,0,1,.65-1.26c.12-.12.57.09.87.15l-.28,1.15.42.3.53-1.05h3l-.9-1.4.13-1.2,1.27-1.32-.61-2,3.91-.21.16.24-1.66.94,2.41.24,0-.22-.66-.45,1.5-1a2.57,2.57,0,0,0,2.45,1.66L26,305.9l-.9-.56.42-1.59-1.3.4-.54-1.28-2-.38.93-1.16-.76.05.21-.64-1.19-1.83-.61.86-.19-.08.71-3.1-1-.53.81-1.33-1.64-.14c.9-.16,1.38-.55.82-1.56l-2.29.16,0,.31,1.43,1.08-1.55.51L17,295l-.74-1.54.4-.34-.61-.47.54-2.62,1.48-.9-.5-.93L17,289l-.33-.15c.28-.69.55-1.37.82-2.06a7,7,0,0,0,.4-1.08c.15-.66,0-1.58.4-1.95,1-1,.59-1.89.25-2.76l1.33-2.75-.9-.4a3.23,3.23,0,0,1,0-.44q3.18-16.38,6.38-32.76,2.52-13,5-25.93a5.36,5.36,0,0,1,.59-1.26l.23.31,2.12-.12a11.86,11.86,0,0,1-.22-1.78,8.94,8.94,0,0,1,.31-1.54l1.38-.17L34.15,213l1.74-1.69L35,210.19h2l1.25-1.11-.75-1,1-1.57-2-.92-1,.3-.27-1.12-1.73-.14a14,14,0,0,1,0-2.59q3.48-18.09,7-36.17,4.38-22.54,8.74-45.1c.56-2.85,1.12-5.7,1.64-8.39l2.13-1.31V107.2l.55-.13-.25-.8-1.14-.1a8.41,8.41,0,0,1,.37-2A2.68,2.68,0,0,1,53.85,103c1.15-.55,2.36-1,3.56-1.47l.26-1.86-.94-.82-2.45.81.3.68,0,0L53.42,100,56.2,85.48l-27.35,15-.14-.23L30,97.88l-1.57.25-.6-2.54-1.06-.68.45-1.43c-1.19-.64-1.42-.55-1.92.85l-1.58.31-.42,1.21,1.07.93c-.36.48-.6,1.16-1.05,1.37-1.22.57-1.44,1.27-.63,2.27l-.33.8.63,1,.15-.25,1.37.59-.09.39L6,113.12c.08-.65.11-1,.17-1.26.83-4.31,1.71-8.61,2.48-12.93.21-1.2.67-2,2.08-2.12v2l1.2-.63-.19-1.88H13c-2.25-1.86-.58-3.2.63-4.68H12.3l-.15-.31,1.1-.7.24-1-.8-.61L14,87.44l1.06.33.29-1.44-1.08.11L15,83.29l-1-1.5L17.53,78l-4.36-2.44c.32-1.73.6-3.54,1-5.32.36-1.55.22-3.3,1.49-4.28a9.55,9.55,0,0,1-.22-2.2c.4-2.44.89-4.86,1.38-7.27.19-.92.47-1.81.7-2.72l.17,0-.17-.91,1.1-1.56-.77-.81,1.77-1.6.6,1.07,1-.73-2.05-1.11.5-.61-.41-.37L20.57,45,21,46.16l.16,0V44l-1.78.68c.18-.63.3-1,.43-1.46s.4-.81.27-1.07c-.56-1.22.1-1.74,1-2.2.6-.29,1.18-.65,1.74-1l2.1.6c.56-.79,1.21-1.36,2.24-.46l-.68-1.49,2.34-1.37h3.56l1-1.81L33,33.23l6.4-3.54L40,32.2l.27-.09L41,30.38l-1-1.12,3.48-1.73,1.3,1.85-1.52-.73L42,29.48l1,1.24-1.45.56c-.46,1.07,1,2.38-.56,3.44l-.34-1-.5.55,1.44,1.2-.67.47.1.23,1.87-.48,0,.64,0,0-1.3.68-1.16-.35v.27l-2.6.48.87.47-.41.63,1.07.48.78-.48,2.22.77.1-.33-1.1-.36.81-1.4,1,1.81.57-1.44,1.6,1-.26.78a9.2,9.2,0,0,0,1.15.72,7,7,0,0,0,1.16.34l.8-1.08-1.29.49-.11-.18.74-.84c1.81.24,4.08-1,3.76-2l-1.26,1V36.66c.51-.4,1-.94,1-1.4a3,3,0,0,1,.7-2.23,6.8,6.8,0,0,0,.53-1h1.31c-.3-.72.64-1.56-.58-1.64l-2.55-.16.33-1.45,1.76.6V27.8l1.24.45v1.27l1.79.09.73-1.51L55.92,28l1.41-3.09,1.82.28-1.82,1.69.81,1-.72.6.71.41L57,29.88h2.23c.86.07.53-2.19,2.05-1.05.47,1.83-1.15,1.79-2.21,2.34l1.44.65,1.23-1.32.54-2.27-.94-1.42-.57.45-.91-1.19,1.18-.51-.46-1.71a7.34,7.34,0,0,1-2-.31A8.72,8.72,0,0,1,56.88,22l1.38-.09c.66,1.57,1.71.43,2.59.51l1.26-2.91,1.3.9-.21-1.7H60.5l0-.4,2.1-.66.15-1.34,2-1.15.92,1.07-.17-1.12,2.24.16c-.76-1.84,1-2.08,1.7-2.66a32.31,32.31,0,0,1,4.91-2.9l1.63.65.15-.33-.68-.44.47-.83,2.55.77L77.71,8.3l2.23-.62,1.26.74-.51-1.35.83.06ZM51.75,165.8l-4.08,2.34,2.49,1.78-.54.26.08.23,1.23-.17-.72-1.4,2.37-1.32c.5,1.93-1,2.89-1.42,4.28H52l1.74-1.38,0-.06,1.5-1.45Zm-3.07,11.51.65-.47-.28,1.35c1,.24,2,.36,2.55-.36s1.23-1.13,2.21-.69l.2-.24-.76-1.28-.59.71-1.85.34a6.62,6.62,0,0,0,.95-1.49c.1-.31-.24-.76-.4-1.21l-.8.37-.69-.75-1.68,1.2,1.1,1.31-.22.3-1.55-.54-.64,1.66.26.21.89-.87ZM39.28,308.9l.8-2.3L41.62,305,38.9,303.8v3.87l-1.37-.26.14-.25-1.55-1.08-.7,1.52,1.93,1.93.25-1.63Zm-9.92,1.89c-2.74.2-3.44,2-4,4,.48.81,1.08.56,1.77,0L26.41,313a9.47,9.47,0,0,1,1.48.48,9.28,9.28,0,0,1,1.2.95Zm71.47-100.46,1.9.2c-.34-1.13-1.86-1.07-3.11.16v1.36l-.26-.13a11.21,11.21,0,0,0-1.16,1.74c-.08.16.43.59.67.91l1-1.57,1.69.27,1.23-.84-2.07-.5.66-.84Zm5.28-18.46c-2.39,1.15-3.32,2.37-2.86,4.06l.92-2,.82,1.12.56-1.77,1.06-.81ZM86.66,81.11,85.3,79.25l-2.06,1.61,2,1.12ZM84.25,310.65H81.92c.71.84.92,1.5.29,2.34a4.69,4.69,0,0,0-.42,1.8l.41.17,1.36-1.63-.71-1.17ZM63.71,27.3l.48,1.19.34,0,.32-.83-1.36-1.54.16-.15-1.5-.5C61.89,26.86,63,26.9,63.71,27.3ZM55.42,162.85,56,164.5l-.4.27c.93,1,1,1,1.53.37L57,162.67ZM25.72,311l-1.19-.24-.48.82-1.16.19,1.27,1.88.34,0c0-.37-.12-.79,0-1.08A11.19,11.19,0,0,1,25.72,311ZM40.1,40.8l-.3.18L39.92,43l2.16.17Zm7,266.06,0-.43-.78-.26-.28-2-.24,0-.93,2.64h2.25ZM23.4,294.07l0-.44-2.4-.36.22,1.59ZM22.81,94.88H20.26l-.54.88,2.71.2Zm26.42,69.64c.88.18,1.57,1,2.42.06l-.72-.91-.76.18-.58-1ZM54.77,33.09c-1.52-.25-1.52-.25-1.65.63l1.65.86ZM49.19,178.71l-.91,1.5,2.71-.59.08-.42ZM87.06,7.16l-.21-.24-1.28,1,1.17,1.37ZM31.29,91.91l.08.4L33.1,93l-.37-1.69Zm69.78,116c1.18-.74,1.15-1.32.14-2.65C100,206.23,102,206.88,101.07,207.92ZM57.72,164.47v1.18l.93-.23-.1-.83,1.1-.7-.2-.35ZM39.45,207l1-.62-.37-1.1-1.38.75ZM63.6,17l.14,1.37L65.37,17l-.2-.21Zm44.79-6.33.46.95,1-.69-.58-1.33Zm-19.1,2.58,1.35,1.83V13.25Zm0-1.35-.37-.44L87.57,13l.36.36Zm31.25-3-1,.36.82,1.58.2-.25Z"/><path id="Path_7605" data-name="Path 7605" class="cls-1" d="M42.83,36.31l1-.6.47-2.79.31,0L45,34.58l.4,0,.44-1.15,1.29-.2L48,34.6l-.16.25-1-.35-1.69.6-.51,2-1.38-.06-.42-.79Z"/><path id="Path_7606" data-name="Path 7606" class="cls-1" d="M25.71,100.87l-2.05-.8.49-.57-.61-.73.23-.35,1.43.85L26.33,98c1.53.16,1.85,1.29.84,3.28a1.61,1.61,0,0,1-.31-2.26l.12-.14c-.63-.28-.82-.22-1.05.53A8.67,8.67,0,0,0,25.71,100.87Z"/><path id="Path_7607" data-name="Path 7607" class="cls-1" d="M54.59,100.34l2.24-.34.26.16-1.32,1.53-1-.48-.61,1-.36-.16.77-1.72Z"/><path id="Path_7608" data-name="Path 7608" class="cls-1" d="M20.67,306.86l-.79-.39c.23-1.15,1-1.49,2.29-1.47Z"/><path id="Path_7609" data-name="Path 7609" class="cls-1" d="M18.09,297.71l-1.15-2,2,1.34Z"/><path id="Path_7610" data-name="Path 7610" class="cls-1" d="M55.14,26.47l-1.08-.22.35-1.32.32-.06.65,1.33Z"/><path id="Path_7611" data-name="Path 7611" class="cls-1" d="M89.78,8.93l1.4-.72.57.75-.12.37-1.87-.42Z"/><path id="Path_7612" data-name="Path 7612" class="cls-1" d="M102.08,8.21l-1.19.57-.18-.2.74-1.6.6,1.26Z"/></g></g></svg>