<svg id="Layer_1" data-name="Layer 1" xmlns="http://www.w3.org/2000/svg" viewBox="0 0 266.2 325.58"><defs><style>.cls-1{fill:#f0eae7;}</style></defs><g id="KL94Mh.tif"><g id="Group_1645" data-name="Group 1645"><path id="Path_7613" data-name="Path 7613" class="cls-1" d="M212.32,319.48h-4.8a2.76,2.76,0,0,1-.23-1c.05-.3.32-.77.56-.82a3.11,3.11,0,0,0,2.81-3.37v0l1.1-.59-1.35-.93-.31.37c-.16-.17-.38-.31-.46-.5a3.46,3.46,0,0,0-2-2.36l-.48.79,1.78,1.28-.11.31c-1.09-.23-1.81,1.77-3.11.3-.16,2.2-1.67,0-2.24.93a18.05,18.05,0,0,0-.6-1.75c-.26-.56.07-1.74-1.29-1.19l.13-1.22a.84.84,0,0,0-.46.53c-.23.8-.45,1.48-1.54.86a12.91,12.91,0,0,0-1.92-.69l.3-.2c-.33-.68-.65-1.36-1-2,1.23-.84,1.58-.85,2.31,0V307c-1,0-1.9,0-2.81,0a.9.9,0,0,1-1.09-.66s0-.06,0-.09c-.48-1.57-.52-1.56-2.18-.9l.46,1c-.73.36-.73.36-.3,3.4l1.88.8-.44.12a14.53,14.53,0,0,1-.46,1.72,5.47,5.47,0,0,1-.8,1.36c-.57.68-1.2,1.31-1.65,1.79.34.73.8,1.36.67,1.52a2.05,2.05,0,0,0-.23,2.41H137l8.18-41.74H112l.51-.6L111,275.41l-.36,1.54-2.22-1.62a3.31,3.31,0,0,1,0,1.33c-.5,1.12-1.52,1-2.58,1q-29.89,0-59.81,0a4.87,4.87,0,0,1-1.49-.46c-.84-.32-1.72-1.16-2.42.22a.45.45,0,0,1-.36.23c-2.11-.11-4.23-.24-6.34-.37a2.22,2.22,0,0,0-.68.07c-.36.11-.7.28-1.49.59,1.15-2.37-1.13-1.45-1.45-2.28l-1.78.85c-.2.1-.57.19-.57.29,0,1.09-.83.88-1.47.88H4.9L8,262.27l1.53,1.33,1-.67.71,1.6,1.59-.64v2.3l.59.29.19-1a2.64,2.64,0,0,0,.5.38c.24.08.49.12.73.19a7.06,7.06,0,0,0-.4-.65,7.44,7.44,0,0,0-.58-.68c-.3-.33-.61-.64-.91-1l-.26-.78c-1.24.52-1.47-.75-2.25-1.17l.34-.37c-.49-.56-.84-1.28-1.41-1.55-.85-.4-.76-.9-.62-1.61,1.1-5.56,2.16-11.12,3.24-16.68.63-3.24,1.27-6.47,1.92-9.75l1,.44c.07-.18.16-.29.15-.39-.1-.94.05-1.64,1.23-1.71.25,0,.58-.57.65-.92a14.59,14.59,0,0,0,.15-2.09l.32,0,.95,2.11c1.19-1.78.83-4.16,2.86-5.23l-.46-.88.3,0,.32-1.62c-.68,0-1.36-.06-2,0a3.67,3.67,0,0,0-.92.3l-.14-.36,38.18-56.68.68.91,3-2.37-1.38-1.9c.09-.15.23-.39.38-.62q9.2-13.67,18.41-27.32c.3-.45.74-.8,1-1.26,1.82-2.77,3.58-5.58,5.44-8.32a11.12,11.12,0,0,1,1.92-1.77l0,0c.34.3.87.91,1,.84a7.53,7.53,0,0,0,1.26-1.2l.87,1.5c.21-.19.29-.23.31-.29a1.43,1.43,0,0,1,1.7-1.09,1,1,0,0,1,.25.08c.39.1.4,1.61.21,2.1a3.63,3.63,0,0,0,0,1.23l.46.08,1.19-1.63.17.28c.42-.17.86-.33,1.27-.52.2-.09.49-.4.54-.36.92.72,1.19-.23,1.7-.6a2.86,2.86,0,0,1,1-.27c.07.33.17.66.21,1a1.42,1.42,0,0,1-.14.46c-.32,1.14,0,1.49,1.1,1.34.42,0,1-.27,1.23-.09,1.1.73,1.84.3,2.53-.56-.4-.87-.38-.84.24-1.29s1.43-1.12,2.22-1.75l.86.67c.28-4.09.32-4.23,1.28-4.65l.3,2.33c.32-.52.47-.82.66-1.08s.51-.6.76-.88a1.79,1.79,0,0,1-.1-2.54,2,2,0,0,1,.26-.24c.42-.41,1.15-.93,1.1-1.31-.15-1,.39-1.42,1.26-1.78-.66-1-.06-1.64.66-2.22.42-.33.77-.76,1.2-1.07a7,7,0,0,1,2.46-1.53,4.36,4.36,0,0,0,3.46-4.8,2.31,2.31,0,0,0-.3-.61,10.3,10.3,0,0,1-1.26-2.5,29.55,29.55,0,0,1-.81-5.6c0-1.7.88-2.63,2.77-2.35-.17-.57-.33-1-.46-1.53a2,2,0,0,1-.08-.72,7.85,7.85,0,0,1,.22-1.27c0-.17.13-.42.25-.45a.58.58,0,0,1,.48.22,2.29,2.29,0,0,1,.27.62l.17-.06V86.86c-1.8-.93-2-3.67-4.54-3.54l.17-1.49c-.47-.17-.94-.2-1.07-.41a22.19,22.19,0,0,1-1-2.18c.33-.51.76-1.22,1.22-1.91q12.54-18.64,25.1-37.27,11.11-16.5,22.25-33A2.12,2.12,0,0,1,164,6.14c5.67-.06,11.35,0,17,0,.35,0,.7.35,1.06.54l1.06,0L182.74,8l2.06-.27-2.31,2.45c1.78.82,2.56-.64,4.06-1.29L185,8.39l2.07-2.2h57.45c-.08.52-.13.95-.21,1.47,1.94.41-.26,1.54.28,2.14l-1.91,1.61,2,.34c-1.32,1.81-3.24,2.06-5,2.78l.61.41-.79.74-.87-.66-.29.28c.24.33.4.83.73,1,1,.48.64.7,0,1.13a6.51,6.51,0,0,0-1.74,1.52,4.54,4.54,0,0,0-.58,1.74A8.73,8.73,0,0,0,236.7,22l1.39-.49a12.75,12.75,0,0,1-.82,2q-19,29.54-38.05,59Q193.78,91,188.31,99.49c-.54.84-1,1.26-1.67.11a1,1,0,0,0-1-.09,11.6,11.6,0,0,0-1.51,2.53c-.4,1-.5,2.14-.84,3.18-.1.3-.55.47-.84.7a3.22,3.22,0,0,1-.57-.83c-.27-.82-.3-1.58.92-1.57.1,0,.2-.2.4-.4-1.07-.59-1.57.46-2.17.52-.1.58-.18,1.06-.28,1.53-.06.26-.28.51-.26.75a2,2,0,0,1-1.57,2.31l-.16,0c-.5.12-1.09.79-1.32-.17l-2.23,2c.54.7.45.83-1.16,1.07l.24,2.17-1.84,1.38.5,1-1.28-.61-.89,1.53h-1.19l0,.28,1.45.56v3c1.42.45,1.42.45.65,2.48-1.83-.51-1.25,1.16-1.59,2.19l-1.36-1.79-.41.29.8,1.42c-.42.55-.76,1.39-1.36,1.67a6.31,6.31,0,0,1-2.41.07c.34.57.82,1.2-.15,1.73a8.37,8.37,0,0,0-1.42,1.37c-.5,0-1.42.92-2.3-.27a2.14,2.14,0,0,0,.15,1,1,1,0,0,1-.24,1.43,1,1,0,0,1-.34.15.9.9,0,0,0-.41.53,2.76,2.76,0,0,0,2,3.36l.16,0c.18.05.28.4.56.82-1.21-.15-2.19-1-3.06.38,1.34,0,.82,1.12,1,1.58l1.41-.79.39.38-41.47,64.32-1.13-.86a8.23,8.23,0,0,1,.17,1.64,3.23,3.23,0,0,1-.45,1l-.28-.18.32-1.64a1.22,1.22,0,0,0-.76.27c-.34.24-1.22-.17-1,.76a1.84,1.84,0,0,0,.6,1c.82.5.44.95,0,1.38-.59.6-.9,0-1.23-.36s-.47-.79-.64-.76c-2,.3-.57-.81-.67-1.32a2.52,2.52,0,0,1-.37-1.14c0-.14.28-.3.43-.46l1.23,2c0-.64-.08-1-.08-1.35s-.07-.78,0-.82c.76-.33,1.8-1,2.31-.74,1.11.58,1.25-.28,1.75-.6L120.45,199l-1.52,1.63-.1-.3-1.69.24c.06-.61.08-1.23,1.16-1.25a1.7,1.7,0,0,0,1.27-.83,9.9,9.9,0,0,0,.51-2.28,14.84,14.84,0,0,0-1-1.14c-.43-.37-.87-.73-1.33-1.07a3.31,3.31,0,0,0-.48-.91c-.13-.15-.73-.15-.78,0a2.58,2.58,0,0,0-.43,1.37c.12,1,.47,2,.6,3.08a20.19,20.19,0,0,1,0,2.46l-.52.07-1.25-3c-.86,2.2-.22,4.63-1.76,6.46-1-1.58-.85-2.5.54-2.9-.33-.27-.65-.68-.8-.63a2.22,2.22,0,0,0-1,.75,17.68,17.68,0,0,0-1.06,1.9c-.07.14-.17.32-.13.44.43,1.28-.5,1.84-1.3,2.47l-.52.45.51.78c-1.53.74-1.58.83-1,1.92-.65.18-1.27.33-1.87.53-.2.07-.34.28-.51.43l.53.58-.27-.06-.73,6.83,1.89-.55c.3.31.71.59,1,.49a5.08,5.08,0,0,0,1.22-.95l-1.23-.76,1.32-.25a1.24,1.24,0,0,1-.1-1.76l0-.06c.34-.48,1-1.19.17-1.89l1.22-1.46c.83.79,1.2.19,1.58-.5.06-.11.41-.06.6-.08l.24,1.67.83-1.81a14.52,14.52,0,0,1-1.23-1.49,2.86,2.86,0,0,1-.15-1.08,3.18,3.18,0,0,1,1.23,0c1.3.5,2.56,1.09,4,1.7l-4.46,7h1.65c5.44,0,10.87,0,16.3,0,.51,0,1,.4,1.53.53a1.74,1.74,0,0,0,1,0,13.74,13.74,0,0,0,1.38-.56c.19.82.28,1.82.43,1.83,1.49.1,2.23,1.09,3,2.14-.25.28-.68.58-.64.71.4,1.09-.17,1.36-1.18,1.38a4,4,0,0,0,1.77.43c.84-.12,1.48-.1,1.67,1,.65-.62,1.11-1.38,1.73-1.56a5.29,5.29,0,0,1,2.15.35c-.23-.7-.06-1.76-1.45-1.43-.28-1.23-.53-2.37-.79-3.5l.47.11a11.13,11.13,0,0,1,1-1,1.55,1.55,0,0,1,.87-.44c3.94,0,7.88-.05,11.82,0,.87,0,1.18-.3,1.34-1.1q3.24-16.68,6.51-33.35c.78-3.95,1.59-7.9,2.4-11.9.79.37,1.42.95,1.51-.35,0-.29.47-.7.8-.8,1-.3.81-.84.53-1.57a19.71,19.71,0,0,1-.63-2.37c1.52.65,1.93-.6,2.4-1.09,1-1,.81-1.6-.32-2.54l.54-1.86c-1.1-.58-1.11-.72-.08-1.62a.52.52,0,0,0,.08-.38c0-.65.53-1.38-.32-1.93a1.38,1.38,0,0,1-.65-.79,11.69,11.69,0,0,1-.26-3.12,51.93,51.93,0,0,1,1-5.4,24.79,24.79,0,0,1,.89-2.55,2.51,2.51,0,0,1-.2-.86c0-.18.35-.43.56-.46a18.32,18.32,0,0,1,2,0h60.06a2.18,2.18,0,0,1,1.13.38,18.45,18.45,0,0,1,1.58,1.35l.22-.11-.35-1.51h2l-2.59,3.64,1.84-.13c-.74,1.92-3.09,3.21-1.69,5.47l1.41-.28.59,2.12c1.07-1,1.42-1.88.75-2.86.59-.14,1.09-.27,1.6-.36a.59.59,0,0,1,.49.16.7.7,0,0,1,0,.53,3.17,3.17,0,0,1-.4.56l.32.28,1.92-2.11c0,.09.25.32.22.51-.22,1.69-1.78,1.9-2.93,2.67a2.59,2.59,0,0,0,1,.1,3.59,3.59,0,0,1,1.66.14c.22.13.05,1,0,1.5a10.09,10.09,0,0,0-.32,1.23c0,.91.06,1.83.1,2.74l-.33.06-.45-.69c-.26.31-.45.77-.75.86-1.39.42-1.32,1.22-.35,2.53l-2-.15c-.84-.06-1,.05-1,1L239,160l.91,1.62,3.52-1.07C239.78,179,236.26,197,232.7,215.24h7.84c-1,3.39-1,3.39.33,5l-.85.62c2.15-.38,1.14,2.15,2.57,2.56l.4-3c.2,0,.5.2.71.12a14,14,0,0,0,2.07-1c.61-.37,1.13-.89,1.72-1.29s1.32-.8,2-1.19c.3-.17.76-.24.88-.48a1,1,0,0,1,1.24-.68.7.7,0,0,1,.2.08.93.93,0,0,0,.78-.07c.88-1.08,2.07-.77,3.16-.72a9.52,9.52,0,0,1,2.1.6c.68-1.36,2.1-.38,3.47-.67q-5.85,29.91-11.57,59.16a5.14,5.14,0,0,0-1.41.54c-.93.8-1.79,1.24-2.61-.11-.6,1-1,2.15-1.75,2.65s-2,.26-3.29.38l.42-.48.69-.7a9.4,9.4,0,0,0-.92.2,8.87,8.87,0,0,1-2.37.86c-2.51.12-5,.06-7.55,0a5.29,5.29,0,0,1-1.35-.42c-.84.76-3,.61-3.49-.09l-5.69.76c-.56,2.88-1.13,5.89-1.72,8.9-1,5-2,9.94-2.94,14.91Q214,310.61,212.32,319.48ZM126,177.53l1.1.4a5,5,0,0,0-.13.65c.77.28,1.56.52,2.34.77l.15-.32-.48-.75c.27-.82,2-.89.9-2.19s-1.73-.38-2.51.35l-.49-.88-.39,0c-.15.68-.31,1.35-.47,2a5.1,5.1,0,0,0-1.28-.2c-.33,0-.83.21-.92.45-.27.74.83,1.67,1.54,1.5ZM193.87,59.44a7,7,0,0,1-.64,1.05c-.16.2-.57.45-.72.38-.67-.33-1,.09-1.34.49-.21.24-.45.65-.66.64-1.65-.07-2.46.57-2.17,2.3-1.48.63-.54,3-2.44,3.37-.42.08-.78.53-1.3.91l3,.91c0,.72.33,1.91-.09,2.7a1.78,1.78,0,0,0,0,1.92c.29.46,1.07.6,1.64.87a3.31,3.31,0,0,1,.76,1.13c.18.31.54.87.66.83.86-.29,1.69-.7,2.52-1.07l0-.28L192,75.21l.4-2,.79,1.46c.27-.59.63-1,.56-1.33a29.23,29.23,0,0,0-1-3.44,2.48,2.48,0,0,1,.42-2.91,1.46,1.46,0,0,1-.54-2.43c.24-.32.94-.29,1.7-.5l.61-.73c-1.3-1.2.28-1.93.47-2.74ZM209,186.83l-.08-1.86c-2,.68-3.37,2.74-5.56,2.32l2.34,3.88,3.84-1.08.18,1,1.13-.38-.67-1.25-1.36-.23.07-.43,1.62.22c.31-.85.57-1.53.91-2.46l-3.23,1-.07-.33ZM134.2,164.25c-.17-.48-.49-.94-.44-1.35.06-.62.23-1.36,1.24-1.27l-.06.76.35.14,1-2.11c-.86.28-1.47.3-1.18-.65a12.74,12.74,0,0,1,.71-1.55l-.27-.26c-.28.26-.57.51-.83.78s-.32.57-.52.6a14.9,14.9,0,0,1-1.89,0,3.6,3.6,0,0,0-1.52.8c-1,.72.07,1.07.35,1.62-.47.62-.88,1.27-1.39,1.83-.8.9-.84,1.55.46,1.94a2.74,2.74,0,0,1,.7.46l.22-1.59c.7.13,1.71-.81,2,.55Zm78,18.55c-.42-.5-.91-1.08-1.39-1.67-1-1.18-1-1.82-.05-3a5.94,5.94,0,0,0,.65-1.25c.37-.92.7-1.85,1.11-2.92,0,0-.35-.17-.51-.06-.58.42-1.35.85-1.55,1.44-.32.92-.75.83-1.32.54-.57.75.23,2.07-1.17,2.35-.07,0,0,.37-.1.54-.35.74.69,1.87-.37,2.15Zm-6.7,10c-.74-1-2.67-1.12-1.68-2.9a3,3,0,0,0-2.4,1.66l.53.65h-.31l-.27,1.65a7.83,7.83,0,0,0,1.53,0,11,11,0,0,0,1.63-.68c-.37-.74.48-.23,1-.34Zm-7.17,110.7,1-.13-.19,1.17h-.73c.15,1.66,1.16,1.08,2,.79l-.14,1.24,1.43-1.25-1.56-.63.84-1.59-.86-.82-1.88.41Zm-4.18-5.87-.13.3c.22.3.45.62.68.91s.43.53.64.79a8,8,0,0,0,.9-1.26,5,5,0,0,0,.2-1.28l-.9-.35-.51,1.43ZM140.69,264c.6-.76,1.72-1.27.95-2.48C140.68,261.5,140.47,262,140.69,264Zm32.6-108.43c-1.12.73.25,1.37.39,2.1l.12-.73,1.23-.39Zm-70.2,60.06.23.36c.19-.48.61-1,.5-1.41-.37-1.38-1.4.24-2-.35ZM215.44,8.9l.29-.33-.91-2.17-1,1.48Zm-94.2,181c-.44-1.24-1.18-1-2-.73.33,1.3,1.16.84,2,.73ZM194.9,294.76l-.41,0v2.57c1-1,1.1-1.74.41-2.55Zm44-142.16c1,.8,1.27.72,2.1-.45ZM241.21,7.05a4.87,4.87,0,0,0,.66.78.78.78,0,0,0,.58.1.42.42,0,0,0,.24-.35,10.89,10.89,0,0,0-.21-1.14ZM141.86,264.12l-.35,0c-.14,1-.72,1.91,0,2.91Zm70.93,47,.47-.22-1.11-2.32C212,309.69,211.94,310.53,212.79,311.1Zm-67.28-44.9c.73.29,1.08.55,1.42.53.94,0,.83-.63.26-1-.3-.16-.9.21-1.68.43Zm76.62,5.16.46,1,1.2-.1-.84-1.47Z"/><path id="Path_7614" data-name="Path 7614" class="cls-1" d="M246,147.28a3.5,3.5,0,0,0-4.43,1.34l-.3-.26c.34-1.44.69-2.88,1-4.32l.48,0a7.47,7.47,0,0,1,.12.95c0,.5,0,1-.06,1.5.53,0,1.06,0,1.59,0a6.2,6.2,0,0,0,.93-.28c-.82-1-1.57-1.94-2.23-2.89a20.2,20.2,0,0,1-1.1-2.05h5.14C246.79,143.24,246.41,145.22,246,147.28Z"/><path id="Path_7615" data-name="Path 7615" class="cls-1" d="M180.44,111.68l-6.72,10.43-.82-.72.2-1.29c1.49-.28,2.24-1.35,2.68-3s0-3.3,1.35-4.55c.2-.18.08-.72.1-1.1Z"/><path id="Path_7616" data-name="Path 7616" class="cls-1" d="M170.92,125.82c.11,1.16-1.63,3.5-2.76,3.26v1.72c-.42-.56-.8-1.1-1.21-1.63s-.75-1,.23-1.27a7.78,7.78,0,0,0,1.76-.6A20.39,20.39,0,0,0,170.92,125.82Z"/><path id="Path_7617" data-name="Path 7617" class="cls-1" d="M245.42,6.16h2.87a1.9,1.9,0,0,1-1.92,1.75C245.18,7.93,246.35,6.65,245.42,6.16Z"/><path id="Path_7618" data-name="Path 7618" class="cls-1" d="M17.76,223a2.55,2.55,0,0,1-.42.84c-.81.71-1.33,1.41,0,2.47l-2.35.62-.21-.26,2.6-3.86Z"/><path id="Path_7619" data-name="Path 7619" class="cls-1" d="M239.5,142.38c.36.32.72.62,1.05,1,0,0-.23.33-.36.5l-1.12-.94Z"/><path id="Path_7620" data-name="Path 7620" class="cls-1" d="M85.94,122.13l.23-1.6,1.21,1.17-.21.32-1.26.09Z"/><path id="Path_7621" data-name="Path 7621" class="cls-1" d="M239.58,148a10.79,10.79,0,0,1-1.26.14c-.07,0-.14-.39-.21-.59l1.36-.18Z"/></g></g></svg>