<svg id="Layer_1" data-name="Layer 1" xmlns="http://www.w3.org/2000/svg" viewBox="0 0 257.69 325.58"><defs><style>.cls-1{fill:#f0eae7;}</style></defs><g id="cLOs56.tif"><g id="Group_1645" data-name="Group 1645"><path id="Path_7613" data-name="Path 7613" class="cls-1" d="M156.55,2h7.91c1.75.16,3.49.34,5.24.48a92.29,92.29,0,0,1,27.05,6.29c1.39.55,3.09.74,3.33,2.5l2.54.13-.81.86.38,0c.16.39.52.84.43,1.14s-.65.77-.93,1.19a3.74,3.74,0,0,0-.43,1s.16.14.43.37l.43-.94c1.48,1,1.93,1.07,2.32.34-.35-.2-1-.45-1-.6a21.68,21.68,0,0,1,.7-2.63,3.63,3.63,0,0,1,1.3,3.33c0,1.49.4,2.69,1.35,3a9.4,9.4,0,0,1,1.11.53l-.39,2c.61,0,1.12-.12,1.17-.34.27-1.29,1.27-1.42,2.11-1.48l.5-3.05,1.61,1.14-1.47,1.86a1.37,1.37,0,0,0,1.66,1,1,1,0,0,0,.22-.08,8.36,8.36,0,0,1,2.12,0c1.3-.58,2.21.09,2.84,2.38a5.63,5.63,0,0,1-.43.4c-.53.43-1,.9-.32,1.57.1.11.32.1.54.15l-.29-1.08c1.31.19,1.57,1.24.73,2.36l1.26,1.71a1.3,1.3,0,0,0,0-.93c-.21-.86.37-2.12,1-1.94.82.23,1.73-.1,2.51.62A84.37,84.37,0,0,1,237,41.7a12.21,12.21,0,0,1,.53,1.3,1.76,1.76,0,0,0,.4.67,2.24,2.24,0,0,1,.78,3.07,2.13,2.13,0,0,1-.42.52,11,11,0,0,0-.9,1.61l1.65-.26.12.29-1.31,1,.8,2.11c-.43.71-.75,2.07-2.54,1.9.36.35.8.66.93.56,1.24-.94,2.71-.82,4.12-1,.55-.07,1.1-.1,1.8-.16l.27.73-1.14.06.83,1.49.53-.84c.47,1,.94,1.88,1.26,2.78a70.16,70.16,0,0,1,3.9,28.62,78.14,78.14,0,0,1-7.73,29.2c-.55,1.11-.85,2.52-2.5,2.07l-.12,2.07-1.23-.71c.14.66.1,1.27.38,1.57.61.67.23,1-.22,1.51l-.28-1.34-1.82,1.23c-.33-1,.11-2.79.95-3,1.26-.26,1.06-1.1,1.25-1.86-1-.83-2-.89-2.68-.18,1,.72,1,.72.08,2.55l-.5-1.62c-1,.19-1.49,1.69-2.6.67,0,1.45,0,2.82,0,4.2,0,.85-.3,1-1,.62a3.42,3.42,0,0,1-.4-.26c-.44.15-.73.23-1,.34a9.75,9.75,0,0,0-1.62.72c-.08.06.21.66.28,1,.11.56.45,1.3.22,1.67-.77,1.28.21,1.06.84,1.14.21.94.21.94-1.06,2.94l2-.79c-.66.87-1.45,1.68.18,1.9A11.77,11.77,0,0,1,229,133c-.89.81-1.9,1.49-2.71,2.36-1.39,1.5-2.53,3.24-4,4.64a103.2,103.2,0,0,1-27.5,18.53c-.4.19-.8.4-1.35.68,1.23.86,2.29,1.57,3.31,2.32a2.15,2.15,0,0,1,.67.8c.23.49.34,1,.54,1.54.13.34.31.66.47,1l-.19.17L196,163.54c-.12,1.11-.67,1.87,0,3,.53.88.78,1.71,1.92,2l-.22-.95.24-.06.53,1.23c-1.51,1-2.05,1.73-1.81,2.43l1.37-.48a5.15,5.15,0,0,0-.18,1.23,1.85,1.85,0,0,0,.4,1.06c.11.14.6.1.82,0a8.72,8.72,0,0,0,2.12-1.49c1.1-1.25,2.52-1.29,4-1.39l.76-.07A14.61,14.61,0,0,1,204,169c-.09-.07.25-.69.47-1.23a64.39,64.39,0,0,1,20.91,39.86c-1.48-.3-1.74,0-1.34,1.44l1.18-.68a6.47,6.47,0,0,1,.38,1.3c.09,1.06.11,2.12.16,3.21-1.25,1-1.62,2.76-.62,3.45l.64-.93.46.27L225,218.59c-1.31.14-1.54-.06-1.6-1.6-.21.33-.43.54-.46.77a5.21,5.21,0,0,1-1.1,2.91c-.66.77.55,2.66,1.7,2.76-.88-1,.08-1.25.65-1.56a3.86,3.86,0,0,1,1.26-.2,7.18,7.18,0,0,1-.33,1.29,12.48,12.48,0,0,0-1.07,2.09,37.86,37.86,0,0,0-.54,4l-.17-.07.61,1.75c-.52-.22-.94-.52-1.05-.43a1.74,1.74,0,0,0-.69,1c-.17,1.19-.2,2.4-.36,3.6a1.19,1.19,0,0,1-.61.74c-.11.06-.49-.27-.66-.49a8.66,8.66,0,0,1-.65-1.2c-.13,1-.2,1.61-.26,2l3.29,2-.65,2.16-1.16.15c1.76,2.43,1.76,2.43.62,3l-1.18-.67L220.2,244l.27-.1q.67,1.2,1.35,2.43c-.55.55-1,1.53-2,.63-.1-.09-.5,0-.62.13a.81.81,0,0,0-.19.67,4.89,4.89,0,0,0,.76,1c.76.88,1.5,1.91,1.2,3.06a46.14,46.14,0,0,1-2,5.58c-.33.81-.78,1.92-1.45,2.17-1.25.49-1.23.84-.31,1.54-.36.6-1.35.88-.69,1.85.07.1-.61,1-.93,1-1.29,0-.19.57-.27.85l-2.74.27.37,1.63,1.5.1.16.32-1.25,1.15c.28,1-1.74,4.44-2.76,4.41.26,1.54-.89,2.47-1.59,3.58-.79,1.27-1.11,1.31-2.36.89l-2,.37a1.25,1.25,0,0,0,0,.51c.16.5.25,1.21.61,1.4.72.4.8-.45,1.14-.85a3.41,3.41,0,0,1,1-.59l.19.3c-.25.35-.49.71-.75,1.06a95.13,95.13,0,0,1-21.2,21c-3.11,2.23-6.4,4.22-9.63,6.27-.27.17-.75,0-1.14,0,.1-.35.09-.8.31-1a7.24,7.24,0,0,1,1.28-.91l-.39-2.8c1.51.46,1.53.44,2.53-2.19l-1.92.68a6.49,6.49,0,0,1,.05-2.24c.58-1.53,2.06-2,3.53-2.45-.8-1.73,1.62-.61,1.4-1.87-.72.31-.92-1.49-2.1-.36l1,.41-1.2.18c.22,1.28,0,1.54-1.36,1.44-1-.08-3.31,1.4-3.51,2.36s-1.05,1.4-1.75,1.88a16.24,16.24,0,0,1-2.4,1.19l.3.25.06,1.1c-.94-.26-1.3.56-1.86,1-1.19.94-2.83,1.58-2.32,3.62,0,.16-.2.38-.35.65l1.11.71c.39-1.87.4-1.9,1.86-1.74.35,0,.68.38,1,.59-.24.37-.38.92-.72,1.1q-2.43,1.25-4.94,2.32a2,2,0,0,1-1.28.06,2.9,2.9,0,0,0-2.94.75l-1.35-1-.4.08c1,1.58-.05,2.39-.9,3.28a1.57,1.57,0,0,0-.2.3,4.9,4.9,0,0,1-3.75,2.58c0-1.67.23-1.87,2-2l-.35-1-.23.07,0,.52-1.14-1.3,0,.91-.78-.42c.46-1,.16-2.15-.51-2a5.65,5.65,0,0,0-2.05,1.06c-.25.18-.22.74-.25.86-.93.7-1.72,1.29-2.51,1.9a.36.36,0,0,0-.08.2,5.43,5.43,0,0,1-1.8,3.49c-.54-.1-1-.37-1.29-.22a1.32,1.32,0,0,1-1.86-.12,2.2,2.2,0,0,1-.21-.32l-.29.19.23,1.4c-.9.07-1.88,1-2.93,0-.09-.09-.41-.11-.44,0-.54.91-1.49.34-2.15.61-1.26.51-2.27.49-3-.71-.33.29-.58.67-.88.73a2.58,2.58,0,0,0-1.72,1.09c-.35.45-1,1.53-1.71.32-.36.27-.68.69-1,.74-2.59.37-5.19.68-7.79,1a6.69,6.69,0,0,1-1,0l.22-1.4c-1.87.21-3.61.26-4.47-1.18a6,6,0,0,1-1.25.78c-1.27.39-3.94-1-4.33-1.94a2,2,0,0,0-2.55-1.11l-.1,0-.31-1.51c-1-.24-2.16-.39-1.34-1.92-.91-.19-1.3.13-1.5,1-.33,1.34-1.43,2.1-2.15,1.61l-4.06-2.7c0,.47.06.8.08,1.12,0,0-.06,0-.14.08l-.65-.36a4.71,4.71,0,0,1-4.06,2.27c-.15.54-.23,1.23-.36,1.24-.73.05-2,.14-2.12-.15-.43-1.16-1-1.1-1.89-.68-.2.1-.55-.14-.84-.22.1-.22.19-.44.3-.64s.19-.27.29-.4l-1.54-1.32-.3.26.85.92-2.3.53c.12.62.45,1.33-.69,1.13-.1,0-.27.26-.39.43-.31.43-.61.88-.93,1.34l-1.1-1.3c.24,3.31.24,3.31-2.46,3.39l.8-1c-1.06.28-2,.83-2.8.7a94.86,94.86,0,0,1-19.94-5.4c-3.43-1.38-6.78-3-10.44-4.58,1.18-.62,1.29-1.23.63-1.91l.81-.74c-.15-1.35-1.24-1.47-2.06-2a3.18,3.18,0,0,0-3.42-.11,2.85,2.85,0,0,1-1,.22,7.3,7.3,0,0,1-6.85-5.63,5,5,0,0,0-.4-1c-.49.33-.86.79-1.2.76a4.49,4.49,0,0,1-3.29-3.28c1.43-1.26,1.43-1.26,1-1.84l-.48.9a3,3,0,0,1-.51-1,3.38,3.38,0,0,1,.15-1.26,11.44,11.44,0,0,0,.64-2.64c0-.94.24-2.13-1-2.67-.09,0-.06-.32-.15-.43a4.17,4.17,0,0,0-.86-.87,14.12,14.12,0,0,0-1.56-.77l.14-.34,1.35.16a1.17,1.17,0,0,0-1.64-.28,1.21,1.21,0,0,0-.38.43c-.45.59-1.12,1.7-1.4,1.61-1.52-.47-1.71.65-2.18,1.75a68.51,68.51,0,0,1-8.1-14.5,62.34,62.34,0,0,1-4.51-15.65c1.31.64,2.49,1.14,3.6,1.78a2.38,2.38,0,0,1,1.14,1.22c.16.68.86,1.51-.31,2.2a1.33,1.33,0,0,0-.33,1.84,1.54,1.54,0,0,0,.17.19c.17.15.37.46.32.64-.29,1.13.12,1.72,1.08,1.7-.34.88-1,1.79-.88,2.56s1.07,1.43,1.57,2l-1.09.37c.15.33.22.87.46,1,1.23.51.64,1.1.14,1.68,1.49,2,1.62,2,2.84,1l1.54.67c-.69.66-1.32,1.17.16,1.46.49.1,1.39.36,1.18,1.54a1.71,1.71,0,0,0,1.35,2,1.78,1.78,0,0,0,.69,0l-.08-1.4,1.32-.17a12.57,12.57,0,0,1-1.5-2.2c-.45-1.12.89-1.28,1.39-1.93l-1.3-.31c.94-.79,1-1.28-.11-1.76s-1.17-.94-.29-2c-.55-.65-1.12-1.28-1.63-2-.18-.23-.39-.73-.3-.81a7.77,7.77,0,0,1,1.24-.81l.5,1,.24-.07-.34-1.95-1.95.95c.21-.38.41-.7.56-1s.6-1.22.5-1.29c-.87-.65,0-1.17.07-1.71a7.64,7.64,0,0,1,.52-1.55l-.5-.31-.36,1-.4-.19c-.06-.35-.28-.87-.13-1,1-.95-.07-.93-.68-1.18l.95-3.84a4.64,4.64,0,0,1-.8.41c-.78-1-1.81-.28-2.65-.28-1.2,0-2.08-.19-2.65-1.39-1,1.15-2,.22-2.47-.28s-1.72-1.43-.32-2.48a21.85,21.85,0,0,1-2.85-.68A1.55,1.55,0,0,1,9.89,255c-.31-3.22-.54-6.44-.78-9.66-.1-1.32-.17-2.63-.25-3.94v-.48c.1-1.84.22-3.67.28-5.5.08-2,0-2,2.08-2h60.9c.28,0,.56,0,.84,0,.81-.06,1.08.27,1.1,1.11a39,39,0,0,0,.35,5.61c1.51,9.33,6.9,15.61,15.62,18.85,11.12,4.12,22.42,4.1,33.73.63a7.26,7.26,0,0,1,1.32-.21,23.84,23.84,0,0,0,2.23-1.19c1-.71,1.56.25,2.48.58-.48.85-.9,1.61-1.31,2.35-.89.1-1.81.2-2.73.34a.56.56,0,0,0-.26.46.61.61,0,0,0,.36.41,3.17,3.17,0,0,0,.87,0l0,.22-3.44.26c-.64.68-1.52,1.42,0,2.36l-1.05.33,3.18,1a2.5,2.5,0,0,1,1,.21c.35.18.53.66.85.92a1.27,1.27,0,0,0,.84.25.64.64,0,0,0,.41-.49c0-.67-.09-1.28.84-1.41.6-.09,1.15-.39,1.74-.48.8-.13,1.63-.15,2.44-.21l.15-.45-1-.55.75-.72c-1-.94,0-1.66.2-2.44.15-.49.61-1,.52-1.43-.27-1.23-.75-2.41-1.18-3.74l-.38,1.18-2.7-.2.72-.48a62,62,0,0,0,5.63-3.84c11.85-10,16.49-23,15.32-38.22-.9-11.68-7.38-19.12-18.48-22.65-.27-.09-.54-.23-.85-.36l3.58-3.42H134.1l.32.69c-1-.76-1.37,2.15-2.36.69-.55.26-1.37.88-1.61.71-1-.7-1.29,0-1.54.32-4.12-.29-8.06-.56-12-.86a5.71,5.71,0,0,1-1.14-.33l.09-.25,1.83-.1.07-.54a11.68,11.68,0,0,1-1.43-.54c-.3-.15-.7-.4-.74-.66-.27-1.57-.53-1.73-1.94-1.07l-3.47-2.21-.2.86-2.14.27a6.25,6.25,0,0,0,3.44,2.79c1.11.39,1.18.84,1.1,1.72-1.15.19-2.24.28-3-1.19.44,1.55-.53,1.24-1.12,1.25H93.56a10.47,10.47,0,0,1-1.06-.1,10.89,10.89,0,0,1,.11-1.17q2.81-14.34,5.62-28.66c.22-1.14.21-2.41,1.59-3.08l-1-.18.8-2.12a11,11,0,0,1,0-1.9q1.84-9.59,3.72-19.15c.4-2.06.83-4.11,1.25-6.19,5.06,0,10,0,14.88,0a.91.91,0,0,1,1,.77.88.88,0,0,1-.14.61c-.89,1.47-.24,2.51.64,3.41,1.28.83,2.67-1.14,3.86.27l-.81,2.31c-.62-.92-1.28-1.45-2.29-.84l.08,1.7a11.19,11.19,0,0,0-1.64-.08c-.16,0-.3.37-.44.57l.54.37c.42-.89,1.12,0,1.55-.32a14.63,14.63,0,0,1-.84,2.41c-.86,1.59.91,1,1.28,1.56.73,1.14,1.52-.24,1.81-.48.66-.55,1.59-1.38.8-2.52,1.63-1.06,1.79-1.64,1.1-3.13.33-.44.71-.74.81-1.12.22-.82.3-1.67.46-2.6,1.46.67,2.82-.79,3-2.82,13.76-.69,26-4.75,35-15.89l.63.57a9.61,9.61,0,0,1,1.68-1.31,2.25,2.25,0,0,0,1.3-2.75c-.1-.41-.19-.82-.25-1.24.6.26,1.22.5,1.81.8.14.07.2.32.3.49l.34,0c.08-.36.33-.79.21-1.06a14.48,14.48,0,0,0-1.14-1.88l-.77.39c0-.35-.23-.76-.1-1a38.37,38.37,0,0,0,2.87-17.58c-.54-8-4-14.47-11-18.75a29.48,29.48,0,0,0-13.4-4c-1.61-.12-3.22-.17-4.9-.25l.2-1.4-2.33.49,0,.42,1.63.42a8.91,8.91,0,0,1-1.26.31,37.92,37.92,0,0,0-18.49,6.33c-7.5,5-12.63,12-16.22,20.17a1.61,1.61,0,0,1-1.77,1.14c-8.71,0-17.42,0-26.13,0-1.92,0-2.12-.26-1.45-2-.39-.18-.78-.35-1.17-.54s-.69-.37-1-.55c.2.38.41.75.6,1.14,0,0,0,.14,0,.26s-.25,0-.31,0a3.14,3.14,0,0,0-2.49-1.14c-.19,0-.42-.21-.61-.35s-.55-.45-.82-.67l-.31,1,1.23.64c-.21.27-.42.54-.64.8a3,3,0,0,1-.46.54c-.36.28-.75.72-1.12.72s-.7-.49-1.14-.83c.35-.17.49-.2.55-.28.27-.34.51-.7.77-1a3.69,3.69,0,0,0-1.26-.34c-1,.13-2,.4-3,.6a7.36,7.36,0,0,1-1.62.23c-1.15,0-2.21,0-2.93,1.16A1.63,1.63,0,0,1,60,91.4q-8.93,0-17.85,0c-.31,0-.62,0-1-.08q.09-.68.24-1.35c1.24-4.26,2.35-8.58,3.78-12.78A98.9,98.9,0,0,1,54,58.37c.33-.56.52-1.43,1.57-1,.08,0,.43-.58.64-.91a.93.93,0,0,0,0-.31l1.21.58c-.66-2.39,1.11-3,2.51-3.86l-.68-.75c.7-.62,2.5-.1,1.8-1.83a12.4,12.4,0,0,1,1.29-.58c.22-.07.63-.06.71.07.85,1.3,1.94,1,3.13.61.76-.24,1.58-.8,2.37.11.12.15.77,0,1-.16.6-.47,1-1.19,1.67-1.56,1-.6,1.83-2.05,3.41-1,.53-1.38,1.16-.5,1.88-.05l1.54-3.19-.32.12-1.09.4a5.34,5.34,0,0,1,.3-1c.27-.51.61-1,.92-1.48l.14.36c.55-.12,1.09-.23,1.63-.37.3-.07.63-.34.88-.27,1.33.38,1.67-.44,2-1.45A2.93,2.93,0,0,1,85.8,38.8c.85.14,1.75.16,1.88-1.18,0-.49.31-1.42,1.32-.7.18.13.9-.17,1.11-.46.88-1.18.85-1.21,1.64-.35a6.52,6.52,0,0,1,1.53,0c.22.06.34.47.52.77l-.84.56,1.31,1.14c.21-.63.67-1.26.5-1.63-.38-.85-.5-1.45.35-2.06.2-.14.21-.55.22-.57A5.26,5.26,0,0,0,94,33.72c-.55-.07-1.41-.13-1.63.17-.8,1.12-1.32.38-1.94-.1l1.39-.08-.88-1.42,1.63-.7c-.19-.38-.31-1-.66-1.22-1.43-1.05-2.8.1-4.24.19a2.33,2.33,0,0,1,.88-.53c.93-.38,1.33-1.33.79-1.81s-1-.93-1.45-1.41l.13-.4-1.15.71c-.63-.42-1.74-.2-1.61.3.27,1-.52,1-.79,1.42l-.87-1.22a3.23,3.23,0,0,1,3.52-1.9l-1.22-.82,0-.35c.41,0,.92.15,1.22,0s.44-.71.64-1.09c.56-.5,1.18-.44,2.07-.09s2.23,0,3.36-.14a.48.48,0,0,0,.3-.32c.14-.81.78-.85,1.39-1.05.42-.13.74-.54,1.13-.78s.65-.46.9-.4c1,.23,1.93.59,2.95.92a10.13,10.13,0,0,0-.35,1c-.06.35-.07.7-.11,1,.22-.25.45-.49.65-.75a4.07,4.07,0,0,0,.28-.55l1.26.93.21-.23-1.06-1.8c.55-.71,1-.69,1.73-.17a4.06,4.06,0,0,0,3.68,1,5.12,5.12,0,0,1,3.23.6c1.06.55,2,.76,2.91,0,.43-.36.88-.7,1.39-1.1l-.25-1.1,1.66-.19c-.29-1.61,1.81-4.32,3.14-4.55l.59-2.39-1,.47c-.35-1.73-.14-2.43,1.22-3.15.89-.48,1.44-.85.47-1.77-.14-.13,0-.5-.07-.76a137.42,137.42,0,0,1,29.81-5.51ZM97.35,71.07,95.24,72.8l-.4-1.17C94,73,94.7,74.9,93.09,75.24A13.8,13.8,0,0,1,89.24,75a1.41,1.41,0,0,0,.81.46c1.07.26,2.22,1.66,2,2.41a2.82,2.82,0,0,0,0,.82c.28-.1.7-.12.82-.32.66-1.1,1.36-1,2.27.07-.15-1.2,2.67-.49,1.09-2.37L98.64,73l-.27-.25-.66.06c-.14-.65-.27-1.2-.39-1.74a5.55,5.55,0,0,0,1,.46c.22.06.66,0,.7-.14a26.3,26.3,0,0,0,1-3.36c0-.18-.57-.65-.93-.71a5.69,5.69,0,0,0-1.54.12l-.6-1.91-.15.06-.16,2.12.76.9-.28.25-1-.5-.3.28,1,1.15-1.66,1.59.28.36a3.69,3.69,0,0,0,.93-.69c.4-.54.68-.44,1,0Zm122.83,44.58c-.67-1.48-.94-1.5-2.84-.14a9.69,9.69,0,0,0,.2-1.33c0-.25-.16-.73-.23-.73a11.44,11.44,0,0,0-4.52.72.64.64,0,0,0-.19.54,7.17,7.17,0,0,1,.52,2.24c-.15,1.1.89,1.06,1.22,1.64a11.23,11.23,0,0,1,1.36-.87,2.78,2.78,0,0,1,1.3-.32,5.42,5.42,0,0,1,1.36.39l.15,1.2,1.18-.26-.08.34c.43.18.88.55,1.3.5a10.27,10.27,0,0,0,2.18-.63c.69-.23,1.36-.51,2-.78.35-.14.69-.3,1-.45l-2.82-2c-.05,0-.64.14-.73,0-.76-1.3-1.57-.57-2.43,0Zm-5.21-51c-1,1.08-1.6.83-2.85.2a15.08,15.08,0,0,0-1.82-.74.69.69,0,0,0-.63.17c-.1.11,0,.43.05.61A4,4,0,0,0,213,67.24,5.52,5.52,0,0,1,216.54,69c.44.52.75,1,1.42.47a1.6,1.6,0,0,0,.1-2L215,64.64ZM189.84,289.88c1-.72,2.1-1.48,3.14-2.36.72-.62.58-1.28-.07-1.56l1-1.68-.24-.27a7.3,7.3,0,0,0-1,.5,9.28,9.28,0,0,0-.71.69,10.25,10.25,0,0,1-1.79,1.5c-.92.5-1.72,1.4-3,1a1.89,1.89,0,0,0-1.58.3c-.25.21-.05.94-.05,1.68l-.5.6.15.27,5.32-1.69ZM97.45,63.57c1.27.55,1.88,0,2.27-1.19.07-.2.5-.27.76-.4-.74,1.23-.16,1.74.84,2,.29.08.8.08.92-.09a1,1,0,0,0,0-1,10,10,0,0,0-1.33-1.71c-.3-.32-.84-.79-1.1-.71-.9.29-2.1.24-2.45,1.37A4.48,4.48,0,0,0,97.45,63.57Zm45.92-38.88.27-.14c-1-1.45-.72-2.8,0-4.28l-3.2,1.82c-.14.24-.25.76-.56.94-1.54.9-1.56.86-.38,2l.26.21,1.59-.83L141,23.35Zm85.68,93,.32-.32-.17-1c.73.18,1.3.36,1.88.47s.85-.14.7-.74c-.09-.37-.19-.74-.24-.9l-2.42-1.1v1.58l-2.37-.25.06,1.37c.35-.22.54-.36.74-.46a6.07,6.07,0,0,1,.59-.24,1.53,1.53,0,0,0,.09.66,9.55,9.55,0,0,0,.82,1Zm-21.31-55.3-1.84-2.24.25-.2h-1.81l-.18.88,1.53.32c-.26.31-.63.63-.58.72a4.67,4.67,0,0,0,3.69,2.83l-1.64-1.41ZM52.92,309c-1.67-1-1.63,1.5-2.93,1.29a11.26,11.26,0,0,0-.65,2c1.63,1,1.62,1,2.37-.77C52.07,310.63,52.49,309.84,52.92,309ZM181.4,290.52c.63-1.63,1.86-1.32,2.87-1.45-.32-.85-.71-1.16-2-1.13-.54,0-1.42.42-1.54.84-.4,1.34.11,2.35,1.08,2.52a1.21,1.21,0,0,0,1-.17c.17-.22.07-.66.1-1.12Zm-25-158.68,1.65-1.77-.72-.87-3.68,1.5ZM126.92,322.26l1.7-1.31c-.12-1.43-1.25-1.59-2.7-1.81a3.94,3.94,0,0,0,0,1.37A9.87,9.87,0,0,0,126.92,322.26ZM222.27,204c-.25,1.35-.76,1.89-1.78,1.94.25.89,1.45,1.37,3.25,1.28l.19-1.41C222.16,206.21,223.52,204.1,222.27,204Zm-41,93.56-.37-.26-1.46.4.61-1.36c-1.43.32-1.21,2.56-3,2.18.2.32.45.63.62.6a4.38,4.38,0,0,0,1.13-.55c.24-.16.47-.33.7-.51a9.12,9.12,0,0,0,.17.91c.1.28.22.56.34.83l.32,0ZM153.5,123.67c.75,1.17-1.12,2.26.5,3.71-.52-2.5,1.5-.68,1.87-1.5l-1.41-2.21Zm43.13,159.22-.21-.49-2.72.65,1.57,1.89c1.67.07.77-1.45,1.36-2.05Zm-55.42-95.27c-.35-.72-.7-1.43-1-2.07l-2.38.31c0,1.12.33,1.7.74,1.41,1-.72,1.73.16,2.64.35ZM221.38,69.54c.11-.9.62-1.89-.35-2.44-.24-.14-1.24.44-1.39.87C219.06,69.55,220.81,68.92,221.38,69.54Zm-149,15.85L71,85.91l.14.54,3.06-.39.14-.45a13.06,13.06,0,0,0-1.46-1.11c-.2-.11-.58.09-1,.16Zm34.12,76.23a3.25,3.25,0,0,0,0-.7c-1-.29-.54-1-.52-1.61a2,2,0,0,0-1.07-2c-1,1.1-.34,1.6.63,2C104.81,160.43,105.61,161,106.54,161.62ZM122.78,318c-1,.36-1.47.86-1.08,1.75a1.91,1.91,0,0,0,2.41.67C123.51,319.76,122,319.6,122.78,318Zm99.08-195.33c.9-1,.28-1.8.31-2.77l-1.7.47Zm4.33,6.26-.33-.28-2.2,1.69,2.56,1.05.32-1.12-1.3.17-.12-.26Zm-16.32-15.87-.35-.25-.6-1.5c-.34.43-.79.74-.78,1a6.84,6.84,0,0,0,.43,1.67Zm-126-32.33-.32-.25L81.17,82l.62.85a7.7,7.7,0,0,1,.54-.6c.31-.29.67-.53,1-.83A5.85,5.85,0,0,0,83.84,80.74Zm60.47,104.52c.32-.06.92,0,1-.21a11.66,11.66,0,0,0,.4-2.12C144.55,183.58,143.63,183.93,144.31,185.26ZM190.88,282l-.25,0,.42,1.86,1.75-1.33-.06-.21-1.36.4ZM220.44,70.09l-1.83.25C219.68,71.24,219.68,71.24,220.44,70.09ZM181.65,297l.92-2.42C181.2,295.11,180.88,296,181.65,297Zm-86.6,17.1-.72.13.39,2,.62-.11ZM106.88,181.8l-2,1c1.41.53,1.68.41,2-1ZM202.29,57.13,201,55.45l-.32.11a7.77,7.77,0,0,0,.4,1.56C201.13,57.24,201.69,57.13,202.29,57.13Zm11.63-32.91.1-.34c-.41-.18-.84-.53-1.23-.49s-.5.59-.74.91l.23.21Zm-70.87,4.23c-1.1-.1-.79.77-.94,1.25,0,.07.49.3.79.47Zm-35,156.63-.74-1.73-.94,1.56Zm9-56.63-.29,1.63,1.65-.57ZM217.68,240.73l1.49,1.42C219.65,240.85,219.39,240.56,217.68,240.73Z"/><path id="Path_7614" data-name="Path 7614" class="cls-1" d="M88.34,30.85h3.22l-.52.72c-.2.26-.6.57-.58.83.08,1-.47.9-1.11.72-.49-.14-1-.26-1.74-.45l1.31-1.08-.6-.4Z"/><path id="Path_7615" data-name="Path 7615" class="cls-1" d="M110.13,11.28v2.45l-3.48-.61v-.41Z"/><path id="Path_7616" data-name="Path 7616" class="cls-1" d="M121.18,128.1l.13-1h2.2l0,.2Z"/><path id="Path_7617" data-name="Path 7617" class="cls-1" d="M87.48,32l-1,.92-.83-1.35.16-.25Z"/><path id="Path_7618" data-name="Path 7618" class="cls-1" d="M231.71,123.84c-.34,2.5-.34,2.5-.9,2.78C229.41,124.94,229.6,124.32,231.71,123.84Z"/><path id="Path_7619" data-name="Path 7619" class="cls-1" d="M199.84,169.82h1.4l-1,1.59-.22-.88-1.58-.71c.25-.29.45-.71.76-.82s.54.38.81.59Z"/><path id="Path_7620" data-name="Path 7620" class="cls-1" d="M240.82,52.45c.07-.86.12-1.5.16-2.14l1.84,1.53Z"/><path id="Path_7621" data-name="Path 7621" class="cls-1" d="M225.47,220.67l-.72-.81-1.12.37-.16-.36,1.68-.82.62,1.53Z"/><path id="Path_7622" data-name="Path 7622" class="cls-1" d="M235.34,123.8c-.43-.63-1.9-.83-.8-2.31Z"/><path id="Path_7623" data-name="Path 7623" class="cls-1" d="M106,317.32c-.76.33-1.2,1.6-2.72.81Z"/><path id="Path_7624" data-name="Path 7624" class="cls-1" d="M200.74,168.52l1.18-.92.23.18-.59,1.51Z"/><path id="Path_7625" data-name="Path 7625" class="cls-1" d="M217.48,116.42l1.42-.9.41.51-1.64.69Z"/></g></g></svg>