<svg id="Layer_1" data-name="Layer 1" xmlns="http://www.w3.org/2000/svg" viewBox="0 0 257.69 325.58"><defs><style>.cls-1{fill:#f0eae7;}</style></defs><g id="h5Qudo.tif"><g id="Group_1645" data-name="Group 1645"><path id="Path_7613" data-name="Path 7613" class="cls-1" d="M237.8,133.29c.18.13.52.27.52.39a37.89,37.89,0,0,1-.23,3.85c0,.2-.64.33-.75.39a6.28,6.28,0,0,1-.36,1.72,160.12,160.12,0,0,1-16.89,24.12c-.43.52-.87,1-1.3,1.54-1.17-.22-.64-2.52-2.69-1.8l1.75,2.75a2.86,2.86,0,0,1-3.36.26c-.53-.31-.79-.37-1.14.21A8.37,8.37,0,0,1,212,168c-.29,2.31-.29,2.31,1.08,2.12.5.81.25,1.41-.37,2.08-10,10.82-20.73,20.86-31.4,31Q174,210.13,166.66,217c-.74.7-1.37,1.55-2.59,1.46-.33,0-.7.25-1.32.5l1.64.34-3.32,2.36-.35-1.69-2.39,1.1c-.06,1.31-.73,1.75-2.21,1.44-.85.89-1.94,1.58-2.11,3,0,.18-.63.3-1.06.49-.15,1.12,1.74,3.28-1.51,3a9.82,9.82,0,0,1,.4.94c.06.22.13.54,0,.68a20.12,20.12,0,0,1-1.84,2.08q-13.32,12.6-26.67,25.18a9.5,9.5,0,0,1-1.16.84l.22.41c.4,0,.81.07,1.21.07,5.64,0,11.27,0,16.9,0,1.38,0,3-.6,3.84,1.37l.11-.57c.5,0,1,.06,1.5.05a5.87,5.87,0,0,0,1.16-.32l.35,1.18a10.43,10.43,0,0,0,2.18-1,3.72,3.72,0,0,1,5.23.56l.07.09s.07,0,.33,0l-.06-1.34h59L202,321.73H200.7c-7.31,0-14.62,0-21.93,0a18,18,0,0,1-2.53-.42l.19-2.49-1.73.31-.45-.51-1.64.48c-.08.54-.16,1.29-.31,2-.05.22-.29.58-.42.56s-.45-.25-.66-.42a10,10,0,0,1-.85-.74,4.91,4.91,0,0,1-.4-.53l1.85-.67v-.26l-2.77-.41v-.32c-1.29.07-1,1.16-1.62,2.1,1.4-.67,1.9-.41,2.77,1.1a3.61,3.61,0,0,1-3-.12,6.4,6.4,0,0,1-1.25.21c-.31,0-.67-.35-.92-.27-2.64.85-5.34.13-8,.4a3.38,3.38,0,0,1-3-1.55c-1-1.2-1.56-1.11-2.52.12a10.13,10.13,0,0,1-1.07,1c-1.12-.95-2.12-.57-3.15.12a2.38,2.38,0,0,1-1.25.29q-10.49,0-21,0h-7.36l.11-1.29c-1,.05-1.85,1.25-2.83.44a7,7,0,0,1-1.1-1.87l1.13.07c-1.21-1.23-1.21-1.23-2,.7-.88-.26-.26-2.9-2.16-1.37-.84-2.29-2.9-2.53-4.77-3.11-.17,1.82-1.3,2.32-2.75,1.37-.47.43-.89.85-1.36,1.22s-1.08.05-1.67-.18a19.73,19.73,0,0,0-2.73-.56c-.26-.06-.71-.4-.68-.52a3.67,3.67,0,0,1,.43-.92v-2.46l-4.24-1.05a8.61,8.61,0,0,1-.06,2.38c-.1.35-.87.48-1.15.62l-.72-1.36-1.72,1,.26-1.47a3.57,3.57,0,0,0-1,0c-.21.06-.54.41-.5.51a2.35,2.35,0,0,0,.65.91c.26.21.83.2.93.43a2.75,2.75,0,0,1,.11,1.42,1.26,1.26,0,0,1-.35.6l-2-.14c-.75-.06-1.61.1-1.68-1.09,0-.23-.4-.45-.61-.67-.44-.47-.66-.9.23-1.13-.9-.66-1-.58-1.53,1-.36-.14-.74-.43-1-.37-.65.13-1.31.4-1.19,1.44l1.12-.65c.13.62-.93,2.11-1.44,1.93-.27-.1-.42-.56-.71-1l-1,1.13,1.07.66L79,320.07l-.35-.18.63-1.84-1.72-.38,1-1.64c-1.14.21-1.5.59-1.44,1.51a1.42,1.42,0,0,1-1.34,1.5,1.44,1.44,0,0,1-.92-.27.83.83,0,0,0-.49-.08,1.78,1.78,0,0,1-2-1.25,8.85,8.85,0,0,0-1.5-1.89l.83-1.06a4.93,4.93,0,0,0-1-.16c-1.07.12-2.13.37-3.2.4a4,4,0,0,1-1.42-.48l-2.91,3.8-.51-.67-1.17,2a2.55,2.55,0,0,1,.32.9c0,1.14-.67,1.51-1.76,1.5-4.47,0-8.95,0-13.42,0H6.14c-1.44,0-1.5-.1-1.22-1.53,1.32-6.82,2.62-13.64,4-20.45A11.68,11.68,0,0,1,10,297.4l-.71.06.42-1.09.43-.14a9.54,9.54,0,0,1,1.09,1.82c.44,1.35,1.13.61,1.87.2v1.54l1.57.76c-.42-1.5-.42-1.5,2.3-1.77.45,2.4,2.2.45,3.39.86l-1.09,1.95,2.17.71c.56-.71.56-.71-.49-1.19,1.14-.84,2.8-.72,3.38.35s1,2.31,1.6,3.68c.07-.39.17-.6.12-.78a2.45,2.45,0,0,1,1.3-3.19h0c.45-.24.69-1.14,1.47-.57a1,1,0,0,0,.28-.32c.26-.53-.51-2.53-1.06-2.52-1.51,0-1.37-1-1.38-2,1-.1,1.5-.49.7-1.48a.82.82,0,0,1-.06-.65c.3-1,.64-2,1-3.07-1.49-.48-1.51-.56-.73-1.81.25-.39.49-.79.78-1.26,1.09.83,1.41.16,1.84-.76a23.16,23.16,0,0,1,1.66-2.47,8.05,8.05,0,0,0,.59-1.39l-.29-.34,3.56-.85A3.92,3.92,0,0,1,37,279.24,12.8,12.8,0,0,0,38.72,276a3.14,3.14,0,0,0,.31-.89,7.1,7.1,0,0,0,.12-1.12.63.63,0,0,0-.3-.07c-.17.31-.3.64-.53,1.13l-1.08-.46c.17-.36.35-.72.52-1.09.3-.67.59-1.34.93-2.14-1.36-.07-.57-1.21-.94-1.86-.46,1.2-.41,2.7-2.2,2.64l-.4,1.51c-2.09-.64-2.44-.53-2.51.75-1.9.45-2,.41-2.07-.92l-2.24-.4.16.42q-.7.63-1.47,1.2c-.09.06-.43-.23-.65-.36a3,3,0,0,0-.73-.43c-.09,0-.35.28-.4.47-.17.65-.21,1.34-1,1.57-.07,0,0,.53,0,.85h-.66L22.87,279a13.41,13.41,0,0,1,2,.42c.23.08.53.64.45.82-.41.92-.17,1.48.75,1.81.08,0,.1.21.17.37L24.87,282l.81,2.47H24.1a3.62,3.62,0,0,1-.14.73c-.15.32-.4.87-.55.85-1.38-.16-.9.69-.73,1.33-1.18.54-2.12,1.08-2.26,2.6a2,2,0,0,1-1.75,1.88,5.24,5.24,0,0,0-1.23.56c.94-1.18.27-1.57-.42-1.95l-.4.14.95,2.95a19.52,19.52,0,0,0-2.78,1.58c-.4.3-.39,1.12-.59,1.77-.92-1.58-.92-1.58.18-2.33L14,293.2c-2.25-.08-2.42,0-2.53,1.35-1.27-.23-1.45-.52-1.23-1.66.91-4.7,1.83-9.39,2.7-14.1a4.39,4.39,0,0,1,1.38-2.53Q37,254.61,59.61,232.91L80.8,212.63c1.56-1.49,3.19-2.91,4.8-4.35a5.75,5.75,0,0,1,1-.5l-2,3.05-1-.25.05,1,4.16.87,0,.23a8.67,8.67,0,0,0,1.58-.94,5.27,5.27,0,0,0,.67-1.27,2.14,2.14,0,0,1,.53-.59c.48-.35,1.17-.57,1.47-1A1.61,1.61,0,0,1,94.1,208l.08,0,.37-1,.13,1.44,1.51-.5a.71.71,0,0,1,1,.31l0,.09c.18.31.77.39,1.37.67,0-.09,0,.15-.1.57l1.54-.2-2-1.83,1.3-.52c-1.08-.59-.93-1.38-.2-2.33l-1.92-.34c-.33.75.32,2.06-1,2.19-.44,0-1-.44-1.4-.78-.1-.08.16-.58.28-1a3.87,3.87,0,0,1-1,0,1.12,1.12,0,0,1-.68-.58c-.05-.17.21-.52.42-.7.47-.38,1-.7,1.48-1l-.21,1.75a4.51,4.51,0,0,0,.9,0c.31-.06.73-.14.86-.36s0-.61-.08-.93-.1-.68-.16-1l.87-.06,3.12-2.08c.13-.09.34-.25.32-.33-.38-1.47.87-1.56,1.68-2,.6-.34,1-.73.83-1.53,0-.19.38-.63.65-.69a8.15,8.15,0,0,1,1.71,0l-.25-1.21-1.22.6c.12-.41.11-.77.29-1,.55-.59,1.17-1.12,1.76-1.68l-.4-.46c-.33.28-.79.51-1,.87a3,3,0,0,1-2.69,1.54c-.28,0-.62-.48-.92-.73,1.59-2.12,1.83-2.23,3.74-1.54-.6-2.31,1.12-3.31,2.4-4.54,11.93-11.47,23.94-22.85,35.79-34.4,8.74-8.53,16.8-17.67,23.33-28.05,4.63-7.36,8.2-15.16,9.68-23.8,1.05-6.11,1.45-12.25-.46-18.27-2.87-9-9.35-14.23-18.4-16.16-16.46-3.5-34.23,2.94-43.4,20.76a100.77,100.77,0,0,0-3.88,9.51c-.27.69-.46,1.13-1.36,1.12-8.15,0-16.3,0-24.46,0H81.11c-.56-.9-.3-2.58-2.22-2.24l.49,1.07-.68,0-.08.35,1.5.4c-.34.39-28.36.7-34.67.33a18.74,18.74,0,0,1,0-2.37c.11-.86.51-1.48,1.56-1A11.94,11.94,0,0,0,49,92a10.79,10.79,0,0,0,.54-2.87l.73.17-.09-.27,2-.7a1.54,1.54,0,0,1,.09-.6c.15-.35.39-.92.63-.94a2.45,2.45,0,0,1,1.18.51,4.18,4.18,0,0,1,.6.59,2.7,2.7,0,0,0,.46-.74c.44-1.81.94-2.17,2.92-2L58,86.43l.33.25a8.49,8.49,0,0,0,1.65-1.52,12.8,12.8,0,0,0,1-2.54l-2.38-1.51-.36,1.43c-.86.49-1.68,1-2.52,1.43a4.84,4.84,0,0,1-.73.25,3.48,3.48,0,0,1-.11-.85,10,10,0,0,1,.33-1.31L54,82.92l-.14-1A4.05,4.05,0,0,0,53,82c-1.73.43-2.9-.27-3.13-2A4.4,4.4,0,0,1,50.05,78C58,55.9,72,38.47,91.32,25.33A123.55,123.55,0,0,1,138.84,6.21,134.49,134.49,0,0,1,158.94,4a15.72,15.72,0,0,0,1.66-.22h7.67c.52,1.35-1.66.88-1.4,2.07a1.16,1.16,0,0,1-.51.18c-.14,0-.27-.16-.42-.19a3.43,3.43,0,0,0-1.19-.12c-.67.14-1.34.63-1.89-.21-1.23,1.3-1.23,1.3-.71,3.14a.61.61,0,0,1,0,.46,1.74,1.74,0,0,0,.17,2.19,4.87,4.87,0,0,1,1.34-.69,6.06,6.06,0,0,1,1.59.07c.48-1.81,2-1.6,3.17-1.5a13.24,13.24,0,0,1,3.52,1.36l.24-.29c1.68,1.4,2.54,1.5,3.88.5-1.33-1.23.42-2.13.28-3l2.13-.21L179,8.92c.44-2,1.31-3,3.24-1.87l.11-.86c.78,0,1.4.61,2.16.14.16-.1.69.41,1,.66,0,0,0,.2,0,.39l-.64-.49-.34.82c1.94.8,3,2,2.56,3l-.64-.68-.23.08.4,3.54L189.44,12l-.88-1,.71-.47-1-.57c.31-.39.54-.66.75-.94s.39-.59.59-.89l-1.33-.43.09-.76,4.5.48c.57-.74.76-.63,2,1.31l1.31-.06v.26l-1.94,1.2L195.9,12l.4-1.63c1,.16,2.1.53,2,1.86,0,.77.24,1.28.79,1.34s1.46.2,1.62-.91c0-.26,1-.7,1.28-.56.73.4,1.16.05,1.57-.36a2.32,2.32,0,0,1,2.74-.51c2.43,1,4.91,1.89,7.23,3.09,23.39,12,36.2,31.28,38.85,57.39l.48,4.75v7.67c-.43.64.27,1.75-.88,2.08a6.1,6.1,0,0,1-1.05.21c-.18,0-.37-.2-.55-.2-.89,0-1.78,0-2.73,0a1.59,1.59,0,0,1-.24.79,1.17,1.17,0,0,0-.07,1.64.71.71,0,0,0,.13.12,3,3,0,0,1,.49.91c.38.89,1,1,1.84.22l.22.6,1.78.27,0,.18-1.06.3v.32l1.53.11c-.4,2.94-.62,5.93-1.24,8.83-1.1,5.14-2.44,10.22-3.68,15.33a2.19,2.19,0,0,1-1.75,1.88c-.26,0-.54.6-.57.93-.06.7,0,1.42-.08,2.14.12.66-.08,2.9-.57,3.2a25,25,0,0,1-2.34,1.11l-.27-.31a3.69,3.69,0,0,1,0,1.24c-.18.46-.5,1.08-.88,1.19-1.09.32-1.12.23-1.53,1a3,3,0,0,0-.88-.19c-.25,0-.64.24-.7.44a1.85,1.85,0,0,1-2.27,1.33,2.07,2.07,0,0,1-.62-.29l.69-1.12-1.87.71,1.11,1.81a4.81,4.81,0,0,0-1.06-.32,8.59,8.59,0,0,0-1.11.19,2.84,2.84,0,0,0,.2,1c.47.72,1,1.39,1.44,2.15.5.27,1.67-.23,1.26,1.19,0,0,.56.32.68.23.74-.5,1.6-1,1.52-2.06ZM162.47,268.37l.2-1.53c-.27-.28-.6-.65-1-1-.11-.1-.33-.07-.5-.09,0,.17-.13.4-.06.52.43.7.9,1.37,1.35,2.05l.24,1.27c-.37-.56-.58-.93-.84-1.25a.63.63,0,0,0-.49-.24c-.13,0-.27.26-.31.43a5.1,5.1,0,0,0-.2,1.29.83.83,0,0,0,.41.63c.4.13,1,.3,1.25.12,1.23-.81,1.28.15,1.48,1.16.63-.49,1.1-.9,1.62-1.23.23-.15.72-.28.83-.16.71.73,1.11.13,1.68-.25-.67-.52-1.28-1-.74-1.48l-.47-2.35-1.81.14a5.71,5.71,0,0,1-1.53,1.49A5.64,5.64,0,0,1,162.47,268.37ZM48.16,253.93a14.67,14.67,0,0,1-1.43,1,6.75,6.75,0,0,1-1.86.83,28.93,28.93,0,0,1-2.93.36l1.06,1.4-1.19,1.21.19.37c1.07-1.16,1.8-.07,2.63.26a1.18,1.18,0,0,1-.07,1,20.45,20.45,0,0,1-1.9,1c-.91.51-1.8,1.05-2.67,1.57.74,1.77.74,1.77.1,2.48l-.53-1c-.48,1-.32,1.14,1.6,1.41l.19,1.84,1.54.57c.89-.71,1.53-1.86,3-1.88.33,0,1-.62.9-.84a23.66,23.66,0,0,0-1-2.95,2.72,2.72,0,0,1-.12.8,3.2,3.2,0,0,1-.51.53,2.48,2.48,0,0,1-.23-.68c0-.5,0-1,0-1.49a2.72,2.72,0,0,0,1.1-.92,2.9,2.9,0,0,1,.5-.61,1.56,1.56,0,0,0,.6-2c-.25-.78-.57-1.77.34-2.4a1.71,1.71,0,0,0,.66-1.84c.64-.76,1.32-1.49,1.9-2.29.1-.13-.2-.79-.3-.78a6.77,6.77,0,0,0-2.28.28c-.53.21-.89.83-1.32,1.26l-.2-.16-.35,1.9c.7-.12,1.25-.24,1.81-.29A2.86,2.86,0,0,1,48.16,253.93ZM236.83,68.09l-.17.19c-.77-.2-1.63-.8-2,.63l-.68-.59c-.86.87.38,2.59-1.5,3.45l.24-1.49c-.37.2-.77.28-.82.46-.28,1.17,1,1.15,1.44,1.74-.13.35-.17.79-.41,1a6,6,0,0,1-1.88,1.41,13.42,13.42,0,0,1-2.75.4A5.91,5.91,0,0,1,229,77a8.6,8.6,0,0,0,1,4.92L229.18,83l1,1.16c.51-1.64,1.75-.64,2.84-.82.24-2.61,2.52-2.86,4.43-3.68,0-.15-.1-.55,0-.63.76-.52.63-1.11.45-1.88-.09-.38.4-.92.69-1.34s.75-.54.82-.87c.18-.86.11-1.8,1.35-1.91.08,0,.1-.37.19-.53.92-1.53-.57-3.62,1.17-5,0,0,0-.15,0-.23,0-.7.08-1.4.12-2.16l-2.14.64-.72-1.94c.32,2.32-.85,3.25-3.07,3.19Zm-37.62,94.7-1.68,1.26.25,2.13c.43-.31.75-.52,1-.75s.7-.59,1.21-1v2.11l-.27-.27c-.58.36-1.15.75-1.75,1.08s-1.36.69-2,1c.23.18.38.1.51.13.28.07.55.15.82.24a4.34,4.34,0,0,1-.64.49c-.56.28-1.15.52-1.95.88l-1.25-.66c-.07.1-.18.44-.41.57-1.13.62-2.45,1.05-2,2.81a2.63,2.63,0,0,1-.21,1l.7.75a3.84,3.84,0,0,1-4.25,1c1,1.37-.18,1.29-.71,1.62-.21.13-.58.37-.55.46a1.34,1.34,0,0,0,.5.67,1.8,1.8,0,0,0,.64.18c.31-.4.49-.82.79-1s.6.21.7.25a20,20,0,0,0-1.1,1.81c-.32.63-.54,1.31-.83,2a3.92,3.92,0,0,1-.44.7l.29.22c.18-.2.32-.49.55-.57a3,3,0,0,1,.95-.06c-.1.26-.13.6-.32.78a18.11,18.11,0,0,1-1.53,1.2c-.83-1-1.46.52-2.35.53.17,1.26.1,1.33-1.06,1.14-1-.16-1.62.46-1.63,1.5a3.27,3.27,0,0,1-.34,1c.54.68,1.3,1.4-.39,1.62-.2,0-.32.57-.52.84s-.71,1-.87,1a4.3,4.3,0,0,1-1.37-1,1.83,1.83,0,0,1-.28-.6l-.33.12c.25.71.45,1.44.75,2.12.84,1.89-.11,3.34-2.36,3.35.74-.69.59-1.12-.34-1.32l-.59,1a1.88,1.88,0,0,0,2.16,1.24,7.19,7.19,0,0,1-1.52,1.12,13.56,13.56,0,0,1-2,.6l.79,2,2.68-1.88.39-2.14c.21.3.31.62.52.71.74.33,1.32-.21,1.49-1.13.06-.34.62-.92.72-.88.88.4,1.07-.26,1.25-.8a5.73,5.73,0,0,0,.35-1.73c0-.63-.71-1.23,0-1.92a10.06,10.06,0,0,0,1.56-1.88c.32-.5.5-.82,1.19-.56.23.09.64-.31,1-.48.85-.41,1.42-1.5,2.58-1.08a7.59,7.59,0,0,1,1.17.68c.7-1.4,1.3-2.74.4-4.51,1.63.57,2.44,0,2.89-1.19-.87-.66-.16-1.2.14-1.84a1.38,1.38,0,0,0,0-1c-.1-.24-.45-.39-.65-.54l1.2-1.84a2.68,2.68,0,0,0,3.76.45,2.06,2.06,0,0,0,.31-.28c.55,1,1.3,1.07,2.68.49,1.06-.45.35-1,0-2a2.2,2.2,0,0,0,3-.4c1-1,.32-2,.18-3.11.85-.58,1.45-1.31.75-2.52.77,1,1.46.74,2.24.15a2.28,2.28,0,0,1,1.31-.38c.82,0,2.25-1.36,2-2.09a9,9,0,0,1-.42-2.41c0-.15-.44-.36-.66-.35a4,4,0,0,0-1,.4,2.42,2.42,0,0,0,.4.55,3.49,3.49,0,0,0,.74.33l-.35.5a10.72,10.72,0,0,1-1.3-.48,6.22,6.22,0,0,1-.87-.66l.85-1c-.37-.72,0-1.41,1-1.85l-1.7-.54.06-.3,1.16-.24c-.68-.53-1.2-.59-1.78,0a2.6,2.6,0,0,1-1.55.8c-1.07.13-2-1-1.68-1.7-.59-1.72-1.79-.64-2.8-.85a5.23,5.23,0,0,0,0,.56c.15.65,1.25,1.44-.31,1.82-.08,0-.09.58,0,.87a4.66,4.66,0,0,0,.4,1Zm8.6-112c-1.42-.22-2.8-1.43-4.05.19-.81-.65-1.89-.24-2.39.95l-1.78-.22.31-1-3-1.57,1-.57a6.11,6.11,0,0,0-.76-1,7,7,0,0,0-1.11-.78l-1.13.76,1.52-.08c-.07.44,0,1.09-.21,1.16a9.55,9.55,0,0,1-2.3.56c-.13,0-.32-.41-.41-.54-.66.24-1.26.7-1.71.58-.94-.25-1.33.42-1.76.87-.18.2.12.86.18,1.22l-.58,1.08h1.76l-.27-2.05,1.66,1.07.38-1.26a8.13,8.13,0,0,1,1.07.87,1.13,1.13,0,0,1,.32.8c0,.14-.45.24-.7.35l1,.72c1.16-1.3,1.89-.28,2.67.51-.61.92-.47,1.31.58,1.7.2.07.47.26.5.43.08.55.1,1,.9.93a6.36,6.36,0,0,1,1.62.25l.13-.76,1.18.35,1.14-1.4-.37-1.81A1.25,1.25,0,0,0,205,53a1,1,0,0,0,.15-.2c.23-.3.28-.75.53-1a3.31,3.31,0,0,1,.9-.54c.1.64.06,1.28.24,1.34a2.12,2.12,0,0,0,1.34,0,4.78,4.78,0,0,0,1.1-.73l0-.31-1.63.31Zm-27.25,264c-.58,1.23-1.1,2.45-1.72,3.6s-.42,1.8.95,2.75l.14-1.37.35-.13c.14.33.28.67.44,1s.31.58.47.87c.24-.2.58-.36.71-.63.4-.79.71-1.62,1.06-2.44l.44.1a4.35,4.35,0,0,1-.28,1.6c-.5.8.55.65.54,1.09.3-.07.79-.05.87-.23.73-1.62,1.4-3.28,2.09-4.93l-.26-.37-2.13.31.88-1.54-.21-.39C183.62,315.61,182.13,315.29,180.56,314.82ZM173.08,268l-.36,0a2.82,2.82,0,0,0-1.12,0,4.45,4.45,0,0,0-1.07.86l-.61-1.43-.4-.09a8.74,8.74,0,0,0-.4,1.5c.81.38,2.06,1.11,2.47.8,1-.79,2.63.26,3.33-1.17.05-.1.42-.15.55-.07.69.39,1.36.83,2,1.26a8.78,8.78,0,0,0,1.2.82c.11.05.56-.31.63-.55.1-.54.16-1.09.21-1.63s.24-1.06.4-1.69c-1.8.52-2.4.33-3.09-.84l.6-.83c-2.65-1.64-3.16-1.52-4.35.8-.37.1-.92.3-.92.49a2.86,2.86,0,0,0,.46,1.18A5.67,5.67,0,0,0,173.08,268ZM98,233.76l.47.11a4.14,4.14,0,0,1,.41,1.65c-.07.39-.68.68-1.12,1.09.75.4,1.5.82,2.27,1.21.33.17.7.28,1,.42.13-.53.5-1.13.36-1.57-.54-1.76-1.24-3.48-1.87-5.22,0-.06,0-.14,0-.21l1-.1c0-2,.2-2.26,1.89-2.46l-.77-1.3c-1,1.17-1.8,2.22-2.73,3.17-.75.78-1.64,1.44-2.46,2.17a.91.91,0,0,0-.22.38c-.17.52-.33,1-.5,1.57l1.3.41Zm72.84-30.54-.1-1.88,2.49.45-.43-1.49-2.58.41c-.68-.38-1.25-.87-1.41-.76a6,6,0,0,0-1.14,1.22l1.4,1.32c-.48.61-1.1,1.07-1,1.42s.73.71,1.13,1.06l-.09.2-1.12-.18a3.28,3.28,0,0,0-.33.74.6.6,0,0,0,.15.5.59.59,0,0,0,.5.08c.55-.21,1.08-.46,1.67-.72l-.38-1,2.14-.91-.1-.33ZM190.24,13.53c.69-.31,1.47,1,1.94-.46l.56,1h2.92c-.4-1.3-1.21-1.19-2-1l.54-1.26-1.35-1a1,1,0,0,0-.22.24.69.69,0,0,0-.09.34c0,1.64-.29,1.79-1.92,1.2-.32-.11-.95-.07-1.07.13a1.94,1.94,0,0,0-.1,1.26c0,.29.37.52.63.86Zm-6.72,35.08,2.28,2.73L187.33,50l1.46.68L188.64,49c-1,0-1.92,0-2.89,0a6.31,6.31,0,0,1-.85-.15ZM49.72,248.51l1,.83-.94.69.22.38,2.64-1.14-.33-1ZM217.54,53.61c.14.12.48.58.63.53.88-.31,1.72-.75,2.46-1.09l-1.24-1.19Zm-31,72.52c.1-.27.22-.42.19-.52-.2-.71-.51-1.4,0-2.13a6.47,6.47,0,0,0-.76-.72l-.3.28.21.6-1.12,1.52.35.26.4-.43ZM27.93,309.43l-1.8.14,0,.49,2.24.52.52-1.74-.32-.21ZM49.69,93l-2.64,2,.1.2,2.94-.67ZM209,160.53l-1.12,1.06.86,1.63,1-1.44ZM157.73,261.67c-.42-.58-.77-1.11-1.17-1.59a3.39,3.39,0,0,0-.7-.49,4.41,4.41,0,0,0,0,.73,4,4,0,0,0,.23.61l-.85.44a2.7,2.7,0,0,0,.78.28C156.64,261.7,157.24,261.67,157.73,261.67Zm-91.82-33-.8,1.85c1.13-.34,1.69,0,1.55,1.15A2.24,2.24,0,0,0,65.91,228.66ZM201.78,50.46c1.18-1,1.1-1.68-.12-2.3ZM191.44,314.7l-2-.14-.1.34,1.53,1.26Zm-1.08-128.37-.88,1,1.94.83.2-.27Zm47.5-123-1.58,1,.09.33h1.85ZM202,14.24l2.12-1-.22-.5-1.56.6-.84-.69ZM221.14,53l.18.1,1.42-2.36-1.6.4ZM60.42,81.76a14.54,14.54,0,0,0,.66-1.52c0-.1-.26-.3-.4-.45A9.67,9.67,0,0,0,59.86,81C59.81,81.06,60.1,81.33,60.42,81.76ZM214.71,164.2c.85-.6,1.52-1.25.16-2.2ZM84.19,94.08l.37.46,1.49-1.28-.36-.43Zm105.05,31-.28-.4c-1.1-.36-1,.69-1.44,1.15l.26.33Z"/><path id="Path_7614" data-name="Path 7614" class="cls-1" d="M102.78,195.36c.18,1.49-1.3,1.34-2.07,2-.22-.63-.46-1.22-.62-1.83a1.19,1.19,0,0,1,.7-.36C101.43,195.22,102.07,195.31,102.78,195.36Z"/><path id="Path_7615" data-name="Path 7615" class="cls-1" d="M92.79,204.43l.89,1.87a10.7,10.7,0,0,1-1.36.76c-.25.1-.79.07-.83,0a1.38,1.38,0,0,1,0-1A14.15,14.15,0,0,1,92.79,204.43Z"/><path id="Path_7616" data-name="Path 7616" class="cls-1" d="M251.67,86.77c1.13.4,1.17.59.7,2.8l-1.08-.31C253.13,88.47,250.77,87.62,251.67,86.77Z"/><path id="Path_7617" data-name="Path 7617" class="cls-1" d="M237.81,133.26l-1.45.38v-1.23l.36-.1,1.08,1Z"/><path id="Path_7618" data-name="Path 7618" class="cls-1" d="M236.83,68.09c1.17-.53,1.25.58,1.76,1l-.15.26-1.78-1.11Z"/><path id="Path_7619" data-name="Path 7619" class="cls-1" d="M204.52,164.12a12.4,12.4,0,0,1-1.4-.73,2.78,2.78,0,0,1-.5-.68,2.57,2.57,0,0,1,.78-.34C205,162.3,205.15,162.5,204.52,164.12Z"/><path id="Path_7620" data-name="Path 7620" class="cls-1" d="M199.18,162.81l.86-1.14.11,2.13-.34.15-.6-1.17Z"/></g></g></svg>