<svg id="Layer_1" data-name="Layer 1" xmlns="http://www.w3.org/2000/svg" viewBox="0 0 760 20"><defs><style>.cls-1{fill:#f0eae7;}</style></defs><path class="cls-1" d="M321.72,17.82l12-.61,1.75.44a42.72,42.72,0,0,1,5.11-.56,85.32,85.32,0,0,0,11.77-1,34.32,34.32,0,0,1,5.18.12c6.39-.24,11.71-.5,17-.63s10.22,1.36,15.74.73l1-1c2,0,3.92,0,5.85.17V13.65l5.24.75q-2.48.63-5.24,1.07c.4,0,.81.39,1.28.39a28,28,0,0,1,4.77,0c4.44,1,9.49.48,14.19,1a137.63,137.63,0,0,0,15.2,0c1.57,0,3.13-.05,4.65-.19a93,93,0,0,1,19,.19c6,.71,6,.71,10.76,0l3,.76c3.7-1.8,9-.22,13.45-1.07a38.25,38.25,0,0,1,13,.29l1.75-.41c4.77.41,9.6.74,14.46,1q4.15-.15,8.21-.51h9.68a6.07,6.07,0,0,0,1.75-.53c1.48.94,4.37.36,8.21.8l3.76,1.5c11.78,0,12.65-.1,15.61-1.82,4,.65,7.6-1.21,11.7-.34l.61,1.12c7.13-.9,14.06,1.26,21.45-.17l4.44,2.42c2.69-.07,5.72.31,7.87-1.21V16.44h10.36l3,1.06a23.85,23.85,0,0,0,7.47-.53,16.86,16.86,0,0,1,7.87-.29c1.48.36,1.61-.19,2.35-.19h8.47l3,1.09h5.38l2.76-1.24c7.53.44,15.07-.56,22.2.66a9.66,9.66,0,0,0,2.28,0,120.08,120.08,0,0,1,15.74-1.07,64.93,64.93,0,0,0,7.47-.49c2.35-.24,5.38.32,8.14.49a13.08,13.08,0,0,0,2.35,0A33.39,33.39,0,0,1,727,15.52a145.46,145.46,0,0,0,14.8.43c1.35,0,3.1-.55,4-.38,4.58.88,9.36.12,14.2.47V0H0V18.11c2.51-.81,5.94-.82,9.36-1a22.61,22.61,0,0,0,9.22-1.62c3.9-.15,7.53.34,10.63-.63a7.15,7.15,0,0,1,1-.51l.54.19-1.34.42v1l12.64.53c2.89-.12,5.11-.31,7.33-.31a72.92,72.92,0,0,0,18.1-1.75c1-.14,2.49,0,4.77,0a15.38,15.38,0,0,0-3.63,1.72l18.16-1a32.28,32.28,0,0,0,12.78-.22c1.88-1,3.43-1.94,5.18-2.81.13-.1,1.34.17,2.22.17l-1.75.7,2.22,2.43c3.83.87,4.78-.85,7.4-1.05a6.34,6.34,0,0,1,1-.5l.54.19-1.35.41v1.14h10.22l1.82-1.24,1.35,1.41,4.64-.78,1.95.63c1.41-.65,4.5-.65,5.24-1.64l.34.63c4.71,2,11.84.17,16.81,1.57,3.1-1.36,8.41.32,11.3-1l5.12,1a76.19,76.19,0,0,0,15.67-2.93c.74-.76,1.41-1.53,5.18-1.05q-2.44.62-5.18,1.05a13.53,13.53,0,0,0-1.68,2.42l9.68,2.13L205,16h9.29l3,1.09h51.46q8.94.12,17.82.58a11.51,11.51,0,0,1,2.56.73c5-1.89,11.3-1.34,16-1.34l7.39,3,6.33-.78ZM117.86,12.39l-9.42,1.72a20.41,20.41,0,0,1,1.07-2,5.28,5.28,0,0,1,1.69-1.62c2.89.19,1.41-1.17,3.49-1.17l.54.95,5.25.36-4.31.73Zm11.77.83H122.9c1.19-.91,4.11-1.34,6.73-1Zm5.85.19h-.54v-.58h.54Zm24.48,1h-.81l-.6-1H160Zm13.86.14c2.55-1.43,2.55-1.43,6.72-1.74C177.78,13.55,176.71,14.4,173.82,14.52Zm21.92-.24H194v-.19h1.75Zm5.92.2h-.54v-.59h.54Zm19.24,0h-.54v-.59h.54Z"/></svg>