<svg id="Layer_1" data-name="Layer 1" xmlns="http://www.w3.org/2000/svg" viewBox="0 0 760 20"><defs><style>.cls-1{fill:#00b095;}</style></defs><path class="cls-1" d="M185.75,1.64c-6.8.91-10.9,2.3-16.55,1.16l-6.73,1.05,1.95,1.27c-5.11-.77-8.81-1.3-12.91-.32-.87.21-3.16-.2-4.78-.32-1.07,1.66-1.07,1.66-5.11,1.82L143.24,4l-4.58-.73c-3.83,1.84-5.65,4.12-11.23,5.55-2.2.24-4.45.43-6.72.57-2.58-.05-5.13-.19-7.61-.43l-1.95.59c-.8-1.57,4-1.43,4.31-2,.67-1,4.1-1.26,4.91-2.28l-3.9-.77-1.28,1.18h-5.52l-.53.82-3.77.61L98.64,5.64,95.48,7.26l-1.07-1-5.72,1c-.2-1-.88-1.39-3.43-.82l1.95,2.12c-2.49.73-3.83,1.77-8.34,1.39l-4.17,1.7-.88-.16,1.89-1.68-3.63-.52,1.68-.57c-1-.48-2-1-3-1.46H67.23l2,.84-5.11.16c.13-1.41,3.23-1.66,5.51-2.78.61.92,1.08,1.28,1.08,1.67h2.56l1.95-3.62-2.09-.75h-13L55.73,1.27c-4.17.1-4.37,1.55-6.39,1.94-10,.55-18.63-.62-27.64-.48H0V20H760V3.32c-.35,0-.71,0-1.06.05-6.73.09-13.45.41-20.18.64l-.47,1.52a43.9,43.9,0,0,0-5.38,0,20.79,20.79,0,0,0-3.77,1.14l-6.25-1.16-6,.5c-1.68.16-3.49.36-6.72.73L714.62,4l-1.08-.25-5.18,2.27c-3.23,0-6.79-.09-10,0s-6.26.37-9.42.55l-.81-1.91-2,1.41-1.21-1c-3.16-.76-6,1.11-9.28,0l2.15-1.83L671.1,4.92h-7.67l-4.24,1.93c-1.14-.89-2-1.48-2.69-2.09a6.94,6.94,0,0,1,1.55-.44V2.87c-9.5-.81-19.54.27-25.9,2.8l-2.42-1.6-1.27,1.26c-3.91,0-6.39,1.68-11.17.84L622.67,5c-.2-.39-.81-.82-.81-1.23h-.94l-4.77,1.93-6.73-.27.54,1,2.62.29-3.36,3L602,8.78c1.71-.33,3.33-.71,4.84-1.13a2.87,2.87,0,0,0,1.22-1c-2.76.62-4.91,1.28-7.74.94A22.16,22.16,0,0,1,597,9.7V7.46h3.36a1,1,0,0,1-.4-1l4.84-.25V5.53c-4.71-.75-8.41.59-13,.73l.33-1.41L596,4.57,591.6,3.8H586l-2.16,1.53,5.72-.55a3.12,3.12,0,0,0,0,1.14c.2.48.88,1,.88,1.5l-3.17.14-.87-1.67h-2.62V5.44c-3.5-.3-3-1.68-5.79-2.28A58.72,58.72,0,0,0,566,4.23c-.34,0-.94-.16-1.48-.16l1.21-.84L559,2,551,2.87l-3.23,1.36h-3.83a7.83,7.83,0,0,0-1.95-1,25.53,25.53,0,0,0-3.23-.48L535.3,4c5.11,0,4.77,1,6.32,2-4.84-.27-5.92-1.46-7.87-2.55-3,.48-5.45.93-8.41,1.32s-6.05.66-9.08,1a11.17,11.17,0,0,0-6.72-3.16c-3.77-.48-7.67-.82-11.57-1.23L493.8,2.66H490L474.7,6.26l-6.39-.75,3.83-1.6-2.22-.75a73.86,73.86,0,0,1-10.09,0c-3.09-.47-6.45-.22-9.48-.91a19.9,19.9,0,0,0-7.53.25,15.19,15.19,0,0,1-5.18.14c-2.16-.71-4.44-.46-6.73-.46-9.15-.27-17.89,1-26.9.55a170.53,170.53,0,0,1-19.51.57c-1.71.11-3.38.28-5,.52a16.59,16.59,0,0,0-7.13-.38l-.8.79-9.08-1.82-.88-1a142.14,142.14,0,0,1-16.95.91c-5.58,0-11,1-15.94,0-2.06.18-4.15.32-6.25.43-2.63.16-5.72-.21-7.87.16a20.85,20.85,0,0,1-5.05.41c-2.08-.16-3.36.63-5.45.27-1.57-.25-3.22-.45-4.91-.59-1-.1-1.95-.16-2.95-.18a63.34,63.34,0,0,0-13.46,1l-5.31-1c-5.26,0-10.52-.12-15.67-.48a109.55,109.55,0,0,0-13,.37c-11.44.2-23,0-34.44,0-.27-1.76-4-1.55-6.32-1.76L207,0h-3.7l-3,1.64ZM685.49,6.69h1.62v.18h-1.62Zm-9.28-.55h1.61v.19h-1.61Zm-93.29-.43.61.21V7h-3.1Z"/></svg>