<svg id="Layer_1" data-name="Layer 1" xmlns="http://www.w3.org/2000/svg" viewBox="0 0 1950 30"><defs><style>.cls-1{fill:#fff;}</style></defs><path class="cls-1" d="M1428.26,28.28,1435,26c1.88.27,3.84.45,5.86.55,3.49,0,2.82,1.36,5.24,1.72,5.79-.16,6.73-1.86,8.68-3.24,3-.43,5.85-1.08,9.08-.11a16.48,16.48,0,0,0,2.35,0h12.92c4.11-.08,8.2-.27,12.24-.55q4.89-.45,9.62-1.08l-2.09-2,4.91.78q3.23-.84,6.73-1.54a25.26,25.26,0,0,1,4.23,0l-2.35,1.77,2.35.8,5-2.13h4.51l8.47-2.3,1.82.57,5.92-.59c-2.14,1.58-6.46,2.68-11.51,2.94V23.5l20.92,1.08c9.15-.74,18.16-1.52,26.91-2.53a77.58,77.58,0,0,1,8.07,0l3,1.72h8.34l2.15.83,9.35.8,4.84-.82.54-.79c7.26-.36,14.6.42,21.32-.62a6.2,6.2,0,0,1,2.15.16c1.82.67,4,.33,5.32.33l7.53,1.74c6.33,0,12.65-.15,18.9-.5a154,154,0,0,1,16.08,0,29.57,29.57,0,0,0,9.88-1.08l2.42.62,2.7-.58,4,1.36c4.31.62,8.61-.35,11.64.62l6.39-.62,1.88,1.31c5.18,0,9.76.21,13.45-1.2a132.51,132.51,0,0,0,20.18-.57c3.7-.23,6.73-.58,10,.23l4.58-1.4,7.94,1.28,6.72-.87c1.63.15,3.3.26,5,.32,10.63.05,20.45-.92,30.8-.55a57.66,57.66,0,0,0,7.2,0c2.09-.18,4,.53,5.45.3s4,.3,5.78.48l.88,1.63,4.17-.71,4.23.6c-4.1-1.68-4.91-4.18-11.23-5.13l-3.36,1.8-3.16-1.08-2.22.43-4.78-.85,6.73-.34c-1.21-1.7-7.2-1.61-8.68-3.15l.47-3.31c2.09,1.81,3.5,3.08,5.12,4.32h2.35V17.31l-3.09-.37,1-1.7-3.36-2.3,1.55-1.33,6.32.78.61-.3,4.23,1.75,4,.16.6.92c3.23.25,6.26.28,9.29.51,4.23.23,8.47,1.24,13.45.23,3-.58,7.53,0,11.37-.58,1.41-.23,4.1.35,6.72.6l2.56-1.29c3.43.53,3.43.53,9.82,0l9.15,2.53,5.91-.3,1.55,1.52,2.76-1.56a90.07,90.07,0,0,1,11.43,1.19c3.77,1,8.55-.3,11.3.88l5-1,.61.41-1.55,1.34h4l1.48-1H1950V0H0V18.44H.45v.18H0v4.49l.18,0H0V24l.32-.07.53-.69,1.89.55,4-1.24c6.92,2.05,14.59,1,21.32,1.27l4.84-2.12h9.75v2.94a9.72,9.72,0,0,0,6.39.58v-.74c-.47-.89-2.76-1-3.16-1.93l7.8.51.88-.9,2.49.6,2.75-.55.81.87,3.77-.71,2.76,2.3,3.63.69,2.49-.85,8.94-1L81.1,25.17c4,.1,4.3-.94,5.51-1.56L89.1,25l12,.6c3.36-1,8.07,0,11.43-.51l3.9-1.21,3.7,1.15c9.29.25,17.63.41,26,.75a77.52,77.52,0,0,1,8,1.18c2.56-1.08,6.39-1.06,10.22-1.27a23.61,23.61,0,0,0,9.22-1.54c3.9-.14,7.53.32,10.63-.6a7.19,7.19,0,0,1,1-.48l.54.19-1.34.39v.94l12.64.5c2.89-.11,5.11-.29,7.33-.29a77.1,77.1,0,0,0,18.1-1.66c1-.14,2.49,0,4.77,0a15.46,15.46,0,0,0-3.63,1.63l18.16-.94a34,34,0,0,0,12.78-.21c1.88-1,3.43-1.84,5.18-2.66.13-.1,1.34.16,2.22.16l-1.75.66,2.22,2.3c3.83.83,4.78-.8,7.4-1a7.35,7.35,0,0,1,1-.48l.54.19L270,23.2v1.08h10.22l1.82-1.18,1.35,1.34,4.64-.74,1.95.6c1.41-.62,4.5-.62,5.24-1.56l.34.59c4.71,1.93,11.84.17,16.81,1.5,3.1-1.29,8.41.3,11.3-1l5.12,1A79.42,79.42,0,0,0,344.49,22c.74-.71,1.41-1.44,5.18-1q-2.44.59-5.18,1a13.56,13.56,0,0,0-1.68,2.3l9.68,2L360,24.64h9.29l3,1h51.46q8.94.12,17.82.55a11.75,11.75,0,0,1,2.56.69c5-1.79,11.3-1.26,16-1.26l7.39,2.8,6.33-.74,2.82-1.33,12-.57,1.75.41a42.83,42.83,0,0,1,5.11-.53,90.41,90.41,0,0,0,11.77-.92,34.32,34.32,0,0,1,5.18.12c6.39-.23,11.71-.49,17-.6s10.22,1.29,15.74.69l1-1c2,0,3.92,0,5.85.16V22.44l5.24.71q-2.48.59-5.24,1c.4,0,.81.37,1.28.37a30.22,30.22,0,0,1,4.77,0c4.44,1,9.49.46,14.19,1a142.72,142.72,0,0,0,15.2,0c1.57,0,3.13,0,4.65-.18a98.31,98.31,0,0,1,19,.18c6,.67,6,.67,10.76,0l3,.72c3.7-1.7,9-.21,13.45-1a40.39,40.39,0,0,1,13,.27l1.75-.39c4.77.39,9.6.7,14.46.92q4.15-.13,8.21-.48h9.68a6,6,0,0,0,1.75-.51c1.48.9,4.37.35,8.21.76l3.76,1.43c11.78,0,12.65-.1,15.61-1.73,4,.62,7.6-1.15,11.7-.32l.61,1.06c7.13-.85,14.06,1.19,21.45-.16l4.44,2.3c2.69-.07,5.72.29,7.87-1.15V25.08h10.36l3,1a25.14,25.14,0,0,0,7.47-.5,17.69,17.69,0,0,1,7.87-.28c1.48.35,1.61-.18,2.35-.18h8.47l3,1h5.38L811.68,25c7.53.41,15.07-.53,22.2.62a9.66,9.66,0,0,0,2.28,0,127.58,127.58,0,0,1,15.74-1,69.84,69.84,0,0,0,7.47-.46c2.35-.23,5.38.3,8.14.46a13.08,13.08,0,0,0,2.35,0A35,35,0,0,1,882,24.21c4.86.37,9.84.51,14.8.41,1.35,0,3.1-.53,4-.37,4.64.85,9.48.1,14.39.46l2.83.92h9.21l-1.07-.5c-.2-.07-.54-.07-.54-.21v-.14l10.69-.5a98.13,98.13,0,0,0,16.62,0,53.15,53.15,0,0,1,14.39.32c4.31-1.06,9.22-.3,14.39-.62l2.36,1.26a51.15,51.15,0,0,1,14.06-.3,14,14,0,0,0,3.7.16c3-1.05,6.32.19,9.75-.62s6.72-.2,9.08-.43c3.7.59,6.59,1.51,10,1a132.4,132.4,0,0,1,14.06-1c4.78-.43,9.72-.63,14.66-.6a34.56,34.56,0,0,0,4.51-.32l2.62.89c5.31-.13,11.3.53,15.81-1h5.58l.74.74c2.08-.16,4.37-.42,5.31-.16a11.48,11.48,0,0,0,6.26,0,61.12,61.12,0,0,1,7.13-.69l3.76,1.61c7.88-.05,15.76.13,23.54.55,6.35.42,12.78.67,19.24.73,2.83.62,2.36,2.67,8.14,2l7.67-2.64c4.84,0,9.88.09,14.53,0s9.21-.51,13.85-.51a95.62,95.62,0,0,0,16.62-1,65.62,65.62,0,0,1,7.12-.48l1,.92,2.35-.12.47-1.49,12.18-1.2,2.28,1.24-5.92,1.57a34.42,34.42,0,0,0,11.51,1l2.42-.83,10.83-.94.87-.92c2.69-.23,4.57,1.2,7.33.3l.47-1.38,7.13-.14,1.14-1,2.9.73,3.63-1.17h6.73c2.55,1.4-2.22,1.73-2.7,2.65l3.64,1.51,28.38.85c5,2.12,13.18,1.66,18.5,2.3,3.76-.16,6.66-.48,8.54-.16,1.69.2,3.46.33,5.25.37,4.37.34,7-.94,11.09-1.2l5.32,3.89h5l8.48-3.24H1395a3.48,3.48,0,0,1,1,.25l.54.67c5.71.94,11.23-1.31,16.07.13L1417,27c.6,1.17-.94,2.5,3.5,3l7.8-.76ZM57,20.74l-4.31.76-1.34-.44-6.73.57-.74-.41,2.9-.35-.68-.25L57,20.19Zm215.91.5-9.42,1.63a19.32,19.32,0,0,1,1.07-1.9,5.13,5.13,0,0,1,1.69-1.54c2.89.18,1.41-1.11,3.49-1.11l.54.9,5.25.34-4.31.69Zm11.77.78H277.9c1.19-.86,4.11-1.27,6.73-.94Zm5.85.19h-.54v-.55h.54Zm24.48.92h-.81l-.6-.92H315Zm13.86.14c2.55-1.36,2.55-1.36,6.72-1.66C332.78,22.35,331.71,23.15,328.82,23.27ZM350.74,23H349v-.19h1.75Zm5.92.18h-.54v-.55h.54Zm19.24,0h-.54v-.55h.54Z"/></svg>