<svg id="Layer_1" data-name="Layer 1" xmlns="http://www.w3.org/2000/svg" viewBox="0 0 1950 30"><defs><style>.cls-1{fill:#00b095;}</style></defs><polygon class="cls-1" points="1850.34 11.17 1850.25 11.18 1850.26 11.2 1850.34 11.17"/><path class="cls-1" d="M485.82,5.82c-5.31-.83-10.29.87-15.33,0-3.5-1-7.06-2.33-12.58-1a7.13,7.13,0,0,1-2.35,0c-3.84-.94-8.14-.37-12-.55L441,5l3.09,1.13L441.84,7a5.33,5.33,0,0,0-1.22-.39H424.35l-3.9-1.33-7.67.41a18,18,0,0,0-2.22-.46c-1,0-1.93,0-2.89,0l-2.76,1.13H374.24a25.65,25.65,0,0,1-10,1l-9-2.69,6.33-2.3-7.2.62-1.14-.37-2.69.88v3A44.24,44.24,0,0,0,341.08,6l-8.81,1.79-1.89-1.33c-2.69.25-4.3.71-3.43,1.72a2.61,2.61,0,0,1,1.28.72l-5.18.69c.2-.46-.4-.74.54-1s2.36-.44,3.16-.67h-5.11l-3.56,1.61c.4-1.49.2-2.53-3.57-2.71-1.48.35-1.34,1.08-3.9,1.29s-1.88,1.81-5.31,2v.13L301.8,8.9l-2.42,1.31-3-1.61L289.62,8l-7.73.49-1.21-1.11h-5.45l-1.61,1.34L269,7.4,262.25,9l-.87-1.79-7.34.9c-.4,1.12-2.75,1.56-5,2.3l-8.68-.95,1.82-1.17-2-.87-8.27,1-2.29-2.07h-15.2L210.19,5a324.37,324.37,0,0,1-41.5,1.27c-.67-1.06-2.22-1.82-6.05-1.54a10,10,0,0,0-1.55.53,8.46,8.46,0,0,0-1.21.8c-9,.85-16.95,2.09-25.49,3.15l1.81-2.6a11.16,11.16,0,0,0-6.72.58,18.06,18.06,0,0,1-2.29.41L124.5,6.34c-3,0-6.12.39-7.74,0-5.17-1.24-8.74.19-12.44.76A78.39,78.39,0,0,0,95,9.59c-.71.1-1.45.18-2.22.22L87.37,8.62h-3l-3.76.14c2.48,1.77,2.48,1.77-3.17,2.76l1.35-1.8a45.12,45.12,0,0,0-5-.5,58,58,0,0,0-5.92.57V7.17l-1.54.42L65.11,5.84,54.62,10.16H49.17l5.24-.94H47.69c-1.15.73-1.21,1.84-5.58,1.47l3.16-1.24V6.62l-2.16-.69-9,.71c-3,2-9.89,1.75-15.33,2.53L17.29,8l-2.36.86,1.95.69L11,10.25a63.57,63.57,0,0,0-6.39-.32A34.6,34.6,0,0,0,0,10.79V30H1950V8l-3.28.63L1943,7.86l-2.09,1-6.72-.3c-1.21,1.15-3.43,1.36-7.13.79l4.77-2.12-5.85.78A76.78,76.78,0,0,0,1910,6.39l-2.42,2.18-1.35-.41-6,.74-5.72-.17L1897,10.3h-4.84a7.35,7.35,0,0,1-1,.48l-.54-.18,1.35-.39a16,16,0,0,1,1.61-1h-6.25l-4.78,2.42V9.79c1.25-.38,2.42-.78,3.5-1.22a2.86,2.86,0,0,0,1.07-1.19l-9.55.8v1l-5.24,1.77-3.3-2.3h-2.76c-2.42.85-4.3,1.52-6.25,2.14-.2.05-.88-.21-1.55-.21l1.55-.64-3.63-1-5.65,3-.42-.71-3.89,1.37-.6-1.08,4.48-.31-.65-1.11h-5.18l-6.73,2.14-3.7-2.3,2.09-2.3a9,9,0,0,0-6.12-1c-.61.09-1.28.35-1.68.35-7-.94-14.53-.19-21.26-.42a34.65,34.65,0,0,0-5.58,0,39,39,0,0,1-13.45,0,18.37,18.37,0,0,0-3.77.16c-2.89.28-5.58.72-8.61.88s-6.12-.55-9.14,0a64.25,64.25,0,0,0-13.86-.51c-6.73.09-13.45.42-20.18.65L1732,9.29a43.9,43.9,0,0,0-5.38,0,20,20,0,0,0-3.77,1.15l-6.25-1.18-6,.51c-1.68.16-3.5.37-6.72.73l4.43-2.73-1.07-.25L1702,9.81c-3.23,0-6.79-.09-10,0s-6.25.37-9.41.56l-.81-1.93-2,1.42-1.21-1c-3.16-.76-6,1.12-9.28,0L1671.49,7l-6.72,1.68h-7.67l-4.24,1.95c-1.14-.9-2-1.49-2.69-2.12a6.94,6.94,0,0,1,1.55-.43V6.6c-9.5-.82-19.54.28-25.9,2.82l-2.42-1.6-1.28,1.26c-3.9,0-6.39,1.7-11.16.85l5.38-1.17c-.2-.39-.81-.83-.81-1.24h-.94l-4.77,2-6.73-.28.54,1,2.62.3-3.36,3-7.2-.92c1.71-.33,3.32-.72,4.84-1.15a2.78,2.78,0,0,0,1.21-1c-2.75.62-4.91,1.29-7.73.94a21.43,21.43,0,0,1-3.36,2.16V11.24H1594a1,1,0,0,1-.4-1l4.84-.25V9.29c-4.71-.76-8.41.59-13,.73l.33-1.42,3.9-.28-4.43-.78h-5.65l-2.16,1.54,5.72-.55a3.17,3.17,0,0,0,0,1.15c.2.48.87,1,.87,1.51l-3.16.14L1580,9.65h-2.62V9.19c-3.5-.29-3-1.7-5.79-2.29A56.62,56.62,0,0,0,1559.71,8c-.34,0-1-.16-1.48-.16l1.21-.86-6.73-1.26-8.07.9L1541.41,8h-3.83a8,8,0,0,0-1.95-1.06,25.53,25.53,0,0,0-3.23-.48L1529,7.75c5.11,0,4.77,1,6.32,2-4.84-.28-5.92-1.47-7.87-2.58-3,.49-5.45,1-8.41,1.34s-6,.66-9.08,1a11.14,11.14,0,0,0-6.72-3.2c-3.77-.48-7.67-.82-11.57-1.24l-4.17,1.29h-3.84L1468.37,10,1462,9.26l3.83-1.61-2.22-.75a77.21,77.21,0,0,1-10.09,0c-3.09-.49-6.46-.23-9.48-.92a19.56,19.56,0,0,0-7.54.25,15.14,15.14,0,0,1-5.17.14c-2.16-.72-4.44-.46-6.73-.46-9.15-.28-17.89,1-26.9.55a168.35,168.35,0,0,1-19.51.57c-1.71.11-3.39.29-5,.53a16.59,16.59,0,0,0-7.13-.39l-.8.81-9.08-1.84-.88-1.06a140,140,0,0,1-17,.92c-5.58,0-11,1.06-15.94,0-2.06.18-4.15.33-6.25.44-2.63.16-5.72-.21-7.87.16a20.4,20.4,0,0,1-5,.41c-2.08-.16-3.36.64-5.45.28-1.58-.25-3.22-.45-4.91-.6-1-.1-2-.16-3-.19a63.28,63.28,0,0,0-13.45,1l-5.31-1c-5.26,0-10.52-.12-15.67-.48a107.47,107.47,0,0,0-13,.36c-11.44.21-23,0-34.44,0-.27-1.77-4-1.56-6.32-1.77l-1.08-.94H1197l-3,1.66h-14.53c-6.79.92-10.89,2.32-16.54,1.17l-6.73,1.06,1.95,1.28c-5.11-.78-8.81-1.31-12.91-.32-.88.21-3.16-.21-4.78-.32-1.07,1.68-1.07,1.68-5.11,1.84l1.62-2.3L1132.33,7c-3.83,1.87-5.65,4.16-11.23,5.61-2.2.24-4.45.43-6.73.58-2.57-.06-5.12-.2-7.6-.44l-2,.6c-.8-1.59,4-1.45,4.31-2.05.67-1,4.1-1.26,4.91-2.3l-3.9-.78-1.28,1.2h-5.52l-.54.82-3.76.63-6.73-1.5L1089.15,11l-1.08-1-5.71,1c-.2-1-.88-1.4-3.43-.82l2,2.13c-2.49.74-3.84,1.8-8.34,1.41l-4.17,1.72-.88-.16,1.89-1.7-3.64-.53,1.69-.58c-1-.48-2-1-3-1.47h-3.57l2,.85-5.11.16c.13-1.42,3.23-1.67,5.51-2.8.61.92,1.08,1.29,1.08,1.68H1067l2-3.66-2.09-.76h-13L1049.4,5c-4.17.09-4.37,1.56-6.39,2-10,.55-18.63-.62-27.64-.48H975.88a63.06,63.06,0,0,1-15.6-1.61,72.4,72.4,0,0,1-13.45,1.59H920.46l-7.73-1.8-3.9,1.77h-63.3L835,4.25l-8.88,2.3A15.42,15.42,0,0,0,821,6.21a13.54,13.54,0,0,1-5.18.29c-6.79-1.28-14.59.33-21.32-1l-5.45,1c-3.16-.76-5.71-.42-9.48-.42s-7.33.05-10.49,0-5.85.88-9,.58-7.61.2-9.89-.53-5.38.09-8.28,0-6.18.64-9.08.37l-6.72-3.2c-3.84-.44-5,.76-7.13,1.36l-5.72,1.88h-4.5l-11.64-3L692.38,6.3a124.18,124.18,0,0,0-23.07.3A46.47,46.47,0,0,0,665,8.41a2.86,2.86,0,0,1,.22.3c.06.16-.88.28-.88,0l.13-.1c-.39-.06.07-.38.07-.68a3.42,3.42,0,0,1,.33.33c.41-.38.41-.49.41-.49a117.14,117.14,0,0,0-15.94-.83c-.55,0-1.09.09-1.61.16L645.16,8h-3.29c-.27,1.06-3.23,1.11-5,1.55-1.45-.36-3-.68-4.57-.95-1.23-.1-2.5-.15-3.77-.14l-.81-1.6L621,7.45c-1.68-1-5.11-.14-7.2-.76V6.07l-7.26-2.46c-2.56.23-5.65,1-9.29,0a12.16,12.16,0,0,0-5.11.34,76.38,76.38,0,0,1-7.73,1.29c-4.17-1.56-8.48,0-12.45.3a82.09,82.09,0,0,0-11.43,2.3l-8-.58-.41-.66-10.56-.72c-3.49-.25-7.46.53-10.69-.48-3.23.88-6.86.46-10.56.46H508.49C506.94,3.4,501.16,2,497,0l-2.56,3.08Zm-247,3.81-2.62,0V9.36l2.62-.21Zm63.36,1.56L304.62,10l.68.23v1Zm12.78,0h-4.73l.43.58-4.58.32,3.77-1.4.37.5,4.74-.78ZM1923.05,9.26h2.69v.28l-2.69.21Zm-2.42-.85c-.2,1.06-1.28,1.43-4.71,1.61Zm-18.7,1.5h1.61v.18h-1.61Zm-222.77.55h1.62v.18h-1.62Zm-9.28-.55h1.61v.18h-1.61Zm-93.29-.44.6.21v1.08h-3.09Zm-833.7,2.09h1.62v.19h-1.62ZM556.51,8.67l-2.08,1.08-.61-1.08Z"/><polygon class="cls-1" points="310.21 11.19 310.25 11.19 310.24 11.19 310.21 11.19"/><path class="cls-1" d="M664.53,8.62l.46-.21-.13-.15-.4.35Z"/></svg>